<svg width="500" height="500" viewBox="0 0 500 500" fill="none" xmlns="http://www.w3.org/2000/svg">
<rect width="500" height="500" fill="white"/>
<path d="M268.235 263.063C257.463 276.925 226.859 304.754 212.528 317.543C209.893 319.894 208.576 321.069 207.033 321.532C205.694 321.934 204.206 321.934 202.867 321.532C201.325 321.069 200.008 319.894 197.373 317.543C183.042 304.754 152.438 276.925 141.665 263.063C127.403 244.71 129.96 218.765 148.122 203.248C166.283 187.73 190.455 192.288 204.95 209.235C219.446 192.288 243.305 187.893 261.779 203.248C266.869 207.478 270.727 212.524 273.347 218M230.375 255.375H223.125L212.25 277.125L197.75 233.625L186.875 255.375H179.625" stroke="black" stroke-width="6" stroke-linecap="round" stroke-linejoin="round"/>
<path d="M286.784 246.888H276.308L274.508 252H270.224L279.188 226.944H283.94L292.904 252H288.584L286.784 246.888ZM285.632 243.54L281.564 231.912L277.46 243.54H285.632ZM295.434 242.064C295.434 240.024 295.842 238.236 296.658 236.7C297.498 235.14 298.65 233.94 300.114 233.1C301.578 232.26 303.258 231.84 305.154 231.84C307.554 231.84 309.534 232.416 311.094 233.568C312.678 234.696 313.746 236.316 314.298 238.428H309.87C309.51 237.444 308.934 236.676 308.142 236.124C307.35 235.572 306.354 235.296 305.154 235.296C303.474 235.296 302.13 235.896 301.122 237.096C300.138 238.272 299.646 239.928 299.646 242.064C299.646 244.2 300.138 245.868 301.122 247.068C302.13 248.268 303.474 248.868 305.154 248.868C307.53 248.868 309.102 247.824 309.87 245.736H314.298C313.722 247.752 312.642 249.36 311.058 250.56C309.474 251.736 307.506 252.324 305.154 252.324C303.258 252.324 301.578 251.904 300.114 251.064C298.65 250.2 297.498 249 296.658 247.464C295.842 245.904 295.434 244.104 295.434 242.064ZM323.176 235.512V246.492C323.176 247.236 323.344 247.776 323.68 248.112C324.04 248.424 324.64 248.58 325.48 248.58H328V252H324.76C322.912 252 321.496 251.568 320.512 250.704C319.528 249.84 319.036 248.436 319.036 246.492V235.512H316.696V232.164H319.036V227.232H323.176V232.164H328V235.512H323.176ZM333.87 229.536C333.126 229.536 332.502 229.284 331.998 228.78C331.494 228.276 331.242 227.652 331.242 226.908C331.242 226.164 331.494 225.54 331.998 225.036C332.502 224.532 333.126 224.28 333.87 224.28C334.59 224.28 335.202 224.532 335.706 225.036C336.21 225.54 336.462 226.164 336.462 226.908C336.462 227.652 336.21 228.276 335.706 228.78C335.202 229.284 334.59 229.536 333.87 229.536ZM335.886 232.164V252H331.782V232.164H335.886ZM348.942 248.328L354.558 232.164H358.914L351.354 252H346.458L338.934 232.164H343.326L348.942 248.328ZM380.196 241.596C380.196 242.34 380.148 243.012 380.052 243.612H364.896C365.016 245.196 365.604 246.468 366.66 247.428C367.716 248.388 369.012 248.868 370.548 248.868C372.756 248.868 374.316 247.944 375.228 246.096H379.656C379.056 247.92 377.964 249.42 376.38 250.596C374.82 251.748 372.876 252.324 370.548 252.324C368.652 252.324 366.948 251.904 365.436 251.064C363.948 250.2 362.772 249 361.908 247.464C361.068 245.904 360.648 244.104 360.648 242.064C360.648 240.024 361.056 238.236 361.872 236.7C362.712 235.14 363.876 233.94 365.364 233.1C366.876 232.26 368.604 231.84 370.548 231.84C372.42 231.84 374.088 232.248 375.552 233.064C377.016 233.88 378.156 235.032 378.972 236.52C379.788 237.984 380.196 239.676 380.196 241.596ZM375.912 240.3C375.888 238.788 375.348 237.576 374.292 236.664C373.236 235.752 371.928 235.296 370.368 235.296C368.952 235.296 367.74 235.752 366.732 236.664C365.724 237.552 365.124 238.764 364.932 240.3H375.912Z" fill="black"/>
</svg>
