<svg width="500" height="500" viewBox="0 0 500 500" fill="none" xmlns="http://www.w3.org/2000/svg">
<rect width="500" height="500" fill="white"/>
<g clip-path="url(#clip0_19_516)">
<path d="M155.334 220.667V247.333M155.334 274V247.333M174.19 228.477L136.477 266.19M155.334 247.333L128.667 247.333M174.19 266.19L136.477 228.477" stroke="black" stroke-width="6" stroke-linecap="round" stroke-linejoin="round"/>
</g>
<path d="M209.17 257.19H193.165L190.415 265H183.87L197.565 226.72H204.825L218.52 265H211.92L209.17 257.19ZM207.41 252.075L201.195 234.31L194.925 252.075H207.41ZM235.475 265.495C233.091 265.495 230.946 265.073 229.04 264.23C227.17 263.35 225.685 262.177 224.585 260.71C223.485 259.207 222.898 257.538 222.825 255.705H229.315C229.425 256.988 230.03 258.07 231.13 258.95C232.266 259.793 233.678 260.215 235.365 260.215C237.125 260.215 238.481 259.885 239.435 259.225C240.425 258.528 240.92 257.648 240.92 256.585C240.92 255.448 240.37 254.605 239.27 254.055C238.206 253.505 236.501 252.9 234.155 252.24C231.881 251.617 230.03 251.012 228.6 250.425C227.17 249.838 225.923 248.94 224.86 247.73C223.833 246.52 223.32 244.925 223.32 242.945C223.32 241.332 223.796 239.865 224.75 238.545C225.703 237.188 227.06 236.125 228.82 235.355C230.616 234.585 232.67 234.2 234.98 234.2C238.426 234.2 241.195 235.08 243.285 236.84C245.411 238.563 246.548 240.928 246.695 243.935H240.425C240.315 242.578 239.765 241.497 238.775 240.69C237.785 239.883 236.446 239.48 234.76 239.48C233.11 239.48 231.845 239.792 230.965 240.415C230.085 241.038 229.645 241.863 229.645 242.89C229.645 243.697 229.938 244.375 230.525 244.925C231.111 245.475 231.826 245.915 232.67 246.245C233.513 246.538 234.76 246.923 236.41 247.4C238.61 247.987 240.406 248.592 241.8 249.215C243.23 249.802 244.458 250.682 245.485 251.855C246.511 253.028 247.043 254.587 247.08 256.53C247.08 258.253 246.603 259.793 245.65 261.15C244.696 262.507 243.34 263.57 241.58 264.34C239.856 265.11 237.821 265.495 235.475 265.495ZM261.169 239.81V256.585C261.169 257.722 261.426 258.547 261.939 259.06C262.489 259.537 263.406 259.775 264.689 259.775H268.539V265H263.589C260.766 265 258.603 264.34 257.099 263.02C255.596 261.7 254.844 259.555 254.844 256.585V239.81H251.269V234.695H254.844V227.16H261.169V234.695H268.539V239.81H261.169ZM302.093 249.105C302.093 250.242 302.02 251.268 301.873 252.185H278.718C278.902 254.605 279.8 256.548 281.413 258.015C283.027 259.482 285.007 260.215 287.353 260.215C290.727 260.215 293.11 258.803 294.503 255.98H301.268C300.352 258.767 298.683 261.058 296.263 262.855C293.88 264.615 290.91 265.495 287.353 265.495C284.457 265.495 281.853 264.853 279.543 263.57C277.27 262.25 275.473 260.417 274.153 258.07C272.87 255.687 272.228 252.937 272.228 249.82C272.228 246.703 272.852 243.972 274.098 241.625C275.382 239.242 277.16 237.408 279.433 236.125C281.743 234.842 284.383 234.2 287.353 234.2C290.213 234.2 292.762 234.823 294.998 236.07C297.235 237.317 298.977 239.077 300.223 241.35C301.47 243.587 302.093 246.172 302.093 249.105ZM295.548 247.125C295.512 244.815 294.687 242.963 293.073 241.57C291.46 240.177 289.462 239.48 287.078 239.48C284.915 239.48 283.063 240.177 281.523 241.57C279.983 242.927 279.067 244.778 278.773 247.125H295.548ZM314.534 239.095C315.45 237.555 316.66 236.363 318.164 235.52C319.704 234.64 321.519 234.2 323.609 234.2V240.69H322.014C319.557 240.69 317.687 241.313 316.404 242.56C315.157 243.807 314.534 245.97 314.534 249.05V265H308.264V234.695H314.534V239.095ZM332.562 230.68C331.425 230.68 330.472 230.295 329.702 229.525C328.932 228.755 328.547 227.802 328.547 226.665C328.547 225.528 328.932 224.575 329.702 223.805C330.472 223.035 331.425 222.65 332.562 222.65C333.662 222.65 334.597 223.035 335.367 223.805C336.137 224.575 336.522 225.528 336.522 226.665C336.522 227.802 336.137 228.755 335.367 229.525C334.597 230.295 333.662 230.68 332.562 230.68ZM335.642 234.695V265H329.372V234.695H335.642ZM354.874 265.495C352.491 265.495 350.346 265.073 348.439 264.23C346.569 263.35 345.084 262.177 343.984 260.71C342.884 259.207 342.297 257.538 342.224 255.705H348.714C348.824 256.988 349.429 258.07 350.529 258.95C351.666 259.793 353.077 260.215 354.764 260.215C356.524 260.215 357.881 259.885 358.834 259.225C359.824 258.528 360.319 257.648 360.319 256.585C360.319 255.448 359.769 254.605 358.669 254.055C357.606 253.505 355.901 252.9 353.554 252.24C351.281 251.617 349.429 251.012 347.999 250.425C346.569 249.838 345.322 248.94 344.259 247.73C343.232 246.52 342.719 244.925 342.719 242.945C342.719 241.332 343.196 239.865 344.149 238.545C345.102 237.188 346.459 236.125 348.219 235.355C350.016 234.585 352.069 234.2 354.379 234.2C357.826 234.2 360.594 235.08 362.684 236.84C364.811 238.563 365.947 240.928 366.094 243.935H359.824C359.714 242.578 359.164 241.497 358.174 240.69C357.184 239.883 355.846 239.48 354.159 239.48C352.509 239.48 351.244 239.792 350.364 240.415C349.484 241.038 349.044 241.863 349.044 242.89C349.044 243.697 349.337 244.375 349.924 244.925C350.511 245.475 351.226 245.915 352.069 246.245C352.912 246.538 354.159 246.923 355.809 247.4C358.009 247.987 359.806 248.592 361.199 249.215C362.629 249.802 363.857 250.682 364.884 251.855C365.911 253.028 366.442 254.587 366.479 256.53C366.479 258.253 366.002 259.793 365.049 261.15C364.096 262.507 362.739 263.57 360.979 264.34C359.256 265.11 357.221 265.495 354.874 265.495ZM385.244 249.875L399.214 265H390.744L379.524 251.965V265H373.254V224.3H379.524V247.95L390.524 234.695H399.214L385.244 249.875Z" fill="black"/>
<defs>
<clipPath id="clip0_19_516">
<rect width="64" height="64" fill="white" transform="translate(118 218)"/>
</clipPath>
</defs>
</svg>
