<svg width="500" height="500" viewBox="0 0 500 500" fill="none" xmlns="http://www.w3.org/2000/svg">
<rect width="500" height="500" fill="white"/>
<path d="M93.1667 274.167C79.3595 274.167 68.1667 262.974 68.1667 249.167C68.1667 235.36 79.3595 224.167 93.1667 224.167C102.776 224.167 112 228 115.303 237.538C115.699 237.513 116.098 237.5 116.5 237.5C126.625 237.5 134.833 245.708 134.833 255.833C134.833 265.959 126.625 274.167 116.5 274.167C107.995 274.167 101.908 274.167 93.1667 274.167Z" stroke="black" stroke-width="5" stroke-linecap="round" stroke-linejoin="round"/>
<path d="M144.035 249.805C144.035 246.065 144.897 242.71 146.62 239.74C148.38 236.77 150.745 234.46 153.715 232.81C156.722 231.123 160.003 230.28 163.56 230.28C167.63 230.28 171.242 231.288 174.395 233.305C177.585 235.285 179.895 238.108 181.325 241.775H173.79C172.8 239.758 171.425 238.255 169.665 237.265C167.905 236.275 165.87 235.78 163.56 235.78C161.03 235.78 158.775 236.348 156.795 237.485C154.815 238.622 153.257 240.253 152.12 242.38C151.02 244.507 150.47 246.982 150.47 249.805C150.47 252.628 151.02 255.103 152.12 257.23C153.257 259.357 154.815 261.007 156.795 262.18C158.775 263.317 161.03 263.885 163.56 263.885C165.87 263.885 167.905 263.39 169.665 262.4C171.425 261.41 172.8 259.907 173.79 257.89H181.325C179.895 261.557 177.585 264.38 174.395 266.36C171.242 268.34 167.63 269.33 163.56 269.33C159.967 269.33 156.685 268.505 153.715 266.855C150.745 265.168 148.38 262.84 146.62 259.87C144.897 256.9 144.035 253.545 144.035 249.805ZM194.934 228.3V269H188.664V228.3H194.934ZM216.311 269.495C213.451 269.495 210.866 268.853 208.556 267.57C206.246 266.25 204.431 264.417 203.111 262.07C201.791 259.687 201.131 256.937 201.131 253.82C201.131 250.74 201.809 248.008 203.166 245.625C204.523 243.242 206.374 241.408 208.721 240.125C211.068 238.842 213.689 238.2 216.586 238.2C219.483 238.2 222.104 238.842 224.451 240.125C226.798 241.408 228.649 243.242 230.006 245.625C231.363 248.008 232.041 250.74 232.041 253.82C232.041 256.9 231.344 259.632 229.951 262.015C228.558 264.398 226.651 266.25 224.231 267.57C221.848 268.853 219.208 269.495 216.311 269.495ZM216.311 264.05C217.924 264.05 219.428 263.665 220.821 262.895C222.251 262.125 223.406 260.97 224.286 259.43C225.166 257.89 225.606 256.02 225.606 253.82C225.606 251.62 225.184 249.768 224.341 248.265C223.498 246.725 222.379 245.57 220.986 244.8C219.593 244.03 218.089 243.645 216.476 243.645C214.863 243.645 213.359 244.03 211.966 244.8C210.609 245.57 209.528 246.725 208.721 248.265C207.914 249.768 207.511 251.62 207.511 253.82C207.511 257.083 208.336 259.613 209.986 261.41C211.673 263.17 213.781 264.05 216.311 264.05ZM265.684 238.695V269H259.414V265.425C258.424 266.672 257.123 267.662 255.509 268.395C253.933 269.092 252.246 269.44 250.449 269.44C248.066 269.44 245.921 268.945 244.014 267.955C242.144 266.965 240.659 265.498 239.559 263.555C238.496 261.612 237.964 259.265 237.964 256.515V238.695H244.179V255.58C244.179 258.293 244.858 260.383 246.214 261.85C247.571 263.28 249.423 263.995 251.769 263.995C254.116 263.995 255.968 263.28 257.324 261.85C258.718 260.383 259.414 258.293 259.414 255.58V238.695H265.684ZM271.867 253.71C271.867 250.667 272.49 247.972 273.737 245.625C275.02 243.278 276.744 241.463 278.907 240.18C281.107 238.86 283.545 238.2 286.222 238.2C288.202 238.2 290.145 238.64 292.052 239.52C293.995 240.363 295.535 241.5 296.672 242.93V228.3H302.997V269H296.672V264.435C295.645 265.902 294.215 267.112 292.382 268.065C290.585 269.018 288.514 269.495 286.167 269.495C283.527 269.495 281.107 268.835 278.907 267.515C276.744 266.158 275.02 264.288 273.737 261.905C272.49 259.485 271.867 256.753 271.867 253.71ZM296.672 253.82C296.672 251.73 296.232 249.915 295.352 248.375C294.509 246.835 293.39 245.662 291.997 244.855C290.604 244.048 289.1 243.645 287.487 243.645C285.874 243.645 284.37 244.048 282.977 244.855C281.584 245.625 280.447 246.78 279.567 248.32C278.724 249.823 278.302 251.62 278.302 253.71C278.302 255.8 278.724 257.633 279.567 259.21C280.447 260.787 281.584 261.997 282.977 262.84C284.407 263.647 285.91 264.05 287.487 264.05C289.1 264.05 290.604 263.647 291.997 262.84C293.39 262.033 294.509 260.86 295.352 259.32C296.232 257.743 296.672 255.91 296.672 253.82ZM323.937 243.81H318.327V269H312.002V243.81H308.427V238.695H312.002V236.55C312.002 233.067 312.919 230.537 314.752 228.96C316.622 227.347 319.537 226.54 323.497 226.54V231.765C321.591 231.765 320.252 232.132 319.482 232.865C318.712 233.562 318.327 234.79 318.327 236.55V238.695H323.937V243.81ZM342.639 269.495C339.779 269.495 337.194 268.853 334.884 267.57C332.574 266.25 330.759 264.417 329.439 262.07C328.119 259.687 327.459 256.937 327.459 253.82C327.459 250.74 328.137 248.008 329.494 245.625C330.851 243.242 332.702 241.408 335.049 240.125C337.396 238.842 340.017 238.2 342.914 238.2C345.811 238.2 348.432 238.842 350.779 240.125C353.126 241.408 354.977 243.242 356.334 245.625C357.691 248.008 358.369 250.74 358.369 253.82C358.369 256.9 357.672 259.632 356.279 262.015C354.886 264.398 352.979 266.25 350.559 267.57C348.176 268.853 345.536 269.495 342.639 269.495ZM342.639 264.05C344.252 264.05 345.756 263.665 347.149 262.895C348.579 262.125 349.734 260.97 350.614 259.43C351.494 257.89 351.934 256.02 351.934 253.82C351.934 251.62 351.512 249.768 350.669 248.265C349.826 246.725 348.707 245.57 347.314 244.8C345.921 244.03 344.417 243.645 342.804 243.645C341.191 243.645 339.687 244.03 338.294 244.8C336.937 245.57 335.856 246.725 335.049 248.265C334.242 249.768 333.839 251.62 333.839 253.82C333.839 257.083 334.664 259.613 336.314 261.41C338.001 263.17 340.109 264.05 342.639 264.05ZM370.837 243.095C371.754 241.555 372.964 240.363 374.467 239.52C376.007 238.64 377.822 238.2 379.912 238.2V244.69H378.317C375.861 244.69 373.991 245.313 372.707 246.56C371.461 247.807 370.837 249.97 370.837 253.05V269H364.567V238.695H370.837V243.095ZM422.361 238.2C424.744 238.2 426.871 238.695 428.741 239.685C430.647 240.675 432.132 242.142 433.196 244.085C434.296 246.028 434.846 248.375 434.846 251.125V269H428.631V252.06C428.631 249.347 427.952 247.275 426.596 245.845C425.239 244.378 423.387 243.645 421.041 243.645C418.694 243.645 416.824 244.378 415.431 245.845C414.074 247.275 413.396 249.347 413.396 252.06V269H407.181V252.06C407.181 249.347 406.502 247.275 405.146 245.845C403.789 244.378 401.937 243.645 399.591 243.645C397.244 243.645 395.374 244.378 393.981 245.845C392.624 247.275 391.946 249.347 391.946 252.06V269H385.676V238.695H391.946V242.16C392.972 240.913 394.274 239.942 395.851 239.245C397.427 238.548 399.114 238.2 400.911 238.2C403.331 238.2 405.494 238.713 407.401 239.74C409.307 240.767 410.774 242.252 411.801 244.195C412.717 242.362 414.147 240.913 416.091 239.85C418.034 238.75 420.124 238.2 422.361 238.2Z" fill="black"/>
</svg>
