<svg width="500" height="500" viewBox="0 0 500 500" fill="none" xmlns="http://www.w3.org/2000/svg">
<rect width="500" height="500" fill="white"/>
<path d="M262.569 244.986C263.472 243.381 264.226 241.932 264.69 240.829C266.947 235.474 264.716 229.315 259.261 226.803C253.807 224.29 248.329 226.895 245.925 231.925C241.329 228.771 235.197 229.234 231.815 234.157C228.433 239.079 229.495 245.51 234.126 249.019C236.228 250.611 240.386 252.958 244.3 255.047M264.385 249.396C263.365 243.915 258.701 239.906 252.83 240.996C246.958 242.085 243.161 247.383 243.955 253.139C244.593 257.764 248.113 268.615 249.472 272.702C249.658 273.26 249.751 273.539 249.934 273.733C250.094 273.903 250.307 274.025 250.534 274.079C250.794 274.141 251.082 274.082 251.657 273.964C255.877 273.097 267.034 270.72 271.358 268.96C276.74 266.77 279.518 260.837 277.437 255.203C275.357 249.569 269.642 247.539 264.385 249.396Z" stroke="black" stroke-width="2" stroke-linecap="round" stroke-linejoin="round"/>
<path d="M139.53 267H133.26L114.395 238.455V267H108.125V228.72H114.395L133.26 257.21V228.72H139.53V267ZM175.539 251.105C175.539 252.242 175.465 253.268 175.319 254.185H152.164C152.347 256.605 153.245 258.548 154.859 260.015C156.472 261.482 158.452 262.215 160.799 262.215C164.172 262.215 166.555 260.803 167.949 257.98H174.714C173.797 260.767 172.129 263.058 169.709 264.855C167.325 266.615 164.355 267.495 160.799 267.495C157.902 267.495 155.299 266.853 152.989 265.57C150.715 264.25 148.919 262.417 147.599 260.07C146.315 257.687 145.674 254.937 145.674 251.82C145.674 248.703 146.297 245.972 147.544 243.625C148.827 241.242 150.605 239.408 152.879 238.125C155.189 236.842 157.829 236.2 160.799 236.2C163.659 236.2 166.207 236.823 168.444 238.07C170.68 239.317 172.422 241.077 173.669 243.35C174.915 245.587 175.539 248.172 175.539 251.105ZM168.994 249.125C168.957 246.815 168.132 244.963 166.519 243.57C164.905 242.177 162.907 241.48 160.524 241.48C158.36 241.48 156.509 242.177 154.969 243.57C153.429 244.927 152.512 246.778 152.219 249.125H168.994ZM222.409 236.695L213.004 267H206.404L200.299 244.615L194.194 267H187.594L178.134 236.695H184.514L190.839 261.06L197.274 236.695H203.819L209.979 260.95L216.249 236.695H222.409Z" fill="black"/>
<path d="M299.61 228.775C303.68 228.775 307.237 229.563 310.28 231.14C313.36 232.68 315.725 234.917 317.375 237.85C319.062 240.747 319.905 244.138 319.905 248.025C319.905 251.912 319.062 255.285 317.375 258.145C315.725 261.005 313.36 263.205 310.28 264.745C307.237 266.248 303.68 267 299.61 267H287.125V228.775H299.61ZM299.61 261.885C304.083 261.885 307.512 260.675 309.895 258.255C312.278 255.835 313.47 252.425 313.47 248.025C313.47 243.588 312.278 240.123 309.895 237.63C307.512 235.137 304.083 233.89 299.61 233.89H293.395V261.885H299.61ZM353.564 236.695V267H347.294V263.425C346.304 264.672 345.002 265.662 343.389 266.395C341.812 267.092 340.126 267.44 338.329 267.44C335.946 267.44 333.801 266.945 331.894 265.955C330.024 264.965 328.539 263.498 327.439 261.555C326.376 259.612 325.844 257.265 325.844 254.515V236.695H332.059V253.58C332.059 256.293 332.737 258.383 334.094 259.85C335.451 261.28 337.302 261.995 339.649 261.995C341.996 261.995 343.847 261.28 345.204 259.85C346.597 258.383 347.294 256.293 347.294 253.58V236.695H353.564ZM389.612 251.105C389.612 252.242 389.539 253.268 389.392 254.185H366.237C366.42 256.605 367.319 258.548 368.932 260.015C370.545 261.482 372.525 262.215 374.872 262.215C378.245 262.215 380.629 260.803 382.022 257.98H388.787C387.87 260.767 386.202 263.058 383.782 264.855C381.399 266.615 378.429 267.495 374.872 267.495C371.975 267.495 369.372 266.853 367.062 265.57C364.789 264.25 362.992 262.417 361.672 260.07C360.389 257.687 359.747 254.937 359.747 251.82C359.747 248.703 360.37 245.972 361.617 243.625C362.9 241.242 364.679 239.408 366.952 238.125C369.262 236.842 371.902 236.2 374.872 236.2C377.732 236.2 380.28 236.823 382.517 238.07C384.754 239.317 386.495 241.077 387.742 243.35C388.989 245.587 389.612 248.172 389.612 251.105ZM383.067 249.125C383.03 246.815 382.205 244.963 380.592 243.57C378.979 242.177 376.98 241.48 374.597 241.48C372.434 241.48 370.582 242.177 369.042 243.57C367.502 244.927 366.585 246.778 366.292 249.125H383.067ZM403.097 241.81V258.585C403.097 259.722 403.354 260.547 403.867 261.06C404.417 261.537 405.334 261.775 406.617 261.775H410.467V267H405.517C402.694 267 400.531 266.34 399.027 265.02C397.524 263.7 396.772 261.555 396.772 258.585V241.81H393.197V236.695H396.772V229.16H403.097V236.695H410.467V241.81H403.097Z" fill="black"/>
</svg>
