<svg width="500" height="500" viewBox="0 0 500 500" fill="none" xmlns="http://www.w3.org/2000/svg">
<rect width="500" height="500" fill="white"/>
<path d="M116.5 257.167H106.833C93.4863 257.167 82.6665 246.347 82.6665 233C82.6665 219.653 93.4863 208.833 106.833 208.833H116.5M111.667 233L160 233M149.259 257.167H155.166C168.513 257.167 179.333 246.347 179.333 233C179.333 219.653 168.513 208.833 155.166 208.833H149.259C147.183 208.833 145.5 210.516 145.5 212.593V253.407C145.5 255.484 147.183 257.167 149.259 257.167Z" stroke="black" stroke-width="5" stroke-linecap="round" stroke-linejoin="round"/>
<path d="M197.035 232.805C197.035 229.065 197.897 225.71 199.62 222.74C201.38 219.77 203.745 217.46 206.715 215.81C209.722 214.123 213.003 213.28 216.56 213.28C220.63 213.28 224.242 214.288 227.395 216.305C230.585 218.285 232.895 221.108 234.325 224.775H226.79C225.8 222.758 224.425 221.255 222.665 220.265C220.905 219.275 218.87 218.78 216.56 218.78C214.03 218.78 211.775 219.348 209.795 220.485C207.815 221.622 206.257 223.253 205.12 225.38C204.02 227.507 203.47 229.982 203.47 232.805C203.47 235.628 204.02 238.103 205.12 240.23C206.257 242.357 207.815 244.007 209.795 245.18C211.775 246.317 214.03 246.885 216.56 246.885C218.87 246.885 220.905 246.39 222.665 245.4C224.425 244.41 225.8 242.907 226.79 240.89H234.325C232.895 244.557 230.585 247.38 227.395 249.36C224.242 251.34 220.63 252.33 216.56 252.33C212.967 252.33 209.685 251.505 206.715 249.855C203.745 248.168 201.38 245.84 199.62 242.87C197.897 239.9 197.035 236.545 197.035 232.805ZM257.339 221.2C259.649 221.2 261.702 221.695 263.499 222.685C265.332 223.675 266.762 225.142 267.789 227.085C268.852 229.028 269.384 231.375 269.384 234.125V252H263.169V235.06C263.169 232.347 262.491 230.275 261.134 228.845C259.777 227.378 257.926 226.645 255.579 226.645C253.232 226.645 251.362 227.378 249.969 228.845C248.612 230.275 247.934 232.347 247.934 235.06V252H241.664V211.3H247.934V225.215C248.997 223.932 250.336 222.942 251.949 222.245C253.599 221.548 255.396 221.2 257.339 221.2ZM275.292 236.71C275.292 233.667 275.915 230.972 277.162 228.625C278.445 226.278 280.169 224.463 282.332 223.18C284.532 221.86 286.952 221.2 289.592 221.2C291.975 221.2 294.047 221.677 295.807 222.63C297.604 223.547 299.034 224.702 300.097 226.095V221.695H306.422V252H300.097V247.49C299.034 248.92 297.585 250.112 295.752 251.065C293.919 252.018 291.829 252.495 289.482 252.495C286.879 252.495 284.495 251.835 282.332 250.515C280.169 249.158 278.445 247.288 277.162 244.905C275.915 242.485 275.292 239.753 275.292 236.71ZM300.097 236.82C300.097 234.73 299.657 232.915 298.777 231.375C297.934 229.835 296.815 228.662 295.422 227.855C294.029 227.048 292.525 226.645 290.912 226.645C289.299 226.645 287.795 227.048 286.402 227.855C285.009 228.625 283.872 229.78 282.992 231.32C282.149 232.823 281.727 234.62 281.727 236.71C281.727 238.8 282.149 240.633 282.992 242.21C283.872 243.787 285.009 244.997 286.402 245.84C287.832 246.647 289.335 247.05 290.912 247.05C292.525 247.05 294.029 246.647 295.422 245.84C296.815 245.033 297.934 243.86 298.777 242.32C299.657 240.743 300.097 238.91 300.097 236.82ZM317.847 217.68C316.711 217.68 315.757 217.295 314.987 216.525C314.217 215.755 313.832 214.802 313.832 213.665C313.832 212.528 314.217 211.575 314.987 210.805C315.757 210.035 316.711 209.65 317.847 209.65C318.947 209.65 319.882 210.035 320.652 210.805C321.422 211.575 321.807 212.528 321.807 213.665C321.807 214.802 321.422 215.755 320.652 216.525C319.882 217.295 318.947 217.68 317.847 217.68ZM320.927 221.695V252H314.657V221.695H320.927ZM344.449 221.2C346.833 221.2 348.959 221.695 350.829 222.685C352.736 223.675 354.221 225.142 355.284 227.085C356.348 229.028 356.879 231.375 356.879 234.125V252H350.664V235.06C350.664 232.347 349.986 230.275 348.629 228.845C347.273 227.378 345.421 226.645 343.074 226.645C340.728 226.645 338.858 227.378 337.464 228.845C336.108 230.275 335.429 232.347 335.429 235.06V252H329.159V221.695H335.429V225.16C336.456 223.913 337.758 222.942 339.334 222.245C340.948 221.548 342.653 221.2 344.449 221.2Z" fill="black"/>
</svg>
