<svg width="500" height="500" viewBox="0 0 500 500" fill="none" xmlns="http://www.w3.org/2000/svg">
<rect width="500" height="500" fill="white"/>
<path d="M143.13 285V257.084C143.13 256.143 143.13 255.673 143.031 255.226C142.943 254.83 142.798 254.449 142.6 254.095C142.377 253.696 142.064 253.345 141.439 252.644L117.769 226.1C114.631 222.581 113.062 220.822 113.003 219.327C112.952 218.029 113.508 216.78 114.507 215.953C115.657 215 118.01 215 122.715 215H184.285C188.99 215 191.343 215 192.493 215.953C193.492 216.78 194.048 218.029 193.997 219.327C193.938 220.822 192.369 222.581 189.231 226.1L165.561 252.644C164.936 253.345 164.623 253.696 164.4 254.095C164.202 254.449 164.057 254.83 163.969 255.226C163.87 255.673 163.87 256.143 163.87 257.084V279.34C163.87 280.153 163.87 280.56 163.74 280.912M142.504 236.198H164.498M137.005 225.163H169.997M148.002 247.232H159" stroke="black" stroke-width="5" stroke-linecap="round" stroke-linejoin="round"/>
<path d="M229.62 227.775V232.89H213.395V244.165H226.045V249.28H213.395V266H207.125V227.775H229.62ZM262.876 235.695V266H256.606V262.425C255.616 263.672 254.314 264.662 252.701 265.395C251.124 266.092 249.437 266.44 247.641 266.44C245.257 266.44 243.112 265.945 241.206 264.955C239.336 263.965 237.851 262.498 236.751 260.555C235.687 258.612 235.156 256.265 235.156 253.515V235.695H241.371V252.58C241.371 255.293 242.049 257.383 243.406 258.85C244.762 260.28 246.614 260.995 248.961 260.995C251.307 260.995 253.159 260.28 254.516 258.85C255.909 257.383 256.606 255.293 256.606 252.58V235.695H262.876ZM286.438 235.2C288.822 235.2 290.948 235.695 292.818 236.685C294.725 237.675 296.21 239.142 297.273 241.085C298.337 243.028 298.868 245.375 298.868 248.125V266H292.653V249.06C292.653 246.347 291.975 244.275 290.618 242.845C289.262 241.378 287.41 240.645 285.063 240.645C282.717 240.645 280.847 241.378 279.453 242.845C278.097 244.275 277.418 246.347 277.418 249.06V266H271.148V235.695H277.418V239.16C278.445 237.913 279.747 236.942 281.323 236.245C282.937 235.548 284.642 235.2 286.438 235.2ZM322.156 235.2C324.54 235.2 326.666 235.695 328.536 236.685C330.443 237.675 331.928 239.142 332.991 241.085C334.055 243.028 334.586 245.375 334.586 248.125V266H328.371V249.06C328.371 246.347 327.693 244.275 326.336 242.845C324.98 241.378 323.128 240.645 320.781 240.645C318.435 240.645 316.565 241.378 315.171 242.845C313.815 244.275 313.136 246.347 313.136 249.06V266H306.866V235.695H313.136V239.16C314.163 237.913 315.465 236.942 317.041 236.245C318.655 235.548 320.36 235.2 322.156 235.2ZM370.359 250.105C370.359 251.242 370.286 252.268 370.139 253.185H346.984C347.167 255.605 348.066 257.548 349.679 259.015C351.292 260.482 353.272 261.215 355.619 261.215C358.992 261.215 361.376 259.803 362.769 256.98H369.534C368.617 259.767 366.949 262.058 364.529 263.855C362.146 265.615 359.176 266.495 355.619 266.495C352.722 266.495 350.119 265.853 347.809 264.57C345.536 263.25 343.739 261.417 342.419 259.07C341.136 256.687 340.494 253.937 340.494 250.82C340.494 247.703 341.117 244.972 342.364 242.625C343.647 240.242 345.426 238.408 347.699 237.125C350.009 235.842 352.649 235.2 355.619 235.2C358.479 235.2 361.027 235.823 363.264 237.07C365.501 238.317 367.242 240.077 368.489 242.35C369.736 244.587 370.359 247.172 370.359 250.105ZM363.814 248.125C363.777 245.815 362.952 243.963 361.339 242.57C359.726 241.177 357.727 240.48 355.344 240.48C353.181 240.48 351.329 241.177 349.789 242.57C348.249 243.927 347.332 245.778 347.039 248.125H363.814ZM382.799 225.3V266H376.529V225.3H382.799Z" fill="black"/>
</svg>
