<svg width="500" height="500" viewBox="0 0 500 500" fill="none" xmlns="http://www.w3.org/2000/svg">
<rect width="500" height="500" fill="white"/>
<path d="M193.855 250.16C193.855 252.103 193.397 253.937 192.48 255.66C191.563 257.383 190.097 258.795 188.08 259.895C186.063 260.958 183.478 261.49 180.325 261.49H173.395V277H167.125V238.775H180.325C183.258 238.775 185.733 239.288 187.75 240.315C189.803 241.305 191.325 242.662 192.315 244.385C193.342 246.108 193.855 248.033 193.855 250.16ZM180.325 256.375C182.708 256.375 184.487 255.843 185.66 254.78C186.833 253.68 187.42 252.14 187.42 250.16C187.42 245.98 185.055 243.89 180.325 243.89H173.395V256.375H180.325ZM206.105 251.095C207.022 249.555 208.232 248.363 209.735 247.52C211.275 246.64 213.09 246.2 215.18 246.2V252.69H213.585C211.128 252.69 209.258 253.313 207.975 254.56C206.728 255.807 206.105 257.97 206.105 261.05V277H199.835V246.695H206.105V251.095ZM234.088 277.495C231.228 277.495 228.643 276.853 226.333 275.57C224.023 274.25 222.208 272.417 220.888 270.07C219.568 267.687 218.908 264.937 218.908 261.82C218.908 258.74 219.587 256.008 220.943 253.625C222.3 251.242 224.152 249.408 226.498 248.125C228.845 246.842 231.467 246.2 234.363 246.2C237.26 246.2 239.882 246.842 242.228 248.125C244.575 249.408 246.427 251.242 247.783 253.625C249.14 256.008 249.818 258.74 249.818 261.82C249.818 264.9 249.122 267.632 247.728 270.015C246.335 272.398 244.428 274.25 242.008 275.57C239.625 276.853 236.985 277.495 234.088 277.495ZM234.088 272.05C235.702 272.05 237.205 271.665 238.598 270.895C240.028 270.125 241.183 268.97 242.063 267.43C242.943 265.89 243.383 264.02 243.383 261.82C243.383 259.62 242.962 257.768 242.118 256.265C241.275 254.725 240.157 253.57 238.763 252.8C237.37 252.03 235.867 251.645 234.253 251.645C232.64 251.645 231.137 252.03 229.743 252.8C228.387 253.57 227.305 254.725 226.498 256.265C225.692 257.768 225.288 259.62 225.288 261.82C225.288 265.083 226.113 267.613 227.763 269.41C229.45 271.17 231.558 272.05 234.088 272.05ZM263.332 251.81V268.585C263.332 269.722 263.588 270.547 264.102 271.06C264.652 271.537 265.568 271.775 266.852 271.775H270.702V277H265.752C262.928 277 260.765 276.34 259.262 275.02C257.758 273.7 257.007 271.555 257.007 268.585V251.81H253.432V246.695H257.007V239.16H263.332V246.695H270.702V251.81H263.332ZM304.255 261.105C304.255 262.242 304.182 263.268 304.035 264.185H280.88C281.064 266.605 281.962 268.548 283.575 270.015C285.189 271.482 287.169 272.215 289.515 272.215C292.889 272.215 295.272 270.803 296.665 267.98H303.43C302.514 270.767 300.845 273.058 298.425 274.855C296.042 276.615 293.072 277.495 289.515 277.495C286.619 277.495 284.015 276.853 281.705 275.57C279.432 274.25 277.635 272.417 276.315 270.07C275.032 267.687 274.39 264.937 274.39 261.82C274.39 258.703 275.014 255.972 276.26 253.625C277.544 251.242 279.322 249.408 281.595 248.125C283.905 246.842 286.545 246.2 289.515 246.2C292.375 246.2 294.924 246.823 297.16 248.07C299.397 249.317 301.139 251.077 302.385 253.35C303.632 255.587 304.255 258.172 304.255 261.105ZM297.71 259.125C297.674 256.815 296.849 254.963 295.235 253.57C293.622 252.177 291.624 251.48 289.24 251.48C287.077 251.48 285.225 252.177 283.685 253.57C282.145 254.927 281.229 256.778 280.935 259.125H297.71ZM308.336 261.82C308.336 258.703 308.959 255.972 310.206 253.625C311.489 251.242 313.249 249.408 315.486 248.125C317.722 246.842 320.289 246.2 323.186 246.2C326.852 246.2 329.877 247.08 332.261 248.84C334.681 250.563 336.312 253.038 337.156 256.265H330.391C329.841 254.762 328.961 253.588 327.751 252.745C326.541 251.902 325.019 251.48 323.186 251.48C320.619 251.48 318.566 252.397 317.026 254.23C315.522 256.027 314.771 258.557 314.771 261.82C314.771 265.083 315.522 267.632 317.026 269.465C318.566 271.298 320.619 272.215 323.186 272.215C326.816 272.215 329.217 270.62 330.391 267.43H337.156C336.276 270.51 334.626 272.967 332.206 274.8C329.786 276.597 326.779 277.495 323.186 277.495C320.289 277.495 317.722 276.853 315.486 275.57C313.249 274.25 311.489 272.417 310.206 270.07C308.959 267.687 308.336 264.937 308.336 261.82ZM350.719 251.81V268.585C350.719 269.722 350.976 270.547 351.489 271.06C352.039 271.537 352.956 271.775 354.239 271.775H358.089V277H353.139C350.316 277 348.153 276.34 346.649 275.02C345.146 273.7 344.394 271.555 344.394 268.585V251.81H340.819V246.695H344.394V239.16H350.719V246.695H358.089V251.81H350.719ZM391.643 261.105C391.643 262.242 391.57 263.268 391.423 264.185H368.268C368.451 266.605 369.35 268.548 370.963 270.015C372.576 271.482 374.556 272.215 376.903 272.215C380.276 272.215 382.66 270.803 384.053 267.98H390.818C389.901 270.767 388.233 273.058 385.813 274.855C383.43 276.615 380.46 277.495 376.903 277.495C374.006 277.495 371.403 276.853 369.093 275.57C366.82 274.25 365.023 272.417 363.703 270.07C362.42 267.687 361.778 264.937 361.778 261.82C361.778 258.703 362.401 255.972 363.648 253.625C364.931 251.242 366.71 249.408 368.983 248.125C371.293 246.842 373.933 246.2 376.903 246.2C379.763 246.2 382.311 246.823 384.548 248.07C386.785 249.317 388.526 251.077 389.773 253.35C391.02 255.587 391.643 258.172 391.643 261.105ZM385.098 259.125C385.061 256.815 384.236 254.963 382.623 253.57C381.01 252.177 379.011 251.48 376.628 251.48C374.465 251.48 372.613 252.177 371.073 253.57C369.533 254.927 368.616 256.778 368.323 259.125H385.098ZM395.723 261.71C395.723 258.667 396.347 255.972 397.593 253.625C398.877 251.278 400.6 249.463 402.763 248.18C404.963 246.86 407.402 246.2 410.078 246.2C412.058 246.2 414.002 246.64 415.908 247.52C417.852 248.363 419.392 249.5 420.528 250.93V236.3H426.853V277H420.528V272.435C419.502 273.902 418.072 275.112 416.238 276.065C414.442 277.018 412.37 277.495 410.023 277.495C407.383 277.495 404.963 276.835 402.763 275.515C400.6 274.158 398.877 272.288 397.593 269.905C396.347 267.485 395.723 264.753 395.723 261.71ZM420.528 261.82C420.528 259.73 420.088 257.915 419.208 256.375C418.365 254.835 417.247 253.662 415.853 252.855C414.46 252.048 412.957 251.645 411.343 251.645C409.73 251.645 408.227 252.048 406.833 252.855C405.44 253.625 404.303 254.78 403.423 256.32C402.58 257.823 402.158 259.62 402.158 261.71C402.158 263.8 402.58 265.633 403.423 267.21C404.303 268.787 405.44 269.997 406.833 270.84C408.263 271.647 409.767 272.05 411.343 272.05C412.957 272.05 414.46 271.647 415.853 270.84C417.247 270.033 418.365 268.86 419.208 267.32C420.088 265.743 420.528 263.91 420.528 261.82Z" fill="black"/>
<path d="M148 261.389V267.867C148 272.814 148 275.287 147.037 277.177C146.19 278.839 144.839 280.19 143.177 281.037C141.287 282 138.814 282 133.867 282H127.389M115.611 229H109.133C104.186 229 101.713 229 99.8231 229.963C98.161 230.81 96.8097 232.161 95.9628 233.823C95 235.713 95 238.186 95 243.133V249.611M134.534 242.466L148 229M148 229H130.333M148 229V246.667M104.54 272.46L95 282M95 282H112.667M95 282L95 264.333" stroke="black" stroke-width="3" stroke-linecap="round" stroke-linejoin="round"/>
<path d="M112.152 250.684H112V247.632C112 243.417 115.358 240 119.5 240C123.642 240 127 243.417 127 247.632V250.684H126.848M119.5 256.789V259.842M130 258.316C130 264.217 125.299 269 119.5 269C113.701 269 109 264.217 109 258.316C109 252.415 113.701 247.632 119.5 247.632C125.299 247.632 130 252.415 130 258.316Z" stroke="black" stroke-width="2" stroke-linecap="round" stroke-linejoin="round"/>
</svg>
