<svg width="500" height="500" viewBox="0 0 500 500" fill="none" xmlns="http://www.w3.org/2000/svg">
<rect width="500" height="500" fill="white"/>
<path d="M159.4 261C158.934 262.056 158.795 263.227 159.001 264.362C159.207 265.497 159.748 266.545 160.555 267.37L160.765 267.58C161.416 268.23 161.932 269.002 162.284 269.852C162.637 270.702 162.818 271.613 162.818 272.532C162.818 273.452 162.637 274.363 162.284 275.213C161.932 276.063 161.416 276.835 160.765 277.485C160.115 278.136 159.343 278.652 158.493 279.004C157.643 279.357 156.732 279.538 155.812 279.538C154.893 279.538 153.982 279.357 153.132 279.004C152.282 278.652 151.51 278.136 150.86 277.485L150.65 277.275C149.825 276.468 148.777 275.927 147.642 275.721C146.507 275.515 145.336 275.654 144.28 276.12C143.245 276.564 142.362 277.3 141.74 278.239C141.118 279.178 140.784 280.279 140.78 281.405V282C140.78 283.857 140.043 285.637 138.73 286.95C137.417 288.262 135.637 289 133.78 289C131.923 289 130.143 288.262 128.83 286.95C127.517 285.637 126.78 283.857 126.78 282V281.685C126.753 280.527 126.378 279.403 125.704 278.46C125.03 277.518 124.088 276.8 123 276.4C121.944 275.934 120.773 275.795 119.638 276.001C118.503 276.207 117.455 276.748 116.63 277.555L116.42 277.765C115.77 278.416 114.998 278.932 114.148 279.284C113.298 279.637 112.387 279.818 111.468 279.818C110.548 279.818 109.637 279.637 108.787 279.284C107.937 278.932 107.165 278.416 106.515 277.765C105.864 277.115 105.348 276.343 104.996 275.493C104.643 274.643 104.462 273.732 104.462 272.812C104.462 271.893 104.643 270.982 104.996 270.132C105.348 269.282 105.864 268.51 106.515 267.86L106.725 267.65C107.532 266.825 108.073 265.777 108.279 264.642C108.485 263.507 108.346 262.336 107.88 261.28C107.436 260.245 106.7 259.362 105.761 258.74C104.822 258.118 103.721 257.784 102.595 257.78H102C100.143 257.78 98.363 257.043 97.0503 255.73C95.7375 254.417 95 252.637 95 250.78C95 248.923 95.7375 247.143 97.0503 245.83C98.363 244.517 100.143 243.78 102 243.78H102.315C103.473 243.753 104.597 243.378 105.54 242.704C106.482 242.03 107.2 241.088 107.6 240C108.066 238.944 108.205 237.773 107.999 236.638C107.793 235.503 107.252 234.455 106.445 233.63L106.235 233.42C105.584 232.77 105.068 231.998 104.716 231.148C104.363 230.298 104.182 229.387 104.182 228.467C104.182 227.548 104.363 226.637 104.716 225.787C105.068 224.937 105.584 224.165 106.235 223.515C106.885 222.864 107.657 222.348 108.507 221.996C109.357 221.643 110.268 221.462 111.188 221.462C112.107 221.462 113.018 221.643 113.868 221.996C114.718 222.348 115.49 222.864 116.14 223.515L116.35 223.725C117.175 224.532 118.223 225.073 119.358 225.279C120.493 225.485 121.664 225.346 122.72 224.88H123C124.035 224.436 124.918 223.7 125.54 222.761C126.162 221.822 126.496 220.721 126.5 219.595V219C126.5 217.143 127.237 215.363 128.55 214.05C129.863 212.737 131.643 212 133.5 212C135.357 212 137.137 212.737 138.45 214.05C139.763 215.363 140.5 217.143 140.5 219V219.315C140.504 220.441 140.838 221.542 141.46 222.481C142.082 223.42 142.965 224.156 144 224.6C145.056 225.066 146.227 225.205 147.362 224.999C148.497 224.793 149.545 224.252 150.37 223.445L150.58 223.235C151.23 222.584 152.002 222.068 152.852 221.716C153.702 221.363 154.613 221.182 155.532 221.182C156.452 221.182 157.363 221.363 158.213 221.716C159.063 222.068 159.835 222.584 160.485 223.235C161.136 223.885 161.652 224.657 162.004 225.507C162.357 226.357 162.538 227.268 162.538 228.187C162.538 229.107 162.357 230.018 162.004 230.868C161.652 231.718 161.136 232.49 160.485 233.14L160.275 233.35C159.468 234.175 158.927 235.223 158.721 236.358C158.515 237.493 158.654 238.664 159.12 239.72V240C159.564 241.035 160.3 241.918 161.239 242.54C162.178 243.162 163.279 243.496 164.405 243.5H165C166.857 243.5 168.637 244.237 169.95 245.55C171.262 246.863 172 248.643 172 250.5C172 252.357 171.262 254.137 169.95 255.45C168.637 256.763 166.857 257.5 165 257.5H164.685C163.559 257.504 162.458 257.838 161.519 258.46C160.58 259.082 159.844 259.965 159.4 261Z" stroke="black" stroke-width="4" stroke-linecap="round" stroke-linejoin="round"/>
<path d="M202.125 269.495C199.742 269.495 197.597 269.073 195.69 268.23C193.82 267.35 192.335 266.177 191.235 264.71C190.135 263.207 189.548 261.538 189.475 259.705H195.965C196.075 260.988 196.68 262.07 197.78 262.95C198.917 263.793 200.328 264.215 202.015 264.215C203.775 264.215 205.132 263.885 206.085 263.225C207.075 262.528 207.57 261.648 207.57 260.585C207.57 259.448 207.02 258.605 205.92 258.055C204.857 257.505 203.152 256.9 200.805 256.24C198.532 255.617 196.68 255.012 195.25 254.425C193.82 253.838 192.573 252.94 191.51 251.73C190.483 250.52 189.97 248.925 189.97 246.945C189.97 245.332 190.447 243.865 191.4 242.545C192.353 241.188 193.71 240.125 195.47 239.355C197.267 238.585 199.32 238.2 201.63 238.2C205.077 238.2 207.845 239.08 209.935 240.84C212.062 242.563 213.198 244.928 213.345 247.935H207.075C206.965 246.578 206.415 245.497 205.425 244.69C204.435 243.883 203.097 243.48 201.41 243.48C199.76 243.48 198.495 243.792 197.615 244.415C196.735 245.038 196.295 245.863 196.295 246.89C196.295 247.697 196.588 248.375 197.175 248.925C197.762 249.475 198.477 249.915 199.32 250.245C200.163 250.538 201.41 250.923 203.06 251.4C205.26 251.987 207.057 252.592 208.45 253.215C209.88 253.802 211.108 254.682 212.135 255.855C213.162 257.028 213.693 258.587 213.73 260.53C213.73 262.253 213.253 263.793 212.3 265.15C211.347 266.507 209.99 267.57 208.23 268.34C206.507 269.11 204.472 269.495 202.125 269.495ZM226.775 243.15C227.838 241.757 229.287 240.583 231.12 239.63C232.953 238.677 235.025 238.2 237.335 238.2C239.975 238.2 242.377 238.86 244.54 240.18C246.74 241.463 248.463 243.278 249.71 245.625C250.957 247.972 251.58 250.667 251.58 253.71C251.58 256.753 250.957 259.485 249.71 261.905C248.463 264.288 246.74 266.158 244.54 267.515C242.377 268.835 239.975 269.495 237.335 269.495C235.025 269.495 232.972 269.037 231.175 268.12C229.378 267.167 227.912 265.993 226.775 264.6V283.41H220.505V238.695H226.775V243.15ZM245.2 253.71C245.2 251.62 244.76 249.823 243.88 248.32C243.037 246.78 241.9 245.625 240.47 244.855C239.077 244.048 237.573 243.645 235.96 243.645C234.383 243.645 232.88 244.048 231.45 244.855C230.057 245.662 228.92 246.835 228.04 248.375C227.197 249.915 226.775 251.73 226.775 253.82C226.775 255.91 227.197 257.743 228.04 259.32C228.92 260.86 230.057 262.033 231.45 262.84C232.88 263.647 234.383 264.05 235.96 264.05C237.573 264.05 239.077 263.647 240.47 262.84C241.9 261.997 243.037 260.787 243.88 259.21C244.76 257.633 245.2 255.8 245.2 253.71ZM264.05 228.3V269H257.78V228.3H264.05ZM270.192 253.71C270.192 250.667 270.816 247.972 272.062 245.625C273.346 243.278 275.069 241.463 277.232 240.18C279.432 238.86 281.852 238.2 284.492 238.2C286.876 238.2 288.947 238.677 290.707 239.63C292.504 240.547 293.934 241.702 294.997 243.095V238.695H301.322V269H294.997V264.49C293.934 265.92 292.486 267.112 290.652 268.065C288.819 269.018 286.729 269.495 284.382 269.495C281.779 269.495 279.396 268.835 277.232 267.515C275.069 266.158 273.346 264.288 272.062 261.905C270.816 259.485 270.192 256.753 270.192 253.71ZM294.997 253.82C294.997 251.73 294.557 249.915 293.677 248.375C292.834 246.835 291.716 245.662 290.322 244.855C288.929 244.048 287.426 243.645 285.812 243.645C284.199 243.645 282.696 244.048 281.302 244.855C279.909 245.625 278.772 246.78 277.892 248.32C277.049 249.823 276.627 251.62 276.627 253.71C276.627 255.8 277.049 257.633 277.892 259.21C278.772 260.787 279.909 261.997 281.302 262.84C282.732 263.647 284.236 264.05 285.812 264.05C287.426 264.05 288.929 263.647 290.322 262.84C291.716 262.033 292.834 260.86 293.677 259.32C294.557 257.743 294.997 255.91 294.997 253.82ZM316.873 243.81V260.585C316.873 261.722 317.129 262.547 317.643 263.06C318.193 263.537 319.109 263.775 320.393 263.775H324.243V269H319.293C316.469 269 314.306 268.34 312.803 267.02C311.299 265.7 310.548 263.555 310.548 260.585V243.81H306.973V238.695H310.548V231.16H316.873V238.695H324.243V243.81H316.873ZM337.336 243.81V260.585C337.336 261.722 337.593 262.547 338.106 263.06C338.656 263.537 339.573 263.775 340.856 263.775H344.706V269H339.756C336.933 269 334.77 268.34 333.266 267.02C331.763 265.7 331.011 263.555 331.011 260.585V243.81H327.436V238.695H331.011V231.16H337.336V238.695H344.706V243.81H337.336ZM378.26 253.105C378.26 254.242 378.187 255.268 378.04 256.185H354.885C355.069 258.605 355.967 260.548 357.58 262.015C359.194 263.482 361.174 264.215 363.52 264.215C366.894 264.215 369.277 262.803 370.67 259.98H377.435C376.519 262.767 374.85 265.058 372.43 266.855C370.047 268.615 367.077 269.495 363.52 269.495C360.624 269.495 358.02 268.853 355.71 267.57C353.437 266.25 351.64 264.417 350.32 262.07C349.037 259.687 348.395 256.937 348.395 253.82C348.395 250.703 349.019 247.972 350.265 245.625C351.549 243.242 353.327 241.408 355.6 240.125C357.91 238.842 360.55 238.2 363.52 238.2C366.38 238.2 368.929 238.823 371.165 240.07C373.402 241.317 375.144 243.077 376.39 245.35C377.637 247.587 378.26 250.172 378.26 253.105ZM371.715 251.125C371.679 248.815 370.854 246.963 369.24 245.57C367.627 244.177 365.629 243.48 363.245 243.48C361.082 243.48 359.23 244.177 357.69 245.57C356.15 246.927 355.234 248.778 354.94 251.125H371.715ZM390.701 243.095C391.617 241.555 392.827 240.363 394.331 239.52C395.871 238.64 397.686 238.2 399.776 238.2V244.69H398.181C395.724 244.69 393.854 245.313 392.571 246.56C391.324 247.807 390.701 249.97 390.701 253.05V269H384.431V238.695H390.701V243.095Z" fill="black"/>
</svg>
