<svg width="500" height="500" viewBox="0 0 500 500" fill="none" xmlns="http://www.w3.org/2000/svg">
<rect width="500" height="500" fill="white"/>
<path d="M153.25 217C124.945 217 102 239.945 102 268.25H114.812M153.25 217C181.555 217 204.5 239.945 204.5 268.25H191.688M153.25 217V229.812M116.973 232.375L125.873 241.274M191.688 234.35L178.75 241.274" stroke="black" stroke-width="4" stroke-linecap="round" stroke-linejoin="round"/>
<path d="M142.75 274.583H129.917M136.917 261.75H126.417M142.75 248.917H131.083M161.417 240.75L146.025 262.298C145.344 263.252 145.003 263.729 145.018 264.127C145.031 264.473 145.197 264.795 145.471 265.007C145.786 265.25 146.372 265.25 147.544 265.25H159.083L156.75 282.75L172.142 261.202C172.823 260.248 173.163 259.771 173.149 259.373C173.136 259.027 172.97 258.705 172.696 258.493C172.381 258.25 171.795 258.25 170.623 258.25H159.083L161.417 240.75Z" stroke="black" stroke-width="4" stroke-linecap="round" stroke-linejoin="round"/>
<path d="M239.72 271.385C237.153 271.385 234.843 270.945 232.79 270.065C230.737 269.148 229.123 267.865 227.95 266.215C226.777 264.565 226.19 262.64 226.19 260.44H232.9C233.047 262.09 233.688 263.447 234.825 264.51C235.998 265.573 237.63 266.105 239.72 266.105C241.883 266.105 243.57 265.592 244.78 264.565C245.99 263.502 246.595 262.145 246.595 260.495C246.595 259.212 246.21 258.167 245.44 257.36C244.707 256.553 243.772 255.93 242.635 255.49C241.535 255.05 239.995 254.573 238.015 254.06C235.522 253.4 233.487 252.74 231.91 252.08C230.37 251.383 229.05 250.32 227.95 248.89C226.85 247.46 226.3 245.553 226.3 243.17C226.3 240.97 226.85 239.045 227.95 237.395C229.05 235.745 230.59 234.48 232.57 233.6C234.55 232.72 236.842 232.28 239.445 232.28C243.148 232.28 246.173 233.215 248.52 235.085C250.903 236.918 252.223 239.448 252.48 242.675H245.55C245.44 241.282 244.78 240.09 243.57 239.1C242.36 238.11 240.765 237.615 238.785 237.615C236.988 237.615 235.522 238.073 234.385 238.99C233.248 239.907 232.68 241.227 232.68 242.95C232.68 244.123 233.028 245.095 233.725 245.865C234.458 246.598 235.375 247.185 236.475 247.625C237.575 248.065 239.078 248.542 240.985 249.055C243.515 249.752 245.568 250.448 247.145 251.145C248.758 251.842 250.115 252.923 251.215 254.39C252.352 255.82 252.92 257.745 252.92 260.165C252.92 262.108 252.388 263.942 251.325 265.665C250.298 267.388 248.777 268.782 246.76 269.845C244.78 270.872 242.433 271.385 239.72 271.385ZM266.588 245.15C267.652 243.757 269.1 242.583 270.933 241.63C272.767 240.677 274.838 240.2 277.148 240.2C279.788 240.2 282.19 240.86 284.353 242.18C286.553 243.463 288.277 245.278 289.523 247.625C290.77 249.972 291.393 252.667 291.393 255.71C291.393 258.753 290.77 261.485 289.523 263.905C288.277 266.288 286.553 268.158 284.353 269.515C282.19 270.835 279.788 271.495 277.148 271.495C274.838 271.495 272.785 271.037 270.988 270.12C269.192 269.167 267.725 267.993 266.588 266.6V285.41H260.318V240.695H266.588V245.15ZM285.013 255.71C285.013 253.62 284.573 251.823 283.693 250.32C282.85 248.78 281.713 247.625 280.283 246.855C278.89 246.048 277.387 245.645 275.773 245.645C274.197 245.645 272.693 246.048 271.263 246.855C269.87 247.662 268.733 248.835 267.853 250.375C267.01 251.915 266.588 253.73 266.588 255.82C266.588 257.91 267.01 259.743 267.853 261.32C268.733 262.86 269.87 264.033 271.263 264.84C272.693 265.647 274.197 266.05 275.773 266.05C277.387 266.05 278.89 265.647 280.283 264.84C281.713 263.997 282.85 262.787 283.693 261.21C284.573 259.633 285.013 257.8 285.013 255.71ZM325.369 255.105C325.369 256.242 325.295 257.268 325.149 258.185H301.994C302.177 260.605 303.075 262.548 304.689 264.015C306.302 265.482 308.282 266.215 310.629 266.215C314.002 266.215 316.385 264.803 317.779 261.98H324.544C323.627 264.767 321.959 267.058 319.539 268.855C317.155 270.615 314.185 271.495 310.629 271.495C307.732 271.495 305.129 270.853 302.819 269.57C300.545 268.25 298.749 266.417 297.429 264.07C296.145 261.687 295.504 258.937 295.504 255.82C295.504 252.703 296.127 249.972 297.374 247.625C298.657 245.242 300.435 243.408 302.709 242.125C305.019 240.842 307.659 240.2 310.629 240.2C313.489 240.2 316.037 240.823 318.274 242.07C320.51 243.317 322.252 245.077 323.499 247.35C324.745 249.587 325.369 252.172 325.369 255.105ZM318.824 253.125C318.787 250.815 317.962 248.963 316.349 247.57C314.735 246.177 312.737 245.48 310.354 245.48C308.19 245.48 306.339 246.177 304.799 247.57C303.259 248.927 302.342 250.778 302.049 253.125H318.824ZM359.314 255.105C359.314 256.242 359.241 257.268 359.094 258.185H335.939C336.122 260.605 337.021 262.548 338.634 264.015C340.247 265.482 342.227 266.215 344.574 266.215C347.947 266.215 350.331 264.803 351.724 261.98H358.489C357.572 264.767 355.904 267.058 353.484 268.855C351.101 270.615 348.131 271.495 344.574 271.495C341.677 271.495 339.074 270.853 336.764 269.57C334.491 268.25 332.694 266.417 331.374 264.07C330.091 261.687 329.449 258.937 329.449 255.82C329.449 252.703 330.072 249.972 331.319 247.625C332.602 245.242 334.381 243.408 336.654 242.125C338.964 240.842 341.604 240.2 344.574 240.2C347.434 240.2 349.982 240.823 352.219 242.07C354.456 243.317 356.197 245.077 357.444 247.35C358.691 249.587 359.314 252.172 359.314 255.105ZM352.769 253.125C352.732 250.815 351.907 248.963 350.294 247.57C348.681 246.177 346.682 245.48 344.299 245.48C342.136 245.48 340.284 246.177 338.744 247.57C337.204 248.927 336.287 250.778 335.994 253.125H352.769ZM363.394 255.71C363.394 252.667 364.018 249.972 365.264 247.625C366.548 245.278 368.271 243.463 370.434 242.18C372.634 240.86 375.073 240.2 377.749 240.2C379.729 240.2 381.673 240.64 383.579 241.52C385.523 242.363 387.063 243.5 388.199 244.93V230.3H394.524V271H388.199V266.435C387.173 267.902 385.743 269.112 383.909 270.065C382.113 271.018 380.041 271.495 377.694 271.495C375.054 271.495 372.634 270.835 370.434 269.515C368.271 268.158 366.548 266.288 365.264 263.905C364.018 261.485 363.394 258.753 363.394 255.71ZM388.199 255.82C388.199 253.73 387.759 251.915 386.879 250.375C386.036 248.835 384.918 247.662 383.524 246.855C382.131 246.048 380.628 245.645 379.014 245.645C377.401 245.645 375.898 246.048 374.504 246.855C373.111 247.625 371.974 248.78 371.094 250.32C370.251 251.823 369.829 253.62 369.829 255.71C369.829 257.8 370.251 259.633 371.094 261.21C371.974 262.787 373.111 263.997 374.504 264.84C375.934 265.647 377.438 266.05 379.014 266.05C380.628 266.05 382.131 265.647 383.524 264.84C384.918 264.033 386.036 262.86 386.879 261.32C387.759 259.743 388.199 257.91 388.199 255.82Z" fill="black"/>
</svg>
