<svg width="500" height="500" viewBox="0 0 500 500" fill="none" xmlns="http://www.w3.org/2000/svg">
<rect width="500" height="500" fill="white"/>
<path fill-rule="evenodd" clip-rule="evenodd" d="M115.265 238.057C117.344 228.867 125.613 222 135.5 222C145.388 222 153.656 228.867 155.735 238.057C163.266 239.326 169 245.831 169 253.667C169 258.718 168.058 263.809 163.506 266.833C162.774 267.319 161.783 267.124 161.293 266.398C160.803 265.671 161 264.688 161.732 264.201C164.875 262.113 165.81 258.497 165.81 253.667C165.81 247.071 160.729 241.651 154.241 241.055C153.519 240.988 152.932 240.446 152.814 239.735C151.446 231.471 144.213 225.167 135.5 225.167C126.787 225.167 119.554 231.471 118.186 239.735C118.068 240.446 117.481 240.988 116.759 241.055C110.271 241.651 105.19 247.071 105.19 253.667C105.19 258.057 107.439 261.926 110.864 264.201C111.596 264.688 111.792 265.671 111.302 266.398C110.812 267.124 109.821 267.319 109.089 266.833C104.818 263.995 102 259.158 102 253.667C102 245.831 107.734 239.326 115.265 238.057ZM132.788 250.5C133.473 250.5 134.081 250.933 134.3 251.577L141.402 272.465L144.198 264.244C144.417 263.6 145.025 263.167 145.71 263.167H151.452C152.333 263.167 153.048 263.876 153.048 264.75C153.048 265.624 152.333 266.333 151.452 266.333H146.855L142.914 277.923C142.695 278.567 142.087 279 141.402 279C140.718 279 140.11 278.567 139.891 277.923L132.788 257.035L129.992 265.256C129.774 265.9 129.165 266.333 128.481 266.333H122.738C121.857 266.333 121.143 265.624 121.143 264.75C121.143 263.876 121.857 263.167 122.738 263.167H127.336L131.277 251.577C131.495 250.933 132.104 250.5 132.788 250.5Z" fill="black"/>
<path d="M199.56 269.385C196.003 269.385 192.722 268.56 189.715 266.91C186.745 265.223 184.38 262.895 182.62 259.925C180.897 256.918 180.035 253.545 180.035 249.805C180.035 246.065 180.897 242.71 182.62 239.74C184.38 236.77 186.745 234.46 189.715 232.81C192.722 231.123 196.003 230.28 199.56 230.28C203.153 230.28 206.435 231.123 209.405 232.81C212.412 234.46 214.777 236.77 216.5 239.74C218.223 242.71 219.085 246.065 219.085 249.805C219.085 253.545 218.223 256.918 216.5 259.925C214.777 262.895 212.412 265.223 209.405 266.91C206.435 268.56 203.153 269.385 199.56 269.385ZM199.56 263.94C202.09 263.94 204.345 263.372 206.325 262.235C208.305 261.062 209.845 259.412 210.945 257.285C212.082 255.122 212.65 252.628 212.65 249.805C212.65 246.982 212.082 244.507 210.945 242.38C209.845 240.253 208.305 238.622 206.325 237.485C204.345 236.348 202.09 235.78 199.56 235.78C197.03 235.78 194.775 236.348 192.795 237.485C190.815 238.622 189.257 240.253 188.12 242.38C187.02 244.507 186.47 246.982 186.47 249.805C186.47 252.628 187.02 255.122 188.12 257.285C189.257 259.412 190.815 261.062 192.795 262.235C194.775 263.372 197.03 263.94 199.56 263.94ZM240.93 238.2C243.24 238.2 245.293 238.695 247.09 239.685C248.923 240.675 250.353 242.142 251.38 244.085C252.443 246.028 252.975 248.375 252.975 251.125V269H246.76V252.06C246.76 249.347 246.082 247.275 244.725 245.845C243.368 244.378 241.517 243.645 239.17 243.645C236.823 243.645 234.953 244.378 233.56 245.845C232.203 247.275 231.525 249.347 231.525 252.06V269H225.255V228.3H231.525V242.215C232.588 240.932 233.927 239.942 235.54 239.245C237.19 238.548 238.987 238.2 240.93 238.2ZM288.748 253.105C288.748 254.242 288.674 255.268 288.528 256.185H265.373C265.556 258.605 266.454 260.548 268.068 262.015C269.681 263.482 271.661 264.215 274.008 264.215C277.381 264.215 279.764 262.803 281.158 259.98H287.923C287.006 262.767 285.338 265.058 282.918 266.855C280.534 268.615 277.564 269.495 274.008 269.495C271.111 269.495 268.508 268.853 266.198 267.57C263.924 266.25 262.128 264.417 260.808 262.07C259.524 259.687 258.883 256.937 258.883 253.82C258.883 250.703 259.506 247.972 260.753 245.625C262.036 243.242 263.814 241.408 266.088 240.125C268.398 238.842 271.038 238.2 274.008 238.2C276.868 238.2 279.416 238.823 281.653 240.07C283.889 241.317 285.631 243.077 286.878 245.35C288.124 247.587 288.748 250.172 288.748 253.105ZM282.203 251.125C282.166 248.815 281.341 246.963 279.728 245.57C278.114 244.177 276.116 243.48 273.733 243.48C271.569 243.48 269.718 244.177 268.178 245.57C266.638 246.927 265.721 248.778 265.428 251.125H282.203ZM292.828 253.71C292.828 250.667 293.451 247.972 294.698 245.625C295.981 243.278 297.705 241.463 299.868 240.18C302.068 238.86 304.488 238.2 307.128 238.2C309.511 238.2 311.583 238.677 313.343 239.63C315.14 240.547 316.57 241.702 317.633 243.095V238.695H323.958V269H317.633V264.49C316.57 265.92 315.121 267.112 313.288 268.065C311.455 269.018 309.365 269.495 307.018 269.495C304.415 269.495 302.031 268.835 299.868 267.515C297.705 266.158 295.981 264.288 294.698 261.905C293.451 259.485 292.828 256.753 292.828 253.71ZM317.633 253.82C317.633 251.73 317.193 249.915 316.313 248.375C315.47 246.835 314.351 245.662 312.958 244.855C311.565 244.048 310.061 243.645 308.448 243.645C306.835 243.645 305.331 244.048 303.938 244.855C302.545 245.625 301.408 246.78 300.528 248.32C299.685 249.823 299.263 251.62 299.263 253.71C299.263 255.8 299.685 257.633 300.528 259.21C301.408 260.787 302.545 261.997 303.938 262.84C305.368 263.647 306.871 264.05 308.448 264.05C310.061 264.05 311.565 263.647 312.958 262.84C314.351 262.033 315.47 260.86 316.313 259.32C317.193 257.743 317.633 255.91 317.633 253.82ZM338.463 228.3V269H332.193V228.3H338.463ZM354.01 243.81V260.585C354.01 261.722 354.267 262.547 354.78 263.06C355.33 263.537 356.247 263.775 357.53 263.775H361.38V269H356.43C353.607 269 351.444 268.34 349.94 267.02C348.437 265.7 347.685 263.555 347.685 260.585V243.81H344.11V238.695H347.685V231.16H354.01V238.695H361.38V243.81H354.01ZM382.834 238.2C385.144 238.2 387.198 238.695 388.994 239.685C390.828 240.675 392.258 242.142 393.284 244.085C394.348 246.028 394.879 248.375 394.879 251.125V269H388.664V252.06C388.664 249.347 387.986 247.275 386.629 245.845C385.273 244.378 383.421 243.645 381.074 243.645C378.728 243.645 376.858 244.378 375.464 245.845C374.108 247.275 373.429 249.347 373.429 252.06V269H367.159V228.3H373.429V242.215C374.493 240.932 375.831 239.942 377.444 239.245C379.094 238.548 380.891 238.2 382.834 238.2Z" fill="black"/>
</svg>
