<svg width="500" height="500" viewBox="0 0 500 500" fill="none" xmlns="http://www.w3.org/2000/svg">
<rect width="500" height="500" fill="white"/>
<path d="M148.598 223.511C148.504 221.582 148.457 220.617 148.046 219.899C147.684 219.267 147.131 218.765 146.467 218.467C145.712 218.127 144.748 218.174 142.819 218.268L133.175 218.737C131.247 218.831 130.282 218.878 129.564 219.289C128.932 219.651 128.43 220.203 128.132 220.867C127.792 221.622 127.839 222.587 127.933 224.516L128.402 234.159C128.496 236.088 128.543 237.052 128.203 237.807C127.904 238.472 127.403 239.024 126.771 239.386C126.053 239.797 125.088 239.844 123.159 239.938L113.516 240.407C111.587 240.5 110.622 240.547 109.904 240.959C109.272 241.32 108.771 241.873 108.472 242.537C108.132 243.292 108.179 244.256 108.273 246.185L108.742 255.829C108.836 257.758 108.883 258.722 109.294 259.441C109.656 260.073 110.208 260.574 110.872 260.873C111.627 261.212 112.592 261.165 114.521 261.071L124.164 260.602C126.093 260.509 127.058 260.462 127.813 260.801C128.477 261.1 129.029 261.601 129.391 262.233C129.802 262.952 129.849 263.916 129.943 265.845L130.412 275.489C130.506 277.417 130.553 278.382 130.964 279.1C131.326 279.732 131.878 280.234 132.542 280.532C133.297 280.872 134.262 280.825 136.19 280.731L145.834 280.262C147.763 280.168 148.727 280.121 149.446 279.71C150.078 279.349 150.579 278.796 150.878 278.132C151.217 277.377 151.17 276.412 151.077 274.484" stroke="black" stroke-width="4" stroke-linecap="round" stroke-linejoin="round"/>
<path d="M200.532 228.41V233.525H184.307V244.8H196.957V249.915H184.307V266.635H178.037V228.41H200.532ZM204.252 251.345C204.252 248.302 204.876 245.607 206.122 243.26C207.406 240.914 209.129 239.099 211.292 237.815C213.492 236.495 215.912 235.835 218.552 235.835C220.936 235.835 223.007 236.312 224.767 237.265C226.564 238.182 227.994 239.337 229.057 240.73V236.33H235.382V266.635H229.057V262.125C227.994 263.555 226.546 264.747 224.712 265.7C222.879 266.654 220.789 267.13 218.442 267.13C215.839 267.13 213.456 266.47 211.292 265.15C209.129 263.794 207.406 261.924 206.122 259.54C204.876 257.12 204.252 254.389 204.252 251.345ZM229.057 251.455C229.057 249.365 228.617 247.55 227.737 246.01C226.894 244.47 225.776 243.297 224.382 242.49C222.989 241.684 221.486 241.28 219.872 241.28C218.259 241.28 216.756 241.684 215.362 242.49C213.969 243.26 212.832 244.415 211.952 245.955C211.109 247.459 210.687 249.255 210.687 251.345C210.687 253.435 211.109 255.269 211.952 256.845C212.832 258.422 213.969 259.632 215.362 260.475C216.792 261.282 218.296 261.685 219.872 261.685C221.486 261.685 222.989 261.282 224.382 260.475C225.776 259.669 226.894 258.495 227.737 256.955C228.617 255.379 229.057 253.545 229.057 251.455ZM254.618 267.13C252.234 267.13 250.089 266.709 248.183 265.865C246.313 264.985 244.828 263.812 243.728 262.345C242.628 260.842 242.041 259.174 241.968 257.34H248.458C248.568 258.624 249.173 259.705 250.273 260.585C251.409 261.429 252.821 261.85 254.508 261.85C256.268 261.85 257.624 261.52 258.578 260.86C259.568 260.164 260.063 259.284 260.063 258.22C260.063 257.084 259.513 256.24 258.413 255.69C257.349 255.14 255.644 254.535 253.298 253.875C251.024 253.252 249.173 252.647 247.743 252.06C246.313 251.474 245.066 250.575 244.003 249.365C242.976 248.155 242.463 246.56 242.463 244.58C242.463 242.967 242.939 241.5 243.893 240.18C244.846 238.824 246.203 237.76 247.963 236.99C249.759 236.22 251.813 235.835 254.123 235.835C257.569 235.835 260.338 236.715 262.428 238.475C264.554 240.199 265.691 242.564 265.838 245.57H259.568C259.458 244.214 258.908 243.132 257.918 242.325C256.928 241.519 255.589 241.115 253.903 241.115C252.253 241.115 250.988 241.427 250.108 242.05C249.228 242.674 248.788 243.499 248.788 244.525C248.788 245.332 249.081 246.01 249.668 246.56C250.254 247.11 250.969 247.55 251.813 247.88C252.656 248.174 253.903 248.559 255.553 249.035C257.753 249.622 259.549 250.227 260.943 250.85C262.373 251.437 263.601 252.317 264.628 253.49C265.654 254.664 266.186 256.222 266.223 258.165C266.223 259.889 265.746 261.429 264.793 262.785C263.839 264.142 262.483 265.205 260.723 265.975C258.999 266.745 256.964 267.13 254.618 267.13ZM280.313 241.445V258.22C280.313 259.357 280.569 260.182 281.083 260.695C281.633 261.172 282.549 261.41 283.833 261.41H287.683V266.635H282.733C279.909 266.635 277.746 265.975 276.243 264.655C274.739 263.335 273.988 261.19 273.988 258.22V241.445H270.413V236.33H273.988V228.795H280.313V236.33H287.683V241.445H280.313ZM330.794 258.825H314.789L312.039 266.635H305.494L319.189 228.355H326.449L340.144 266.635H333.544L330.794 258.825ZM329.034 253.71L322.819 235.945L316.549 253.71H329.034ZM349.288 232.315C348.151 232.315 347.198 231.93 346.428 231.16C345.658 230.39 345.273 229.437 345.273 228.3C345.273 227.164 345.658 226.21 346.428 225.44C347.198 224.67 348.151 224.285 349.288 224.285C350.388 224.285 351.323 224.67 352.093 225.44C352.863 226.21 353.248 227.164 353.248 228.3C353.248 229.437 352.863 230.39 352.093 231.16C351.323 231.93 350.388 232.315 349.288 232.315ZM352.368 236.33V266.635H346.098V236.33H352.368ZM358.51 251.345C358.51 248.302 359.133 245.607 360.38 243.26C361.663 240.914 363.387 239.099 365.55 237.815C367.75 236.495 370.188 235.835 372.865 235.835C374.845 235.835 376.788 236.275 378.695 237.155C380.638 237.999 382.178 239.135 383.315 240.565V225.935H389.64V266.635H383.315V262.07C382.288 263.537 380.858 264.747 379.025 265.7C377.228 266.654 375.157 267.13 372.81 267.13C370.17 267.13 367.75 266.47 365.55 265.15C363.387 263.794 361.663 261.924 360.38 259.54C359.133 257.12 358.51 254.389 358.51 251.345ZM383.315 251.455C383.315 249.365 382.875 247.55 381.995 246.01C381.152 244.47 380.033 243.297 378.64 242.49C377.247 241.684 375.743 241.28 374.13 241.28C372.517 241.28 371.013 241.684 369.62 242.49C368.227 243.26 367.09 244.415 366.21 245.955C365.367 247.459 364.945 249.255 364.945 251.345C364.945 253.435 365.367 255.269 366.21 256.845C367.09 258.422 368.227 259.632 369.62 260.475C371.05 261.282 372.553 261.685 374.13 261.685C375.743 261.685 377.247 261.282 378.64 260.475C380.033 259.669 381.152 258.495 381.995 256.955C382.875 255.379 383.315 253.545 383.315 251.455Z" fill="black"/>
<path d="M158.137 227.756L137.693 244.587C136.788 245.332 136.335 245.704 136.247 246.092C136.169 246.43 136.246 246.784 136.456 247.059C136.698 247.376 137.264 247.527 138.396 247.831L149.542 250.817L142.759 267.117L163.203 250.287C164.108 249.542 164.56 249.169 164.649 248.782C164.726 248.444 164.649 248.089 164.439 247.814C164.198 247.498 163.632 247.346 162.5 247.043L151.354 244.056L158.137 227.756Z" stroke="black" stroke-width="4" stroke-linecap="round" stroke-linejoin="round"/>
</svg>
