<svg width="500" height="500" viewBox="0 0 500 500" fill="none" xmlns="http://www.w3.org/2000/svg">
<rect width="500" height="500" fill="white"/>
<path d="M198.4 250C198.4 261.184 189.267 270.25 178 270.25C166.733 270.25 157.6 261.184 157.6 250M198.4 250C198.4 238.816 189.267 229.75 178 229.75C166.733 229.75 157.6 238.816 157.6 250M198.4 250C198.4 264.912 186.222 277 171.2 277C156.178 277 144 264.912 144 250M157.6 250C157.6 235.088 169.778 223 184.8 223C199.822 223 212 235.088 212 250" stroke="black" stroke-width="4" stroke-linecap="round" stroke-linejoin="round"/>
<path d="M244.56 269.385C241.003 269.385 237.722 268.56 234.715 266.91C231.745 265.223 229.38 262.895 227.62 259.925C225.897 256.918 225.035 253.545 225.035 249.805C225.035 246.065 225.897 242.71 227.62 239.74C229.38 236.77 231.745 234.46 234.715 232.81C237.722 231.123 241.003 230.28 244.56 230.28C248.153 230.28 251.435 231.123 254.405 232.81C257.412 234.46 259.777 236.77 261.5 239.74C263.223 242.71 264.085 246.065 264.085 249.805C264.085 253.545 263.223 256.918 261.5 259.925C259.777 262.895 257.412 265.223 254.405 266.91C251.435 268.56 248.153 269.385 244.56 269.385ZM244.56 263.94C247.09 263.94 249.345 263.372 251.325 262.235C253.305 261.062 254.845 259.412 255.945 257.285C257.082 255.122 257.65 252.628 257.65 249.805C257.65 246.982 257.082 244.507 255.945 242.38C254.845 240.253 253.305 238.622 251.325 237.485C249.345 236.348 247.09 235.78 244.56 235.78C242.03 235.78 239.775 236.348 237.795 237.485C235.815 238.622 234.257 240.253 233.12 242.38C232.02 244.507 231.47 246.982 231.47 249.805C231.47 252.628 232.02 255.122 233.12 257.285C234.257 259.412 235.815 261.062 237.795 262.235C239.775 263.372 242.03 263.94 244.56 263.94ZM276.525 243.15C277.588 241.757 279.037 240.583 280.87 239.63C282.703 238.677 284.775 238.2 287.085 238.2C289.725 238.2 292.127 238.86 294.29 240.18C296.49 241.463 298.213 243.278 299.46 245.625C300.707 247.972 301.33 250.667 301.33 253.71C301.33 256.753 300.707 259.485 299.46 261.905C298.213 264.288 296.49 266.158 294.29 267.515C292.127 268.835 289.725 269.495 287.085 269.495C284.775 269.495 282.722 269.037 280.925 268.12C279.128 267.167 277.662 265.993 276.525 264.6V283.41H270.255V238.695H276.525V243.15ZM294.95 253.71C294.95 251.62 294.51 249.823 293.63 248.32C292.787 246.78 291.65 245.625 290.22 244.855C288.827 244.048 287.323 243.645 285.71 243.645C284.133 243.645 282.63 244.048 281.2 244.855C279.807 245.662 278.67 246.835 277.79 248.375C276.947 249.915 276.525 251.73 276.525 253.82C276.525 255.91 276.947 257.743 277.79 259.32C278.67 260.86 279.807 262.033 281.2 262.84C282.63 263.647 284.133 264.05 285.71 264.05C287.323 264.05 288.827 263.647 290.22 262.84C291.65 261.997 292.787 260.787 293.63 259.21C294.51 257.633 294.95 255.8 294.95 253.71ZM305.44 253.71C305.44 250.667 306.064 247.972 307.31 245.625C308.594 243.278 310.317 241.463 312.48 240.18C314.68 238.86 317.1 238.2 319.74 238.2C322.124 238.2 324.195 238.677 325.955 239.63C327.752 240.547 329.182 241.702 330.245 243.095V238.695H336.57V269H330.245V264.49C329.182 265.92 327.734 267.112 325.9 268.065C324.067 269.018 321.977 269.495 319.63 269.495C317.027 269.495 314.644 268.835 312.48 267.515C310.317 266.158 308.594 264.288 307.31 261.905C306.064 259.485 305.44 256.753 305.44 253.71ZM330.245 253.82C330.245 251.73 329.805 249.915 328.925 248.375C328.082 246.835 326.964 245.662 325.57 244.855C324.177 244.048 322.674 243.645 321.06 243.645C319.447 243.645 317.944 244.048 316.55 244.855C315.157 245.625 314.02 246.78 313.14 248.32C312.297 249.823 311.875 251.62 311.875 253.71C311.875 255.8 312.297 257.633 313.14 259.21C314.02 260.787 315.157 261.997 316.55 262.84C317.98 263.647 319.484 264.05 321.06 264.05C322.674 264.05 324.177 263.647 325.57 262.84C326.964 262.033 328.082 260.86 328.925 259.32C329.805 257.743 330.245 255.91 330.245 253.82ZM351.076 228.3V269H344.806V228.3H351.076Z" fill="black"/>
</svg>
