<svg width="500" height="500" viewBox="0 0 500 500" fill="none" xmlns="http://www.w3.org/2000/svg">
<rect width="500" height="500" fill="white"/>
<path d="M144.289 263.5C144.289 270.956 150.431 277 158.008 277H171.727C179.303 277 185.446 270.956 185.446 263.5C185.446 256.044 179.303 250 171.727 250M159.723 277C167.299 277 173.442 270.956 173.442 263.5C173.442 256.044 167.299 250 159.723 250M185.446 236.5C185.446 229.044 179.303 223 171.727 223H158.008C150.431 223 144.289 229.044 144.289 236.5M170.012 223C162.435 223 156.293 229.044 156.293 236.5M134 250H189" stroke="black" stroke-width="4" stroke-linecap="round" stroke-linejoin="round"/>
<path d="M221.08 235.364V242.182H197.244V235.364H221.08ZM203.636 224.909H212.131V266.188C212.131 267.835 212.377 269.076 212.869 269.909C213.362 270.723 213.996 271.282 214.773 271.585C215.568 271.869 216.43 272.011 217.358 272.011C218.04 272.011 218.636 271.964 219.148 271.869C219.659 271.775 220.057 271.699 220.341 271.642L221.875 278.659C221.383 278.848 220.682 279.038 219.773 279.227C218.864 279.436 217.727 279.549 216.364 279.568C214.129 279.606 212.045 279.208 210.114 278.375C208.182 277.542 206.619 276.254 205.426 274.511C204.233 272.769 203.636 270.581 203.636 267.949V224.909ZM230.476 279V235.364H238.686V242.295H239.141C239.936 239.947 241.338 238.1 243.345 236.756C245.372 235.392 247.663 234.71 250.22 234.71C250.75 234.71 251.375 234.729 252.095 234.767C252.834 234.805 253.411 234.852 253.828 234.909V243.034C253.487 242.939 252.881 242.835 252.01 242.722C251.139 242.589 250.268 242.523 249.396 242.523C247.389 242.523 245.599 242.949 244.027 243.801C242.474 244.634 241.243 245.799 240.334 247.295C239.425 248.773 238.97 250.458 238.97 252.352V279H230.476ZM261.179 279V235.364H269.673V279H261.179ZM265.469 228.631C263.991 228.631 262.723 228.138 261.662 227.153C260.62 226.15 260.099 224.956 260.099 223.574C260.099 222.172 260.62 220.979 261.662 219.994C262.723 218.991 263.991 218.489 265.469 218.489C266.946 218.489 268.205 218.991 269.247 219.994C270.308 220.979 270.838 222.172 270.838 223.574C270.838 224.956 270.308 226.15 269.247 227.153C268.205 228.138 266.946 228.631 265.469 228.631ZM288.913 264.199L288.857 253.83H290.334L307.72 235.364H317.891L298.061 256.386H296.726L288.913 264.199ZM281.101 279V220.818H289.595V279H281.101ZM308.658 279L293.033 258.261L298.885 252.324L319.084 279H308.658ZM342.642 279.881C338.343 279.881 334.64 278.962 331.534 277.125C328.447 275.269 326.061 272.665 324.375 269.312C322.708 265.941 321.875 261.992 321.875 257.466C321.875 252.996 322.708 249.057 324.375 245.648C326.061 242.239 328.409 239.578 331.42 237.665C334.451 235.752 337.992 234.795 342.045 234.795C344.508 234.795 346.894 235.203 349.205 236.017C351.515 236.831 353.589 238.11 355.426 239.852C357.263 241.595 358.712 243.858 359.773 246.642C360.833 249.407 361.364 252.769 361.364 256.727V259.739H326.676V253.375H353.04C353.04 251.14 352.585 249.161 351.676 247.438C350.767 245.695 349.489 244.322 347.841 243.318C346.212 242.314 344.299 241.812 342.102 241.812C339.716 241.812 337.633 242.4 335.852 243.574C334.091 244.729 332.727 246.244 331.761 248.119C330.814 249.975 330.341 251.992 330.341 254.17V259.142C330.341 262.059 330.852 264.54 331.875 266.585C332.917 268.631 334.366 270.193 336.222 271.273C338.078 272.333 340.246 272.864 342.727 272.864C344.337 272.864 345.805 272.636 347.131 272.182C348.456 271.708 349.602 271.008 350.568 270.08C351.534 269.152 352.273 268.006 352.784 266.642L360.824 268.091C360.18 270.458 359.025 272.532 357.358 274.312C355.71 276.074 353.636 277.447 351.136 278.432C348.655 279.398 345.824 279.881 342.642 279.881Z" fill="black"/>
</svg>
