<svg width="500" height="500" viewBox="0 0 500 500" fill="none" xmlns="http://www.w3.org/2000/svg">
<rect width="500" height="500" fill="white"/>
<path d="M191.712 270.173C189.461 270.72 187.215 269.32 186.663 267.067C179.329 234.987 165.148 196.093 163.969 167.347H105.989C97.1413 203.973 105.891 291.92 100.239 331.8H151.873C157.335 331.84 157.429 340.067 151.873 340.147H95.24C93.9907 340.147 92.7933 339.6 91.992 338.6C91.3573 337.507 85.22 327.44 81.1453 314.213C77.8787 317.547 68.8947 321.987 68 314.56C68 261.427 98.7893 161.907 98.7893 161.907C99.3413 160.2 100.94 159 102.739 159H168.019C170.317 159 172.219 160.853 172.219 163.16C172.219 181.8 178.316 203.84 185.364 229.387C188.561 240.88 191.812 252.72 194.76 265.173C195.309 267.373 193.911 269.627 191.712 270.173Z" fill="black"/>
<path d="M129.996 247.318C126.313 249.984 125.979 255.832 129.252 260.353C131.429 263.36 134.661 265.033 137.666 265.033C139.179 265.033 140.634 264.609 141.867 263.716C143.718 262.377 144.784 260.236 144.872 257.687C144.955 255.297 144.152 252.809 142.611 250.681C139.337 246.161 133.678 244.651 129.996 247.318ZM140.369 260.581C140.343 260.574 140.313 260.566 140.285 260.558C140.216 260.539 140.142 260.516 140.066 260.49C140.017 260.474 139.966 260.454 139.915 260.433C139.835 260.402 139.753 260.365 139.669 260.325C139.616 260.3 139.562 260.274 139.508 260.244C139.418 260.195 139.327 260.136 139.236 260.075C139.188 260.043 139.139 260.014 139.092 259.978C138.954 259.874 138.819 259.759 138.691 259.622C138.59 259.515 138.497 259.4 138.41 259.277C138.28 259.093 138.165 258.892 138.066 258.674C138.025 258.584 137.998 258.479 137.963 258.384C137.912 258.247 137.855 258.117 137.816 257.968C137.801 257.911 137.795 257.844 137.781 257.786C137.673 257.325 137.607 256.821 137.599 256.257C137.596 256.045 137.6 255.826 137.611 255.599C137.628 255.242 137.627 254.9 137.612 254.569C137.607 254.453 137.592 254.346 137.583 254.234C137.567 254.024 137.551 253.815 137.523 253.616C137.505 253.49 137.478 253.372 137.456 253.251C137.424 253.077 137.392 252.903 137.35 252.737C137.32 252.614 137.283 252.498 137.248 252.381C137.202 252.228 137.157 252.076 137.104 251.931C137.062 251.816 137.017 251.706 136.97 251.596C136.913 251.458 136.854 251.323 136.791 251.193C136.74 251.088 136.686 250.986 136.631 250.885C136.563 250.761 136.493 250.64 136.42 250.522C136.361 250.427 136.301 250.334 136.239 250.244C136.162 250.132 136.083 250.024 136.001 249.917C135.936 249.832 135.871 249.749 135.804 249.668C135.774 249.633 135.747 249.593 135.717 249.559C137.221 249.996 138.742 251.071 139.888 252.654C140.992 254.18 141.569 255.926 141.513 257.574C141.471 258.806 141.069 259.851 140.369 260.581ZM131.411 250.545L131.412 250.544C131.419 250.547 131.427 250.55 131.434 250.553C131.45 250.56 131.467 250.567 131.483 250.574C131.551 250.601 131.621 250.632 131.694 250.665C131.721 250.678 131.749 250.691 131.777 250.705C131.848 250.74 131.921 250.778 131.995 250.819C132.019 250.833 132.042 250.844 132.066 250.858C132.162 250.914 132.26 250.975 132.359 251.042C132.378 251.055 132.398 251.071 132.417 251.085C132.496 251.141 132.575 251.201 132.654 251.265C132.685 251.29 132.716 251.317 132.746 251.344C132.818 251.407 132.89 251.474 132.96 251.544C132.987 251.57 133.014 251.596 133.04 251.623C133.134 251.722 133.225 251.827 133.313 251.941C133.327 251.959 133.34 251.981 133.354 251.999C133.427 252.097 133.496 252.2 133.563 252.309C133.588 252.35 133.612 252.393 133.636 252.435C133.692 252.535 133.745 252.64 133.796 252.749C133.816 252.792 133.837 252.834 133.856 252.879C133.921 253.033 133.981 253.194 134.033 253.367C134.038 253.382 134.041 253.401 134.046 253.416C134.091 253.574 134.129 253.741 134.161 253.915C134.171 253.973 134.18 254.034 134.189 254.094C134.211 254.24 134.228 254.392 134.239 254.548C134.244 254.612 134.249 254.676 134.253 254.742C134.263 254.963 134.266 255.191 134.254 255.435C134.239 255.761 134.236 256.077 134.243 256.386C134.245 256.489 134.254 256.587 134.258 256.688C134.267 256.891 134.278 257.094 134.298 257.29C134.309 257.406 134.326 257.518 134.341 257.63C134.364 257.805 134.388 257.978 134.42 258.146C134.441 258.262 134.466 258.374 134.492 258.485C134.528 258.645 134.567 258.801 134.61 258.955C134.641 259.064 134.673 259.172 134.708 259.279C134.757 259.429 134.812 259.576 134.869 259.72C134.908 259.82 134.946 259.919 134.99 260.016C135.055 260.163 135.129 260.305 135.203 260.447C135.247 260.531 135.289 260.618 135.337 260.699C135.432 260.862 135.536 261.017 135.642 261.17C135.679 261.222 135.711 261.278 135.749 261.33C135.755 261.337 135.758 261.345 135.764 261.352C134.389 260.854 133.025 259.831 131.976 258.382C130.03 255.697 129.842 252.315 131.411 250.545Z" fill="black"/>
<path d="M114.247 226C109.699 226 106 230.541 106 236.123C106 241.704 109.699 246.245 114.247 246.245C118.794 246.245 122.493 241.705 122.493 236.123C122.492 230.541 118.794 226 114.247 226ZM111.158 238.131C111.121 238.232 111.085 238.332 111.053 238.432C111.002 238.59 110.958 238.749 110.918 238.907C110.894 239.002 110.868 239.097 110.848 239.192C110.811 239.364 110.785 239.536 110.761 239.707C110.75 239.787 110.734 239.868 110.726 239.948C110.701 240.192 110.688 240.436 110.689 240.678C110.689 240.685 110.688 240.692 110.689 240.699C109.871 239.485 109.362 237.868 109.362 236.122C109.362 232.806 111.192 229.957 113.502 229.442H113.503C113.508 229.449 113.513 229.457 113.517 229.465C113.525 229.477 113.532 229.49 113.54 229.502C113.581 229.566 113.621 229.635 113.662 229.707C113.676 229.732 113.69 229.759 113.704 229.785C113.741 229.855 113.778 229.929 113.814 230.006C113.826 230.031 113.838 230.055 113.849 230.08C113.894 230.181 113.938 230.287 113.977 230.399C113.986 230.423 113.993 230.45 114.001 230.474C114.031 230.563 114.059 230.655 114.085 230.751C114.095 230.792 114.105 230.834 114.115 230.876C114.136 230.966 114.154 231.059 114.169 231.154C114.175 231.194 114.183 231.233 114.188 231.273C114.206 231.407 114.218 231.544 114.223 231.686C114.223 231.712 114.221 231.74 114.222 231.767C114.223 231.886 114.219 232.006 114.21 232.131C114.206 232.18 114.2 232.231 114.195 232.282C114.182 232.393 114.164 232.507 114.142 232.622C114.132 232.67 114.124 232.719 114.113 232.768C114.076 232.93 114.03 233.095 113.971 233.264C113.964 233.283 113.955 233.303 113.947 233.323C113.892 233.474 113.827 233.627 113.752 233.783C113.726 233.837 113.696 233.893 113.668 233.949C113.601 234.079 113.526 234.21 113.445 234.342C113.411 234.398 113.378 234.453 113.341 234.509C113.22 234.694 113.088 234.881 112.936 235.071C112.733 235.325 112.547 235.578 112.371 235.832C112.313 235.916 112.263 236 112.208 236.083C112.096 236.254 111.986 236.425 111.886 236.596C111.829 236.693 111.778 236.791 111.725 236.889C111.639 237.046 111.557 237.204 111.482 237.361C111.434 237.463 111.389 237.564 111.346 237.665C111.277 237.822 111.215 237.977 111.158 238.131ZM114.876 242.827C114.862 242.811 114.848 242.793 114.835 242.776C114.782 242.711 114.728 242.639 114.673 242.561C114.645 242.522 114.619 242.48 114.592 242.438C114.541 242.36 114.492 242.275 114.445 242.185C114.418 242.136 114.392 242.086 114.367 242.033C114.32 241.933 114.278 241.826 114.239 241.716C114.221 241.664 114.2 241.616 114.183 241.562C114.133 241.393 114.091 241.216 114.069 241.026C114.036 240.737 114.043 240.439 114.089 240.133C114.106 240.019 114.129 239.903 114.157 239.785C114.355 238.966 114.823 238.092 115.558 237.173C115.558 237.172 115.558 237.172 115.558 237.172C115.759 236.921 115.939 236.671 116.106 236.422C116.122 236.398 116.139 236.374 116.155 236.35C116.311 236.114 116.45 235.879 116.579 235.645C116.598 235.61 116.617 235.575 116.636 235.541C116.756 235.313 116.864 235.087 116.959 234.863C116.975 234.824 116.992 234.785 117.008 234.746C117.099 234.524 117.178 234.303 117.247 234.084C117.259 234.047 117.269 234.01 117.28 233.973C117.346 233.752 117.402 233.533 117.446 233.317C117.452 233.288 117.456 233.26 117.462 233.231C117.505 233.007 117.539 232.784 117.561 232.565C117.562 232.555 117.562 232.545 117.563 232.534C117.584 232.312 117.594 232.095 117.596 231.88C117.596 231.866 117.597 231.851 117.597 231.837C117.597 231.625 117.587 231.416 117.569 231.21C117.568 231.196 117.569 231.181 117.567 231.166C118.528 232.402 119.131 234.166 119.131 236.12C119.131 239.556 117.273 242.399 114.876 242.827Z" fill="black"/>
<path d="M117.594 217.318C118.774 217.676 119.976 217.855 121.15 217.855C122.478 217.855 123.77 217.627 124.954 217.172C127.334 216.258 129.011 214.551 129.674 212.366C130.337 210.18 129.892 207.83 128.419 205.747C127.039 203.794 124.895 202.298 122.381 201.536C119.867 200.774 117.252 200.827 115.02 201.682C112.64 202.596 110.963 204.303 110.3 206.488C109.637 208.674 110.083 211.024 111.555 213.107C112.936 215.06 115.08 216.556 117.594 217.318ZM125.676 207.687C126.387 208.694 126.701 209.768 126.585 210.773C126.525 210.799 126.462 210.825 126.393 210.85C126.366 210.86 126.336 210.869 126.308 210.879C126.228 210.906 126.143 210.931 126.054 210.954C126.03 210.961 126.007 210.968 125.983 210.974C125.875 211 125.759 211.02 125.639 211.037C125.608 211.041 125.577 211.045 125.545 211.049C125.42 211.063 125.29 211.07 125.156 211.069C125.13 211.068 125.103 211.067 125.076 211.066C124.931 211.061 124.782 211.049 124.629 211.021C123.484 210.813 122.389 209.957 121.375 208.478C121.194 208.214 121.009 207.971 120.82 207.74C120.801 207.717 120.783 207.693 120.764 207.67C120.585 207.454 120.401 207.254 120.217 207.065C120.188 207.035 120.159 207.005 120.13 206.976C119.95 206.796 119.767 206.63 119.582 206.475C119.548 206.446 119.513 206.417 119.479 206.389C119.295 206.24 119.111 206.101 118.925 205.974C118.89 205.95 118.855 205.928 118.819 205.905C118.631 205.781 118.442 205.665 118.252 205.562C118.222 205.545 118.191 205.531 118.161 205.515C117.971 205.415 117.779 205.323 117.588 205.242C117.566 205.233 117.545 205.224 117.523 205.216C117.337 205.14 117.151 205.073 116.965 205.014C116.93 205.003 116.896 204.99 116.861 204.98C116.678 204.924 116.497 204.879 116.316 204.839C116.289 204.833 116.262 204.824 116.236 204.818C117.773 204.232 119.609 204.21 121.406 204.755C123.208 205.299 124.724 206.342 125.676 207.687ZM118.569 214.102C116.767 213.555 115.251 212.513 114.3 211.167C113.617 210.2 113.302 209.172 113.378 208.202V208.2C113.388 208.197 113.399 208.195 113.408 208.192C113.419 208.189 113.431 208.186 113.442 208.183C113.516 208.163 113.593 208.144 113.675 208.126C113.707 208.119 113.739 208.113 113.772 208.106C113.843 208.092 113.917 208.08 113.993 208.069C114.028 208.064 114.061 208.058 114.096 208.054C114.202 208.041 114.312 208.03 114.427 208.025C114.461 208.023 114.497 208.024 114.531 208.023C114.617 208.02 114.704 208.02 114.794 208.024C114.84 208.025 114.887 208.028 114.935 208.031C115.023 208.037 115.113 208.047 115.204 208.059C115.247 208.065 115.29 208.069 115.333 208.076C115.465 208.098 115.599 208.125 115.736 208.162C115.762 208.169 115.789 208.18 115.815 208.187C115.929 208.221 116.044 208.26 116.16 208.305C116.205 208.323 116.25 208.342 116.295 208.362C116.401 208.408 116.507 208.459 116.615 208.516C116.656 208.538 116.696 208.558 116.738 208.581C116.884 208.665 117.031 208.758 117.177 208.865C117.187 208.872 117.196 208.882 117.206 208.889C117.341 208.99 117.476 209.104 117.611 209.227C117.653 209.265 117.695 209.307 117.736 209.347C117.844 209.451 117.951 209.564 118.057 209.685C118.098 209.732 118.14 209.777 118.181 209.826C118.323 209.997 118.464 210.178 118.603 210.379C118.787 210.648 118.976 210.9 119.168 211.143C119.231 211.222 119.297 211.294 119.361 211.371C119.492 211.528 119.624 211.683 119.759 211.829C119.836 211.913 119.916 211.99 119.994 212.069C120.119 212.196 120.246 212.32 120.374 212.437C120.458 212.514 120.543 212.587 120.629 212.659C120.757 212.767 120.886 212.87 121.016 212.968C121.103 213.034 121.191 213.098 121.279 213.159C121.413 213.253 121.55 213.338 121.687 213.421C121.774 213.474 121.86 213.527 121.948 213.576C122.096 213.657 122.248 213.73 122.399 213.8C122.478 213.837 122.556 213.878 122.636 213.911C122.833 213.993 123.033 214.063 123.235 214.126C123.272 214.138 123.308 214.154 123.345 214.165C123.35 214.166 123.355 214.169 123.36 214.17C121.905 214.625 120.223 214.604 118.569 214.102Z" fill="black"/>
<path d="M115.505 190.972C117.071 190.972 118.654 190.445 120.107 189.418C122.06 188.038 123.556 185.894 124.318 183.381C125.08 180.867 125.029 178.253 124.172 176.02C123.258 173.64 121.551 171.963 119.366 171.3C117.18 170.637 114.829 171.082 112.747 172.555C110.794 173.935 109.298 176.079 108.536 178.593C107.774 181.107 107.825 183.721 108.682 185.954C109.596 188.334 111.303 190.011 113.488 190.674C114.149 190.873 114.825 190.972 115.505 190.972ZM111.684 184.359C111.23 182.905 111.251 181.22 111.752 179.568C112.299 177.766 113.341 176.25 114.687 175.298C115.558 174.683 116.48 174.365 117.363 174.365C117.462 174.365 117.56 174.369 117.657 174.377C117.657 174.378 117.658 174.378 117.658 174.379C117.697 174.513 117.734 174.666 117.765 174.832C117.767 174.842 117.768 174.852 117.771 174.862C117.784 174.936 117.796 175.013 117.806 175.093C117.807 175.102 117.809 175.11 117.809 175.119C117.819 175.204 117.827 175.292 117.833 175.383C117.834 175.398 117.835 175.414 117.835 175.429C117.839 175.509 117.841 175.59 117.84 175.673C117.84 175.689 117.84 175.704 117.84 175.72C117.838 175.815 117.833 175.911 117.825 176.01C117.823 176.027 117.821 176.044 117.819 176.061C117.811 176.146 117.799 176.233 117.784 176.321C117.781 176.342 117.778 176.362 117.774 176.383C117.756 176.485 117.734 176.588 117.706 176.693C117.702 176.71 117.697 176.725 117.692 176.742C117.667 176.833 117.638 176.926 117.605 177.019C117.597 177.042 117.589 177.065 117.581 177.088C117.541 177.195 117.497 177.303 117.446 177.412C117.439 177.426 117.432 177.439 117.426 177.453C117.379 177.55 117.327 177.648 117.27 177.746C117.256 177.77 117.242 177.794 117.228 177.818C117.162 177.929 117.089 178.04 117.009 178.151C117.004 178.159 116.997 178.167 116.991 178.175C116.915 178.278 116.832 178.381 116.744 178.484C116.724 178.508 116.703 178.531 116.682 178.555C116.484 178.777 116.255 178.998 115.99 179.215C115.964 179.236 115.938 179.257 115.911 179.278C115.775 179.387 115.632 179.495 115.477 179.601C115.209 179.785 114.957 179.973 114.715 180.165C114.631 180.231 114.556 180.3 114.476 180.367C114.323 180.495 114.171 180.623 114.029 180.755C113.943 180.835 113.862 180.917 113.78 180.999C113.656 181.122 113.535 181.245 113.42 181.37C113.341 181.456 113.267 181.544 113.193 181.632C113.087 181.757 112.986 181.884 112.889 182.012C112.822 182.101 112.756 182.19 112.694 182.28C112.602 182.413 112.517 182.548 112.435 182.684C112.382 182.772 112.327 182.859 112.278 182.948C112.196 183.096 112.125 183.246 112.055 183.397C112.018 183.477 111.977 183.555 111.943 183.636C111.861 183.832 111.791 184.032 111.728 184.233C111.717 184.27 111.7 184.306 111.69 184.343C111.688 184.349 111.685 184.354 111.684 184.359ZM121.038 177.236C121.624 178.772 121.647 180.606 121.101 182.404C120.555 184.206 119.513 185.722 118.167 186.674C117.159 187.385 116.083 187.696 115.079 187.584C115.069 187.56 115.059 187.533 115.048 187.507C115.02 187.438 114.993 187.364 114.967 187.284C114.951 187.237 114.937 187.186 114.922 187.136C114.898 187.051 114.877 186.961 114.858 186.868C114.847 186.812 114.835 186.756 114.826 186.698C114.81 186.594 114.802 186.483 114.796 186.371C114.793 186.315 114.787 186.262 114.787 186.204C114.787 186.032 114.796 185.854 114.828 185.668C114.853 185.523 114.887 185.379 114.932 185.236C115.011 184.985 115.122 184.737 115.264 184.492C115.69 183.756 116.396 183.047 117.378 182.373C117.641 182.192 117.885 182.006 118.117 181.817C118.14 181.799 118.163 181.781 118.186 181.762C118.403 181.582 118.603 181.398 118.793 181.213C118.822 181.185 118.851 181.157 118.879 181.129C119.06 180.947 119.228 180.763 119.384 180.577C119.411 180.545 119.437 180.513 119.464 180.481C119.616 180.295 119.757 180.108 119.886 179.918C119.907 179.887 119.927 179.856 119.947 179.826C120.075 179.633 120.193 179.439 120.299 179.244C120.312 179.221 120.322 179.199 120.334 179.176C120.441 178.972 120.54 178.768 120.626 178.564C120.628 178.561 120.629 178.557 120.63 178.553C120.715 178.349 120.787 178.145 120.852 177.942C120.859 177.919 120.868 177.895 120.875 177.872C120.934 177.679 120.982 177.486 121.025 177.295C121.027 177.275 121.034 177.255 121.038 177.236Z" fill="black"/>
<path d="M141.536 211.379C142.299 213.893 143.794 216.038 145.747 217.418C147.2 218.445 148.782 218.972 150.349 218.972C151.029 218.972 151.705 218.873 152.366 218.673C154.551 218.01 156.258 216.333 157.172 213.953C158.029 211.72 158.081 209.106 157.318 206.593C156.556 204.078 155.06 201.934 153.107 200.554C151.024 199.08 148.673 198.637 146.488 199.299C144.302 199.962 142.596 201.639 141.682 204.019C140.825 206.252 140.774 208.866 141.536 211.379ZM154.038 212.736C154.034 212.716 154.027 212.696 154.023 212.677C153.981 212.485 153.933 212.293 153.873 212.1C153.866 212.077 153.858 212.054 153.85 212.031C153.786 211.827 153.713 211.623 153.628 211.418C153.627 211.415 153.626 211.412 153.625 211.41C153.54 211.205 153.441 211 153.332 210.796C153.321 210.774 153.31 210.751 153.297 210.729C153.191 210.534 153.073 210.341 152.945 210.148C152.925 210.117 152.904 210.086 152.883 210.055C152.755 209.867 152.615 209.68 152.463 209.495C152.436 209.461 152.407 209.427 152.379 209.394C152.224 209.21 152.058 209.028 151.88 208.848C151.849 208.817 151.816 208.785 151.783 208.754C151.597 208.572 151.401 208.393 151.189 208.217C151.16 208.193 151.128 208.169 151.099 208.145C150.88 207.967 150.65 207.792 150.403 207.622C150.393 207.615 150.385 207.608 150.375 207.602C148.896 206.586 148.04 205.491 147.831 204.346C147.803 204.192 147.791 204.042 147.786 203.897C147.786 203.872 147.784 203.847 147.783 203.822C147.781 203.684 147.789 203.551 147.803 203.423C147.806 203.398 147.81 203.374 147.812 203.35C147.829 203.222 147.851 203.098 147.879 202.983C147.881 202.977 147.882 202.971 147.884 202.965C147.913 202.85 147.945 202.743 147.979 202.643C147.984 202.629 147.988 202.614 147.993 202.601C148.021 202.523 148.049 202.455 148.077 202.389C149.084 202.27 150.156 202.587 151.163 203.298C152.509 204.25 153.55 205.766 154.097 207.569C154.647 209.365 154.625 211.2 154.038 212.736ZM144.729 205.74C144.792 205.941 144.861 206.14 144.944 206.336C144.977 206.416 145.018 206.495 145.055 206.575C145.125 206.726 145.197 206.877 145.279 207.026C145.327 207.114 145.381 207.201 145.434 207.288C145.517 207.425 145.603 207.561 145.696 207.696C145.757 207.784 145.821 207.871 145.887 207.958C145.985 208.09 146.089 208.219 146.198 208.347C146.269 208.431 146.341 208.515 146.416 208.598C146.535 208.729 146.662 208.858 146.792 208.986C146.868 209.062 146.943 209.138 147.023 209.213C147.176 209.355 147.339 209.494 147.505 209.632C147.573 209.689 147.636 209.746 147.707 209.802C147.951 209.996 148.205 210.186 148.476 210.372C148.677 210.51 148.857 210.651 149.027 210.792C149.078 210.835 149.125 210.878 149.174 210.921C149.291 211.024 149.401 211.128 149.502 211.233C149.545 211.278 149.589 211.322 149.63 211.367C149.747 211.495 149.854 211.623 149.951 211.751C149.963 211.767 149.978 211.783 149.991 211.8C150.097 211.944 150.188 212.088 150.27 212.232C150.296 212.277 150.318 212.322 150.342 212.367C150.396 212.469 150.445 212.571 150.489 212.672C150.51 212.721 150.531 212.769 150.55 212.818C150.592 212.928 150.629 213.036 150.661 213.144C150.67 213.176 150.682 213.209 150.691 213.241C150.727 213.375 150.754 213.506 150.776 213.636C150.784 213.685 150.789 213.732 150.796 213.781C150.807 213.865 150.816 213.948 150.821 214.03C150.825 214.083 150.828 214.136 150.83 214.188C150.833 214.266 150.832 214.341 150.831 214.416C150.83 214.462 150.831 214.51 150.829 214.555C150.823 214.662 150.814 214.764 150.802 214.864C150.795 214.919 150.787 214.97 150.778 215.023C150.77 215.074 150.762 215.124 150.753 215.173C150.743 215.227 150.732 215.279 150.721 215.33C150.712 215.371 150.702 215.411 150.692 215.45C150.679 215.499 150.667 215.549 150.654 215.595L150.653 215.598C149.674 215.668 148.653 215.358 147.686 214.676C146.34 213.725 145.298 212.209 144.752 210.406C144.25 208.754 144.23 207.07 144.684 205.616C144.686 205.621 144.688 205.626 144.69 205.631C144.701 205.666 144.717 205.702 144.729 205.74Z" fill="black"/>
<path d="M171.717 236.889C167.76 234.653 162.305 236.783 159.556 241.642C156.81 246.501 157.796 252.274 161.753 254.512C162.821 255.115 163.996 255.401 165.2 255.401C168.457 255.401 171.907 253.307 173.914 249.76C176.66 244.9 175.675 239.126 171.717 236.889ZM165.915 239.921C165.91 239.929 165.907 239.937 165.902 239.945C165.87 240 165.844 240.059 165.814 240.115C165.724 240.279 165.638 240.446 165.562 240.619C165.525 240.702 165.495 240.79 165.461 240.875C165.401 241.028 165.343 241.181 165.293 241.34C165.263 241.436 165.237 241.534 165.21 241.632C165.168 241.788 165.129 241.946 165.095 242.107C165.074 242.21 165.055 242.315 165.037 242.42C165.01 242.585 164.987 242.753 164.969 242.923C164.958 243.03 164.946 243.138 164.938 243.246C164.925 243.426 164.919 243.609 164.916 243.794C164.914 243.9 164.91 244.005 164.912 244.113C164.915 244.319 164.927 244.531 164.941 244.744C164.948 244.837 164.949 244.927 164.958 245.021C164.986 245.331 165.024 245.646 165.076 245.969C165.114 246.209 165.137 246.436 165.152 246.657C165.156 246.725 165.158 246.79 165.16 246.856C165.166 247.01 165.166 247.159 165.161 247.304C165.158 247.368 165.157 247.433 165.153 247.495C165.141 247.663 165.123 247.826 165.097 247.981C165.093 248.005 165.091 248.03 165.088 248.054C165.057 248.228 165.015 248.392 164.969 248.551C164.954 248.603 164.936 248.652 164.919 248.702C164.883 248.809 164.845 248.912 164.803 249.012C164.782 249.063 164.76 249.113 164.738 249.162C164.69 249.265 164.638 249.363 164.583 249.457C164.565 249.489 164.548 249.524 164.529 249.555C164.458 249.672 164.383 249.781 164.305 249.884C164.273 249.927 164.24 249.966 164.207 250.007C164.156 250.069 164.106 250.13 164.053 250.187C164.015 250.229 163.977 250.27 163.938 250.309C163.888 250.361 163.837 250.409 163.786 250.455C163.748 250.49 163.71 250.527 163.672 250.56C163.593 250.627 163.515 250.69 163.437 250.748C163.386 250.786 163.336 250.82 163.286 250.854C163.252 250.878 163.218 250.901 163.184 250.923C163.132 250.957 163.08 250.99 163.029 251.02C163.004 251.035 162.98 251.049 162.955 251.063C162.899 251.094 162.85 251.119 162.798 251.146C161.042 249.561 160.852 246.181 162.483 243.296C163.363 241.739 164.603 240.57 165.915 239.921ZM167.188 251.648C167.215 251.609 167.239 251.565 167.265 251.525C167.321 251.44 167.374 251.352 167.428 251.264C167.498 251.147 167.567 251.029 167.632 250.905C167.683 250.809 167.731 250.712 167.778 250.612C167.838 250.486 167.894 250.357 167.948 250.225C167.991 250.119 168.033 250.013 168.072 249.903C168.12 249.767 168.163 249.625 168.205 249.482C168.238 249.368 168.271 249.254 168.3 249.135C168.336 248.985 168.365 248.829 168.393 248.671C168.415 248.55 168.439 248.43 168.455 248.305C168.478 248.137 168.49 247.961 168.502 247.785C168.511 247.661 168.524 247.54 168.528 247.412C168.534 247.212 168.526 247.003 168.519 246.794C168.515 246.68 168.518 246.571 168.511 246.454C168.489 246.124 168.452 245.784 168.394 245.431C168.108 243.66 168.31 242.285 168.995 241.344C169.107 241.19 169.23 241.056 169.356 240.935C169.401 240.892 169.447 240.857 169.492 240.818C169.576 240.746 169.66 240.675 169.746 240.616C169.798 240.58 169.849 240.547 169.901 240.514C169.981 240.463 170.061 240.416 170.139 240.374C170.186 240.349 170.234 240.324 170.28 240.302C170.363 240.262 170.443 240.228 170.518 240.198C170.539 240.189 170.563 240.179 170.583 240.172C172.46 241.724 172.678 245.115 170.988 248.105C170.026 249.806 168.634 251.044 167.188 251.648Z" fill="black"/>
<path d="M122.717 300.889C118.76 298.653 113.305 300.783 110.556 305.642C107.81 310.501 108.796 316.274 112.753 318.512C113.821 319.115 114.996 319.401 116.2 319.401C119.457 319.401 122.907 317.307 124.914 313.76C127.66 308.9 126.675 303.126 122.717 300.889ZM116.915 303.921C116.91 303.929 116.907 303.937 116.902 303.945C116.87 304 116.844 304.059 116.814 304.115C116.724 304.279 116.638 304.446 116.562 304.619C116.525 304.702 116.495 304.79 116.461 304.875C116.401 305.028 116.343 305.181 116.293 305.34C116.263 305.436 116.237 305.534 116.21 305.632C116.168 305.788 116.129 305.946 116.095 306.107C116.074 306.21 116.055 306.315 116.037 306.42C116.01 306.585 115.987 306.753 115.969 306.923C115.958 307.03 115.946 307.138 115.938 307.246C115.925 307.426 115.919 307.609 115.916 307.794C115.914 307.9 115.91 308.005 115.912 308.113C115.915 308.319 115.927 308.531 115.941 308.744C115.948 308.837 115.949 308.927 115.958 309.021C115.986 309.331 116.024 309.646 116.076 309.969C116.114 310.209 116.137 310.436 116.152 310.657C116.156 310.725 116.158 310.79 116.16 310.856C116.166 311.01 116.166 311.159 116.161 311.304C116.158 311.368 116.157 311.433 116.153 311.495C116.141 311.663 116.123 311.826 116.097 311.981C116.093 312.005 116.091 312.03 116.088 312.054C116.057 312.228 116.015 312.392 115.969 312.551C115.954 312.603 115.936 312.652 115.919 312.702C115.883 312.809 115.845 312.912 115.803 313.012C115.782 313.063 115.76 313.113 115.738 313.162C115.69 313.265 115.638 313.363 115.583 313.457C115.565 313.489 115.548 313.524 115.529 313.555C115.458 313.672 115.383 313.781 115.305 313.884C115.273 313.927 115.24 313.966 115.207 314.007C115.156 314.069 115.106 314.13 115.053 314.187C115.015 314.229 114.977 314.27 114.938 314.309C114.888 314.361 114.837 314.409 114.786 314.455C114.748 314.49 114.71 314.527 114.672 314.56C114.593 314.627 114.515 314.69 114.437 314.748C114.386 314.786 114.336 314.82 114.286 314.854C114.252 314.878 114.218 314.901 114.184 314.923C114.132 314.957 114.08 314.99 114.029 315.02C114.004 315.035 113.98 315.049 113.955 315.063C113.899 315.094 113.85 315.119 113.798 315.146C112.042 313.561 111.852 310.181 113.483 307.296C114.363 305.739 115.603 304.57 116.915 303.921ZM118.188 315.648C118.215 315.609 118.239 315.565 118.265 315.525C118.321 315.44 118.374 315.352 118.428 315.264C118.498 315.147 118.567 315.029 118.632 314.905C118.683 314.809 118.731 314.712 118.778 314.612C118.838 314.486 118.894 314.357 118.948 314.225C118.991 314.119 119.033 314.013 119.072 313.903C119.12 313.767 119.163 313.625 119.205 313.482C119.238 313.368 119.271 313.254 119.3 313.135C119.336 312.985 119.365 312.829 119.393 312.671C119.415 312.55 119.439 312.43 119.455 312.305C119.478 312.137 119.49 311.961 119.502 311.785C119.511 311.661 119.524 311.54 119.528 311.412C119.534 311.212 119.526 311.003 119.519 310.794C119.515 310.68 119.518 310.571 119.511 310.454C119.489 310.124 119.452 309.784 119.394 309.431C119.108 307.66 119.31 306.285 119.995 305.344C120.107 305.19 120.23 305.056 120.356 304.935C120.401 304.892 120.447 304.857 120.492 304.818C120.576 304.746 120.66 304.675 120.746 304.616C120.798 304.58 120.849 304.547 120.901 304.514C120.981 304.463 121.061 304.416 121.139 304.374C121.186 304.349 121.234 304.324 121.28 304.302C121.363 304.262 121.443 304.228 121.518 304.198C121.539 304.189 121.563 304.179 121.583 304.172C123.46 305.724 123.678 309.115 121.988 312.105C121.026 313.806 119.634 315.044 118.188 315.648Z" fill="black"/>
<path d="M122.717 262.889C118.76 260.653 113.305 262.783 110.556 267.642C107.81 272.501 108.796 278.274 112.753 280.512C113.821 281.115 114.996 281.401 116.2 281.401C119.457 281.401 122.907 279.307 124.914 275.76C127.66 270.9 126.675 265.126 122.717 262.889ZM116.915 265.921C116.91 265.929 116.907 265.937 116.902 265.945C116.87 266 116.844 266.059 116.814 266.115C116.724 266.279 116.638 266.446 116.562 266.619C116.525 266.702 116.495 266.79 116.461 266.875C116.401 267.028 116.343 267.181 116.293 267.34C116.263 267.436 116.237 267.534 116.21 267.632C116.168 267.788 116.129 267.946 116.095 268.107C116.074 268.21 116.055 268.315 116.037 268.42C116.01 268.585 115.987 268.753 115.969 268.923C115.958 269.03 115.946 269.138 115.938 269.246C115.925 269.426 115.919 269.609 115.916 269.794C115.914 269.9 115.91 270.005 115.912 270.113C115.915 270.319 115.927 270.531 115.941 270.744C115.948 270.837 115.949 270.927 115.958 271.021C115.986 271.331 116.024 271.646 116.076 271.969C116.114 272.209 116.137 272.436 116.152 272.657C116.156 272.725 116.158 272.79 116.16 272.856C116.166 273.01 116.166 273.159 116.161 273.304C116.158 273.368 116.157 273.433 116.153 273.495C116.141 273.663 116.123 273.826 116.097 273.981C116.093 274.005 116.091 274.03 116.088 274.054C116.057 274.228 116.015 274.392 115.969 274.551C115.954 274.603 115.936 274.652 115.919 274.702C115.883 274.809 115.845 274.912 115.803 275.012C115.782 275.063 115.76 275.113 115.738 275.162C115.69 275.265 115.638 275.363 115.583 275.457C115.565 275.489 115.548 275.524 115.529 275.555C115.458 275.672 115.383 275.781 115.305 275.884C115.273 275.927 115.24 275.966 115.207 276.007C115.156 276.069 115.106 276.13 115.053 276.187C115.015 276.229 114.977 276.27 114.938 276.309C114.888 276.361 114.837 276.409 114.786 276.455C114.748 276.49 114.71 276.527 114.672 276.56C114.593 276.627 114.515 276.69 114.437 276.748C114.386 276.786 114.336 276.82 114.286 276.854C114.252 276.878 114.218 276.901 114.184 276.923C114.132 276.957 114.08 276.99 114.029 277.02C114.004 277.035 113.98 277.049 113.955 277.063C113.899 277.094 113.85 277.119 113.798 277.146C112.042 275.561 111.852 272.181 113.483 269.296C114.363 267.739 115.603 266.57 116.915 265.921ZM118.188 277.648C118.215 277.609 118.239 277.565 118.265 277.525C118.321 277.44 118.374 277.352 118.428 277.264C118.498 277.147 118.567 277.029 118.632 276.905C118.683 276.809 118.731 276.712 118.778 276.612C118.838 276.486 118.894 276.357 118.948 276.225C118.991 276.119 119.033 276.013 119.072 275.903C119.12 275.767 119.163 275.625 119.205 275.482C119.238 275.368 119.271 275.254 119.3 275.135C119.336 274.985 119.365 274.829 119.393 274.671C119.415 274.55 119.439 274.43 119.455 274.305C119.478 274.137 119.49 273.961 119.502 273.785C119.511 273.661 119.524 273.54 119.528 273.412C119.534 273.212 119.526 273.003 119.519 272.794C119.515 272.68 119.518 272.571 119.511 272.454C119.489 272.124 119.452 271.784 119.394 271.431C119.108 269.66 119.31 268.285 119.995 267.344C120.107 267.19 120.23 267.056 120.356 266.935C120.401 266.892 120.447 266.857 120.492 266.818C120.576 266.746 120.66 266.675 120.746 266.616C120.798 266.58 120.849 266.547 120.901 266.514C120.981 266.463 121.061 266.416 121.139 266.374C121.186 266.349 121.234 266.324 121.28 266.302C121.363 266.262 121.443 266.228 121.518 266.198C121.539 266.189 121.563 266.179 121.583 266.172C123.46 267.724 123.678 271.115 121.988 274.105C121.026 275.806 119.634 277.044 118.188 277.648Z" fill="black"/>
<path d="M145.273 194.473C145.702 194.515 146.128 194.538 146.55 194.538C148.709 194.538 150.773 193.976 152.468 192.914C154.628 191.56 155.946 189.563 156.176 187.291C156.177 187.284 156.176 187.277 156.176 187.27C156.4 185.005 155.513 182.793 153.674 181.037C151.944 179.385 149.552 178.33 146.939 178.064C141.379 177.501 136.495 180.723 136.036 185.246C135.806 187.519 136.695 189.739 138.538 191.501C140.268 193.152 142.66 194.208 145.273 194.473ZM146.598 181.408C148.467 181.598 150.152 182.325 151.343 183.459C151.319 183.454 151.294 183.452 151.27 183.449C151.079 183.414 150.886 183.386 150.687 183.366C150.669 183.364 150.651 183.364 150.633 183.362C150.185 183.321 149.718 183.319 149.234 183.366C149.232 183.366 149.23 183.366 149.228 183.366C148.987 183.39 148.742 183.427 148.494 183.476C148.48 183.479 148.465 183.481 148.452 183.484C148.21 183.533 147.965 183.595 147.716 183.669C147.693 183.676 147.671 183.683 147.649 183.689C147.404 183.765 147.156 183.854 146.904 183.957C146.879 183.967 146.853 183.978 146.828 183.989C146.576 184.095 146.321 184.213 146.064 184.348C146.043 184.359 146.021 184.372 146 184.383C145.734 184.525 145.466 184.68 145.195 184.855C143.687 185.827 142.343 186.194 141.21 185.947C141.024 185.906 140.853 185.848 140.69 185.78C140.635 185.757 140.587 185.731 140.535 185.706C140.433 185.657 140.333 185.607 140.241 185.552C140.188 185.52 140.138 185.487 140.089 185.454C140.01 185.401 139.934 185.347 139.866 185.292C139.822 185.257 139.778 185.222 139.738 185.188C139.676 185.135 139.62 185.083 139.569 185.032C139.546 185.01 139.522 184.987 139.501 184.966C140.177 182.66 143.236 181.059 146.598 181.408ZM150.682 190.066C149.287 190.941 147.479 191.322 145.613 191.128C143.895 190.954 142.333 190.325 141.166 189.345C141.41 189.373 141.657 189.385 141.905 189.386C142.121 189.387 142.338 189.379 142.556 189.36C142.609 189.355 142.663 189.345 142.717 189.339C142.888 189.32 143.059 189.298 143.231 189.266C143.315 189.251 143.4 189.23 143.485 189.212C143.628 189.181 143.771 189.149 143.915 189.11C144.007 189.085 144.1 189.056 144.193 189.028C144.333 188.985 144.472 188.939 144.613 188.889C144.706 188.855 144.8 188.82 144.893 188.783C145.037 188.726 145.182 188.664 145.327 188.599C145.417 188.559 145.506 188.52 145.596 188.477C145.756 188.401 145.915 188.316 146.076 188.23C146.152 188.189 146.228 188.152 146.304 188.109C146.54 187.975 146.779 187.834 147.017 187.679C147.22 187.548 147.417 187.438 147.612 187.336C147.679 187.301 147.744 187.271 147.809 187.24C147.937 187.178 148.063 187.123 148.187 187.073C148.257 187.045 148.328 187.016 148.398 186.992C148.53 186.946 148.658 186.907 148.785 186.873C148.85 186.855 148.915 186.836 148.979 186.822C149.125 186.789 149.268 186.763 149.407 186.745C149.48 186.735 149.551 186.73 149.622 186.725C149.711 186.717 149.799 186.712 149.886 186.711C149.958 186.709 150.031 186.708 150.101 186.71C150.185 186.713 150.267 186.719 150.348 186.727C150.435 186.735 150.522 186.744 150.605 186.757C150.706 186.773 150.805 186.79 150.899 186.812C150.968 186.828 151.034 186.847 151.1 186.866C151.158 186.882 151.216 186.899 151.272 186.918C151.338 186.94 151.404 186.963 151.467 186.987C151.516 187.006 151.563 187.027 151.61 187.046C151.838 187.143 152.043 187.253 152.225 187.367C152.254 187.385 152.283 187.403 152.31 187.421C152.365 187.457 152.417 187.493 152.467 187.528C152.492 187.545 152.514 187.562 152.537 187.58C152.588 187.617 152.629 187.653 152.674 187.689C152.372 188.611 151.684 189.437 150.682 190.066Z" fill="black"/>
<path d="M151.747 228.033C150.698 226.005 148.74 224.631 146.232 224.165C143.885 223.733 141.301 224.153 138.968 225.36C134.011 227.925 131.677 233.296 133.766 237.335C134.815 239.364 136.773 240.737 139.281 241.204C139.884 241.315 140.503 241.371 141.129 241.371C142.941 241.371 144.811 240.906 146.545 240.009C151.502 237.443 153.836 232.071 151.747 228.033ZM145.618 227.47C146.785 227.687 147.729 228.205 148.349 228.956L148.35 228.957C148.313 229.022 148.273 229.09 148.228 229.16C148.215 229.18 148.2 229.2 148.188 229.219C148.147 229.281 148.104 229.343 148.058 229.407C148.033 229.441 148.006 229.476 147.979 229.511C147.938 229.564 147.893 229.618 147.847 229.672C147.816 229.708 147.786 229.745 147.753 229.78C147.68 229.86 147.603 229.94 147.519 230.018C147.481 230.054 147.438 230.088 147.397 230.124C147.341 230.172 147.285 230.22 147.225 230.266C147.176 230.305 147.125 230.343 147.072 230.38C147.01 230.424 146.944 230.467 146.877 230.509C146.824 230.543 146.773 230.577 146.717 230.608C146.604 230.672 146.483 230.732 146.358 230.787C146.298 230.814 146.234 230.837 146.17 230.861C146.085 230.894 145.998 230.925 145.908 230.953C145.839 230.975 145.769 230.996 145.697 231.015C145.588 231.044 145.474 231.067 145.358 231.088C145.3 231.098 145.246 231.113 145.186 231.121C145.017 231.146 144.837 231.16 144.651 231.167C144.581 231.17 144.507 231.169 144.434 231.169C144.294 231.169 144.15 231.165 144.002 231.155C143.928 231.15 143.855 231.146 143.779 231.138C143.556 231.115 143.326 231.085 143.084 231.037C142.765 230.973 142.454 230.923 142.147 230.884C142.039 230.87 141.935 230.863 141.829 230.853C141.633 230.833 141.439 230.814 141.248 230.804C141.125 230.798 141.005 230.797 140.885 230.796C140.717 230.793 140.55 230.792 140.387 230.797C140.262 230.801 140.14 230.81 140.018 230.818C139.864 230.829 139.712 230.843 139.563 230.863C139.442 230.878 139.322 230.895 139.204 230.915C139.058 230.94 138.916 230.97 138.774 231.003C138.66 231.029 138.546 231.055 138.435 231.086C138.291 231.126 138.152 231.173 138.014 231.221C137.913 231.256 137.81 231.288 137.711 231.327C137.551 231.391 137.398 231.464 137.245 231.539C137.174 231.574 137.1 231.603 137.03 231.641C137.023 231.644 137.016 231.647 137.01 231.65C137.707 230.364 138.922 229.167 140.511 228.346C141.767 227.696 143.103 227.359 144.376 227.359C144.8 227.357 145.215 227.394 145.618 227.47ZM139.895 237.897C138.682 237.672 137.709 237.121 137.091 236.322C137.101 236.299 137.112 236.274 137.123 236.25C137.155 236.178 137.191 236.102 137.232 236.023C137.255 235.978 137.282 235.933 137.307 235.888C137.353 235.809 137.405 235.728 137.46 235.647C137.493 235.599 137.525 235.552 137.562 235.504C137.627 235.418 137.702 235.334 137.78 235.25C137.819 235.208 137.854 235.166 137.896 235.125C138.022 235.003 138.161 234.885 138.318 234.779C139.287 234.131 140.67 233.98 142.425 234.331C142.777 234.402 143.117 234.452 143.448 234.487C143.552 234.498 143.65 234.499 143.753 234.506C143.974 234.523 144.194 234.538 144.405 234.54C144.529 234.541 144.646 234.532 144.767 234.529C144.946 234.523 145.124 234.517 145.295 234.501C145.426 234.489 145.551 234.469 145.678 234.451C145.828 234.43 145.977 234.408 146.121 234.38C146.255 234.353 146.383 234.321 146.511 234.288C146.637 234.256 146.762 234.223 146.883 234.186C147.017 234.145 147.147 234.099 147.275 234.052C147.379 234.013 147.483 233.973 147.584 233.93C147.717 233.874 147.847 233.815 147.974 233.752C148.059 233.71 148.141 233.667 148.223 233.622C148.355 233.551 148.484 233.477 148.609 233.4C148.632 233.386 148.658 233.374 148.68 233.359C148.024 234.781 146.735 236.126 144.999 237.024C143.328 237.889 141.513 238.199 139.895 237.897Z" fill="black"/>
<path d="M141.593 322V271.091H160.237C163.849 271.091 166.84 271.687 169.21 272.881C171.58 274.057 173.353 275.656 174.53 277.678C175.706 279.683 176.295 281.946 176.295 284.464C176.295 286.586 175.905 288.375 175.126 289.834C174.348 291.276 173.304 292.436 171.994 293.314C170.702 294.176 169.277 294.805 167.719 295.203V295.7C169.409 295.783 171.058 296.33 172.665 297.341C174.29 298.335 175.632 299.752 176.692 301.592C177.753 303.431 178.283 305.668 178.283 308.303C178.283 310.905 177.67 313.242 176.444 315.313C175.234 317.368 173.362 319 170.826 320.21C168.29 321.403 165.051 322 161.107 322H141.593ZM149.274 315.413H160.361C164.04 315.413 166.675 314.7 168.266 313.275C169.857 311.85 170.652 310.068 170.652 307.93C170.652 306.323 170.246 304.848 169.434 303.506C168.622 302.163 167.462 301.094 165.954 300.299C164.462 299.504 162.689 299.106 160.634 299.106H149.274V315.413ZM149.274 293.115H159.565C161.289 293.115 162.838 292.784 164.214 292.121C165.606 291.458 166.708 290.53 167.52 289.337C168.348 288.127 168.763 286.702 168.763 285.061C168.763 282.956 168.025 281.192 166.55 279.766C165.076 278.341 162.813 277.629 159.764 277.629H149.274V293.115ZM203.253 322.771C199.491 322.771 196.252 321.967 193.534 320.359C190.833 318.735 188.744 316.457 187.27 313.523C185.811 310.574 185.082 307.118 185.082 303.158C185.082 299.247 185.811 295.8 187.27 292.817C188.744 289.834 190.799 287.505 193.434 285.832C196.086 284.158 199.185 283.321 202.731 283.321C204.886 283.321 206.974 283.677 208.995 284.39C211.017 285.103 212.832 286.221 214.439 287.746C216.047 289.27 217.315 291.251 218.243 293.687C219.171 296.106 219.635 299.048 219.635 302.511V305.146H189.283V299.578H212.351C212.351 297.623 211.953 295.891 211.158 294.383C210.363 292.858 209.244 291.657 207.802 290.778C206.377 289.9 204.703 289.461 202.781 289.461C200.693 289.461 198.87 289.975 197.312 291.002C195.771 292.013 194.578 293.339 193.733 294.979C192.904 296.603 192.49 298.368 192.49 300.274V304.624C192.49 307.176 192.937 309.347 193.832 311.137C194.743 312.927 196.011 314.294 197.635 315.239C199.259 316.167 201.157 316.631 203.328 316.631C204.736 316.631 206.021 316.432 207.181 316.034C208.341 315.62 209.343 315.007 210.189 314.195C211.034 313.383 211.68 312.38 212.127 311.187L219.162 312.455C218.599 314.526 217.588 316.341 216.13 317.898C214.688 319.44 212.873 320.641 210.686 321.503C208.515 322.348 206.037 322.771 203.253 322.771ZM238.993 322.845C236.573 322.845 234.386 322.398 232.43 321.503C230.475 320.591 228.925 319.274 227.782 317.55C226.655 315.827 226.091 313.714 226.091 311.212C226.091 309.057 226.506 307.284 227.334 305.892C228.163 304.5 229.282 303.398 230.69 302.586C232.099 301.774 233.673 301.161 235.413 300.746C237.153 300.332 238.926 300.017 240.733 299.802C243.02 299.537 244.876 299.321 246.301 299.156C247.726 298.973 248.762 298.683 249.408 298.286C250.055 297.888 250.378 297.241 250.378 296.347V296.173C250.378 294.002 249.765 292.32 248.538 291.126C247.328 289.933 245.522 289.337 243.119 289.337C240.617 289.337 238.645 289.892 237.203 291.002C235.778 292.096 234.792 293.314 234.245 294.656L227.26 293.065C228.088 290.745 229.298 288.873 230.889 287.447C232.497 286.006 234.344 284.962 236.432 284.315C238.52 283.652 240.716 283.321 243.02 283.321C244.544 283.321 246.16 283.503 247.867 283.868C249.59 284.216 251.198 284.862 252.689 285.807C254.198 286.751 255.432 288.102 256.393 289.859C257.354 291.599 257.835 293.861 257.835 296.645V322H250.577V316.78H250.278C249.798 317.741 249.077 318.686 248.116 319.614C247.154 320.542 245.92 321.312 244.412 321.925C242.904 322.539 241.097 322.845 238.993 322.845ZM240.608 316.879C242.663 316.879 244.42 316.473 245.878 315.661C247.353 314.849 248.472 313.789 249.234 312.479C250.013 311.154 250.403 309.737 250.403 308.229V303.307C250.137 303.572 249.624 303.821 248.861 304.053C248.116 304.268 247.262 304.459 246.301 304.624C245.34 304.773 244.403 304.914 243.492 305.047C242.581 305.163 241.818 305.262 241.205 305.345C239.763 305.527 238.446 305.834 237.253 306.265C236.076 306.696 235.131 307.317 234.419 308.129C233.723 308.925 233.375 309.985 233.375 311.311C233.375 313.151 234.054 314.543 235.413 315.487C236.772 316.415 238.504 316.879 240.608 316.879ZM275.167 299.33V322H267.735V283.818H274.869V290.033H275.341C276.22 288.011 277.595 286.387 279.468 285.161C281.357 283.934 283.735 283.321 286.602 283.321C289.204 283.321 291.482 283.868 293.438 284.962C295.393 286.039 296.91 287.646 297.987 289.784C299.064 291.922 299.603 294.565 299.603 297.714V322H292.17V298.609C292.17 295.841 291.449 293.679 290.007 292.121C288.566 290.546 286.585 289.759 284.066 289.759C282.343 289.759 280.81 290.132 279.468 290.878C278.142 291.624 277.09 292.717 276.311 294.159C275.548 295.584 275.167 297.308 275.167 299.33ZM310.167 322V271.091H317.6V290.008H318.047C318.478 289.212 319.1 288.293 319.912 287.249C320.724 286.205 321.85 285.293 323.292 284.514C324.734 283.719 326.64 283.321 329.01 283.321C332.092 283.321 334.843 284.1 337.262 285.658C339.682 287.215 341.579 289.461 342.955 292.394C344.347 295.327 345.043 298.857 345.043 302.984C345.043 307.11 344.355 310.648 342.98 313.598C341.604 316.531 339.715 318.793 337.312 320.384C334.909 321.959 332.167 322.746 329.084 322.746C326.764 322.746 324.867 322.356 323.392 321.577C321.933 320.799 320.79 319.887 319.961 318.843C319.133 317.799 318.495 316.871 318.047 316.059H317.426V322H310.167ZM317.451 302.909C317.451 305.594 317.84 307.947 318.619 309.969C319.398 311.991 320.525 313.573 322 314.717C323.475 315.844 325.281 316.407 327.419 316.407C329.639 316.407 331.495 315.819 332.987 314.642C334.478 313.449 335.605 311.833 336.368 309.795C337.146 307.756 337.536 305.461 337.536 302.909C337.536 300.39 337.155 298.128 336.392 296.123C335.647 294.118 334.52 292.535 333.012 291.375C331.52 290.215 329.656 289.635 327.419 289.635C325.264 289.635 323.441 290.19 321.95 291.3C320.475 292.411 319.356 293.96 318.594 295.949C317.832 297.937 317.451 300.258 317.451 302.909ZM364.501 322.845C362.081 322.845 359.894 322.398 357.938 321.503C355.983 320.591 354.433 319.274 353.29 317.55C352.163 315.827 351.599 313.714 351.599 311.212C351.599 309.057 352.014 307.284 352.842 305.892C353.671 304.5 354.789 303.398 356.198 302.586C357.607 301.774 359.181 301.161 360.921 300.746C362.661 300.332 364.434 300.017 366.241 299.802C368.528 299.537 370.384 299.321 371.809 299.156C373.234 298.973 374.27 298.683 374.916 298.286C375.562 297.888 375.885 297.241 375.885 296.347V296.173C375.885 294.002 375.272 292.32 374.046 291.126C372.836 289.933 371.03 289.337 368.627 289.337C366.125 289.337 364.153 289.892 362.711 291.002C361.286 292.096 360.3 293.314 359.753 294.656L352.768 293.065C353.596 290.745 354.806 288.873 356.397 287.447C358.004 286.006 359.852 284.962 361.94 284.315C364.028 283.652 366.224 283.321 368.528 283.321C370.052 283.321 371.668 283.503 373.375 283.868C375.098 284.216 376.706 284.862 378.197 285.807C379.705 286.751 380.94 288.102 381.901 289.859C382.862 291.599 383.343 293.861 383.343 296.645V322H376.084V316.78H375.786C375.305 317.741 374.585 318.686 373.623 319.614C372.662 320.542 371.428 321.312 369.92 321.925C368.412 322.539 366.605 322.845 364.501 322.845ZM366.116 316.879C368.171 316.879 369.928 316.473 371.386 315.661C372.861 314.849 373.98 313.789 374.742 312.479C375.521 311.154 375.91 309.737 375.91 308.229V303.307C375.645 303.572 375.131 303.821 374.369 304.053C373.623 304.268 372.77 304.459 371.809 304.624C370.848 304.773 369.911 304.914 369 305.047C368.088 305.163 367.326 305.262 366.713 305.345C365.271 305.527 363.954 305.834 362.76 306.265C361.584 306.696 360.639 307.317 359.927 308.129C359.231 308.925 358.883 309.985 358.883 311.311C358.883 313.151 359.562 314.543 360.921 315.487C362.28 316.415 364.012 316.879 366.116 316.879ZM409.251 337.114C406.218 337.114 403.608 336.716 401.421 335.92C399.25 335.125 397.477 334.073 396.101 332.763C394.726 331.454 393.698 330.021 393.019 328.463L399.407 325.828C399.855 326.557 400.451 327.328 401.197 328.14C401.959 328.969 402.987 329.673 404.279 330.253C405.589 330.833 407.271 331.123 409.326 331.123C412.143 331.123 414.471 330.435 416.311 329.06C418.15 327.701 419.07 325.53 419.07 322.547V315.04H418.598C418.15 315.852 417.504 316.755 416.659 317.749C415.83 318.744 414.687 319.605 413.228 320.335C411.77 321.064 409.873 321.428 407.536 321.428C404.52 321.428 401.802 320.724 399.382 319.315C396.98 317.89 395.074 315.794 393.665 313.026C392.273 310.242 391.577 306.82 391.577 302.76C391.577 298.7 392.265 295.22 393.64 292.32C395.032 289.42 396.938 287.199 399.358 285.658C401.777 284.1 404.52 283.321 407.586 283.321C409.955 283.321 411.869 283.719 413.328 284.514C414.786 285.293 415.921 286.205 416.733 287.249C417.562 288.293 418.2 289.212 418.647 290.008H419.194V283.818H426.478V322.845C426.478 326.126 425.715 328.819 424.191 330.924C422.666 333.029 420.603 334.586 418.001 335.597C415.416 336.608 412.499 337.114 409.251 337.114ZM409.176 315.263C411.314 315.263 413.121 314.766 414.596 313.772C416.087 312.761 417.214 311.319 417.976 309.447C418.755 307.558 419.145 305.295 419.145 302.661C419.145 300.092 418.763 297.83 418.001 295.874C417.239 293.919 416.12 292.394 414.645 291.3C413.17 290.19 411.347 289.635 409.176 289.635C406.939 289.635 405.075 290.215 403.583 291.375C402.092 292.518 400.965 294.076 400.203 296.048C399.457 298.02 399.084 300.224 399.084 302.661C399.084 305.163 399.465 307.359 400.228 309.248C400.99 311.137 402.117 312.612 403.608 313.673C405.116 314.733 406.972 315.263 409.176 315.263Z" fill="black"/>
</svg>
