<svg width="500" height="500" viewBox="0 0 500 500" fill="none" xmlns="http://www.w3.org/2000/svg">
<rect width="500" height="500" fill="white"/>
<path d="M140.361 282.791C132.418 284.421 125.186 285.34 119.284 284.749L135.257 241.629C136.412 238.677 134.041 235.283 130.875 235.358V235.357H115.304C113.35 235.357 111.597 236.548 110.935 238.408L110.936 238.409L97.6279 274.374L97.626 274.38L97.624 274.386C97.2547 275.479 96.2827 276.054 95.251 276.087C94.2191 276.119 93.2005 275.606 92.7422 274.584H92.7412C92.4585 273.902 92.4185 273.215 92.6543 272.57L107.768 231.791L107.77 231.786C108.146 230.735 109.226 230.036 110.429 230.101H136.312C138.277 230.101 140 228.862 140.679 227.018L144.949 215.5H192.394L213.337 271.993C207.445 270.143 200.294 270.102 192.538 271.041C184.331 272.034 175.389 274.132 166.457 276.398C157.513 278.667 148.586 281.103 140.361 282.791Z" fill="black" stroke="black"/>
<path d="M164.466 244.288C164.901 244.283 165.248 243.825 165.145 243.353C164.585 240.363 163.828 236.381 160.571 232.837C163.032 232.882 165.809 234.476 168.009 237.204C168.628 237.953 169.654 236.935 169.058 236.179C166.01 232.41 162.066 230.623 158.776 231.513C158.516 231.587 158.315 231.809 158.254 232.096C158.196 232.383 158.297 232.679 158.498 232.865C162.384 236.327 163.158 240.4 163.778 243.667C163.845 244.038 164.139 244.288 164.466 244.288Z" fill="white"/>
<path d="M166.435 243.95C164.538 248.959 164.643 255.77 168.596 259.124C169.043 259.52 169.794 259.148 169.773 258.528C169.822 247.981 178.802 246.856 179.235 236.662C179.298 235.364 178.193 234.222 176.969 234.291C172.744 234.474 168.508 238.356 166.435 243.95Z" fill="white"/>
<path d="M155.547 248.239C157.482 251.678 160.317 254.231 163.346 255.25C164.197 255.531 164.633 254.154 163.762 253.854C161.068 252.952 158.509 250.636 156.74 247.495C154.271 243.107 153.954 237.992 155.963 235.045C156.188 234.703 156.689 234.654 156.981 234.914C160.019 237.589 160.627 240.66 161.268 243.915C161.553 245.344 161.845 246.827 162.353 248.335C162.477 248.713 162.878 248.916 163.237 248.783C163.604 248.645 163.796 248.23 163.662 247.846C161.994 242.714 162.638 238.036 157.874 233.79C156.979 232.984 155.509 233.169 154.836 234.195C152.469 237.65 152.752 243.292 155.547 248.239Z" fill="white"/>
<path d="M175.815 247.969C173.504 250.746 171.325 253.363 171.24 258.036C171.186 259.263 172.278 260.348 173.488 260.285C182.702 260.125 189.686 243.038 181.84 236.446C181.402 236.063 180.657 236.422 180.676 237.009C180.597 242.243 178.168 245.15 175.815 247.969Z" fill="white"/>
<path d="M221 272.909V222H228.681V246.311H229.303L250.656 222H260.325L239.793 244.919L260.4 272.909H251.153L234.697 250.164L228.681 257.075V272.909H221ZM280.541 273.68C276.779 273.68 273.539 272.876 270.822 271.268C268.12 269.644 266.032 267.366 264.557 264.433C263.099 261.483 262.37 258.027 262.37 254.067C262.37 250.156 263.099 246.709 264.557 243.726C266.032 240.743 268.087 238.415 270.722 236.741C273.374 235.067 276.473 234.23 280.019 234.23C282.173 234.23 284.261 234.586 286.283 235.299C288.305 236.012 290.12 237.13 291.727 238.655C293.335 240.179 294.602 242.16 295.53 244.596C296.458 247.015 296.922 249.957 296.922 253.42V256.055H266.571V250.487H289.639C289.639 248.532 289.241 246.8 288.446 245.292C287.65 243.767 286.532 242.566 285.09 241.688C283.665 240.809 281.991 240.37 280.069 240.37C277.981 240.37 276.158 240.884 274.6 241.911C273.059 242.922 271.866 244.248 271.02 245.888C270.192 247.513 269.778 249.277 269.778 251.183V255.533C269.778 258.085 270.225 260.256 271.12 262.046C272.031 263.836 273.299 265.203 274.923 266.148C276.547 267.076 278.445 267.54 280.616 267.54C282.024 267.54 283.309 267.341 284.469 266.943C285.629 266.529 286.631 265.916 287.476 265.104C288.322 264.292 288.968 263.289 289.415 262.096L296.45 263.364C295.887 265.435 294.876 267.25 293.417 268.808C291.976 270.349 290.161 271.55 287.974 272.412C285.803 273.257 283.325 273.68 280.541 273.68ZM322.992 234.727V240.693H302.136V234.727H322.992ZM307.729 225.58H315.162V261.698C315.162 263.14 315.377 264.225 315.808 264.955C316.239 265.667 316.794 266.156 317.474 266.421C318.17 266.67 318.924 266.794 319.736 266.794C320.332 266.794 320.854 266.753 321.302 266.67C321.749 266.587 322.097 266.521 322.346 266.471L323.688 272.611C323.257 272.777 322.644 272.942 321.849 273.108C321.053 273.29 320.059 273.39 318.866 273.406C316.91 273.439 315.087 273.091 313.397 272.362C311.707 271.633 310.339 270.506 309.295 268.982C308.251 267.457 307.729 265.543 307.729 263.239V225.58ZM349.037 234.727V240.693H328.181V234.727H349.037ZM333.774 225.58H341.207V261.698C341.207 263.14 341.422 264.225 341.853 264.955C342.284 265.667 342.839 266.156 343.519 266.421C344.215 266.67 344.969 266.794 345.781 266.794C346.377 266.794 346.899 266.753 347.347 266.67C347.794 266.587 348.142 266.521 348.391 266.471L349.733 272.611C349.302 272.777 348.689 272.942 347.894 273.108C347.098 273.29 346.104 273.39 344.911 273.406C342.955 273.439 341.132 273.091 339.442 272.362C337.752 271.633 336.384 270.506 335.34 268.982C334.296 267.457 333.774 265.543 333.774 263.239V225.58ZM365.512 222V272.909H358.079V222H365.512ZM391.967 273.68C388.205 273.68 384.965 272.876 382.247 271.268C379.546 269.644 377.458 267.366 375.983 264.433C374.525 261.483 373.796 258.027 373.796 254.067C373.796 250.156 374.525 246.709 375.983 243.726C377.458 240.743 379.513 238.415 382.148 236.741C384.799 235.067 387.898 234.23 391.445 234.23C393.599 234.23 395.687 234.586 397.709 235.299C399.731 236.012 401.545 237.13 403.153 238.655C404.76 240.179 406.028 242.16 406.956 244.596C407.884 247.015 408.348 249.957 408.348 253.42V256.055H377.997V250.487H401.065C401.065 248.532 400.667 246.8 399.872 245.292C399.076 243.767 397.958 242.566 396.516 241.688C395.091 240.809 393.417 240.37 391.494 240.37C389.406 240.37 387.584 240.884 386.026 241.911C384.485 242.922 383.291 244.248 382.446 245.888C381.618 247.513 381.203 249.277 381.203 251.183V255.533C381.203 258.085 381.651 260.256 382.546 262.046C383.457 263.836 384.725 265.203 386.349 266.148C387.973 267.076 389.87 267.54 392.041 267.54C393.45 267.54 394.734 267.341 395.894 266.943C397.054 266.529 398.057 265.916 398.902 265.104C399.747 264.292 400.394 263.289 400.841 262.096L407.876 263.364C407.312 265.435 406.302 267.25 404.843 268.808C403.401 270.349 401.587 271.55 399.399 272.412C397.228 273.257 394.751 273.68 391.967 273.68Z" fill="black"/>
</svg>
