<svg width="500" height="500" viewBox="0 0 500 500" fill="none" xmlns="http://www.w3.org/2000/svg">
<rect width="500" height="500" fill="white"/>
<path d="M204.855 238.16C204.855 240.103 204.397 241.937 203.48 243.66C202.563 245.383 201.097 246.795 199.08 247.895C197.063 248.958 194.478 249.49 191.325 249.49H184.395V265H178.125V226.775H191.325C194.258 226.775 196.733 227.288 198.75 228.315C200.803 229.305 202.325 230.662 203.315 232.385C204.342 234.108 204.855 236.033 204.855 238.16ZM191.325 244.375C193.708 244.375 195.487 243.843 196.66 242.78C197.833 241.68 198.42 240.14 198.42 238.16C198.42 233.98 196.055 231.89 191.325 231.89H184.395V244.375H191.325ZM217.105 239.095C218.022 237.555 219.232 236.363 220.735 235.52C222.275 234.64 224.09 234.2 226.18 234.2V240.69H224.585C222.128 240.69 220.258 241.313 218.975 242.56C217.728 243.807 217.105 245.97 217.105 249.05V265H210.835V234.695H217.105V239.095ZM245.088 265.495C242.228 265.495 239.643 264.853 237.333 263.57C235.023 262.25 233.208 260.417 231.888 258.07C230.568 255.687 229.908 252.937 229.908 249.82C229.908 246.74 230.587 244.008 231.943 241.625C233.3 239.242 235.152 237.408 237.498 236.125C239.845 234.842 242.467 234.2 245.363 234.2C248.26 234.2 250.882 234.842 253.228 236.125C255.575 237.408 257.427 239.242 258.783 241.625C260.14 244.008 260.818 246.74 260.818 249.82C260.818 252.9 260.122 255.632 258.728 258.015C257.335 260.398 255.428 262.25 253.008 263.57C250.625 264.853 247.985 265.495 245.088 265.495ZM245.088 260.05C246.702 260.05 248.205 259.665 249.598 258.895C251.028 258.125 252.183 256.97 253.063 255.43C253.943 253.89 254.383 252.02 254.383 249.82C254.383 247.62 253.962 245.768 253.118 244.265C252.275 242.725 251.157 241.57 249.763 240.8C248.37 240.03 246.867 239.645 245.253 239.645C243.64 239.645 242.137 240.03 240.743 240.8C239.387 241.57 238.305 242.725 237.498 244.265C236.692 245.768 236.288 247.62 236.288 249.82C236.288 253.083 237.113 255.613 238.763 257.41C240.45 259.17 242.558 260.05 245.088 260.05ZM274.332 239.81V256.585C274.332 257.722 274.588 258.547 275.102 259.06C275.652 259.537 276.568 259.775 277.852 259.775H281.702V265H276.752C273.928 265 271.765 264.34 270.262 263.02C268.758 261.7 268.007 259.555 268.007 256.585V239.81H264.432V234.695H268.007V227.16H274.332V234.695H281.702V239.81H274.332ZM315.255 249.105C315.255 250.242 315.182 251.268 315.035 252.185H291.88C292.064 254.605 292.962 256.548 294.575 258.015C296.189 259.482 298.169 260.215 300.515 260.215C303.889 260.215 306.272 258.803 307.665 255.98H314.43C313.514 258.767 311.845 261.058 309.425 262.855C307.042 264.615 304.072 265.495 300.515 265.495C297.619 265.495 295.015 264.853 292.705 263.57C290.432 262.25 288.635 260.417 287.315 258.07C286.032 255.687 285.39 252.937 285.39 249.82C285.39 246.703 286.014 243.972 287.26 241.625C288.544 239.242 290.322 237.408 292.595 236.125C294.905 234.842 297.545 234.2 300.515 234.2C303.375 234.2 305.924 234.823 308.16 236.07C310.397 237.317 312.139 239.077 313.385 241.35C314.632 243.587 315.255 246.172 315.255 249.105ZM308.71 247.125C308.674 244.815 307.849 242.963 306.235 241.57C304.622 240.177 302.624 239.48 300.24 239.48C298.077 239.48 296.225 240.177 294.685 241.57C293.145 242.927 292.229 244.778 291.935 247.125H308.71ZM319.336 249.82C319.336 246.703 319.959 243.972 321.206 241.625C322.489 239.242 324.249 237.408 326.486 236.125C328.722 234.842 331.289 234.2 334.186 234.2C337.852 234.2 340.877 235.08 343.261 236.84C345.681 238.563 347.312 241.038 348.156 244.265H341.391C340.841 242.762 339.961 241.588 338.751 240.745C337.541 239.902 336.019 239.48 334.186 239.48C331.619 239.48 329.566 240.397 328.026 242.23C326.522 244.027 325.771 246.557 325.771 249.82C325.771 253.083 326.522 255.632 328.026 257.465C329.566 259.298 331.619 260.215 334.186 260.215C337.816 260.215 340.217 258.62 341.391 255.43H348.156C347.276 258.51 345.626 260.967 343.206 262.8C340.786 264.597 337.779 265.495 334.186 265.495C331.289 265.495 328.722 264.853 326.486 263.57C324.249 262.25 322.489 260.417 321.206 258.07C319.959 255.687 319.336 252.937 319.336 249.82ZM361.719 239.81V256.585C361.719 257.722 361.976 258.547 362.489 259.06C363.039 259.537 363.956 259.775 365.239 259.775H369.089V265H364.139C361.316 265 359.153 264.34 357.649 263.02C356.146 261.7 355.394 259.555 355.394 256.585V239.81H351.819V234.695H355.394V227.16H361.719V234.695H369.089V239.81H361.719ZM402.643 249.105C402.643 250.242 402.57 251.268 402.423 252.185H379.268C379.451 254.605 380.35 256.548 381.963 258.015C383.576 259.482 385.556 260.215 387.903 260.215C391.276 260.215 393.66 258.803 395.053 255.98H401.818C400.901 258.767 399.233 261.058 396.813 262.855C394.43 264.615 391.46 265.495 387.903 265.495C385.006 265.495 382.403 264.853 380.093 263.57C377.82 262.25 376.023 260.417 374.703 258.07C373.42 255.687 372.778 252.937 372.778 249.82C372.778 246.703 373.401 243.972 374.648 241.625C375.931 239.242 377.71 237.408 379.983 236.125C382.293 234.842 384.933 234.2 387.903 234.2C390.763 234.2 393.311 234.823 395.548 236.07C397.785 237.317 399.526 239.077 400.773 241.35C402.02 243.587 402.643 246.172 402.643 249.105ZM396.098 247.125C396.061 244.815 395.236 242.963 393.623 241.57C392.01 240.177 390.011 239.48 387.628 239.48C385.465 239.48 383.613 240.177 382.073 241.57C380.533 242.927 379.616 244.778 379.323 247.125H396.098ZM406.723 249.71C406.723 246.667 407.347 243.972 408.593 241.625C409.877 239.278 411.6 237.463 413.763 236.18C415.963 234.86 418.402 234.2 421.078 234.2C423.058 234.2 425.002 234.64 426.908 235.52C428.852 236.363 430.392 237.5 431.528 238.93V224.3H437.853V265H431.528V260.435C430.502 261.902 429.072 263.112 427.238 264.065C425.442 265.018 423.37 265.495 421.023 265.495C418.383 265.495 415.963 264.835 413.763 263.515C411.6 262.158 409.877 260.288 408.593 257.905C407.347 255.485 406.723 252.753 406.723 249.71ZM431.528 249.82C431.528 247.73 431.088 245.915 430.208 244.375C429.365 242.835 428.247 241.662 426.853 240.855C425.46 240.048 423.957 239.645 422.343 239.645C420.73 239.645 419.227 240.048 417.833 240.855C416.44 241.625 415.303 242.78 414.423 244.32C413.58 245.823 413.158 247.62 413.158 249.71C413.158 251.8 413.58 253.633 414.423 255.21C415.303 256.787 416.44 257.997 417.833 258.84C419.263 259.647 420.767 260.05 422.343 260.05C423.957 260.05 425.46 259.647 426.853 258.84C428.247 258.033 429.365 256.86 430.208 255.32C431.088 253.743 431.528 251.91 431.528 249.82Z" fill="black"/>
<path d="M169.547 275.063C171.259 277.995 172.114 279.461 171.988 280.665C171.877 281.714 171.323 282.668 170.463 283.288C169.476 284 167.769 284 164.353 284H102.647C99.2314 284 97.5236 284 96.5372 283.288C95.6769 282.668 95.1226 281.714 95.0122 280.665C94.8858 279.461 95.7414 277.995 97.4527 275.063L128.306 222.195C130.011 219.273 130.864 217.812 131.976 217.321C132.946 216.893 134.054 216.893 135.024 217.321C136.136 217.812 136.989 219.273 138.694 222.194" stroke="black" stroke-width="4" stroke-linecap="round" stroke-linejoin="round"/>
<path d="M143.035 235.976L142.983 236.002L142.424 234.869C141.651 233.306 142.171 231.472 143.586 230.772C145 230.073 146.774 230.774 147.547 232.337L148.106 233.47L148.054 233.495M146.664 237.001L147.224 238.133M150.53 235.794C151.612 237.983 150.883 240.551 148.903 241.53C146.923 242.509 144.44 241.528 143.358 239.339C142.276 237.15 143.005 234.582 144.985 233.603C146.966 232.625 149.448 233.605 150.53 235.794Z" stroke="black" stroke-linecap="round" stroke-linejoin="round"/>
<path d="M149.681 249.423L149.629 249.449L149.07 248.317C148.297 246.753 148.817 244.919 150.232 244.22C151.646 243.52 153.42 244.221 154.192 245.785L154.752 246.917L154.7 246.943M153.31 250.448L153.87 251.58M157.176 249.242C158.258 251.43 157.529 253.998 155.549 254.977C153.569 255.956 151.086 254.975 150.004 252.786C148.922 250.597 149.651 248.029 151.631 247.051C153.612 246.072 156.094 247.053 157.176 249.242Z" stroke="black" stroke-linecap="round" stroke-linejoin="round"/>
<path d="M156.328 262.87L156.276 262.896L155.716 261.764C154.943 260.2 155.464 258.366 156.878 257.667C158.293 256.968 160.066 257.668 160.839 259.232L161.399 260.364L161.347 260.39M159.957 263.895L160.516 265.027M163.822 262.689C164.904 264.878 164.176 267.446 162.196 268.424C160.215 269.403 157.733 268.422 156.651 266.233C155.569 264.045 156.297 261.477 158.278 260.498C160.258 259.519 162.741 260.5 163.822 262.689Z" stroke="black" stroke-linecap="round" stroke-linejoin="round"/>
<g clip-path="url(#clip0_19_583)">
<path d="M124 256.565C124 255.991 124 255.704 124.074 255.439C124.14 255.205 124.247 254.984 124.392 254.789C124.555 254.568 124.782 254.392 125.235 254.039L132.018 248.764C132.369 248.491 132.545 248.354 132.739 248.302C132.91 248.255 133.09 248.255 133.261 248.302C133.455 248.354 133.631 248.491 133.982 248.764L140.765 254.039C141.218 254.392 141.445 254.568 141.608 254.789C141.753 254.984 141.86 255.205 141.926 255.439C142 255.704 142 255.991 142 256.565V263.8C142 264.92 142 265.48 141.782 265.908C141.59 266.284 141.284 266.59 140.908 266.782C140.48 267 139.92 267 138.8 267H127.2C126.08 267 125.52 267 125.092 266.782C124.716 266.59 124.41 266.284 124.218 265.908C124 265.48 124 264.92 124 263.8V256.565Z" stroke="black" stroke-width="2" stroke-linecap="round" stroke-linejoin="round"/>
<path d="M135.84 256.42L136.74 258.02L134 259.04L136.74 260.06L135.82 261.7L133.54 259.9L133.96 262.8H132.12L132.5 259.9L130.22 261.74L129.26 260.04L131.98 259.02L129.26 258.04L130.18 256.4L132.52 258.2L132.12 255.28H133.98L133.54 258.2L135.84 256.42Z" fill="black"/>
</g>
<defs>
<clipPath id="clip0_19_583">
<rect width="24" height="24" fill="white" transform="translate(121 246)"/>
</clipPath>
</defs>
</svg>
