<svg width="500" height="500" viewBox="0 0 500 500" fill="none" xmlns="http://www.w3.org/2000/svg">
<rect width="500" height="500" fill="white"/>
<path d="M152.477 264.373C152.477 259.147 156.727 254.907 161.953 254.907H190.383V245.427H161.953C156.727 245.427 152.477 241.173 152.477 235.947C152.477 230.72 156.727 226.467 161.953 226.467H190.383V217H161.953C151.503 217 143 225.493 143 235.947C143 241.64 145.571 246.68 149.551 250.16C145.571 253.64 143 258.693 143 264.373C143 274.827 151.503 283.333 161.953 283.333H358V273.853H161.953C156.727 273.853 152.477 269.6 152.477 264.373Z" fill="black"/>
<path d="M218.08 265.771C214.5 265.771 211.376 264.95 208.708 263.31C206.04 261.669 203.969 259.374 202.494 256.424C201.019 253.474 200.281 250.027 200.281 246.083C200.281 242.123 201.019 238.659 202.494 235.693C203.969 232.726 206.04 230.423 208.708 228.782C211.376 227.141 214.5 226.321 218.08 226.321C221.659 226.321 224.783 227.141 227.451 228.782C230.119 230.423 232.191 232.726 233.665 235.693C235.14 238.659 235.878 242.123 235.878 246.083C235.878 250.027 235.14 253.474 233.665 256.424C232.191 259.374 230.119 261.669 227.451 263.31C224.783 264.95 221.659 265.771 218.08 265.771ZM218.104 259.531C220.424 259.531 222.347 258.918 223.871 257.692C225.396 256.466 226.523 254.833 227.252 252.795C227.998 250.757 228.371 248.511 228.371 246.058C228.371 243.622 227.998 241.385 227.252 239.347C226.523 237.292 225.396 235.643 223.871 234.4C222.347 233.157 220.424 232.536 218.104 232.536C215.768 232.536 213.829 233.157 212.288 234.4C210.763 235.643 209.628 237.292 208.882 239.347C208.153 241.385 207.788 243.622 207.788 246.058C207.788 248.511 208.153 250.757 208.882 252.795C209.628 254.833 210.763 256.466 212.288 257.692C213.829 258.918 215.768 259.531 218.104 259.531ZM260.257 265.771C256.678 265.771 253.554 264.95 250.886 263.31C248.218 261.669 246.146 259.374 244.671 256.424C243.196 253.474 242.459 250.027 242.459 246.083C242.459 242.123 243.196 238.659 244.671 235.693C246.146 232.726 248.218 230.423 250.886 228.782C253.554 227.141 256.678 226.321 260.257 226.321C263.837 226.321 266.961 227.141 269.629 228.782C272.297 230.423 274.368 232.726 275.843 235.693C277.318 238.659 278.056 242.123 278.056 246.083C278.056 250.027 277.318 253.474 275.843 256.424C274.368 259.374 272.297 261.669 269.629 263.31C266.961 264.95 263.837 265.771 260.257 265.771ZM260.282 259.531C262.602 259.531 264.525 258.918 266.049 257.692C267.574 256.466 268.701 254.833 269.43 252.795C270.176 250.757 270.548 248.511 270.548 246.058C270.548 243.622 270.176 241.385 269.43 239.347C268.701 237.292 267.574 235.643 266.049 234.4C264.525 233.157 262.602 232.536 260.282 232.536C257.945 232.536 256.007 233.157 254.465 234.4C252.941 235.643 251.806 237.292 251.06 239.347C250.331 241.385 249.966 243.622 249.966 246.058C249.966 248.511 250.331 250.757 251.06 252.795C251.806 254.833 252.941 256.466 254.465 257.692C256.007 258.918 257.945 259.531 260.282 259.531ZM293.188 252.049L293.138 242.976H294.431L309.644 226.818H318.543L301.192 245.213H300.024L293.188 252.049ZM286.352 265V214.091H293.784V265H286.352ZM310.464 265L296.792 246.854L301.913 241.659L319.587 265H310.464ZM353.928 236.14L347.192 237.333C346.91 236.471 346.463 235.651 345.849 234.872C345.253 234.093 344.441 233.455 343.413 232.958C342.386 232.461 341.102 232.212 339.56 232.212C337.456 232.212 335.699 232.685 334.29 233.629C332.882 234.557 332.178 235.759 332.178 237.234C332.178 238.51 332.65 239.537 333.594 240.316C334.539 241.095 336.064 241.733 338.168 242.23L344.234 243.622C347.747 244.434 350.365 245.685 352.089 247.376C353.812 249.066 354.674 251.262 354.674 253.963C354.674 256.25 354.011 258.288 352.685 260.078C351.376 261.851 349.545 263.243 347.192 264.254C344.855 265.265 342.146 265.771 339.063 265.771C334.788 265.771 331.299 264.859 328.598 263.036C325.897 261.197 324.24 258.587 323.626 255.206L330.81 254.112C331.258 255.985 332.178 257.402 333.57 258.363C334.962 259.308 336.776 259.78 339.013 259.78C341.45 259.78 343.397 259.275 344.855 258.264C346.313 257.236 347.043 255.985 347.043 254.51C347.043 253.317 346.595 252.314 345.7 251.502C344.822 250.69 343.471 250.077 341.648 249.663L335.185 248.246C331.622 247.434 328.987 246.141 327.281 244.368C325.59 242.595 324.745 240.349 324.745 237.632C324.745 235.378 325.375 233.406 326.634 231.715C327.894 230.025 329.634 228.708 331.854 227.763C334.075 226.802 336.619 226.321 339.486 226.321C343.612 226.321 346.86 227.216 349.23 229.006C351.6 230.779 353.166 233.157 353.928 236.14Z" fill="black"/>
</svg>
