<svg width="500" height="500" viewBox="0 0 500 500" fill="none" xmlns="http://www.w3.org/2000/svg">
<rect width="500" height="500" fill="white"/>
<path d="M128.045 220.796C127.391 214.876 134.045 215.97 138.325 215.823C147.325 215.823 159.418 217.17 167.258 225.57V214.37C168.725 186.783 189.378 177.33 212.911 178.037C217.018 178.25 224.645 176.837 223.791 183.037C223.711 183.463 221.258 194.316 213.565 204.13C206.818 212.756 194.778 222.023 175.151 219.45V260.97C175.138 266.103 167.298 266.197 167.258 260.97C168.245 236.517 165.591 223.557 137.325 223.757C139.858 230.023 145.871 240.69 158.071 242.81C160.218 243.183 161.645 245.223 161.258 247.383C160.911 249.543 158.831 250.956 156.725 250.583C134.018 246.65 128.285 221.876 128.045 220.796Z" fill="black"/>
<path d="M212.855 235.16C212.855 237.103 212.397 238.937 211.48 240.66C210.563 242.383 209.097 243.795 207.08 244.895C205.063 245.958 202.478 246.49 199.325 246.49H192.395V262H186.125V223.775H199.325C202.258 223.775 204.733 224.288 206.75 225.315C208.803 226.305 210.325 227.662 211.315 229.385C212.342 231.108 212.855 233.033 212.855 235.16ZM199.325 241.375C201.708 241.375 203.487 240.843 204.66 239.78C205.833 238.68 206.42 237.14 206.42 235.16C206.42 230.98 204.055 228.89 199.325 228.89H192.395V241.375H199.325ZM225.105 236.095C226.022 234.555 227.232 233.363 228.735 232.52C230.275 231.64 232.09 231.2 234.18 231.2V237.69H232.585C230.128 237.69 228.258 238.313 226.975 239.56C225.728 240.807 225.105 242.97 225.105 246.05V262H218.835V231.695H225.105V236.095ZM253.088 262.495C250.228 262.495 247.643 261.853 245.333 260.57C243.023 259.25 241.208 257.417 239.888 255.07C238.568 252.687 237.908 249.937 237.908 246.82C237.908 243.74 238.587 241.008 239.943 238.625C241.3 236.242 243.152 234.408 245.498 233.125C247.845 231.842 250.467 231.2 253.363 231.2C256.26 231.2 258.882 231.842 261.228 233.125C263.575 234.408 265.427 236.242 266.783 238.625C268.14 241.008 268.818 243.74 268.818 246.82C268.818 249.9 268.122 252.632 266.728 255.015C265.335 257.398 263.428 259.25 261.008 260.57C258.625 261.853 255.985 262.495 253.088 262.495ZM253.088 257.05C254.702 257.05 256.205 256.665 257.598 255.895C259.028 255.125 260.183 253.97 261.063 252.43C261.943 250.89 262.383 249.02 262.383 246.82C262.383 244.62 261.962 242.768 261.118 241.265C260.275 239.725 259.157 238.57 257.763 237.8C256.37 237.03 254.867 236.645 253.253 236.645C251.64 236.645 250.137 237.03 248.743 237.8C247.387 238.57 246.305 239.725 245.498 241.265C244.692 242.768 244.288 244.62 244.288 246.82C244.288 250.083 245.113 252.613 246.763 254.41C248.45 256.17 250.558 257.05 253.088 257.05ZM302.792 246.105C302.792 247.242 302.718 248.268 302.572 249.185H279.417C279.6 251.605 280.498 253.548 282.112 255.015C283.725 256.482 285.705 257.215 288.052 257.215C291.425 257.215 293.808 255.803 295.202 252.98H301.967C301.05 255.767 299.382 258.058 296.962 259.855C294.578 261.615 291.608 262.495 288.052 262.495C285.155 262.495 282.552 261.853 280.242 260.57C277.968 259.25 276.172 257.417 274.852 255.07C273.568 252.687 272.927 249.937 272.927 246.82C272.927 243.703 273.55 240.972 274.797 238.625C276.08 236.242 277.858 234.408 280.132 233.125C282.442 231.842 285.082 231.2 288.052 231.2C290.912 231.2 293.46 231.823 295.697 233.07C297.933 234.317 299.675 236.077 300.922 238.35C302.168 240.587 302.792 243.172 302.792 246.105ZM296.247 244.125C296.21 241.815 295.385 239.963 293.772 238.57C292.158 237.177 290.16 236.48 287.777 236.48C285.613 236.48 283.762 237.177 282.222 238.57C280.682 239.927 279.765 241.778 279.472 244.125H296.247ZM306.872 246.82C306.872 243.703 307.495 240.972 308.742 238.625C310.025 236.242 311.785 234.408 314.022 233.125C316.259 231.842 318.825 231.2 321.722 231.2C325.389 231.2 328.414 232.08 330.797 233.84C333.217 235.563 334.849 238.038 335.692 241.265H328.927C328.377 239.762 327.497 238.588 326.287 237.745C325.077 236.902 323.555 236.48 321.722 236.48C319.155 236.48 317.102 237.397 315.562 239.23C314.059 241.027 313.307 243.557 313.307 246.82C313.307 250.083 314.059 252.632 315.562 254.465C317.102 256.298 319.155 257.215 321.722 257.215C325.352 257.215 327.754 255.62 328.927 252.43H335.692C334.812 255.51 333.162 257.967 330.742 259.8C328.322 261.597 325.315 262.495 321.722 262.495C318.825 262.495 316.259 261.853 314.022 260.57C311.785 259.25 310.025 257.417 308.742 255.07C307.495 252.687 306.872 249.937 306.872 246.82ZM355.085 262.495C352.225 262.495 349.64 261.853 347.33 260.57C345.02 259.25 343.205 257.417 341.885 255.07C340.565 252.687 339.905 249.937 339.905 246.82C339.905 243.74 340.584 241.008 341.94 238.625C343.297 236.242 345.149 234.408 347.495 233.125C349.842 231.842 352.464 231.2 355.36 231.2C358.257 231.2 360.879 231.842 363.225 233.125C365.572 234.408 367.424 236.242 368.78 238.625C370.137 241.008 370.815 243.74 370.815 246.82C370.815 249.9 370.119 252.632 368.725 255.015C367.332 257.398 365.425 259.25 363.005 260.57C360.622 261.853 357.982 262.495 355.085 262.495ZM355.085 257.05C356.699 257.05 358.202 256.665 359.595 255.895C361.025 255.125 362.18 253.97 363.06 252.43C363.94 250.89 364.38 249.02 364.38 246.82C364.38 244.62 363.959 242.768 363.115 241.265C362.272 239.725 361.154 238.57 359.76 237.8C358.367 237.03 356.864 236.645 355.25 236.645C353.637 236.645 352.134 237.03 350.74 237.8C349.384 238.57 348.302 239.725 347.495 241.265C346.689 242.768 346.285 244.62 346.285 246.82C346.285 250.083 347.11 252.613 348.76 254.41C350.447 256.17 352.555 257.05 355.085 257.05Z" fill="black"/>
</svg>
