<svg width="500" height="500" viewBox="0 0 500 500" fill="none" xmlns="http://www.w3.org/2000/svg">
<rect width="500" height="500" fill="white"/>
<path d="M141.761 259.12C141.761 246.92 133.911 236.16 122.633 232.253C121.05 218.067 108.984 207 94.3795 207C79.7768 207 67.7088 218.067 66.1262 232.253C54.2862 236.373 46.2782 248.053 47.0515 260.867C47.9515 275.827 60.8608 287.547 76.4408 287.547C88.9448 287.547 99.1182 277.373 99.1182 264.867V263.853H89.6422V264.867C89.6422 272.147 83.7195 278.067 76.4408 278.067C65.8648 278.067 57.1102 270.267 56.5088 260.293C55.9422 250.893 62.4595 242.4 71.6728 240.547L75.5862 239.76L75.4728 235.76C75.4688 235.573 75.4528 235.387 75.4288 235.187C75.5568 224.853 84.0075 216.48 94.3795 216.48C104.754 216.48 113.207 224.853 113.33 235.2L113.173 239.76L117.088 240.547C125.893 242.32 132.285 250.133 132.285 259.12C132.285 267.92 126.221 275.28 118.07 277.4V273.333L99.1182 282.813L118.07 292.28V287.12C131.494 284.853 141.761 273.173 141.761 259.12Z" fill="black"/>
<path d="M160.392 279V220.818H181.131C185.638 220.818 189.379 221.595 192.352 223.148C195.345 224.701 197.58 226.85 199.057 229.597C200.534 232.324 201.273 235.477 201.273 239.057C201.273 242.617 200.525 245.752 199.028 248.46C197.551 251.15 195.316 253.242 192.324 254.739C189.35 256.235 185.61 256.983 181.102 256.983H165.392V249.426H180.307C183.148 249.426 185.458 249.019 187.239 248.205C189.038 247.39 190.354 246.206 191.188 244.653C192.021 243.1 192.438 241.235 192.438 239.057C192.438 236.86 192.011 234.956 191.159 233.347C190.326 231.737 189.009 230.506 187.21 229.653C185.43 228.782 183.091 228.347 180.193 228.347H169.17V279H160.392ZM189.114 252.75L203.489 279H193.489L179.398 252.75H189.114ZM229.533 279.881C225.233 279.881 221.531 278.962 218.425 277.125C215.338 275.269 212.951 272.665 211.266 269.312C209.599 265.941 208.766 261.992 208.766 257.466C208.766 252.996 209.599 249.057 211.266 245.648C212.951 242.239 215.3 239.578 218.311 237.665C221.341 235.752 224.883 234.795 228.936 234.795C231.398 234.795 233.785 235.203 236.095 236.017C238.406 236.831 240.48 238.11 242.317 239.852C244.154 241.595 245.603 243.858 246.663 246.642C247.724 249.407 248.254 252.769 248.254 256.727V259.739H213.567V253.375H239.93C239.93 251.14 239.476 249.161 238.567 247.438C237.658 245.695 236.379 244.322 234.732 243.318C233.103 242.314 231.19 241.812 228.993 241.812C226.607 241.812 224.523 242.4 222.743 243.574C220.982 244.729 219.618 246.244 218.652 248.119C217.705 249.975 217.232 251.992 217.232 254.17V259.142C217.232 262.059 217.743 264.54 218.766 266.585C219.807 268.631 221.256 270.193 223.112 271.273C224.968 272.333 227.137 272.864 229.618 272.864C231.228 272.864 232.696 272.636 234.021 272.182C235.347 271.708 236.493 271.008 237.459 270.08C238.425 269.152 239.163 268.006 239.675 266.642L247.714 268.091C247.071 270.458 245.915 272.532 244.249 274.312C242.601 276.074 240.527 277.447 238.027 278.432C235.546 279.398 232.714 279.881 229.533 279.881ZM276.06 279.881C271.836 279.881 268.2 278.924 265.151 277.011C262.12 275.08 259.791 272.419 258.162 269.028C256.533 265.638 255.719 261.756 255.719 257.381C255.719 252.949 256.552 249.038 258.219 245.648C259.885 242.239 262.234 239.578 265.264 237.665C268.295 235.752 271.865 234.795 275.974 234.795C279.289 234.795 282.243 235.411 284.838 236.642C287.433 237.854 289.526 239.559 291.116 241.756C292.726 243.953 293.683 246.519 293.986 249.455H285.719C285.264 247.409 284.223 245.648 282.594 244.17C280.984 242.693 278.825 241.955 276.116 241.955C273.749 241.955 271.675 242.58 269.895 243.83C268.134 245.061 266.76 246.822 265.776 249.114C264.791 251.386 264.298 254.076 264.298 257.182C264.298 260.364 264.781 263.11 265.747 265.42C266.713 267.731 268.077 269.521 269.838 270.79C271.618 272.059 273.711 272.693 276.116 272.693C277.726 272.693 279.185 272.4 280.491 271.812C281.817 271.206 282.925 270.345 283.815 269.227C284.724 268.11 285.359 266.765 285.719 265.193H293.986C293.683 268.015 292.764 270.534 291.23 272.75C289.696 274.966 287.641 276.708 285.065 277.977C282.509 279.246 279.507 279.881 276.06 279.881ZM308.439 295.364C307.17 295.364 306.015 295.259 304.973 295.051C303.931 294.862 303.155 294.653 302.643 294.426L304.689 287.466C306.242 287.883 307.625 288.063 308.837 288.006C310.049 287.949 311.119 287.494 312.047 286.642C312.994 285.79 313.827 284.398 314.547 282.466L315.598 279.568L299.632 235.364H308.723L319.774 269.227H320.229L331.28 235.364H340.399L322.416 284.824C321.583 287.097 320.522 289.019 319.234 290.591C317.946 292.182 316.412 293.375 314.632 294.17C312.852 294.966 310.787 295.364 308.439 295.364ZM365.278 279.881C361.055 279.881 357.419 278.924 354.369 277.011C351.339 275.08 349.009 272.419 347.381 269.028C345.752 265.638 344.938 261.756 344.938 257.381C344.938 252.949 345.771 249.038 347.438 245.648C349.104 242.239 351.453 239.578 354.483 237.665C357.513 235.752 361.083 234.795 365.193 234.795C368.508 234.795 371.462 235.411 374.057 236.642C376.652 237.854 378.744 239.559 380.335 241.756C381.945 243.953 382.902 246.519 383.205 249.455H374.938C374.483 247.409 373.441 245.648 371.812 244.17C370.203 242.693 368.044 241.955 365.335 241.955C362.968 241.955 360.894 242.58 359.114 243.83C357.352 245.061 355.979 246.822 354.994 249.114C354.009 251.386 353.517 254.076 353.517 257.182C353.517 260.364 354 263.11 354.966 265.42C355.932 267.731 357.295 269.521 359.057 270.79C360.837 272.059 362.93 272.693 365.335 272.693C366.945 272.693 368.403 272.4 369.71 271.812C371.036 271.206 372.144 270.345 373.034 269.227C373.943 268.11 374.578 266.765 374.938 265.193H383.205C382.902 268.015 381.983 270.534 380.449 272.75C378.915 274.966 376.86 276.708 374.284 277.977C371.727 279.246 368.725 279.881 365.278 279.881ZM400.783 220.818V279H392.288V220.818H400.783ZM431.017 279.881C426.718 279.881 423.015 278.962 419.909 277.125C416.822 275.269 414.436 272.665 412.75 269.312C411.083 265.941 410.25 261.992 410.25 257.466C410.25 252.996 411.083 249.057 412.75 245.648C414.436 242.239 416.784 239.578 419.795 237.665C422.826 235.752 426.367 234.795 430.42 234.795C432.883 234.795 435.269 235.203 437.58 236.017C439.89 236.831 441.964 238.11 443.801 239.852C445.638 241.595 447.087 243.858 448.148 246.642C449.208 249.407 449.739 252.769 449.739 256.727V259.739H415.051V253.375H441.415C441.415 251.14 440.96 249.161 440.051 247.438C439.142 245.695 437.864 244.322 436.216 243.318C434.587 242.314 432.674 241.812 430.477 241.812C428.091 241.812 426.008 242.4 424.227 243.574C422.466 244.729 421.102 246.244 420.136 248.119C419.189 249.975 418.716 251.992 418.716 254.17V259.142C418.716 262.059 419.227 264.54 420.25 266.585C421.292 268.631 422.741 270.193 424.597 271.273C426.453 272.333 428.621 272.864 431.102 272.864C432.712 272.864 434.18 272.636 435.506 272.182C436.831 271.708 437.977 271.008 438.943 270.08C439.909 269.152 440.648 268.006 441.159 266.642L449.199 268.091C448.555 270.458 447.4 272.532 445.733 274.312C444.085 276.074 442.011 277.447 439.511 278.432C437.03 279.398 434.199 279.881 431.017 279.881Z" fill="black"/>
</svg>
