<svg width="500" height="500" viewBox="0 0 500 500" fill="none" xmlns="http://www.w3.org/2000/svg">
<rect width="500" height="500" fill="white"/>
<path d="M155.702 260.379L159.041 258.451C159.222 258.347 159.434 258.311 159.64 258.349L166.21 259.579C166.75 259.68 167.248 259.264 167.246 258.715L167.22 252.958C167.22 252.801 167.261 252.648 167.34 252.513L170.656 246.836C170.828 246.54 170.813 246.172 170.616 245.892L165.033 237.945M184.25 241.503C174.625 246.125 179.875 252.25 181.625 253.125C184.91 254.767 189.478 254.875 189.478 254.875C189.493 254.585 189.5 254.293 189.5 254C189.5 244.335 181.665 236.5 172 236.5C162.335 236.5 154.5 244.335 154.5 254C154.5 263.665 162.335 271.5 172 271.5C172.293 271.5 172.585 271.493 172.875 271.479M180.326 271.395L174.784 256.784L189.395 262.326L182.916 264.916L180.326 271.395Z" stroke="black" stroke-width="2" stroke-linecap="round" stroke-linejoin="round"/>
<path d="M201.995 272V235.636H224.545V240.359H207.482V251.439H222.929V256.144H207.482V272H201.995ZM230.866 272V244.727H236.175V272H230.866ZM233.547 240.519C232.624 240.519 231.83 240.211 231.168 239.596C230.517 238.969 230.191 238.223 230.191 237.359C230.191 236.483 230.517 235.737 231.168 235.121C231.83 234.494 232.624 234.18 233.547 234.18C234.47 234.18 235.257 234.494 235.908 235.121C236.571 235.737 236.903 236.483 236.903 237.359C236.903 238.223 236.571 238.969 235.908 239.596C235.257 240.211 234.47 240.519 233.547 240.519ZM248.626 255.807V272H243.317V244.727H248.413V249.166H248.75C249.378 247.722 250.36 246.562 251.698 245.686C253.047 244.81 254.746 244.372 256.794 244.372C258.652 244.372 260.28 244.763 261.676 245.544C263.073 246.313 264.156 247.462 264.926 248.989C265.695 250.516 266.08 252.404 266.08 254.653V272H260.771V255.292C260.771 253.315 260.256 251.77 259.226 250.658C258.196 249.533 256.782 248.971 254.982 248.971C253.751 248.971 252.656 249.237 251.698 249.77C250.751 250.303 249.999 251.084 249.443 252.114C248.898 253.132 248.626 254.363 248.626 255.807ZM283.409 272.533C281.208 272.533 279.243 271.97 277.514 270.846C275.798 269.71 274.449 268.094 273.466 265.999C272.495 263.892 272.01 261.364 272.01 258.417C272.01 255.469 272.501 252.948 273.484 250.853C274.478 248.758 275.839 247.154 277.568 246.041C279.296 244.929 281.255 244.372 283.445 244.372C285.137 244.372 286.499 244.656 287.529 245.224C288.57 245.781 289.375 246.432 289.943 247.178C290.523 247.923 290.973 248.58 291.293 249.148H291.612V235.636H296.921V272H291.737V267.756H291.293C290.973 268.336 290.512 268.999 289.908 269.745C289.316 270.491 288.499 271.142 287.458 271.698C286.416 272.254 285.066 272.533 283.409 272.533ZM284.581 268.005C286.108 268.005 287.398 267.603 288.452 266.798C289.517 265.981 290.322 264.85 290.867 263.406C291.423 261.962 291.701 260.281 291.701 258.364C291.701 256.47 291.429 254.812 290.884 253.392C290.34 251.972 289.541 250.865 288.487 250.072C287.434 249.279 286.132 248.882 284.581 248.882C282.983 248.882 281.651 249.296 280.586 250.125C279.521 250.954 278.716 252.084 278.171 253.516C277.639 254.949 277.372 256.564 277.372 258.364C277.372 260.187 277.645 261.826 278.189 263.282C278.734 264.738 279.539 265.892 280.604 266.744C281.681 267.585 283.007 268.005 284.581 268.005ZM316.253 272.55C313.566 272.55 311.252 271.976 309.31 270.828C307.381 269.668 305.889 268.04 304.836 265.945C303.794 263.838 303.273 261.37 303.273 258.541C303.273 255.748 303.794 253.286 304.836 251.155C305.889 249.024 307.357 247.361 309.239 246.165C311.133 244.97 313.347 244.372 315.88 244.372C317.419 244.372 318.91 244.627 320.354 245.136C321.799 245.645 323.095 246.444 324.243 247.533C325.391 248.622 326.297 250.036 326.96 251.776C327.622 253.504 327.954 255.606 327.954 258.08V259.962H306.274V255.984H322.751C322.751 254.588 322.467 253.351 321.899 252.273C321.331 251.184 320.532 250.326 319.502 249.699C318.484 249.071 317.289 248.758 315.915 248.758C314.424 248.758 313.122 249.125 312.009 249.859C310.908 250.581 310.056 251.528 309.452 252.7C308.861 253.86 308.565 255.12 308.565 256.482V259.589C308.565 261.412 308.884 262.962 309.523 264.241C310.174 265.519 311.08 266.496 312.24 267.17C313.4 267.833 314.755 268.165 316.306 268.165C317.312 268.165 318.23 268.023 319.058 267.739C319.887 267.443 320.603 267.005 321.207 266.425C321.81 265.845 322.272 265.129 322.592 264.276L327.616 265.182C327.214 266.661 326.492 267.958 325.45 269.07C324.42 270.171 323.124 271.029 321.562 271.645C320.011 272.249 318.241 272.55 316.253 272.55ZM333.844 272V244.727H338.976V249.06H339.26C339.757 247.592 340.633 246.438 341.888 245.597C343.154 244.745 344.586 244.319 346.184 244.319C346.516 244.319 346.907 244.331 347.356 244.354C347.818 244.378 348.179 244.408 348.439 244.443V249.521C348.226 249.462 347.848 249.397 347.303 249.326C346.759 249.243 346.214 249.202 345.67 249.202C344.415 249.202 343.296 249.468 342.314 250.001C341.343 250.522 340.574 251.25 340.006 252.185C339.437 253.108 339.153 254.161 339.153 255.345V272H333.844Z" fill="black"/>
</svg>
