<svg width="500" height="500" viewBox="0 0 500 500" fill="none" xmlns="http://www.w3.org/2000/svg">
<rect width="500" height="500" fill="white"/>
<path d="M132.667 224.5L155.333 275.5M118.5 264.167L144 250M132.1 275.5H155.9C160.66 275.5 163.041 275.5 164.859 274.574C166.458 273.759 167.759 272.458 168.574 270.859C169.5 269.041 169.5 266.66 169.5 261.9V238.1C169.5 233.34 169.5 230.959 168.574 229.141C167.759 227.542 166.458 226.241 164.859 225.426C163.041 224.5 160.66 224.5 155.9 224.5H132.1C127.34 224.5 124.959 224.5 123.141 225.426C121.542 226.241 120.241 227.542 119.426 229.141C118.5 230.959 118.5 233.34 118.5 238.1V261.9C118.5 266.66 118.5 269.041 119.426 270.859C120.241 272.458 121.542 273.759 123.141 274.574C124.959 275.5 127.34 275.5 132.1 275.5Z" stroke="black" stroke-width="2" stroke-linecap="round" stroke-linejoin="round"/>
<path d="M162.5 238V233M149.5 251V246M160 235.5H165M147 248.5H152M150.5 232L149.716 233.569C149.45 234.1 149.317 234.365 149.14 234.595C148.983 234.8 148.8 234.983 148.595 235.14C148.365 235.317 148.1 235.45 147.569 235.716L146 236.5L147.569 237.284C148.1 237.55 148.365 237.683 148.595 237.86C148.8 238.017 148.983 238.2 149.14 238.405C149.317 238.635 149.45 238.9 149.716 239.431L150.5 241L151.284 239.431C151.55 238.9 151.683 238.635 151.86 238.405C152.017 238.2 152.2 238.017 152.405 237.86C152.635 237.683 152.9 237.55 153.431 237.284L155 236.5L153.431 235.716C152.9 235.45 152.635 235.317 152.405 235.14C152.2 234.983 152.017 234.8 151.86 234.595C151.683 234.365 151.55 234.1 151.284 233.569L150.5 232ZM161 242L160.049 243.902C159.783 244.433 159.651 244.699 159.473 244.929C159.316 245.133 159.133 245.316 158.929 245.473C158.699 245.651 158.433 245.783 157.902 246.049L156 247L157.902 247.951C158.433 248.217 158.699 248.349 158.929 248.527C159.133 248.684 159.316 248.867 159.473 249.071C159.651 249.301 159.783 249.567 160.049 250.098L161 252L161.951 250.098C162.217 249.567 162.349 249.301 162.527 249.071C162.684 248.867 162.867 248.684 163.071 248.527C163.301 248.349 163.567 248.217 164.098 247.951L166 247L164.098 246.049C163.567 245.783 163.301 245.651 163.071 245.473C162.867 245.316 162.684 245.133 162.527 244.929C162.349 244.699 162.217 244.433 161.951 243.902L161 242Z" stroke="black" stroke-width="2" stroke-linecap="round" stroke-linejoin="round"/>
<path d="M212.828 241.189C212.639 239.508 211.857 238.206 210.484 237.283C209.111 236.348 207.383 235.88 205.3 235.88C203.808 235.88 202.518 236.117 201.429 236.59C200.34 237.052 199.494 237.691 198.89 238.508C198.298 239.313 198.002 240.23 198.002 241.26C198.002 242.124 198.203 242.87 198.606 243.497C199.02 244.125 199.559 244.651 200.222 245.077C200.896 245.492 201.618 245.841 202.388 246.125C203.157 246.397 203.897 246.622 204.607 246.8L208.158 247.723C209.318 248.007 210.508 248.392 211.727 248.877C212.946 249.362 214.077 250.002 215.119 250.795C216.16 251.588 217.001 252.57 217.64 253.742C218.291 254.914 218.616 256.317 218.616 257.95C218.616 260.01 218.084 261.839 217.018 263.437C215.965 265.035 214.432 266.295 212.42 267.219C210.419 268.142 207.999 268.604 205.158 268.604C202.435 268.604 200.08 268.172 198.091 267.308C196.102 266.443 194.546 265.218 193.421 263.632C192.297 262.034 191.675 260.14 191.557 257.95H197.061C197.168 259.264 197.594 260.359 198.339 261.235C199.097 262.099 200.062 262.744 201.234 263.17C202.417 263.585 203.714 263.792 205.122 263.792C206.673 263.792 208.052 263.549 209.259 263.064C210.478 262.567 211.437 261.88 212.136 261.004C212.834 260.116 213.183 259.081 213.183 257.897C213.183 256.82 212.875 255.938 212.26 255.251C211.656 254.565 210.834 253.997 209.792 253.547C208.762 253.097 207.596 252.701 206.294 252.357L201.997 251.185C199.085 250.392 196.777 249.226 195.072 247.688C193.38 246.149 192.533 244.113 192.533 241.58C192.533 239.484 193.102 237.656 194.238 236.093C195.374 234.531 196.913 233.317 198.854 232.453C200.796 231.577 202.986 231.139 205.424 231.139C207.886 231.139 210.058 231.571 211.94 232.435C213.834 233.299 215.326 234.489 216.415 236.004C217.504 237.508 218.072 239.236 218.119 241.189H212.828ZM237.477 240.727V244.989H222.58V240.727H237.477ZM226.575 234.193H231.884V259.992C231.884 261.022 232.038 261.797 232.346 262.318C232.654 262.827 233.05 263.176 233.536 263.366C234.033 263.543 234.571 263.632 235.151 263.632C235.578 263.632 235.95 263.603 236.27 263.543C236.59 263.484 236.838 263.437 237.016 263.401L237.975 267.787C237.667 267.905 237.229 268.024 236.661 268.142C236.093 268.272 235.382 268.343 234.53 268.355C233.133 268.379 231.831 268.13 230.624 267.609C229.416 267.089 228.44 266.284 227.694 265.195C226.948 264.106 226.575 262.738 226.575 261.093V234.193ZM251.287 268.604C249.559 268.604 247.996 268.284 246.599 267.645C245.203 266.994 244.096 266.053 243.279 264.822C242.474 263.591 242.072 262.081 242.072 260.294C242.072 258.755 242.368 257.489 242.96 256.494C243.551 255.5 244.35 254.713 245.357 254.133C246.363 253.553 247.487 253.115 248.73 252.819C249.973 252.523 251.24 252.298 252.53 252.144C254.163 251.955 255.489 251.801 256.507 251.683C257.525 251.552 258.265 251.345 258.727 251.061C259.188 250.777 259.419 250.315 259.419 249.676V249.552C259.419 248.001 258.981 246.8 258.105 245.947C257.241 245.095 255.951 244.669 254.234 244.669C252.447 244.669 251.038 245.066 250.009 245.859C248.991 246.64 248.286 247.51 247.896 248.469L242.906 247.332C243.498 245.675 244.362 244.338 245.499 243.32C246.647 242.29 247.967 241.544 249.458 241.082C250.95 240.609 252.518 240.372 254.163 240.372C255.252 240.372 256.406 240.502 257.626 240.763C258.857 241.011 260.005 241.473 261.07 242.148C262.147 242.822 263.029 243.787 263.716 245.042C264.402 246.285 264.746 247.901 264.746 249.889V268H259.561V264.271H259.348C259.005 264.958 258.49 265.633 257.803 266.295C257.117 266.958 256.235 267.509 255.158 267.947C254.08 268.385 252.79 268.604 251.287 268.604ZM252.441 264.342C253.909 264.342 255.164 264.052 256.205 263.472C257.259 262.892 258.058 262.135 258.602 261.2C259.159 260.253 259.437 259.241 259.437 258.163V254.648C259.247 254.837 258.88 255.015 258.336 255.18C257.803 255.334 257.194 255.47 256.507 255.589C255.821 255.695 255.152 255.796 254.501 255.891C253.85 255.973 253.305 256.045 252.867 256.104C251.837 256.234 250.896 256.453 250.044 256.761C249.204 257.068 248.529 257.512 248.02 258.092C247.523 258.661 247.274 259.418 247.274 260.365C247.274 261.679 247.759 262.673 248.73 263.348C249.701 264.011 250.938 264.342 252.441 264.342ZM271.817 268V240.727H276.948V245.06H277.232C277.73 243.592 278.606 242.438 279.86 241.597C281.127 240.745 282.559 240.319 284.157 240.319C284.489 240.319 284.879 240.331 285.329 240.354C285.791 240.378 286.152 240.408 286.412 240.443V245.521C286.199 245.462 285.82 245.397 285.276 245.326C284.731 245.243 284.187 245.202 283.642 245.202C282.387 245.202 281.269 245.468 280.286 246.001C279.316 246.522 278.546 247.25 277.978 248.185C277.41 249.108 277.126 250.161 277.126 251.345V268H271.817ZM291.006 268V240.727H296.102V245.166H296.44C297.008 243.663 297.937 242.491 299.227 241.651C300.518 240.798 302.062 240.372 303.862 240.372C305.684 240.372 307.211 240.798 308.442 241.651C309.685 242.503 310.603 243.675 311.195 245.166H311.479C312.13 243.71 313.165 242.55 314.586 241.686C316.006 240.81 317.699 240.372 319.664 240.372C322.138 240.372 324.156 241.147 325.719 242.698C327.293 244.249 328.08 246.587 328.08 249.712V268H322.771V250.209C322.771 248.362 322.268 247.025 321.262 246.196C320.256 245.367 319.054 244.953 317.658 244.953C315.929 244.953 314.586 245.486 313.627 246.551C312.668 247.605 312.189 248.96 312.189 250.617V268H306.898V249.871C306.898 248.392 306.436 247.202 305.513 246.303C304.589 245.403 303.388 244.953 301.908 244.953C300.902 244.953 299.973 245.219 299.121 245.752C298.28 246.273 297.6 247.001 297.079 247.936C296.57 248.871 296.315 249.954 296.315 251.185V268H291.006ZM343.133 268.604C341.404 268.604 339.842 268.284 338.445 267.645C337.048 266.994 335.942 266.053 335.125 264.822C334.32 263.591 333.917 262.081 333.917 260.294C333.917 258.755 334.213 257.489 334.805 256.494C335.397 255.5 336.196 254.713 337.202 254.133C338.208 253.553 339.333 253.115 340.576 252.819C341.819 252.523 343.085 252.298 344.376 252.144C346.009 251.955 347.335 251.801 348.353 251.683C349.371 251.552 350.111 251.345 350.572 251.061C351.034 250.777 351.265 250.315 351.265 249.676V249.552C351.265 248.001 350.827 246.8 349.951 245.947C349.087 245.095 347.796 244.669 346.08 244.669C344.293 244.669 342.884 245.066 341.854 245.859C340.836 246.64 340.132 247.51 339.741 248.469L334.752 247.332C335.344 245.675 336.208 244.338 337.344 243.32C338.492 242.29 339.812 241.544 341.304 241.082C342.795 240.609 344.364 240.372 346.009 240.372C347.098 240.372 348.252 240.502 349.471 240.763C350.702 241.011 351.851 241.473 352.916 242.148C353.993 242.822 354.875 243.787 355.562 245.042C356.248 246.285 356.591 247.901 356.591 249.889V268H351.407V264.271H351.194C350.85 264.958 350.336 265.633 349.649 266.295C348.962 266.958 348.081 267.509 347.003 267.947C345.926 268.385 344.636 268.604 343.133 268.604ZM344.287 264.342C345.755 264.342 347.009 264.052 348.051 263.472C349.104 262.892 349.903 262.135 350.448 261.2C351.004 260.253 351.282 259.241 351.282 258.163V254.648C351.093 254.837 350.726 255.015 350.182 255.18C349.649 255.334 349.039 255.47 348.353 255.589C347.666 255.695 346.997 255.796 346.346 255.891C345.695 255.973 345.151 256.045 344.713 256.104C343.683 256.234 342.742 256.453 341.89 256.761C341.049 257.068 340.375 257.512 339.866 258.092C339.368 258.661 339.12 259.418 339.12 260.365C339.12 261.679 339.605 262.673 340.576 263.348C341.546 264.011 342.783 264.342 344.287 264.342ZM363.663 278.227V240.727H368.847V245.148H369.291C369.599 244.58 370.043 243.923 370.623 243.178C371.203 242.432 372.008 241.781 373.038 241.224C374.067 240.656 375.429 240.372 377.121 240.372C379.323 240.372 381.288 240.929 383.016 242.041C384.745 243.154 386.1 244.758 387.082 246.853C388.077 248.948 388.574 251.469 388.574 254.417C388.574 257.364 388.083 259.892 387.1 261.999C386.118 264.094 384.768 265.71 383.052 266.846C381.335 267.97 379.376 268.533 377.175 268.533C375.518 268.533 374.162 268.254 373.109 267.698C372.067 267.142 371.25 266.491 370.658 265.745C370.067 264.999 369.611 264.336 369.291 263.756H368.972V278.227H363.663ZM368.865 254.364C368.865 256.281 369.143 257.962 369.7 259.406C370.256 260.85 371.061 261.981 372.114 262.798C373.168 263.603 374.458 264.005 375.985 264.005C377.571 264.005 378.897 263.585 379.962 262.744C381.028 261.892 381.833 260.738 382.377 259.282C382.933 257.826 383.212 256.187 383.212 254.364C383.212 252.564 382.939 250.949 382.395 249.516C381.862 248.084 381.057 246.954 379.98 246.125C378.915 245.296 377.583 244.882 375.985 244.882C374.446 244.882 373.144 245.279 372.079 246.072C371.025 246.865 370.226 247.972 369.682 249.392C369.137 250.812 368.865 252.47 368.865 254.364Z" fill="black"/>
</svg>
