<svg width="500" height="500" viewBox="0 0 500 500" fill="none" xmlns="http://www.w3.org/2000/svg">
<rect width="500" height="500" fill="white"/>
<path d="M146.75 223.889L137.375 276.111M209 213.444L156.5 213.444M198.5 286.556L146 286.556M143.9 223.889H148.1C151.04 223.889 152.51 223.889 153.633 223.32C154.621 222.819 155.424 222.02 155.928 221.038C156.5 219.92 156.5 218.458 156.5 215.533V211.356C156.5 208.431 156.5 206.968 155.928 205.851C155.424 204.869 154.621 204.07 153.633 203.569C152.51 203 151.04 203 148.1 203H143.9C140.96 203 139.49 203 138.367 203.569C137.379 204.07 136.576 204.869 136.072 205.851C135.5 206.968 135.5 208.431 135.5 211.356V215.533C135.5 218.458 135.5 219.92 136.072 221.038C136.576 222.02 137.379 222.819 138.367 223.32C139.49 223.889 140.96 223.889 143.9 223.889ZM133.4 297H137.6C140.54 297 142.01 297 143.133 296.431C144.121 295.93 144.924 295.131 145.428 294.149C146 293.032 146 291.569 146 288.644V284.467C146 281.542 146 280.08 145.428 278.962C144.924 277.98 144.121 277.181 143.133 276.68C142.01 276.111 140.54 276.111 137.6 276.111H133.4C130.46 276.111 128.99 276.111 127.867 276.68C126.879 277.181 126.076 277.98 125.572 278.962C125 280.08 125 281.542 125 284.467V288.644C125 291.569 125 293.032 125.572 294.149C126.076 295.131 126.879 295.93 127.867 296.431C128.99 297 130.46 297 133.4 297ZM217.4 223.889H221.6C224.54 223.889 226.01 223.889 227.133 223.32C228.121 222.819 228.924 222.02 229.428 221.038C230 219.92 230 218.458 230 215.533V211.356C230 208.431 230 206.968 229.428 205.851C228.924 204.869 228.121 204.07 227.133 203.569C226.01 203 224.54 203 221.6 203H217.4C214.46 203 212.99 203 211.867 203.569C210.879 204.07 210.076 204.869 209.572 205.851C209 206.968 209 208.431 209 211.356V215.533C209 218.458 209 219.92 209.572 221.038C210.076 222.02 210.879 222.819 211.867 223.32C212.99 223.889 214.46 223.889 217.4 223.889ZM206.9 297H211.1C214.04 297 215.51 297 216.633 296.431C217.621 295.93 218.424 295.131 218.928 294.149C219.5 293.032 219.5 291.569 219.5 288.644V284.467C219.5 281.542 219.5 280.08 218.928 278.962C218.424 277.98 217.621 277.181 216.633 276.68C215.51 276.111 214.04 276.111 211.1 276.111H206.9C203.96 276.111 202.49 276.111 201.367 276.68C200.379 277.181 199.576 277.98 199.072 278.962C198.5 280.08 198.5 281.542 198.5 284.467V288.644C198.5 291.569 198.5 293.032 199.072 294.149C199.576 295.131 200.379 295.93 201.367 296.431C202.49 297 203.96 297 206.9 297Z" stroke="black" stroke-width="6" stroke-linecap="round" stroke-linejoin="round"/>
<path d="M161.85 250.55C161.85 247.15 162.633 244.1 164.2 241.4C165.8 238.7 167.95 236.6 170.65 235.1C173.383 233.567 176.367 232.8 179.6 232.8C183.3 232.8 186.583 233.717 189.45 235.55C192.35 237.35 194.45 239.917 195.75 243.25H188.9C188 241.417 186.75 240.05 185.15 239.15C183.55 238.25 181.7 237.8 179.6 237.8C177.3 237.8 175.25 238.317 173.45 239.35C171.65 240.383 170.233 241.867 169.2 243.8C168.2 245.733 167.7 247.983 167.7 250.55C167.7 253.117 168.2 255.367 169.2 257.3C170.233 259.233 171.65 260.733 173.45 261.8C175.25 262.833 177.3 263.35 179.6 263.35C181.7 263.35 183.55 262.9 185.15 262C186.75 261.1 188 259.733 188.9 257.9H195.75C194.45 261.233 192.35 263.8 189.45 265.6C186.583 267.4 183.3 268.3 179.6 268.3C176.333 268.3 173.35 267.55 170.65 266.05C167.95 264.517 165.8 262.4 164.2 259.7C162.633 257 161.85 253.95 161.85 250.55ZM214.372 268.45C211.772 268.45 209.422 267.867 207.322 266.7C205.222 265.5 203.572 263.833 202.372 261.7C201.172 259.533 200.572 257.033 200.572 254.2C200.572 251.4 201.189 248.917 202.422 246.75C203.655 244.583 205.339 242.917 207.472 241.75C209.605 240.583 211.989 240 214.622 240C217.255 240 219.639 240.583 221.772 241.75C223.905 242.917 225.589 244.583 226.822 246.75C228.055 248.917 228.672 251.4 228.672 254.2C228.672 257 228.039 259.483 226.772 261.65C225.505 263.817 223.772 265.5 221.572 266.7C219.405 267.867 217.005 268.45 214.372 268.45ZM214.372 263.5C215.839 263.5 217.205 263.15 218.472 262.45C219.772 261.75 220.822 260.7 221.622 259.3C222.422 257.9 222.822 256.2 222.822 254.2C222.822 252.2 222.439 250.517 221.672 249.15C220.905 247.75 219.889 246.7 218.622 246C217.355 245.3 215.989 244.95 214.522 244.95C213.055 244.95 211.689 245.3 210.422 246C209.189 246.7 208.205 247.75 207.472 249.15C206.739 250.517 206.372 252.2 206.372 254.2C206.372 257.167 207.122 259.467 208.622 261.1C210.155 262.7 212.072 263.5 214.372 263.5ZM248.207 240C250.373 240 252.307 240.45 254.007 241.35C255.74 242.25 257.09 243.583 258.057 245.35C259.023 247.117 259.507 249.25 259.507 251.75V268H253.857V252.6C253.857 250.133 253.24 248.25 252.007 246.95C250.773 245.617 249.09 244.95 246.957 244.95C244.823 244.95 243.123 245.617 241.857 246.95C240.623 248.25 240.007 250.133 240.007 252.6V268H234.307V240.45H240.007V243.6C240.94 242.467 242.123 241.583 243.557 240.95C245.023 240.317 246.573 240 248.207 240ZM280.677 240C282.844 240 284.777 240.45 286.477 241.35C288.211 242.25 289.561 243.583 290.527 245.35C291.494 247.117 291.977 249.25 291.977 251.75V268H286.327V252.6C286.327 250.133 285.711 248.25 284.477 246.95C283.244 245.617 281.561 244.95 279.427 244.95C277.294 244.95 275.594 245.617 274.327 246.95C273.094 248.25 272.477 250.133 272.477 252.6V268H266.777V240.45H272.477V243.6C273.411 242.467 274.594 241.583 276.027 240.95C277.494 240.317 279.044 240 280.677 240ZM324.498 253.55C324.498 254.583 324.431 255.517 324.298 256.35H303.248C303.415 258.55 304.231 260.317 305.698 261.65C307.165 262.983 308.965 263.65 311.098 263.65C314.165 263.65 316.331 262.367 317.598 259.8H323.748C322.915 262.333 321.398 264.417 319.198 266.05C317.031 267.65 314.331 268.45 311.098 268.45C308.465 268.45 306.098 267.867 303.998 266.7C301.931 265.5 300.298 263.833 299.098 261.7C297.931 259.533 297.348 257.033 297.348 254.2C297.348 251.367 297.915 248.883 299.048 246.75C300.215 244.583 301.831 242.917 303.898 241.75C305.998 240.583 308.398 240 311.098 240C313.698 240 316.015 240.567 318.048 241.7C320.081 242.833 321.665 244.433 322.798 246.5C323.931 248.533 324.498 250.883 324.498 253.55ZM318.548 251.75C318.515 249.65 317.765 247.967 316.298 246.7C314.831 245.433 313.015 244.8 310.848 244.8C308.881 244.8 307.198 245.433 305.798 246.7C304.398 247.933 303.565 249.617 303.298 251.75H318.548ZM328.207 254.2C328.207 251.367 328.774 248.883 329.907 246.75C331.074 244.583 332.674 242.917 334.707 241.75C336.741 240.583 339.074 240 341.707 240C345.041 240 347.791 240.8 349.957 242.4C352.157 243.967 353.641 246.217 354.407 249.15H348.257C347.757 247.783 346.957 246.717 345.857 245.95C344.757 245.183 343.374 244.8 341.707 244.8C339.374 244.8 337.507 245.633 336.107 247.3C334.741 248.933 334.057 251.233 334.057 254.2C334.057 257.167 334.741 259.483 336.107 261.15C337.507 262.817 339.374 263.65 341.707 263.65C345.007 263.65 347.191 262.2 348.257 259.3H354.407C353.607 262.1 352.107 264.333 349.907 266C347.707 267.633 344.974 268.45 341.707 268.45C339.074 268.45 336.741 267.867 334.707 266.7C332.674 265.5 331.074 263.833 329.907 261.7C328.774 259.533 328.207 257.033 328.207 254.2ZM366.738 245.1V260.35C366.738 261.383 366.971 262.133 367.438 262.6C367.938 263.033 368.771 263.25 369.938 263.25H373.438V268H368.938C366.371 268 364.405 267.4 363.038 266.2C361.671 265 360.988 263.05 360.988 260.35V245.1H357.738V240.45H360.988V233.6H366.738V240.45H373.438V245.1H366.738Z" fill="black"/>
</svg>
