<svg width="500" height="500" viewBox="0 0 500 500" fill="none" xmlns="http://www.w3.org/2000/svg">
<rect width="500" height="500" fill="white"/>
<path fill-rule="evenodd" clip-rule="evenodd" d="M199.618 263.095C201.773 259.216 203 254.751 203 250C203 245.249 201.773 240.785 199.618 236.906C199.611 237.347 199.459 237.787 199.155 238.152C198.448 239 197.187 239.115 196.338 238.408C195.665 237.847 195.187 237.459 194.594 237.172C194.042 236.905 193.307 236.691 192.168 236.691C191.095 236.691 190.37 236.9 189.796 237.175C189.181 237.471 188.667 237.872 187.966 238.433L187.914 238.474L187.914 238.475C187.26 238.998 186.427 239.665 185.367 240.173C184.237 240.716 182.918 241.052 181.265 241.052C179.571 241.052 178.234 240.721 177.096 240.17C176.029 239.654 175.214 238.974 174.585 238.45L174.534 238.408C173.861 237.847 173.383 237.459 172.79 237.172C172.238 236.905 171.503 236.691 170.363 236.691C169.291 236.691 168.566 236.9 167.992 237.175C167.376 237.471 166.863 237.872 166.162 238.433L166.11 238.474C165.456 238.998 164.623 239.665 163.563 240.173C162.433 240.716 161.114 241.052 159.461 241.052C157.766 241.052 156.43 240.721 155.292 240.17C154.225 239.654 153.41 238.974 152.781 238.45L152.73 238.408C152.415 238.145 152.201 237.806 152.093 237.44C150.118 241.192 149 245.466 149 250C149 254.521 150.111 258.783 152.076 262.527C152.148 262.252 152.28 261.988 152.474 261.756C153.181 260.907 154.442 260.793 155.291 261.5C155.964 262.06 156.442 262.448 157.035 262.735C157.587 263.002 158.322 263.216 159.461 263.216C160.534 263.216 161.259 263.007 161.832 262.732C162.448 262.436 162.962 262.035 163.663 261.474L163.715 261.433C164.369 260.91 165.202 260.242 166.261 259.734C167.392 259.192 168.71 258.856 170.363 258.856C172.058 258.856 173.395 259.186 174.532 259.737C175.6 260.253 176.415 260.933 177.044 261.457L177.095 261.5C177.768 262.06 178.246 262.448 178.839 262.735C179.391 263.002 180.126 263.216 181.265 263.216C182.338 263.216 183.063 263.007 183.637 262.732C184.252 262.436 184.766 262.035 185.467 261.474L185.519 261.433C186.173 260.91 187.006 260.242 188.066 259.734C189.196 259.192 190.515 258.856 192.168 258.856C193.862 258.856 195.199 259.186 196.337 259.737C197.404 260.253 198.219 260.933 198.848 261.457L198.899 261.5C199.389 261.908 199.635 262.502 199.618 263.095ZM198.599 264.78C197.897 265.175 196.994 265.119 196.338 264.573C195.665 264.012 195.187 263.624 194.594 263.337C194.042 263.07 193.307 262.856 192.168 262.856C191.095 262.856 190.37 263.065 189.796 263.34C189.181 263.636 188.667 264.037 187.966 264.598L187.914 264.639C187.26 265.163 186.427 265.83 185.367 266.338C184.237 266.881 182.918 267.216 181.265 267.216C179.571 267.216 178.234 266.886 177.096 266.335C176.029 265.819 175.214 265.139 174.585 264.615L174.585 264.615L174.534 264.573C173.861 264.012 173.383 263.624 172.79 263.337C172.238 263.07 171.503 262.856 170.363 262.856C169.291 262.856 168.566 263.065 167.992 263.34C167.376 263.636 166.863 264.037 166.162 264.598L166.11 264.639C165.456 265.163 164.623 265.83 163.563 266.338C162.433 266.881 161.114 267.216 159.461 267.216C157.766 267.216 156.43 266.886 155.292 266.335C154.76 266.078 154.291 265.78 153.876 265.481C158.759 272.446 166.848 277 176 277C185.456 277 193.776 272.139 198.599 264.78ZM153.605 234.912C154.181 234.794 154.804 234.929 155.291 235.335C155.964 235.895 156.442 236.283 157.035 236.57C157.587 236.837 158.322 237.052 159.461 237.052C160.534 237.052 161.259 236.842 161.832 236.567C162.448 236.271 162.962 235.871 163.663 235.309L163.715 235.268C164.369 234.745 165.202 234.077 166.261 233.569C167.392 233.027 168.71 232.691 170.363 232.691C172.058 232.691 173.395 233.021 174.532 233.572C175.6 234.088 176.415 234.768 177.044 235.292L177.095 235.335C177.768 235.895 178.246 236.283 178.839 236.57C179.391 236.837 180.126 237.052 181.265 237.052C182.338 237.052 183.063 236.842 183.637 236.567C184.252 236.271 184.766 235.871 185.467 235.309L185.519 235.268C186.173 234.745 187.006 234.077 188.066 233.569C189.196 233.027 190.515 232.691 192.168 232.691C193.862 232.691 195.199 233.021 196.337 233.572C197.168 233.974 197.847 234.476 198.403 234.925C193.553 227.731 185.329 223 176 223C166.677 223 158.457 227.726 153.605 234.912ZM159.461 254.134C161.114 254.134 162.433 253.798 163.563 253.256C164.623 252.747 165.456 252.08 166.11 251.557L166.162 251.515C166.863 250.954 167.376 250.553 167.992 250.258C168.566 249.982 169.291 249.773 170.363 249.773C171.503 249.773 172.238 249.988 172.79 250.255C173.383 250.542 173.861 250.929 174.534 251.49L174.585 251.533C175.214 252.057 176.029 252.736 177.096 253.253C178.234 253.803 179.571 254.134 181.265 254.134C182.918 254.134 184.237 253.798 185.367 253.256C186.427 252.747 187.26 252.08 187.914 251.557L187.914 251.557L187.966 251.515C188.667 250.954 189.181 250.553 189.796 250.258C190.37 249.982 191.095 249.773 192.168 249.773C193.307 249.773 194.042 249.988 194.594 250.255C195.187 250.542 195.665 250.929 196.338 251.49C197.187 252.197 198.448 252.083 199.155 251.234C199.862 250.385 199.747 249.124 198.899 248.417L198.848 248.374L198.848 248.374C198.219 247.85 197.404 247.171 196.337 246.654C195.199 246.104 193.862 245.773 192.168 245.773C190.515 245.773 189.196 246.109 188.066 246.652C187.006 247.16 186.173 247.827 185.519 248.35L185.467 248.392C184.766 248.953 184.252 249.354 183.637 249.65C183.063 249.925 182.338 250.134 181.265 250.134C180.126 250.134 179.391 249.92 178.839 249.652C178.246 249.365 177.768 248.978 177.095 248.417L177.044 248.374C176.415 247.85 175.6 247.171 174.532 246.654C173.395 246.104 172.058 245.773 170.363 245.773C168.71 245.773 167.392 246.109 166.261 246.652C165.202 247.16 164.369 247.827 163.715 248.35L163.715 248.35L163.663 248.392C162.962 248.953 162.448 249.354 161.832 249.65C161.259 249.925 160.534 250.134 159.461 250.134C158.322 250.134 157.587 249.92 157.035 249.652C156.442 249.365 155.964 248.978 155.291 248.417C154.442 247.71 153.181 247.825 152.474 248.673C151.767 249.522 151.881 250.783 152.73 251.49L152.781 251.533C153.41 252.057 154.225 252.736 155.292 253.253C156.43 253.803 157.766 254.134 159.461 254.134Z" fill="black"/>
<path d="M231.6 266.35C228.367 266.35 225.383 265.6 222.65 264.1C219.95 262.567 217.8 260.45 216.2 257.75C214.633 255.017 213.85 251.95 213.85 248.55C213.85 245.15 214.633 242.1 216.2 239.4C217.8 236.7 219.95 234.6 222.65 233.1C225.383 231.567 228.367 230.8 231.6 230.8C234.867 230.8 237.85 231.567 240.55 233.1C243.283 234.6 245.433 236.7 247 239.4C248.567 242.1 249.35 245.15 249.35 248.55C249.35 251.95 248.567 255.017 247 257.75C245.433 260.45 243.283 262.567 240.55 264.1C237.85 265.6 234.867 266.35 231.6 266.35ZM231.6 261.4C233.9 261.4 235.95 260.883 237.75 259.85C239.55 258.783 240.95 257.283 241.95 255.35C242.983 253.383 243.5 251.117 243.5 248.55C243.5 245.983 242.983 243.733 241.95 241.8C240.95 239.867 239.55 238.383 237.75 237.35C235.95 236.317 233.9 235.8 231.6 235.8C229.3 235.8 227.25 236.317 225.45 237.35C223.65 238.383 222.233 239.867 221.2 241.8C220.2 243.733 219.7 245.983 219.7 248.55C219.7 251.117 220.2 253.383 221.2 255.35C222.233 257.283 223.65 258.783 225.45 259.85C227.25 260.883 229.3 261.4 231.6 261.4ZM253.059 252.1C253.059 249.333 253.626 246.883 254.759 244.75C255.926 242.617 257.492 240.967 259.459 239.8C261.459 238.6 263.659 238 266.059 238C268.226 238 270.109 238.433 271.709 239.3C273.342 240.133 274.642 241.183 275.609 242.45V238.45H281.359V266H275.609V261.9C274.642 263.2 273.326 264.283 271.659 265.15C269.992 266.017 268.092 266.45 265.959 266.45C263.592 266.45 261.426 265.85 259.459 264.65C257.492 263.417 255.926 261.717 254.759 259.55C253.626 257.35 253.059 254.867 253.059 252.1ZM275.609 252.2C275.609 250.3 275.209 248.65 274.409 247.25C273.642 245.85 272.626 244.783 271.359 244.05C270.092 243.317 268.726 242.95 267.259 242.95C265.792 242.95 264.426 243.317 263.159 244.05C261.892 244.75 260.859 245.8 260.059 247.2C259.292 248.567 258.909 250.2 258.909 252.1C258.909 254 259.292 255.667 260.059 257.1C260.859 258.533 261.892 259.633 263.159 260.4C264.459 261.133 265.826 261.5 267.259 261.5C268.726 261.5 270.092 261.133 271.359 260.4C272.626 259.667 273.642 258.6 274.409 257.2C275.209 255.767 275.609 254.1 275.609 252.2ZM298.846 266.45C296.679 266.45 294.729 266.067 292.996 265.3C291.296 264.5 289.946 263.433 288.946 262.1C287.946 260.733 287.412 259.217 287.346 257.55H293.246C293.346 258.717 293.896 259.7 294.896 260.5C295.929 261.267 297.212 261.65 298.746 261.65C300.346 261.65 301.579 261.35 302.446 260.75C303.346 260.117 303.796 259.317 303.796 258.35C303.796 257.317 303.296 256.55 302.296 256.05C301.329 255.55 299.779 255 297.646 254.4C295.579 253.833 293.896 253.283 292.596 252.75C291.296 252.217 290.162 251.4 289.196 250.3C288.262 249.2 287.796 247.75 287.796 245.95C287.796 244.483 288.229 243.15 289.096 241.95C289.962 240.717 291.196 239.75 292.796 239.05C294.429 238.35 296.296 238 298.396 238C301.529 238 304.046 238.8 305.946 240.4C307.879 241.967 308.912 244.117 309.046 246.85H303.346C303.246 245.617 302.746 244.633 301.846 243.9C300.946 243.167 299.729 242.8 298.196 242.8C296.696 242.8 295.546 243.083 294.746 243.65C293.946 244.217 293.546 244.967 293.546 245.9C293.546 246.633 293.812 247.25 294.346 247.75C294.879 248.25 295.529 248.65 296.296 248.95C297.062 249.217 298.196 249.567 299.696 250C301.696 250.533 303.329 251.083 304.596 251.65C305.896 252.183 307.012 252.983 307.946 254.05C308.879 255.117 309.362 256.533 309.396 258.3C309.396 259.867 308.962 261.267 308.096 262.5C307.229 263.733 305.996 264.7 304.396 265.4C302.829 266.1 300.979 266.45 298.846 266.45ZM318.455 234.8C317.421 234.8 316.555 234.45 315.855 233.75C315.155 233.05 314.805 232.183 314.805 231.15C314.805 230.117 315.155 229.25 315.855 228.55C316.555 227.85 317.421 227.5 318.455 227.5C319.455 227.5 320.305 227.85 321.005 228.55C321.705 229.25 322.055 230.117 322.055 231.15C322.055 232.183 321.705 233.05 321.005 233.75C320.305 234.45 319.455 234.8 318.455 234.8ZM321.255 238.45V266H315.555V238.45H321.255ZM338.738 266.45C336.572 266.45 334.622 266.067 332.888 265.3C331.188 264.5 329.838 263.433 328.838 262.1C327.838 260.733 327.305 259.217 327.238 257.55H333.138C333.238 258.717 333.788 259.7 334.788 260.5C335.822 261.267 337.105 261.65 338.638 261.65C340.238 261.65 341.472 261.35 342.338 260.75C343.238 260.117 343.688 259.317 343.688 258.35C343.688 257.317 343.188 256.55 342.188 256.05C341.222 255.55 339.672 255 337.538 254.4C335.472 253.833 333.788 253.283 332.488 252.75C331.188 252.217 330.055 251.4 329.088 250.3C328.155 249.2 327.688 247.75 327.688 245.95C327.688 244.483 328.122 243.15 328.988 241.95C329.855 240.717 331.088 239.75 332.688 239.05C334.322 238.35 336.188 238 338.288 238C341.422 238 343.938 238.8 345.838 240.4C347.772 241.967 348.805 244.117 348.938 246.85H343.238C343.138 245.617 342.638 244.633 341.738 243.9C340.838 243.167 339.622 242.8 338.088 242.8C336.588 242.8 335.438 243.083 334.638 243.65C333.838 244.217 333.438 244.967 333.438 245.9C333.438 246.633 333.705 247.25 334.238 247.75C334.772 248.25 335.422 248.65 336.188 248.95C336.955 249.217 338.088 249.567 339.588 250C341.588 250.533 343.222 251.083 344.488 251.65C345.788 252.183 346.905 252.983 347.838 254.05C348.772 255.117 349.255 256.533 349.288 258.3C349.288 259.867 348.855 261.267 347.988 262.5C347.122 263.733 345.888 264.7 344.288 265.4C342.722 266.1 340.872 266.45 338.738 266.45Z" fill="black"/>
</svg>
