<svg width="500" height="500" viewBox="0 0 500 500" fill="none" xmlns="http://www.w3.org/2000/svg">
<rect width="500" height="500" fill="white"/>
<path d="M177.8 223.8H202.28C207.993 223.8 210.849 223.8 213.031 224.77C214.95 225.623 216.51 226.985 217.488 228.659C218.6 230.563 218.6 233.056 218.6 238.04V259.4M137 223.8H157.4M218.6 277.2V295M239 277.2L173.72 277.2C168.007 277.2 165.151 277.2 162.969 276.23C161.05 275.377 159.49 274.015 158.512 272.341C157.4 270.437 157.4 267.944 157.4 262.96V206" stroke="black" stroke-width="6" stroke-linecap="round" stroke-linejoin="round"/>
<path d="M196.167 260.625H197.345C198.478 260.625 199.045 260.625 199.357 260.397C199.629 260.199 199.797 259.895 199.818 259.567C199.841 259.19 199.527 258.736 198.898 257.827L195.386 252.747C194.867 251.995 194.607 251.62 194.28 251.489C193.994 251.375 193.672 251.375 193.386 251.489C193.059 251.62 192.799 251.995 192.28 252.747L191.412 254.002M196.167 260.625L187.201 248.138C186.686 247.42 186.428 247.06 186.106 246.934C185.824 246.824 185.509 246.824 185.227 246.934C184.905 247.06 184.647 247.42 184.132 248.138L177.194 257.8C176.538 258.715 176.209 259.173 176.228 259.553C176.244 259.885 176.411 260.192 176.684 260.394C176.998 260.625 177.575 260.625 178.729 260.625H196.167ZM198.5 243.75C198.5 245.614 196.933 247.125 195 247.125C193.067 247.125 191.5 245.614 191.5 243.75C191.5 241.886 193.067 240.375 195 240.375C196.933 240.375 198.5 241.886 198.5 243.75Z" stroke="black" stroke-width="2" stroke-linecap="round" stroke-linejoin="round"/>
<path d="M240.85 250.55C240.85 247.15 241.633 244.1 243.2 241.4C244.8 238.7 246.95 236.6 249.65 235.1C252.383 233.567 255.367 232.8 258.6 232.8C262.3 232.8 265.583 233.717 268.45 235.55C271.35 237.35 273.45 239.917 274.75 243.25H267.9C267 241.417 265.75 240.05 264.15 239.15C262.55 238.25 260.7 237.8 258.6 237.8C256.3 237.8 254.25 238.317 252.45 239.35C250.65 240.383 249.233 241.867 248.2 243.8C247.2 245.733 246.7 247.983 246.7 250.55C246.7 253.117 247.2 255.367 248.2 257.3C249.233 259.233 250.65 260.733 252.45 261.8C254.25 262.833 256.3 263.35 258.6 263.35C260.7 263.35 262.55 262.9 264.15 262C265.75 261.1 267 259.733 267.9 257.9H274.75C273.45 261.233 271.35 263.8 268.45 265.6C265.583 267.4 262.3 268.3 258.6 268.3C255.333 268.3 252.35 267.55 249.65 266.05C246.95 264.517 244.8 262.4 243.2 259.7C241.633 257 240.85 253.95 240.85 250.55ZM287.122 244.45C287.955 243.05 289.055 241.967 290.422 241.2C291.822 240.4 293.472 240 295.372 240V245.9H293.922C291.689 245.9 289.989 246.467 288.822 247.6C287.689 248.733 287.122 250.7 287.122 253.5V268H281.422V240.45H287.122V244.45ZM312.561 268.45C309.961 268.45 307.611 267.867 305.511 266.7C303.411 265.5 301.761 263.833 300.561 261.7C299.361 259.533 298.761 257.033 298.761 254.2C298.761 251.4 299.378 248.917 300.611 246.75C301.845 244.583 303.528 242.917 305.661 241.75C307.795 240.583 310.178 240 312.811 240C315.445 240 317.828 240.583 319.961 241.75C322.095 242.917 323.778 244.583 325.011 246.75C326.245 248.917 326.861 251.4 326.861 254.2C326.861 257 326.228 259.483 324.961 261.65C323.695 263.817 321.961 265.5 319.761 266.7C317.595 267.867 315.195 268.45 312.561 268.45ZM312.561 263.5C314.028 263.5 315.395 263.15 316.661 262.45C317.961 261.75 319.011 260.7 319.811 259.3C320.611 257.9 321.011 256.2 321.011 254.2C321.011 252.2 320.628 250.517 319.861 249.15C319.095 247.75 318.078 246.7 316.811 246C315.545 245.3 314.178 244.95 312.711 244.95C311.245 244.95 309.878 245.3 308.611 246C307.378 246.7 306.395 247.75 305.661 249.15C304.928 250.517 304.561 252.2 304.561 254.2C304.561 257.167 305.311 259.467 306.811 261.1C308.345 262.7 310.261 263.5 312.561 263.5ZM338.196 244.5C339.163 243.233 340.479 242.167 342.146 241.3C343.813 240.433 345.696 240 347.796 240C350.196 240 352.379 240.6 354.346 241.8C356.346 242.967 357.913 244.617 359.046 246.75C360.179 248.883 360.746 251.333 360.746 254.1C360.746 256.867 360.179 259.35 359.046 261.55C357.913 263.717 356.346 265.417 354.346 266.65C352.379 267.85 350.196 268.45 347.796 268.45C345.696 268.45 343.829 268.033 342.196 267.2C340.563 266.333 339.229 265.267 338.196 264V281.1H332.496V240.45H338.196V244.5ZM354.946 254.1C354.946 252.2 354.546 250.567 353.746 249.2C352.979 247.8 351.946 246.75 350.646 246.05C349.379 245.317 348.013 244.95 346.546 244.95C345.113 244.95 343.746 245.317 342.446 246.05C341.179 246.783 340.146 247.85 339.346 249.25C338.579 250.65 338.196 252.3 338.196 254.2C338.196 256.1 338.579 257.767 339.346 259.2C340.146 260.6 341.179 261.667 342.446 262.4C343.746 263.133 345.113 263.5 346.546 263.5C348.013 263.5 349.379 263.133 350.646 262.4C351.946 261.633 352.979 260.533 353.746 259.1C354.546 257.667 354.946 256 354.946 254.1Z" fill="black"/>
</svg>
