<svg width="500" height="500" viewBox="0 0 500 500" fill="none" xmlns="http://www.w3.org/2000/svg">
<rect width="500" height="500" fill="white"/>
<path d="M166.64 258C167.466 258 167.879 258 168.195 257.839C168.472 257.698 168.698 257.472 168.839 257.195C169 256.879 169 256.466 169 255.64V224.96C169 224.134 169 223.721 168.839 223.405C168.698 223.128 168.472 222.902 168.195 222.761C167.879 222.6 167.466 222.6 166.64 222.6L159.56 222.6C158.734 222.6 158.321 222.6 158.005 222.761C157.728 222.902 157.502 223.128 157.361 223.405C157.2 223.721 157.2 224.134 157.2 224.96V232.04C157.2 232.866 157.2 233.279 157.039 233.595C156.898 233.872 156.672 234.098 156.395 234.239C156.079 234.4 155.666 234.4 154.84 234.4H147.76C146.934 234.4 146.521 234.4 146.205 234.561C145.928 234.702 145.702 234.928 145.561 235.205C145.4 235.521 145.4 235.934 145.4 236.76V243.84C145.4 244.666 145.4 245.079 145.239 245.395C145.098 245.672 144.872 245.898 144.595 246.039C144.279 246.2 143.866 246.2 143.04 246.2H135.96C135.134 246.2 134.721 246.2 134.405 246.361C134.128 246.502 133.902 246.728 133.761 247.005C133.6 247.321 133.6 247.734 133.6 248.56V255.64C133.6 256.466 133.6 256.879 133.761 257.195C133.902 257.472 134.128 257.698 134.405 257.839C134.721 258 135.134 258 135.96 258L166.64 258Z" stroke="black" stroke-width="4" stroke-linecap="round" stroke-linejoin="round"/>
<path d="M133.6 213.16C133.6 212.334 133.6 211.921 133.761 211.605C133.902 211.328 134.128 211.102 134.405 210.961C134.721 210.8 135.134 210.8 135.96 210.8H143.04C143.866 210.8 144.279 210.8 144.595 210.961C144.872 211.102 145.098 211.328 145.239 211.605C145.4 211.921 145.4 212.334 145.4 213.16V220.24C145.4 221.066 145.4 221.479 145.239 221.795C145.098 222.072 144.872 222.298 144.595 222.439C144.279 222.6 143.866 222.6 143.04 222.6H135.96C135.134 222.6 134.721 222.6 134.405 222.439C134.128 222.298 133.902 222.072 133.761 221.795C133.6 221.479 133.6 221.066 133.6 220.24V213.16Z" stroke="black" stroke-width="4" stroke-linecap="round" stroke-linejoin="round"/>
<path d="M112.95 230.86C112.95 230.034 112.95 229.621 113.111 229.305C113.252 229.028 113.478 228.802 113.755 228.661C114.071 228.5 114.484 228.5 115.31 228.5H122.39C123.216 228.5 123.629 228.5 123.945 228.661C124.222 228.802 124.448 229.028 124.589 229.305C124.75 229.621 124.75 230.034 124.75 230.86V237.94C124.75 238.766 124.75 239.179 124.589 239.495C124.448 239.772 124.222 239.998 123.945 240.139C123.629 240.3 123.216 240.3 122.39 240.3H115.31C114.484 240.3 114.071 240.3 113.755 240.139C113.478 239.998 113.252 239.772 113.111 239.495C112.95 239.179 112.95 238.766 112.95 237.94V230.86Z" stroke="black" stroke-width="4" stroke-linecap="round" stroke-linejoin="round"/>
<path d="M110 201.36C110 200.534 110 200.121 110.161 199.805C110.302 199.528 110.528 199.302 110.805 199.161C111.121 199 111.534 199 112.36 199H119.44C120.266 199 120.679 199 120.995 199.161C121.272 199.302 121.498 199.528 121.639 199.805C121.8 200.121 121.8 200.534 121.8 201.36V208.44C121.8 209.266 121.8 209.679 121.639 209.995C121.498 210.272 121.272 210.498 120.995 210.639C120.679 210.8 120.266 210.8 119.44 210.8H112.36C111.534 210.8 111.121 210.8 110.805 210.639C110.528 210.498 110.302 210.272 110.161 209.995C110 209.679 110 209.266 110 208.44V201.36Z" stroke="black" stroke-width="4" stroke-linecap="round" stroke-linejoin="round"/>
<path d="M189.194 262V214.727H206.044C209.721 214.727 212.768 215.397 215.184 216.735C217.6 218.074 219.408 219.905 220.609 222.229C221.809 224.537 222.409 227.138 222.409 230.031C222.409 232.939 221.801 235.555 220.586 237.879C219.385 240.187 217.569 242.018 215.138 243.373C212.722 244.711 209.683 245.381 206.021 245.381H194.433V239.333H205.374C207.698 239.333 209.583 238.933 211.029 238.133C212.476 237.317 213.538 236.209 214.215 234.809C214.892 233.409 215.23 231.816 215.23 230.031C215.23 228.246 214.892 226.661 214.215 225.276C213.538 223.891 212.468 222.806 211.006 222.021C209.56 221.237 207.652 220.844 205.282 220.844H196.326V262H189.194ZM252.676 247.297V226.545H259.601V262H252.814V255.86H252.445C251.629 257.753 250.321 259.33 248.521 260.592C246.736 261.838 244.512 262.462 241.85 262.462C239.573 262.462 237.557 261.962 235.803 260.961C234.064 259.946 232.694 258.445 231.694 256.46C230.709 254.475 230.217 252.021 230.217 249.097V226.545H237.118V248.266C237.118 250.682 237.788 252.605 239.127 254.037C240.465 255.468 242.204 256.183 244.343 256.183C245.636 256.183 246.921 255.86 248.198 255.214C249.491 254.567 250.56 253.59 251.406 252.282C252.268 250.974 252.691 249.312 252.676 247.297ZM268.135 262V257.268L287.34 232.87V232.547H268.759V226.545H295.95V231.577L277.484 255.675V255.999H296.596V262H268.135ZM304 262V257.268L323.204 232.87V232.547H304.623V226.545H331.814V231.577L313.348 255.675V255.999H332.46V262H304ZM347.504 214.727V262H340.602V214.727H347.504ZM372.07 262.716C368.576 262.716 365.568 261.969 363.044 260.477C360.536 258.969 358.597 256.853 357.228 254.129C355.873 251.39 355.196 248.181 355.196 244.504C355.196 240.872 355.873 237.671 357.228 234.901C358.597 232.131 360.505 229.969 362.952 228.415C365.414 226.861 368.292 226.084 371.585 226.084C373.585 226.084 375.524 226.415 377.402 227.076C379.279 227.738 380.964 228.777 382.457 230.192C383.949 231.608 385.126 233.447 385.988 235.709C386.85 237.956 387.281 240.687 387.281 243.903V246.35H359.097V241.18H380.518C380.518 239.364 380.148 237.756 379.41 236.355C378.671 234.94 377.632 233.824 376.294 233.009C374.97 232.193 373.416 231.785 371.631 231.785C369.692 231.785 367.999 232.262 366.553 233.216C365.122 234.155 364.014 235.386 363.229 236.909C362.46 238.417 362.075 240.056 362.075 241.826V245.865C362.075 248.235 362.49 250.251 363.321 251.913C364.168 253.575 365.345 254.844 366.853 255.722C368.361 256.583 370.123 257.014 372.139 257.014C373.447 257.014 374.639 256.83 375.717 256.46C376.794 256.076 377.725 255.506 378.509 254.752C379.294 253.998 379.894 253.067 380.31 251.959L386.842 253.136C386.319 255.06 385.38 256.745 384.026 258.191C382.687 259.623 381.002 260.738 378.971 261.538C376.955 262.323 374.655 262.716 372.07 262.716Z" fill="black"/>
</svg>
