<svg width="500" height="500" viewBox="0 0 500 500" fill="none" xmlns="http://www.w3.org/2000/svg">
<rect width="500" height="500" fill="white"/>
<path fill-rule="evenodd" clip-rule="evenodd" d="M176.5 283C194.449 283 209 268.449 209 250.5C209 232.551 194.449 218 176.5 218C158.551 218 144 232.551 144 250.5C144 268.449 158.551 283 176.5 283ZM161.335 239.032C161.335 236.99 162.99 235.335 165.032 235.335C167.074 235.335 168.729 236.99 168.729 239.032C168.729 241.074 167.074 242.729 165.032 242.729C162.99 242.729 161.335 241.074 161.335 239.032ZM165.032 233.335C161.885 233.335 159.335 235.885 159.335 239.032C159.335 242.178 161.885 244.729 165.032 244.729C168.178 244.729 170.729 242.178 170.729 239.032C170.729 235.885 168.178 233.335 165.032 233.335ZM175.209 238.032C174.657 238.032 174.209 238.48 174.209 239.032C174.209 239.584 174.657 240.032 175.209 240.032H175.889C178.294 240.032 180.033 240.033 181.289 240.136C181.913 240.187 182.372 240.26 182.709 240.356C183.046 240.451 183.197 240.551 183.265 240.615C183.797 241.119 184.034 241.862 183.89 242.581C183.872 242.672 183.806 242.842 183.586 243.114C183.366 243.386 183.033 243.712 182.553 244.114C181.588 244.923 180.168 245.928 178.205 247.316L171.841 251.818L171.799 251.848C169.887 253.2 168.4 254.252 167.364 255.12C166.839 255.56 166.396 255.98 166.06 256.396C165.724 256.812 165.455 257.273 165.351 257.794C165.072 259.188 165.529 260.628 166.562 261.605C166.948 261.97 167.434 262.19 167.948 262.336C168.463 262.482 169.068 262.569 169.749 262.625C171.096 262.735 172.918 262.735 175.26 262.735H175.26H175.312H176.775C177.327 262.735 177.775 262.288 177.775 261.735C177.775 261.183 177.327 260.735 176.775 260.735H175.312C172.908 260.735 171.168 260.735 169.913 260.632C169.289 260.58 168.829 260.507 168.493 260.412C168.156 260.316 168.004 260.216 167.937 260.152C167.404 259.648 167.168 258.905 167.312 258.186C167.33 258.095 167.396 257.925 167.616 257.653C167.835 257.381 168.168 257.056 168.648 256.653C169.613 255.844 171.033 254.839 172.996 253.451L179.36 248.949L179.403 248.919C181.315 247.567 182.802 246.515 183.838 245.647C184.362 245.208 184.806 244.787 185.142 244.371C185.477 243.955 185.747 243.494 185.851 242.974C186.13 241.579 185.672 240.14 184.639 239.162C184.254 238.798 183.767 238.577 183.254 238.431C182.739 238.285 182.134 238.198 181.452 238.142C180.105 238.032 178.283 238.032 175.941 238.032H175.889H175.209ZM183.255 260.952C183.255 258.911 184.911 257.255 186.952 257.255C188.994 257.255 190.65 258.911 190.65 260.952C190.65 262.994 188.994 264.65 186.952 264.65C184.911 264.65 183.255 262.994 183.255 260.952ZM186.952 255.255C183.806 255.255 181.255 257.806 181.255 260.952C181.255 264.099 183.806 266.65 186.952 266.65C190.099 266.65 192.65 264.099 192.65 260.952C192.65 257.806 190.099 255.255 186.952 255.255Z" fill="black"/>
<path d="M262.349 226.727V274H255.793L231.765 239.33H231.326V274H224.194V226.727H230.795L254.847 261.443H255.286V226.727H262.349ZM282.517 274.785C280.27 274.785 278.239 274.369 276.423 273.538C274.607 272.692 273.169 271.469 272.107 269.868C271.06 268.268 270.537 266.306 270.537 263.982C270.537 261.982 270.922 260.335 271.691 259.043C272.461 257.75 273.499 256.727 274.807 255.973C276.115 255.219 277.577 254.649 279.193 254.265C280.809 253.88 282.455 253.587 284.133 253.387C286.256 253.141 287.98 252.941 289.303 252.787C290.627 252.618 291.588 252.349 292.188 251.979C292.789 251.61 293.089 251.01 293.089 250.179V250.017C293.089 248.002 292.519 246.44 291.381 245.332C290.257 244.224 288.58 243.67 286.349 243.67C284.025 243.67 282.194 244.185 280.855 245.216C279.532 246.232 278.616 247.363 278.108 248.609L271.622 247.132C272.391 244.978 273.515 243.239 274.992 241.915C276.485 240.577 278.201 239.607 280.139 239.007C282.078 238.392 284.117 238.084 286.256 238.084C287.672 238.084 289.172 238.253 290.757 238.592C292.358 238.915 293.85 239.515 295.235 240.392C296.636 241.269 297.782 242.523 298.675 244.154C299.567 245.77 300.013 247.871 300.013 250.456V274H293.273V269.153H292.996C292.55 270.045 291.881 270.922 290.988 271.784C290.096 272.646 288.949 273.361 287.549 273.931C286.149 274.5 284.471 274.785 282.517 274.785ZM284.017 269.245C285.925 269.245 287.557 268.868 288.911 268.114C290.28 267.36 291.319 266.375 292.027 265.159C292.75 263.928 293.112 262.613 293.112 261.212V256.642C292.866 256.888 292.389 257.119 291.681 257.335C290.988 257.535 290.196 257.712 289.303 257.865C288.411 258.004 287.541 258.135 286.695 258.258C285.849 258.366 285.141 258.458 284.571 258.535C283.233 258.704 282.009 258.989 280.901 259.389C279.809 259.789 278.931 260.366 278.27 261.12C277.623 261.859 277.3 262.844 277.3 264.075C277.3 265.783 277.931 267.075 279.193 267.952C280.455 268.814 282.063 269.245 284.017 269.245ZM338.267 238.545L325.41 274H318.023L305.143 238.545H312.553L321.532 265.829H321.901L330.857 238.545H338.267ZM344.753 274V238.545H351.654V274H344.753ZM348.238 233.075C347.038 233.075 346.007 232.675 345.145 231.875C344.299 231.059 343.876 230.09 343.876 228.966C343.876 227.828 344.299 226.858 345.145 226.058C346.007 225.242 347.038 224.835 348.238 224.835C349.439 224.835 350.462 225.242 351.308 226.058C352.17 226.858 352.601 227.828 352.601 228.966C352.601 230.09 352.17 231.059 351.308 231.875C350.462 232.675 349.439 233.075 348.238 233.075Z" fill="black"/>
</svg>
