<svg width="500" height="500" viewBox="0 0 500 500" fill="none" xmlns="http://www.w3.org/2000/svg">
<rect width="500" height="500" fill="white"/>
<path d="M112 203C115.314 203 118 200.314 118 197C118 193.686 115.314 191 112 191C108.686 191 106 193.686 106 197C106 200.314 108.686 203 112 203Z" fill="black"/>
<path d="M125.455 202.455C125.213 203.003 125.14 203.611 125.247 204.201C125.354 204.791 125.635 205.335 126.055 205.764L126.164 205.873C126.502 206.21 126.77 206.611 126.953 207.053C127.136 207.494 127.23 207.968 127.23 208.445C127.23 208.923 127.136 209.397 126.953 209.838C126.77 210.279 126.502 210.68 126.164 211.018C125.826 211.356 125.425 211.624 124.983 211.807C124.542 211.99 124.069 212.085 123.591 212.085C123.113 212.085 122.64 211.99 122.198 211.807C121.757 211.624 121.356 211.356 121.018 211.018L120.909 210.909C120.481 210.49 119.936 210.209 119.347 210.102C118.757 209.995 118.148 210.067 117.6 210.309C117.062 210.54 116.604 210.922 116.281 211.41C115.958 211.898 115.784 212.469 115.782 213.055V213.364C115.782 214.328 115.399 215.253 114.717 215.935C114.035 216.617 113.11 217 112.145 217C111.181 217 110.256 216.617 109.574 215.935C108.892 215.253 108.509 214.328 108.509 213.364V213.2C108.495 212.598 108.3 212.015 107.95 211.525C107.6 211.035 107.11 210.662 106.545 210.455C105.997 210.213 105.389 210.14 104.799 210.247C104.209 210.354 103.665 210.635 103.236 211.055L103.127 211.164C102.79 211.502 102.389 211.77 101.947 211.953C101.506 212.136 101.032 212.23 100.555 212.23C100.077 212.23 99.6035 212.136 99.162 211.953C98.7206 211.77 98.3195 211.502 97.9818 211.164C97.6437 210.826 97.3755 210.425 97.1925 209.983C97.0095 209.542 96.9153 209.069 96.9153 208.591C96.9153 208.113 97.0095 207.64 97.1925 207.198C97.3755 206.757 97.6437 206.356 97.9818 206.018L98.0909 205.909C98.5101 205.481 98.7912 204.936 98.8982 204.347C99.0051 203.757 98.9329 203.148 98.6909 202.6C98.4604 202.062 98.0777 201.604 97.5899 201.281C97.1021 200.958 96.5305 200.784 95.9455 200.782H95.6364C94.6719 200.782 93.747 200.399 93.0651 199.717C92.3831 199.035 92 198.11 92 197.145C92 196.181 92.3831 195.256 93.0651 194.574C93.747 193.892 94.6719 193.509 95.6364 193.509H95.8C96.4018 193.495 96.9855 193.3 97.4751 192.95C97.9647 192.6 98.3377 192.11 98.5455 191.545C98.7875 190.997 98.8597 190.389 98.7527 189.799C98.6458 189.209 98.3646 188.665 97.9455 188.236L97.8364 188.127C97.4983 187.79 97.2301 187.389 97.0471 186.947C96.8641 186.506 96.7699 186.032 96.7699 185.555C96.7699 185.077 96.8641 184.603 97.0471 184.162C97.2301 183.721 97.4983 183.32 97.8364 182.982C98.1741 182.644 98.5751 182.376 99.0166 182.193C99.458 182.01 99.9312 181.915 100.409 181.915C100.887 181.915 101.36 182.01 101.802 182.193C102.243 182.376 102.644 182.644 102.982 182.982L103.091 183.091C103.519 183.51 104.064 183.791 104.653 183.898C105.243 184.005 105.852 183.933 106.4 183.691H106.545C107.083 183.46 107.542 183.078 107.865 182.59C108.188 182.102 108.361 181.531 108.364 180.945V180.636C108.364 179.672 108.747 178.747 109.429 178.065C110.111 177.383 111.036 177 112 177C112.964 177 113.889 177.383 114.571 178.065C115.253 178.747 115.636 179.672 115.636 180.636V180.8C115.639 181.385 115.812 181.957 116.135 182.444C116.458 182.932 116.917 183.315 117.455 183.545C118.003 183.787 118.611 183.86 119.201 183.753C119.791 183.646 120.335 183.365 120.764 182.945L120.873 182.836C121.21 182.498 121.611 182.23 122.053 182.047C122.494 181.864 122.968 181.77 123.445 181.77C123.923 181.77 124.397 181.864 124.838 182.047C125.279 182.23 125.68 182.498 126.018 182.836C126.356 183.174 126.624 183.575 126.807 184.017C126.99 184.458 127.085 184.931 127.085 185.409C127.085 185.887 126.99 186.36 126.807 186.802C126.624 187.243 126.356 187.644 126.018 187.982L125.909 188.091C125.49 188.519 125.209 189.064 125.102 189.653C124.995 190.243 125.067 190.852 125.309 191.4V191.545C125.54 192.083 125.922 192.542 126.41 192.865C126.898 193.188 127.469 193.361 128.055 193.364H128.364C129.328 193.364 130.253 193.747 130.935 194.429C131.617 195.111 132 196.036 132 197C132 197.964 131.617 198.889 130.935 199.571C130.253 200.253 129.328 200.636 128.364 200.636H128.2C127.615 200.639 127.043 200.812 126.556 201.135C126.068 201.458 125.685 201.917 125.455 202.455Z" fill="black"/>
<path d="M112 203C115.314 203 118 200.314 118 197C118 193.686 115.314 191 112 191C108.686 191 106 193.686 106 197C106 200.314 108.686 203 112 203Z" stroke="white" stroke-width="2" stroke-linecap="round" stroke-linejoin="round"/>
<path d="M125.455 202.455C125.213 203.003 125.14 203.611 125.247 204.201C125.354 204.791 125.635 205.335 126.055 205.764L126.164 205.873C126.502 206.21 126.77 206.611 126.953 207.053C127.136 207.494 127.23 207.968 127.23 208.445C127.23 208.923 127.136 209.397 126.953 209.838C126.77 210.279 126.502 210.68 126.164 211.018C125.826 211.356 125.425 211.624 124.983 211.807C124.542 211.99 124.069 212.085 123.591 212.085C123.113 212.085 122.64 211.99 122.198 211.807C121.757 211.624 121.356 211.356 121.018 211.018L120.909 210.909C120.481 210.49 119.936 210.209 119.347 210.102C118.757 209.995 118.148 210.067 117.6 210.309C117.062 210.54 116.604 210.922 116.281 211.41C115.958 211.898 115.784 212.469 115.782 213.055V213.364C115.782 214.328 115.399 215.253 114.717 215.935C114.035 216.617 113.11 217 112.145 217C111.181 217 110.256 216.617 109.574 215.935C108.892 215.253 108.509 214.328 108.509 213.364V213.2C108.495 212.598 108.3 212.015 107.95 211.525C107.6 211.035 107.11 210.662 106.545 210.455C105.997 210.213 105.389 210.14 104.799 210.247C104.209 210.354 103.665 210.635 103.236 211.055L103.127 211.164C102.79 211.502 102.389 211.77 101.947 211.953C101.506 212.136 101.032 212.23 100.555 212.23C100.077 212.23 99.6035 212.136 99.162 211.953C98.7206 211.77 98.3195 211.502 97.9818 211.164C97.6437 210.826 97.3755 210.425 97.1925 209.983C97.0095 209.542 96.9153 209.069 96.9153 208.591C96.9153 208.113 97.0095 207.64 97.1925 207.198C97.3755 206.757 97.6437 206.356 97.9818 206.018L98.0909 205.909C98.5101 205.481 98.7912 204.936 98.8982 204.347C99.0051 203.757 98.9329 203.148 98.6909 202.6C98.4604 202.062 98.0777 201.604 97.5899 201.281C97.1021 200.958 96.5305 200.784 95.9455 200.782H95.6364C94.6719 200.782 93.747 200.399 93.0651 199.717C92.3831 199.035 92 198.11 92 197.145C92 196.181 92.3831 195.256 93.0651 194.574C93.747 193.892 94.6719 193.509 95.6364 193.509H95.8C96.4018 193.495 96.9855 193.3 97.4751 192.95C97.9647 192.6 98.3377 192.11 98.5455 191.545C98.7875 190.997 98.8597 190.389 98.7527 189.799C98.6458 189.209 98.3646 188.665 97.9455 188.236L97.8364 188.127C97.4983 187.79 97.2301 187.389 97.0471 186.947C96.8641 186.506 96.7699 186.032 96.7699 185.555C96.7699 185.077 96.8641 184.603 97.0471 184.162C97.2301 183.721 97.4983 183.32 97.8364 182.982C98.1741 182.644 98.5751 182.376 99.0166 182.193C99.458 182.01 99.9312 181.915 100.409 181.915C100.887 181.915 101.36 182.01 101.802 182.193C102.243 182.376 102.644 182.644 102.982 182.982L103.091 183.091C103.519 183.51 104.064 183.791 104.653 183.898C105.243 184.005 105.852 183.933 106.4 183.691H106.545C107.083 183.46 107.542 183.078 107.865 182.59C108.188 182.102 108.361 181.531 108.364 180.945V180.636C108.364 179.672 108.747 178.747 109.429 178.065C110.111 177.383 111.036 177 112 177C112.964 177 113.889 177.383 114.571 178.065C115.253 178.747 115.636 179.672 115.636 180.636V180.8C115.639 181.385 115.812 181.957 116.135 182.444C116.458 182.932 116.917 183.315 117.455 183.545C118.003 183.787 118.611 183.86 119.201 183.753C119.791 183.646 120.335 183.365 120.764 182.945L120.873 182.836C121.21 182.498 121.611 182.23 122.053 182.047C122.494 181.864 122.968 181.77 123.445 181.77C123.923 181.77 124.397 181.864 124.838 182.047C125.279 182.23 125.68 182.498 126.018 182.836C126.356 183.174 126.624 183.575 126.807 184.017C126.99 184.458 127.085 184.931 127.085 185.409C127.085 185.887 126.99 186.36 126.807 186.802C126.624 187.243 126.356 187.644 126.018 187.982L125.909 188.091C125.49 188.519 125.209 189.064 125.102 189.653C124.995 190.243 125.067 190.852 125.309 191.4V191.545C125.54 192.083 125.922 192.542 126.41 192.865C126.898 193.188 127.469 193.361 128.055 193.364H128.364C129.328 193.364 130.253 193.747 130.935 194.429C131.617 195.111 132 196.036 132 197C132 197.964 131.617 198.889 130.935 199.571C130.253 200.253 129.328 200.636 128.364 200.636H128.2C127.615 200.639 127.043 200.812 126.556 201.135C126.068 201.458 125.685 201.917 125.455 202.455Z" stroke="white" stroke-width="2" stroke-linecap="round" stroke-linejoin="round"/>
<path d="M150.596 206.273H156.588L167.007 231.713H167.391L177.81 206.273H183.802V239H179.104V215.317H178.8L169.148 238.952H165.249L155.597 215.301H155.294V239H150.596V206.273ZM197.741 239.543C196.185 239.543 194.779 239.256 193.522 238.68C192.265 238.094 191.269 237.248 190.534 236.14C189.809 235.032 189.447 233.673 189.447 232.065C189.447 230.68 189.714 229.54 190.246 228.645C190.779 227.75 191.498 227.042 192.403 226.52C193.309 225.998 194.321 225.603 195.44 225.337C196.558 225.071 197.698 224.868 198.859 224.73C200.33 224.559 201.523 224.421 202.439 224.314C203.355 224.197 204.021 224.011 204.437 223.755C204.852 223.499 205.06 223.084 205.06 222.509V222.397C205.06 221.001 204.666 219.92 203.877 219.153C203.1 218.386 201.938 218.002 200.394 218.002C198.785 218.002 197.517 218.359 196.59 219.073C195.674 219.776 195.04 220.559 194.689 221.422L190.198 220.399C190.731 218.908 191.509 217.704 192.531 216.788C193.565 215.861 194.753 215.19 196.095 214.774C197.437 214.348 198.849 214.135 200.33 214.135C201.31 214.135 202.348 214.252 203.446 214.487C204.554 214.71 205.587 215.126 206.546 215.733C207.515 216.34 208.309 217.208 208.927 218.338C209.545 219.456 209.854 220.911 209.854 222.7V239H205.188V235.644H204.996C204.687 236.262 204.223 236.869 203.606 237.466C202.988 238.062 202.194 238.558 201.225 238.952C200.255 239.346 199.094 239.543 197.741 239.543ZM198.78 235.708C200.101 235.708 201.23 235.447 202.167 234.925C203.116 234.403 203.835 233.721 204.325 232.88C204.825 232.027 205.076 231.116 205.076 230.147V226.983C204.905 227.153 204.575 227.313 204.085 227.462C203.606 227.601 203.057 227.723 202.439 227.83C201.821 227.926 201.219 228.016 200.633 228.102C200.047 228.176 199.557 228.24 199.163 228.293C198.236 228.411 197.389 228.608 196.622 228.885C195.866 229.162 195.259 229.561 194.801 230.083C194.353 230.594 194.129 231.276 194.129 232.129C194.129 233.311 194.566 234.206 195.44 234.813C196.313 235.41 197.427 235.708 198.78 235.708ZM220.996 224.426V239H216.218V214.455H220.804V218.45H221.108C221.672 217.15 222.557 216.106 223.76 215.317C224.975 214.529 226.504 214.135 228.347 214.135C230.019 214.135 231.484 214.487 232.741 215.19C233.998 215.882 234.973 216.915 235.666 218.29C236.358 219.664 236.704 221.363 236.704 223.387V239H231.926V223.963C231.926 222.184 231.463 220.793 230.536 219.792C229.609 218.78 228.336 218.274 226.717 218.274C225.609 218.274 224.623 218.513 223.76 218.993C222.908 219.472 222.232 220.175 221.731 221.102C221.241 222.018 220.996 223.126 220.996 224.426ZM250.256 239.543C248.7 239.543 247.294 239.256 246.037 238.68C244.78 238.094 243.784 237.248 243.048 236.14C242.324 235.032 241.962 233.673 241.962 232.065C241.962 230.68 242.228 229.54 242.761 228.645C243.294 227.75 244.013 227.042 244.918 226.52C245.824 225.998 246.836 225.603 247.954 225.337C249.073 225.071 250.213 224.868 251.374 224.73C252.844 224.559 254.037 224.421 254.954 224.314C255.87 224.197 256.536 224.011 256.951 223.755C257.367 223.499 257.574 223.084 257.574 222.509V222.397C257.574 221.001 257.18 219.92 256.392 219.153C255.614 218.386 254.453 218.002 252.908 218.002C251.3 218.002 250.032 218.359 249.105 219.073C248.189 219.776 247.555 220.559 247.203 221.422L242.713 220.399C243.246 218.908 244.023 217.704 245.046 216.788C246.079 215.861 247.267 215.19 248.61 214.774C249.952 214.348 251.363 214.135 252.844 214.135C253.824 214.135 254.863 214.252 255.96 214.487C257.068 214.71 258.102 215.126 259.061 215.733C260.03 216.34 260.824 217.208 261.442 218.338C262.059 219.456 262.368 220.911 262.368 222.7V239H257.702V235.644H257.51C257.202 236.262 256.738 236.869 256.12 237.466C255.502 238.062 254.709 238.558 253.739 238.952C252.77 239.346 251.608 239.543 250.256 239.543ZM251.294 235.708C252.615 235.708 253.744 235.447 254.682 234.925C255.63 234.403 256.349 233.721 256.839 232.88C257.34 232.027 257.59 231.116 257.59 230.147V226.983C257.42 227.153 257.09 227.313 256.6 227.462C256.12 227.601 255.572 227.723 254.954 227.83C254.336 227.926 253.734 228.016 253.148 228.102C252.562 228.176 252.072 228.24 251.678 228.293C250.751 228.411 249.904 228.608 249.137 228.885C248.381 229.162 247.773 229.561 247.315 230.083C246.868 230.594 246.644 231.276 246.644 232.129C246.644 233.311 247.081 234.206 247.954 234.813C248.828 235.41 249.941 235.708 251.294 235.708ZM279.024 248.716C277.074 248.716 275.396 248.46 273.99 247.949C272.594 247.438 271.454 246.761 270.57 245.919C269.686 245.078 269.025 244.156 268.589 243.155L272.696 241.461C272.983 241.93 273.367 242.425 273.846 242.947C274.336 243.48 274.997 243.933 275.828 244.305C276.669 244.678 277.751 244.865 279.072 244.865C280.883 244.865 282.38 244.423 283.562 243.538C284.745 242.665 285.336 241.269 285.336 239.352V234.526H285.032C284.745 235.048 284.329 235.628 283.786 236.267C283.253 236.907 282.518 237.461 281.581 237.929C280.643 238.398 279.423 238.632 277.921 238.632C275.982 238.632 274.235 238.18 272.68 237.274C271.135 236.358 269.91 235.01 269.004 233.231C268.109 231.441 267.662 229.241 267.662 226.631C267.662 224.021 268.104 221.784 268.988 219.92C269.883 218.055 271.108 216.628 272.664 215.637C274.219 214.636 275.982 214.135 277.953 214.135C279.476 214.135 280.707 214.391 281.644 214.902C282.582 215.403 283.312 215.989 283.834 216.66C284.366 217.331 284.777 217.922 285.064 218.434H285.416V214.455H290.098V239.543C290.098 241.653 289.608 243.384 288.628 244.737C287.648 246.09 286.321 247.091 284.649 247.741C282.987 248.391 281.112 248.716 279.024 248.716ZM278.976 234.669C280.35 234.669 281.511 234.35 282.459 233.711C283.418 233.061 284.143 232.134 284.633 230.93C285.133 229.716 285.384 228.261 285.384 226.567C285.384 224.916 285.139 223.462 284.649 222.205C284.159 220.948 283.44 219.968 282.491 219.265C281.543 218.551 280.371 218.194 278.976 218.194C277.538 218.194 276.339 218.567 275.38 219.312C274.421 220.048 273.697 221.049 273.207 222.317C272.728 223.585 272.488 225.001 272.488 226.567C272.488 228.176 272.733 229.588 273.223 230.802C273.713 232.017 274.437 232.965 275.396 233.647C276.366 234.328 277.559 234.669 278.976 234.669ZM307.085 239.495C304.666 239.495 302.584 238.979 300.837 237.945C299.1 236.901 297.758 235.436 296.81 233.551C295.872 231.654 295.403 229.433 295.403 226.887C295.403 224.373 295.872 222.157 296.81 220.239C297.758 218.322 299.079 216.825 300.773 215.749C302.477 214.673 304.469 214.135 306.749 214.135C308.134 214.135 309.476 214.364 310.776 214.822C312.076 215.28 313.242 215.999 314.276 216.979C315.309 217.96 316.124 219.233 316.721 220.799C317.317 222.354 317.616 224.245 317.616 226.472V228.165H298.104V224.586H312.934C312.934 223.329 312.678 222.216 312.166 221.246C311.655 220.266 310.936 219.494 310.009 218.929C309.093 218.364 308.017 218.082 306.781 218.082C305.439 218.082 304.267 218.412 303.266 219.073C302.275 219.723 301.508 220.575 300.964 221.63C300.432 222.674 300.165 223.808 300.165 225.033V227.83C300.165 229.471 300.453 230.866 301.028 232.017C301.614 233.167 302.429 234.046 303.473 234.653C304.517 235.25 305.737 235.548 307.133 235.548C308.038 235.548 308.864 235.42 309.61 235.165C310.355 234.898 311 234.504 311.543 233.982C312.087 233.46 312.502 232.816 312.79 232.049L317.312 232.864C316.95 234.195 316.3 235.362 315.362 236.363C314.436 237.354 313.269 238.126 311.863 238.68C310.467 239.224 308.875 239.495 307.085 239.495ZM322.917 239V214.455H327.503V218.45H327.807C328.318 217.097 329.155 216.042 330.316 215.286C331.477 214.518 332.867 214.135 334.487 214.135C336.127 214.135 337.502 214.518 338.61 215.286C339.728 216.053 340.554 217.107 341.086 218.45H341.342C341.928 217.139 342.86 216.095 344.139 215.317C345.417 214.529 346.941 214.135 348.709 214.135C350.936 214.135 352.752 214.833 354.158 216.228C355.575 217.624 356.284 219.728 356.284 222.54V239H351.506V222.988C351.506 221.326 351.053 220.122 350.147 219.376C349.242 218.631 348.16 218.258 346.903 218.258C345.348 218.258 344.139 218.737 343.276 219.696C342.413 220.644 341.981 221.864 341.981 223.355V239H337.219V222.684C337.219 221.353 336.804 220.282 335.973 219.472C335.142 218.663 334.061 218.258 332.729 218.258C331.823 218.258 330.987 218.498 330.22 218.977C329.464 219.446 328.851 220.101 328.382 220.942C327.924 221.784 327.695 222.759 327.695 223.867V239H322.917ZM373.266 239.495C370.848 239.495 368.765 238.979 367.018 237.945C365.282 236.901 363.939 235.436 362.991 233.551C362.054 231.654 361.585 229.433 361.585 226.887C361.585 224.373 362.054 222.157 362.991 220.239C363.939 218.322 365.26 216.825 366.954 215.749C368.659 214.673 370.651 214.135 372.931 214.135C374.316 214.135 375.658 214.364 376.958 214.822C378.258 215.28 379.424 215.999 380.457 216.979C381.491 217.96 382.306 219.233 382.902 220.799C383.499 222.354 383.797 224.245 383.797 226.472V228.165H364.286V224.586H379.115C379.115 223.329 378.859 222.216 378.348 221.246C377.837 220.266 377.118 219.494 376.191 218.929C375.275 218.364 374.199 218.082 372.963 218.082C371.62 218.082 370.449 218.412 369.447 219.073C368.456 219.723 367.689 220.575 367.146 221.63C366.613 222.674 366.347 223.808 366.347 225.033V227.83C366.347 229.471 366.635 230.866 367.21 232.017C367.796 233.167 368.611 234.046 369.655 234.653C370.699 235.25 371.919 235.548 373.314 235.548C374.22 235.548 375.046 235.42 375.791 235.165C376.537 234.898 377.182 234.504 377.725 233.982C378.268 233.46 378.684 232.816 378.971 232.049L383.494 232.864C383.131 234.195 382.482 235.362 381.544 236.363C380.617 237.354 379.451 238.126 378.044 238.68C376.649 239.224 375.056 239.495 373.266 239.495ZM393.877 224.426V239H389.099V214.455H393.685V218.45H393.989C394.553 217.15 395.438 216.106 396.641 215.317C397.856 214.529 399.385 214.135 401.228 214.135C402.9 214.135 404.365 214.487 405.622 215.19C406.879 215.882 407.854 216.915 408.547 218.29C409.239 219.664 409.585 221.363 409.585 223.387V239H404.807V223.963C404.807 222.184 404.344 220.793 403.417 219.792C402.49 218.78 401.217 218.274 399.598 218.274C398.49 218.274 397.504 218.513 396.641 218.993C395.789 219.472 395.113 220.175 394.612 221.102C394.122 222.018 393.877 223.126 393.877 224.426ZM427.451 214.455V218.29H414.044V214.455H427.451ZM417.639 208.574H422.417V231.793C422.417 232.72 422.556 233.418 422.833 233.886C423.11 234.344 423.467 234.659 423.903 234.829C424.351 234.989 424.836 235.069 425.358 235.069C425.741 235.069 426.077 235.042 426.364 234.989C426.652 234.936 426.876 234.893 427.036 234.861L427.898 238.808C427.621 238.915 427.227 239.021 426.716 239.128C426.205 239.245 425.565 239.309 424.798 239.32C423.541 239.341 422.369 239.117 421.283 238.648C420.196 238.18 419.317 237.455 418.646 236.475C417.975 235.495 417.639 234.265 417.639 232.784V208.574Z" fill="black"/>
<path d="M98 219H101V216H98V219Z" fill="black"/>
<path d="M98 225H101V222H98V225Z" fill="black"/>
<path d="M98 231H101V228H98V231Z" fill="black"/>
<path d="M98 238H101V235H98V238Z" fill="black"/>
<path d="M117 216H114V219H117V216Z" fill="black"/>
<path d="M123 216H120V219H123V216Z" fill="black"/>
<path d="M117 222H114V225H117V222Z" fill="black"/>
<path d="M123 222H120V225H123V222Z" fill="black"/>
<path d="M117 228H114V231H117V228Z" fill="black"/>
<path d="M123 228H120V231H123V228Z" fill="black"/>
<path d="M117 235H114V238H117V235Z" fill="black"/>
<path d="M123 235H120V238H123V235Z" fill="black"/>
<path fill-rule="evenodd" clip-rule="evenodd" d="M131.848 201.562C131.266 206.078 129.05 210.13 125.763 213.197V243.661H110.551V219.086C110.531 219.086 110.51 219.086 110.489 219.086C108.399 219.086 106.378 218.81 104.467 218.295V243.661H95.3392V222.36V213.311C92.1846 210.414 89.9946 206.62 89.2546 202.376V203.945L79.1642 207.301C77.9228 207.72 77.0846 208.885 77.0846 210.194V224.227L73.0796 225.562C71.8373 225.973 71 227.137 71 228.447V246.7C71 248.378 72.3621 249.74 74.0418 249.74H92.2965H107.508H128.806C130.487 249.74 131.848 248.378 131.848 246.7V201.562ZM81.0827 229.304L77.0846 230.639V243.661H80.1273V237.574C80.1273 235.896 81.4894 234.535 83.1691 234.535C84.8498 234.535 86.2119 235.896 86.2119 237.574V243.661H89.2546V226.581L81.0896 229.304H81.0827ZM89.2546 210.357L83.1691 212.386V222.198L89.2546 220.168V210.357Z" fill="black"/>
</svg>
