<svg width="500" height="500" viewBox="0 0 500 500" fill="none" xmlns="http://www.w3.org/2000/svg">
<rect width="500" height="500" fill="white"/>
<path fill-rule="evenodd" clip-rule="evenodd" d="M197.366 218.85C194.173 207.753 180.165 204.274 172.151 212.588L144.395 241.386C136.382 249.699 140.373 263.57 151.58 266.353L190.397 275.992C201.604 278.775 211.621 268.383 208.427 257.286L197.366 218.85ZM168.575 232.927C169.012 231.168 170.792 230.097 172.551 230.533C174.31 230.97 175.382 232.75 174.945 234.509C174.508 236.268 172.728 237.34 170.969 236.903C169.21 236.466 168.138 234.686 168.575 232.927ZM173.033 228.592C170.202 227.889 167.337 229.614 166.634 232.445C165.931 235.276 167.656 238.141 170.487 238.844C173.318 239.547 176.183 237.822 176.886 234.991C177.589 232.16 175.864 229.295 173.033 228.592ZM181.004 234.984C180.468 234.85 179.926 235.177 179.793 235.713C179.66 236.249 179.986 236.791 180.522 236.925L181.124 237.074C183.253 237.603 184.787 237.984 185.871 238.35C186.409 238.531 186.793 238.695 187.063 238.849C187.333 239.004 187.432 239.117 187.467 239.172C187.811 239.709 187.855 240.386 187.583 240.963C187.555 241.022 187.471 241.147 187.223 241.335C186.976 241.523 186.616 241.734 186.105 241.984C185.077 242.485 183.605 243.061 181.562 243.859L174.943 246.443L174.895 246.462C172.91 247.237 171.36 247.842 170.25 248.384C169.687 248.658 169.197 248.936 168.801 249.235C168.407 249.534 168.055 249.893 167.84 250.348C167.274 251.548 167.365 252.954 168.08 254.071C168.352 254.495 168.747 254.806 169.176 255.052C169.607 255.298 170.129 255.51 170.722 255.71C171.893 256.105 173.507 256.506 175.575 257.019L175.576 257.019L175.626 257.032L176.92 257.353C177.456 257.486 177.998 257.16 178.132 256.624C178.265 256.088 177.938 255.545 177.402 255.412L176.108 255.091C173.979 254.562 172.445 254.18 171.361 253.815C170.823 253.633 170.438 253.469 170.169 253.315C169.899 253.161 169.8 253.047 169.765 252.993C169.421 252.455 169.377 251.779 169.649 251.201C169.677 251.142 169.76 251.017 170.009 250.829C170.256 250.642 170.616 250.43 171.127 250.181C172.154 249.679 173.627 249.104 175.67 248.306L182.289 245.722L182.337 245.703L182.337 245.703C184.322 244.928 185.872 244.323 186.982 243.781C187.545 243.506 188.035 243.229 188.431 242.93C188.825 242.631 189.177 242.272 189.391 241.817C189.957 240.617 189.867 239.21 189.151 238.093C188.88 237.67 188.485 237.359 188.055 237.113C187.625 236.867 187.103 236.655 186.51 236.455C185.339 236.06 183.724 235.659 181.656 235.145L181.656 235.145L181.606 235.133L181.004 234.984ZM183.152 257.135C183.588 255.376 185.368 254.304 187.127 254.741C188.886 255.178 189.958 256.958 189.521 258.717C189.084 260.476 187.304 261.547 185.546 261.111C183.787 260.674 182.715 258.894 183.152 257.135ZM187.609 252.8C184.778 252.097 181.913 253.822 181.21 256.653C180.507 259.484 182.233 262.349 185.064 263.052C187.894 263.755 190.759 262.03 191.462 259.199C192.165 256.368 190.44 253.503 187.609 252.8Z" fill="black"/>
<path d="M256.349 221.727V269H249.793L225.765 234.33H225.326V269H218.194V221.727H224.795L248.847 256.443H249.286V221.727H256.349ZM276.517 269.785C274.27 269.785 272.239 269.369 270.423 268.538C268.607 267.692 267.169 266.469 266.107 264.868C265.06 263.268 264.537 261.306 264.537 258.982C264.537 256.982 264.922 255.335 265.691 254.043C266.461 252.75 267.499 251.727 268.807 250.973C270.115 250.219 271.577 249.649 273.193 249.265C274.809 248.88 276.455 248.587 278.133 248.387C280.256 248.141 281.98 247.941 283.303 247.787C284.627 247.618 285.588 247.349 286.188 246.979C286.789 246.61 287.089 246.01 287.089 245.179V245.017C287.089 243.002 286.519 241.44 285.381 240.332C284.257 239.224 282.58 238.67 280.349 238.67C278.025 238.67 276.194 239.185 274.855 240.216C273.532 241.232 272.616 242.363 272.108 243.609L265.622 242.132C266.391 239.978 267.515 238.239 268.992 236.915C270.485 235.577 272.201 234.607 274.139 234.007C276.078 233.392 278.117 233.084 280.256 233.084C281.672 233.084 283.172 233.253 284.757 233.592C286.358 233.915 287.85 234.515 289.235 235.392C290.636 236.269 291.782 237.523 292.675 239.154C293.567 240.77 294.013 242.871 294.013 245.456V269H287.273V264.153H286.996C286.55 265.045 285.881 265.922 284.988 266.784C284.096 267.646 282.949 268.361 281.549 268.931C280.149 269.5 278.471 269.785 276.517 269.785ZM278.017 264.245C279.925 264.245 281.557 263.868 282.911 263.114C284.28 262.36 285.319 261.375 286.027 260.159C286.75 258.928 287.112 257.613 287.112 256.212V251.642C286.866 251.888 286.389 252.119 285.681 252.335C284.988 252.535 284.196 252.712 283.303 252.865C282.411 253.004 281.541 253.135 280.695 253.258C279.849 253.366 279.141 253.458 278.571 253.535C277.233 253.704 276.009 253.989 274.901 254.389C273.809 254.789 272.931 255.366 272.27 256.12C271.623 256.859 271.3 257.844 271.3 259.075C271.3 260.783 271.931 262.075 273.193 262.952C274.455 263.814 276.063 264.245 278.017 264.245ZM332.267 233.545L319.41 269H312.023L299.143 233.545H306.553L315.532 260.829H315.901L324.857 233.545H332.267ZM338.753 269V233.545H345.654V269H338.753ZM342.238 228.075C341.038 228.075 340.007 227.675 339.145 226.875C338.299 226.059 337.876 225.09 337.876 223.966C337.876 222.828 338.299 221.858 339.145 221.058C340.007 220.242 341.038 219.835 342.238 219.835C343.439 219.835 344.462 220.242 345.308 221.058C346.17 221.858 346.601 222.828 346.601 223.966C346.601 225.09 346.17 226.059 345.308 226.875C344.462 227.675 343.439 228.075 342.238 228.075Z" fill="black"/>
</svg>
