<svg width="500" height="500" viewBox="0 0 500 500" fill="none" xmlns="http://www.w3.org/2000/svg">
<rect width="500" height="500" fill="white"/>
<path d="M143.482 224H115.084C112.277 224 110 226.246 110 229.054V244.596C110 246.781 111.366 248.588 113.233 249.331V252.534C113.218 253.885 114.827 254.856 115.965 254.127L123.842 249.696H143.482C146.29 249.696 148.536 247.404 148.536 244.596V229.054C148.536 226.246 146.29 224 143.482 224Z" fill="black"/>
<path d="M164.826 246.031H152.549C150.161 246.046 150.161 249.659 152.549 249.674H164.826C165.607 249.674 166.25 250.317 166.25 251.098V266.636C166.25 267.432 165.607 268.06 164.826 268.06C163.816 268.06 163.005 268.887 163.005 269.897V271.443C162.392 271.213 157.126 267.846 156.529 268.06H136.429C135.648 268.06 135.005 267.432 135.005 266.636V254.236C135.005 251.863 131.362 251.848 131.362 254.236V266.636C131.362 269.438 133.628 271.719 136.429 271.719H156.055L163.938 276.173C165.087 276.862 166.694 275.928 166.648 274.581V271.382C168.546 270.647 169.894 268.795 169.894 266.636V251.098C169.894 248.297 167.628 246.031 164.826 246.031Z" fill="black"/>
<path d="M144.483 257.305C143.767 258.021 143.767 259.178 144.483 259.879C145.306 260.488 148.002 264.037 149.19 263.839C150.18 264.281 155.161 258.371 156.73 257.046C157.446 256.345 157.446 255.188 156.73 254.472C156.029 253.756 154.872 253.756 154.156 254.472L149.19 259.422C148.047 258.417 146.204 255.568 144.483 257.305Z" fill="black"/>
<path d="M187.423 257.047H174.446C172.069 257.062 172.069 260.689 174.446 260.704H187.423C189.815 260.689 189.815 257.062 187.423 257.047Z" fill="black"/>
<path d="M174.447 254.323H180.941C181.941 254.323 182.756 253.492 182.756 252.492C182.756 251.492 181.941 250.661 180.941 250.661H174.447C172.062 250.677 172.062 254.308 174.447 254.323Z" fill="black"/>
<path d="M177.696 263.432H174.453C172.07 263.448 172.07 267.075 174.453 267.091H177.696C180.079 267.075 180.079 263.448 177.696 263.432Z" fill="black"/>
<path d="M131.474 234.41C131.77 233.884 132.017 233.409 132.169 233.048C132.909 231.293 132.177 229.274 130.39 228.45C128.602 227.627 126.807 228.481 126.019 230.129C124.512 229.095 122.502 229.247 121.394 230.861C120.286 232.474 120.634 234.582 122.152 235.732C122.841 236.254 124.203 237.023 125.486 237.708M132.069 235.855C131.735 234.059 130.206 232.745 128.282 233.102C126.357 233.459 125.113 235.196 125.373 237.082C125.582 238.598 126.736 242.154 127.181 243.494C127.242 243.677 127.273 243.768 127.333 243.832C127.385 243.888 127.455 243.928 127.529 243.945C127.614 243.966 127.709 243.946 127.898 243.908C129.28 243.624 132.937 242.845 134.355 242.268C136.119 241.55 137.029 239.605 136.347 237.759C135.665 235.912 133.792 235.247 132.069 235.855Z" stroke="white" stroke-linecap="round" stroke-linejoin="round"/>
<path d="M202.114 225.455H210.636L225.455 261.636H226L240.818 225.455H249.341V272H242.659V238.318H242.227L228.5 271.932H222.955L209.227 238.295H208.795V272H202.114V225.455ZM269.165 272.773C266.953 272.773 264.953 272.364 263.165 271.545C261.377 270.712 259.96 269.508 258.915 267.932C257.884 266.356 257.369 264.424 257.369 262.136C257.369 260.167 257.748 258.545 258.506 257.273C259.263 256 260.286 254.992 261.574 254.25C262.862 253.508 264.301 252.947 265.892 252.568C267.483 252.189 269.104 251.902 270.756 251.705C272.847 251.462 274.544 251.265 275.847 251.114C277.15 250.947 278.097 250.682 278.688 250.318C279.278 249.955 279.574 249.364 279.574 248.545V248.386C279.574 246.402 279.013 244.864 277.892 243.773C276.786 242.682 275.134 242.136 272.938 242.136C270.65 242.136 268.847 242.644 267.528 243.659C266.225 244.659 265.324 245.773 264.824 247L258.438 245.545C259.195 243.424 260.301 241.712 261.756 240.409C263.225 239.091 264.915 238.136 266.824 237.545C268.733 236.939 270.741 236.636 272.847 236.636C274.241 236.636 275.718 236.803 277.278 237.136C278.854 237.455 280.324 238.045 281.688 238.909C283.066 239.773 284.195 241.008 285.074 242.614C285.953 244.205 286.392 246.273 286.392 248.818V272H279.756V267.227H279.483C279.044 268.106 278.384 268.97 277.506 269.818C276.627 270.667 275.498 271.371 274.119 271.932C272.741 272.492 271.089 272.773 269.165 272.773ZM270.642 267.318C272.521 267.318 274.127 266.947 275.46 266.205C276.809 265.462 277.831 264.492 278.528 263.295C279.241 262.083 279.597 260.788 279.597 259.409V254.909C279.354 255.152 278.884 255.379 278.188 255.591C277.506 255.788 276.725 255.962 275.847 256.114C274.968 256.25 274.112 256.379 273.278 256.5C272.445 256.606 271.748 256.697 271.188 256.773C269.869 256.939 268.665 257.22 267.574 257.614C266.498 258.008 265.634 258.576 264.983 259.318C264.347 260.045 264.028 261.015 264.028 262.227C264.028 263.909 264.65 265.182 265.892 266.045C267.134 266.894 268.718 267.318 270.642 267.318ZM311.739 237.091V242.545H292.67V237.091H311.739ZM297.784 228.727H304.58V261.75C304.58 263.068 304.777 264.061 305.17 264.727C305.564 265.379 306.072 265.826 306.693 266.068C307.33 266.295 308.019 266.409 308.761 266.409C309.307 266.409 309.784 266.371 310.193 266.295C310.602 266.22 310.92 266.159 311.148 266.114L312.375 271.727C311.981 271.879 311.42 272.03 310.693 272.182C309.966 272.348 309.057 272.439 307.966 272.455C306.178 272.485 304.511 272.167 302.966 271.5C301.42 270.833 300.17 269.803 299.216 268.409C298.261 267.015 297.784 265.265 297.784 263.159V228.727ZM333.585 272.705C330.206 272.705 327.297 271.939 324.858 270.409C322.434 268.864 320.57 266.735 319.267 264.023C317.964 261.311 317.312 258.205 317.312 254.705C317.312 251.159 317.979 248.03 319.312 245.318C320.646 242.591 322.525 240.462 324.949 238.932C327.373 237.402 330.229 236.636 333.517 236.636C336.169 236.636 338.532 237.129 340.608 238.114C342.684 239.083 344.358 240.447 345.631 242.205C346.919 243.962 347.684 246.015 347.926 248.364H341.312C340.949 246.727 340.116 245.318 338.812 244.136C337.525 242.955 335.797 242.364 333.631 242.364C331.737 242.364 330.078 242.864 328.653 243.864C327.244 244.848 326.146 246.258 325.358 248.091C324.57 249.909 324.176 252.061 324.176 254.545C324.176 257.091 324.563 259.288 325.335 261.136C326.108 262.985 327.199 264.417 328.608 265.432C330.032 266.447 331.706 266.955 333.631 266.955C334.919 266.955 336.085 266.72 337.131 266.25C338.191 265.765 339.078 265.076 339.79 264.182C340.517 263.288 341.025 262.212 341.312 260.955H347.926C347.684 263.212 346.949 265.227 345.722 267C344.494 268.773 342.85 270.167 340.79 271.182C338.744 272.197 336.343 272.705 333.585 272.705ZM361.989 251.273V272H355.193V225.455H361.898V242.773H362.33C363.148 240.894 364.398 239.402 366.08 238.295C367.761 237.189 369.958 236.636 372.67 236.636C375.064 236.636 377.155 237.129 378.943 238.114C380.746 239.098 382.14 240.568 383.125 242.523C384.125 244.462 384.625 246.886 384.625 249.795V272H377.83V250.614C377.83 248.053 377.17 246.068 375.852 244.659C374.534 243.235 372.701 242.523 370.352 242.523C368.746 242.523 367.307 242.864 366.034 243.545C364.777 244.227 363.784 245.227 363.057 246.545C362.345 247.848 361.989 249.424 361.989 251.273Z" fill="black"/>
</svg>
