<svg width="500" height="500" viewBox="0 0 500 500" fill="none" xmlns="http://www.w3.org/2000/svg">
<rect width="500" height="500" fill="white"/>
<path d="M172 228V236.053C174.752 236.051 177.478 236.591 180.021 237.644C182.564 238.696 184.875 240.24 186.821 242.186C188.766 244.131 190.309 246.441 191.361 248.983C192.413 251.525 192.953 254.249 192.951 257H201C200.993 249.312 197.935 241.941 192.498 236.504C187.062 231.067 179.69 228.009 172 228V228Z" fill="black"/>
<path d="M179.921 214H172V221.167C181.5 221.177 190.609 224.956 197.327 231.673C204.045 238.391 207.824 247.5 207.834 257H215V249.079C213.38 240.373 209.161 232.362 202.899 226.101C196.638 219.839 188.627 215.62 179.921 214Z" fill="black"/>
<path d="M231.187 257H223.616L240.627 209.727H248.868L265.88 257H258.309L244.944 218.314H244.575L231.187 257ZM232.456 238.488H257.016V244.489H232.456V238.488ZM272.152 257V221.545H278.823V227.178H279.192C279.839 225.269 280.977 223.769 282.609 222.676C284.255 221.569 286.117 221.015 288.195 221.015C288.625 221.015 289.133 221.03 289.718 221.061C290.318 221.091 290.787 221.13 291.126 221.176V227.778C290.849 227.701 290.357 227.616 289.649 227.524C288.941 227.416 288.233 227.362 287.525 227.362C285.894 227.362 284.44 227.708 283.163 228.401C281.901 229.078 280.9 230.024 280.162 231.24C279.423 232.44 279.054 233.81 279.054 235.349V257H272.152ZM310.763 257.716C307.332 257.716 304.377 256.938 301.9 255.384C299.438 253.815 297.545 251.653 296.221 248.898C294.898 246.144 294.236 242.989 294.236 239.434C294.236 235.833 294.913 232.656 296.268 229.901C297.622 227.131 299.53 224.969 301.992 223.415C304.454 221.861 307.355 221.084 310.694 221.084C313.387 221.084 315.788 221.584 317.896 222.584C320.004 223.569 321.704 224.954 322.997 226.739C324.305 228.524 325.082 230.609 325.328 232.994H318.611C318.242 231.332 317.396 229.901 316.072 228.701C314.764 227.501 313.01 226.901 310.809 226.901C308.886 226.901 307.201 227.408 305.754 228.424C304.323 229.424 303.208 230.855 302.407 232.717C301.607 234.564 301.207 236.749 301.207 239.273C301.207 241.858 301.6 244.089 302.384 245.967C303.169 247.844 304.277 249.298 305.708 250.329C307.155 251.36 308.855 251.876 310.809 251.876C312.117 251.876 313.302 251.637 314.364 251.16C315.441 250.668 316.342 249.968 317.065 249.06C317.803 248.152 318.319 247.059 318.611 245.782H325.328C325.082 248.075 324.336 250.121 323.089 251.922C321.843 253.722 320.173 255.138 318.08 256.169C316.003 257.2 313.564 257.716 310.763 257.716Z" fill="black"/>
</svg>
