<svg width="500" height="500" viewBox="0 0 500 500" fill="none" xmlns="http://www.w3.org/2000/svg">
<rect width="500" height="500" fill="white"/>
<path d="M151 277V223L198 277H151Z" stroke="black" stroke-width="7" stroke-linejoin="round"/>
<path d="M195 223H151L175.75 251L195 223Z" stroke="black" stroke-width="7" stroke-linejoin="round"/>
<path d="M205.194 274V226.727H234.831V232.867H212.326V247.271H233.285V253.387H212.326V267.86H235.108V274H205.194ZM250.706 226.727V274H243.805V226.727H250.706ZM259.991 274V238.545H266.893V274H259.991ZM263.477 233.075C262.276 233.075 261.245 232.675 260.384 231.875C259.537 231.059 259.114 230.09 259.114 228.966C259.114 227.828 259.537 226.858 260.384 226.058C261.245 225.242 262.276 224.835 263.477 224.835C264.677 224.835 265.7 225.242 266.547 226.058C267.408 226.858 267.839 227.828 267.839 228.966C267.839 230.09 267.408 231.059 266.547 231.875C265.7 232.675 264.677 233.075 263.477 233.075ZM281.625 238.545L289.45 252.349L297.344 238.545H304.892L293.836 256.273L304.984 274H297.437L289.45 260.751L281.487 274H273.916L284.949 256.273L274.054 238.545H281.625ZM311.978 274V238.545H318.88V274H311.978ZM315.464 233.075C314.264 233.075 313.233 232.675 312.371 231.875C311.524 231.059 311.101 230.09 311.101 228.966C311.101 227.828 311.524 226.858 312.371 226.058C313.233 225.242 314.264 224.835 315.464 224.835C316.664 224.835 317.687 225.242 318.534 226.058C319.396 226.858 319.826 227.828 319.826 228.966C319.826 230.09 319.396 231.059 318.534 231.875C317.687 232.675 316.664 233.075 315.464 233.075ZM328.165 274V238.545H334.836V244.178H335.205C335.851 242.269 336.99 240.769 338.621 239.676C340.268 238.569 342.13 238.015 344.207 238.015C344.638 238.015 345.146 238.03 345.731 238.061C346.331 238.091 346.8 238.13 347.139 238.176V244.778C346.862 244.701 346.369 244.616 345.661 244.524C344.954 244.416 344.246 244.362 343.538 244.362C341.907 244.362 340.452 244.708 339.175 245.401C337.913 246.078 336.913 247.024 336.175 248.24C335.436 249.44 335.067 250.81 335.067 252.349V274H328.165Z" fill="black"/>
</svg>
