<svg width="500" height="500" viewBox="0 0 500 500" fill="none" xmlns="http://www.w3.org/2000/svg">
<rect width="500" height="500" fill="white"/>
<path d="M81.5136 268.906C80.1813 265.222 81.1344 261.113 83.9596 258.361C85.096 257.176 86.0802 255.86 86.8899 254.44C88.1459 252.424 89.4336 250.361 91.9016 249.278V245.726C90.8876 246.622 89.5725 247.117 88.2092 247.118C86.4654 247.072 84.8167 246.327 83.6473 245.054C82.1493 243.472 81.1938 241.468 80.9151 239.325C80.5682 237.191 80.9108 235.004 81.8946 233.072C82.756 231.272 84.4579 230 86.4524 229.665C88.5184 229.455 90.557 230.259 91.9016 231.815V221.464C91.8956 216.24 87.5876 212.006 82.2716 212H76.7687C71.4527 212.006 67.1447 216.24 67.1387 221.464V234.984C67.1387 236.477 65.9068 237.688 64.3872 237.688H50.63C45.314 237.693 41.0061 241.927 41 247.151V252.559C41.0061 257.783 45.314 262.017 50.63 262.023H64.3872C65.9068 262.023 67.1387 263.234 67.1387 264.727V278.247C67.1447 283.471 71.4527 287.705 76.7687 287.711H82.2716C87.5876 287.705 91.8956 283.471 91.9016 278.247V271.707C90.6256 272.481 89.1483 272.874 87.6493 272.839C84.9613 272.943 82.5004 271.365 81.5136 268.906ZM50.63 243.095C48.3507 243.095 46.5029 244.911 46.5029 247.151C46.5029 247.898 45.8869 248.503 45.1272 248.503C44.3674 248.503 43.7514 247.898 43.7514 247.151C43.756 243.42 46.833 240.396 50.63 240.391C51.3898 240.391 52.0058 240.997 52.0058 241.743C52.0058 242.49 51.3898 243.095 50.63 243.095ZM57.5086 243.095H56.1329C55.3731 243.095 54.7572 242.49 54.7572 241.743C54.7572 240.997 55.3731 240.391 56.1329 240.391H57.5086C58.2684 240.391 58.8844 240.997 58.8844 241.743C58.8844 242.49 58.2684 243.095 57.5086 243.095ZM78.0784 256.608C75.4532 256.427 73.1509 254.82 72.1119 252.444C70.461 249.089 71.3332 245.302 74.064 244.001C76.7948 242.701 80.3607 244.37 82.0157 247.725C83.6707 251.079 82.7957 254.866 80.0649 256.166C79.4456 256.46 78.7662 256.611 78.0784 256.608Z" fill="black"/>
<path d="M86.843 232.342C85.7258 232.567 84.7887 233.309 84.3282 234.335C83.6144 235.762 83.3739 237.372 83.6403 238.941C83.8355 240.519 84.5282 241.998 85.6213 243.17C86.3145 244.083 87.4603 244.551 88.6079 244.389C89.7555 244.226 90.7209 243.461 91.1242 242.392C91.6541 241.359 91.9209 240.214 91.9015 239.057V239.016C91.8999 238.605 91.8691 238.194 91.8093 237.786C91.3319 234.523 89.0634 232.032 86.843 232.342Z" fill="black"/>
<path d="M76.0807 246.255C75.7951 246.252 75.5127 246.313 75.2552 246.435C73.9139 247.073 73.6044 249.286 74.5798 251.264C75.5551 253.242 77.5114 254.374 78.8569 253.734C80.2023 253.095 80.5077 250.883 79.531 248.905C78.9479 247.477 77.6312 246.466 76.0807 246.255Z" fill="black"/>
<path d="M102.821 255.851C101.079 253.054 99.9275 251.207 96.0287 251.207C92.1299 251.207 90.9785 253.054 89.2368 255.851C88.3141 257.457 87.1921 258.945 85.8965 260.279C83.8855 262.274 83.1768 265.206 84.06 267.877C84.6227 269.322 86.0783 270.238 87.6492 270.135C88.9037 270.163 90.1289 269.761 91.1147 268.998C94.0458 266.909 98.0116 266.909 100.943 268.998C101.929 269.761 103.154 270.163 104.408 270.135C105.979 270.238 107.435 269.322 107.997 267.877C108.88 265.206 108.17 262.274 106.158 260.279C104.864 258.945 103.743 257.457 102.821 255.851Z" fill="black"/>
<path d="M108.418 238.941C108.04 241.529 106.091 244.754 103.452 244.385C100.813 244.016 99.8683 240.392 100.248 237.786C100.661 234.993 102.709 231.988 105.214 232.342C107.835 232.712 108.802 236.323 108.418 238.941Z" fill="black"/>
<path d="M117.47 251.264C116.493 253.241 114.534 254.374 113.194 253.734C111.854 253.095 111.543 250.883 112.518 248.905C113.344 247.234 115.27 245.71 116.794 246.435C118.135 247.073 118.445 249.286 117.47 251.264Z" fill="black"/>
<path d="M161.81 227.825L144.845 273H136.265L119.235 227.825H127.165L140.555 265.395L154.01 227.825H161.81ZM200.832 254.215C200.832 255.558 200.745 256.772 200.572 257.855H173.207C173.424 260.715 174.485 263.012 176.392 264.745C178.299 266.478 180.639 267.345 183.412 267.345C187.399 267.345 190.215 265.677 191.862 262.34H199.857C198.774 265.633 196.802 268.342 193.942 270.465C191.125 272.545 187.615 273.585 183.412 273.585C179.989 273.585 176.912 272.827 174.182 271.31C171.495 269.75 169.372 267.583 167.812 264.81C166.295 261.993 165.537 258.743 165.537 255.06C165.537 251.377 166.274 248.148 167.747 245.375C169.264 242.558 171.365 240.392 174.052 238.875C176.782 237.358 179.902 236.6 183.412 236.6C186.792 236.6 189.804 237.337 192.447 238.81C195.09 240.283 197.149 242.363 198.622 245.05C200.095 247.693 200.832 250.748 200.832 254.215ZM193.097 251.875C193.054 249.145 192.079 246.957 190.172 245.31C188.265 243.663 185.904 242.84 183.087 242.84C180.53 242.84 178.342 243.663 176.522 245.31C174.702 246.913 173.619 249.102 173.272 251.875H193.097ZM216.769 243.23V263.055C216.769 264.398 217.072 265.373 217.679 265.98C218.329 266.543 219.412 266.825 220.929 266.825H225.479V273H219.629C216.292 273 213.736 272.22 211.959 270.66C210.182 269.1 209.294 266.565 209.294 263.055V243.23H205.069V237.185H209.294V228.28H216.769V237.185H225.479V243.23H216.769ZM265.134 254.215C265.134 255.558 265.047 256.772 264.874 257.855H237.509C237.725 260.715 238.787 263.012 240.694 264.745C242.6 266.478 244.94 267.345 247.714 267.345C251.7 267.345 254.517 265.677 256.164 262.34H264.159C263.075 265.633 261.104 268.342 258.244 270.465C255.427 272.545 251.917 273.585 247.714 273.585C244.29 273.585 241.214 272.827 238.484 271.31C235.797 269.75 233.674 267.583 232.114 264.81C230.597 261.993 229.839 258.743 229.839 255.06C229.839 251.377 230.575 248.148 232.049 245.375C233.565 242.558 235.667 240.392 238.354 238.875C241.084 237.358 244.204 236.6 247.714 236.6C251.094 236.6 254.105 237.337 256.749 238.81C259.392 240.283 261.45 242.363 262.924 245.05C264.397 247.693 265.134 250.748 265.134 254.215ZM257.399 251.875C257.355 249.145 256.38 246.957 254.474 245.31C252.567 243.663 250.205 242.84 247.389 242.84C244.832 242.84 242.644 243.663 240.824 245.31C239.004 246.913 237.92 249.102 237.574 251.875H257.399ZM279.836 242.385C280.919 240.565 282.349 239.157 284.126 238.16C285.946 237.12 288.091 236.6 290.561 236.6V244.27H288.676C285.772 244.27 283.562 245.007 282.046 246.48C280.572 247.953 279.836 250.51 279.836 254.15V273H272.426V237.185H279.836V242.385ZM301.142 232.44C299.799 232.44 298.672 231.985 297.762 231.075C296.852 230.165 296.397 229.038 296.397 227.695C296.397 226.352 296.852 225.225 297.762 224.315C298.672 223.405 299.799 222.95 301.142 222.95C302.442 222.95 303.547 223.405 304.457 224.315C305.367 225.225 305.822 226.352 305.822 227.695C305.822 229.038 305.367 230.165 304.457 231.075C303.547 231.985 302.442 232.44 301.142 232.44ZM304.782 237.185V273H297.372V237.185H304.782ZM332.581 236.6C335.397 236.6 337.911 237.185 340.121 238.355C342.374 239.525 344.129 241.258 345.386 243.555C346.642 245.852 347.271 248.625 347.271 251.875V273H339.926V252.98C339.926 249.773 339.124 247.325 337.521 245.635C335.917 243.902 333.729 243.035 330.956 243.035C328.182 243.035 325.972 243.902 324.326 245.635C322.722 247.325 321.921 249.773 321.921 252.98V273H314.511V237.185H321.921V241.28C323.134 239.807 324.672 238.658 326.536 237.835C328.442 237.012 330.457 236.6 332.581 236.6ZM354.253 254.93C354.253 251.333 354.989 248.148 356.463 245.375C357.979 242.602 360.016 240.457 362.573 238.94C365.173 237.38 368.033 236.6 371.153 236.6C373.969 236.6 376.418 237.163 378.498 238.29C380.621 239.373 382.311 240.738 383.568 242.385V237.185H391.043V273H383.568V267.67C382.311 269.36 380.599 270.768 378.433 271.895C376.266 273.022 373.796 273.585 371.023 273.585C367.946 273.585 365.129 272.805 362.573 271.245C360.016 269.642 357.979 267.432 356.463 264.615C354.989 261.755 354.253 258.527 354.253 254.93ZM383.568 255.06C383.568 252.59 383.048 250.445 382.008 248.625C381.011 246.805 379.689 245.418 378.043 244.465C376.396 243.512 374.619 243.035 372.713 243.035C370.806 243.035 369.029 243.512 367.383 244.465C365.736 245.375 364.393 246.74 363.353 248.56C362.356 250.337 361.858 252.46 361.858 254.93C361.858 257.4 362.356 259.567 363.353 261.43C364.393 263.293 365.736 264.723 367.383 265.72C369.073 266.673 370.849 267.15 372.713 267.15C374.619 267.15 376.396 266.673 378.043 265.72C379.689 264.767 381.011 263.38 382.008 261.56C383.048 259.697 383.568 257.53 383.568 255.06ZM408.185 242.385C409.269 240.565 410.699 239.157 412.475 238.16C414.295 237.12 416.44 236.6 418.91 236.6V244.27H417.025C414.122 244.27 411.912 245.007 410.395 246.48C408.922 247.953 408.185 250.51 408.185 254.15V273H400.775V237.185H408.185V242.385ZM457.962 237.185L435.992 289.835H428.322L435.602 272.415L421.497 237.185H429.752L439.827 264.485L450.292 237.185H457.962Z" fill="black"/>
</svg>
