<svg width="500" height="500" viewBox="0 0 500 500" fill="none" xmlns="http://www.w3.org/2000/svg">
<rect width="500" height="500" fill="white"/>
<path d="M176.102 308.975L153.133 296.554L176.102 284.159V308.975ZM178.117 284.133L201.841 296.63L178.117 309V284.133ZM179.276 282.453L203 269.727V294.925L179.276 282.453ZM178.117 280.774V261.201C186.519 261.364 194.736 263.722 201.967 268.048L178.117 280.774ZM176.102 280.774L153.033 267.64C160.079 263.609 168.007 261.414 176.102 261.252V280.774ZM175.019 282.479L152 294.925V269.473L175.019 282.479ZM203 266.419C195.459 261.897 186.884 259.432 178.117 259.267V254.405L203 241.679V266.419ZM176.102 259.165C167.642 259.334 159.357 261.634 152 265.859V241.577L176.102 254.303V259.165ZM201.942 239.847L177.11 252.573L152.63 239.643C160.13 235.257 168.648 232.965 177.313 233C185.978 233.036 194.478 235.399 201.942 239.847Z" fill="black"/>
<path d="M220.08 256.2C223.04 256.2 225.627 256.773 227.84 257.92C230.08 259.04 231.8 260.667 233 262.8C234.227 264.907 234.84 267.373 234.84 270.2C234.84 273.027 234.227 275.48 233 277.56C231.8 279.64 230.08 281.24 227.84 282.36C225.627 283.453 223.04 284 220.08 284H211V256.2H220.08ZM220.08 280.28C223.333 280.28 225.827 279.4 227.56 277.64C229.293 275.88 230.16 273.4 230.16 270.2C230.16 266.973 229.293 264.453 227.56 262.64C225.827 260.827 223.333 259.92 220.08 259.92H215.56V280.28H220.08ZM237.839 272.88C237.839 270.667 238.293 268.707 239.199 267C240.133 265.293 241.386 263.973 242.959 263.04C244.559 262.08 246.319 261.6 248.239 261.6C249.973 261.6 251.479 261.947 252.759 262.64C254.066 263.307 255.106 264.147 255.879 265.16V261.96H260.479V284H255.879V280.72C255.106 281.76 254.053 282.627 252.719 283.32C251.386 284.013 249.866 284.36 248.159 284.36C246.266 284.36 244.533 283.88 242.959 282.92C241.386 281.933 240.133 280.573 239.199 278.84C238.293 277.08 237.839 275.093 237.839 272.88ZM255.879 272.96C255.879 271.44 255.559 270.12 254.919 269C254.306 267.88 253.493 267.027 252.479 266.44C251.466 265.853 250.373 265.56 249.199 265.56C248.026 265.56 246.933 265.853 245.919 266.44C244.906 267 244.079 267.84 243.439 268.96C242.826 270.053 242.519 271.36 242.519 272.88C242.519 274.4 242.826 275.733 243.439 276.88C244.079 278.027 244.906 278.907 245.919 279.52C246.959 280.107 248.053 280.4 249.199 280.4C250.373 280.4 251.466 280.107 252.479 279.52C253.493 278.933 254.306 278.08 254.919 276.96C255.559 275.813 255.879 274.48 255.879 272.96ZM271.029 265.24C271.802 264.173 272.855 263.307 274.189 262.64C275.549 261.947 277.055 261.6 278.709 261.6C280.655 261.6 282.415 262.067 283.989 263C285.562 263.933 286.802 265.267 287.709 267C288.615 268.707 289.069 270.667 289.069 272.88C289.069 275.093 288.615 277.08 287.709 278.84C286.802 280.573 285.549 281.933 283.949 282.92C282.375 283.88 280.629 284.36 278.709 284.36C277.002 284.36 275.482 284.027 274.149 283.36C272.842 282.693 271.802 281.84 271.029 280.8V284H266.469V254.4H271.029V265.24ZM284.429 272.88C284.429 271.36 284.109 270.053 283.469 268.96C282.855 267.84 282.029 267 280.989 266.44C279.975 265.853 278.882 265.56 277.709 265.56C276.562 265.56 275.469 265.853 274.429 266.44C273.415 267.027 272.589 267.88 271.949 269C271.335 270.12 271.029 271.44 271.029 272.96C271.029 274.48 271.335 275.813 271.949 276.96C272.589 278.08 273.415 278.933 274.429 279.52C275.469 280.107 276.562 280.4 277.709 280.4C278.882 280.4 279.975 280.107 280.989 279.52C282.029 278.907 282.855 278.027 283.469 276.88C284.109 275.733 284.429 274.4 284.429 272.88ZM298.138 265.24C298.911 264.173 299.965 263.307 301.298 262.64C302.658 261.947 304.165 261.6 305.818 261.6C307.765 261.6 309.525 262.067 311.098 263C312.671 263.933 313.911 265.267 314.818 267C315.725 268.707 316.178 270.667 316.178 272.88C316.178 275.093 315.725 277.08 314.818 278.84C313.911 280.573 312.658 281.933 311.058 282.92C309.485 283.88 307.738 284.36 305.818 284.36C304.111 284.36 302.591 284.027 301.258 283.36C299.951 282.693 298.911 281.84 298.138 280.8V284H293.578V254.4H298.138V265.24ZM311.538 272.88C311.538 271.36 311.218 270.053 310.578 268.96C309.965 267.84 309.138 267 308.098 266.44C307.085 265.853 305.991 265.56 304.818 265.56C303.671 265.56 302.578 265.853 301.538 266.44C300.525 267.027 299.698 267.88 299.058 269C298.445 270.12 298.138 271.44 298.138 272.96C298.138 274.48 298.445 275.813 299.058 276.96C299.698 278.08 300.525 278.933 301.538 279.52C302.578 280.107 303.671 280.4 304.818 280.4C305.991 280.4 307.085 280.107 308.098 279.52C309.138 278.907 309.965 278.027 310.578 276.88C311.218 275.733 311.538 274.4 311.538 272.88ZM325.248 254.4V284H320.688V254.4H325.248ZM351.434 272.44C351.434 273.267 351.381 274.013 351.274 274.68H334.434C334.568 276.44 335.221 277.853 336.394 278.92C337.568 279.987 339.008 280.52 340.714 280.52C343.168 280.52 344.901 279.493 345.914 277.44H350.834C350.168 279.467 348.954 281.133 347.194 282.44C345.461 283.72 343.301 284.36 340.714 284.36C338.608 284.36 336.714 283.893 335.034 282.96C333.381 282 332.074 280.667 331.114 278.96C330.181 277.227 329.714 275.227 329.714 272.96C329.714 270.693 330.168 268.707 331.074 267C332.008 265.267 333.301 263.933 334.954 263C336.634 262.067 338.554 261.6 340.714 261.6C342.794 261.6 344.648 262.053 346.274 262.96C347.901 263.867 349.168 265.147 350.074 266.8C350.981 268.427 351.434 270.307 351.434 272.44ZM346.674 271C346.648 269.32 346.048 267.973 344.874 266.96C343.701 265.947 342.248 265.44 340.514 265.44C338.941 265.44 337.594 265.947 336.474 266.96C335.354 267.947 334.688 269.293 334.474 271H346.674Z" fill="black"/>
</svg>
