<svg width="500" height="500" viewBox="0 0 500 500" fill="none" xmlns="http://www.w3.org/2000/svg">
<rect width="500" height="500" fill="white"/>
<path d="M101.2 248.575L106.5 253.875M106.5 253.875L111.8 248.575M106.5 253.875L106.5 239.3C106.5 236.373 108.873 234 111.8 234H127.7C130.627 234 133 236.373 133 239.3V253.875M111.8 272.425L106.5 267.125M106.5 267.125L101.2 272.425M106.5 267.125V281.7C106.5 284.627 104.127 287 101.2 287H85.3C82.3729 287 80 284.627 80 281.7V267.125M118.425 255.2L113.125 260.5M113.125 260.5L118.425 265.8M113.125 260.5L127.7 260.5C130.627 260.5 133 262.873 133 265.8V281.7C133 284.627 130.627 287 127.7 287H113.125M94.575 265.8L99.875 260.5M99.875 260.5L94.575 255.2M99.875 260.5L85.3 260.5C82.3729 260.5 80 258.127 80 255.2V239.3C80 236.373 82.3729 234 85.3 234H99.875" stroke="black" stroke-width="4" stroke-linecap="round" stroke-linejoin="round"/>
<path d="M188.385 240.775V279H182.115V252.82L170.455 279H166.11L154.395 252.82V279H148.125V240.775H154.89L168.31 270.75L181.675 240.775H188.385ZM194.536 263.71C194.536 260.667 195.159 257.972 196.406 255.625C197.689 253.278 199.413 251.463 201.576 250.18C203.776 248.86 206.196 248.2 208.836 248.2C211.219 248.2 213.291 248.677 215.051 249.63C216.848 250.547 218.278 251.702 219.341 253.095V248.695H225.666V279H219.341V274.49C218.278 275.92 216.829 277.112 214.996 278.065C213.163 279.018 211.073 279.495 208.726 279.495C206.123 279.495 203.739 278.835 201.576 277.515C199.413 276.158 197.689 274.288 196.406 271.905C195.159 269.485 194.536 266.753 194.536 263.71ZM219.341 263.82C219.341 261.73 218.901 259.915 218.021 258.375C217.178 256.835 216.059 255.662 214.666 254.855C213.273 254.048 211.769 253.645 210.156 253.645C208.543 253.645 207.039 254.048 205.646 254.855C204.253 255.625 203.116 256.78 202.236 258.32C201.393 259.823 200.971 261.62 200.971 263.71C200.971 265.8 201.393 267.633 202.236 269.21C203.116 270.787 204.253 271.997 205.646 272.84C207.076 273.647 208.579 274.05 210.156 274.05C211.769 274.05 213.273 273.647 214.666 272.84C216.059 272.033 217.178 270.86 218.021 269.32C218.901 267.743 219.341 265.91 219.341 263.82ZM237.091 244.68C235.955 244.68 235.001 244.295 234.231 243.525C233.461 242.755 233.076 241.802 233.076 240.665C233.076 239.528 233.461 238.575 234.231 237.805C235.001 237.035 235.955 236.65 237.091 236.65C238.191 236.65 239.126 237.035 239.896 237.805C240.666 238.575 241.051 239.528 241.051 240.665C241.051 241.802 240.666 242.755 239.896 243.525C239.126 244.295 238.191 244.68 237.091 244.68ZM240.171 248.695V279H233.901V248.695H240.171ZM263.693 248.2C266.077 248.2 268.203 248.695 270.073 249.685C271.98 250.675 273.465 252.142 274.528 254.085C275.592 256.028 276.123 258.375 276.123 261.125V279H269.908V262.06C269.908 259.347 269.23 257.275 267.873 255.845C266.517 254.378 264.665 253.645 262.318 253.645C259.972 253.645 258.102 254.378 256.708 255.845C255.352 257.275 254.673 259.347 254.673 262.06V279H248.403V248.695H254.673V252.16C255.7 250.913 257.002 249.942 258.578 249.245C260.192 248.548 261.897 248.2 263.693 248.2ZM290.391 253.15C291.454 251.757 292.903 250.583 294.736 249.63C296.569 248.677 298.641 248.2 300.951 248.2C303.591 248.2 305.993 248.86 308.156 250.18C310.356 251.463 312.079 253.278 313.326 255.625C314.573 257.972 315.196 260.667 315.196 263.71C315.196 266.753 314.573 269.485 313.326 271.905C312.079 274.288 310.356 276.158 308.156 277.515C305.993 278.835 303.591 279.495 300.951 279.495C298.641 279.495 296.588 279.037 294.791 278.12C292.994 277.167 291.528 275.993 290.391 274.6V293.41H284.121V248.695H290.391V253.15ZM308.816 263.71C308.816 261.62 308.376 259.823 307.496 258.32C306.653 256.78 305.516 255.625 304.086 254.855C302.693 254.048 301.189 253.645 299.576 253.645C297.999 253.645 296.496 254.048 295.066 254.855C293.673 255.662 292.536 256.835 291.656 258.375C290.813 259.915 290.391 261.73 290.391 263.82C290.391 265.91 290.813 267.743 291.656 269.32C292.536 270.86 293.673 272.033 295.066 272.84C296.496 273.647 297.999 274.05 299.576 274.05C301.189 274.05 302.693 273.647 304.086 272.84C305.516 271.997 306.653 270.787 307.496 269.21C308.376 267.633 308.816 265.8 308.816 263.71ZM334.541 279.495C331.681 279.495 329.096 278.853 326.786 277.57C324.476 276.25 322.661 274.417 321.341 272.07C320.021 269.687 319.361 266.937 319.361 263.82C319.361 260.74 320.04 258.008 321.396 255.625C322.753 253.242 324.605 251.408 326.951 250.125C329.298 248.842 331.92 248.2 334.816 248.2C337.713 248.2 340.335 248.842 342.681 250.125C345.028 251.408 346.88 253.242 348.236 255.625C349.593 258.008 350.271 260.74 350.271 263.82C350.271 266.9 349.575 269.632 348.181 272.015C346.788 274.398 344.881 276.25 342.461 277.57C340.078 278.853 337.438 279.495 334.541 279.495ZM334.541 274.05C336.155 274.05 337.658 273.665 339.051 272.895C340.481 272.125 341.636 270.97 342.516 269.43C343.396 267.89 343.836 266.02 343.836 263.82C343.836 261.62 343.415 259.768 342.571 258.265C341.728 256.725 340.61 255.57 339.216 254.8C337.823 254.03 336.32 253.645 334.706 253.645C333.093 253.645 331.59 254.03 330.196 254.8C328.84 255.57 327.758 256.725 326.951 258.265C326.145 259.768 325.741 261.62 325.741 263.82C325.741 267.083 326.566 269.613 328.216 271.41C329.903 273.17 332.011 274.05 334.541 274.05ZM359.66 244.68C358.523 244.68 357.57 244.295 356.8 243.525C356.03 242.755 355.645 241.802 355.645 240.665C355.645 239.528 356.03 238.575 356.8 237.805C357.57 237.035 358.523 236.65 359.66 236.65C360.76 236.65 361.695 237.035 362.465 237.805C363.235 238.575 363.62 239.528 363.62 240.665C363.62 241.802 363.235 242.755 362.465 243.525C361.695 244.295 360.76 244.68 359.66 244.68ZM362.74 248.695V279H356.47V248.695H362.74ZM386.262 248.2C388.645 248.2 390.772 248.695 392.642 249.685C394.548 250.675 396.033 252.142 397.097 254.085C398.16 256.028 398.692 258.375 398.692 261.125V279H392.477V262.06C392.477 259.347 391.798 257.275 390.442 255.845C389.085 254.378 387.233 253.645 384.887 253.645C382.54 253.645 380.67 254.378 379.277 255.845C377.92 257.275 377.242 259.347 377.242 262.06V279H370.972V248.695H377.242V252.16C378.268 250.913 379.57 249.942 381.147 249.245C382.76 248.548 384.465 248.2 386.262 248.2ZM414.004 253.81V270.585C414.004 271.722 414.261 272.547 414.774 273.06C415.324 273.537 416.241 273.775 417.524 273.775H421.374V279H416.424C413.601 279 411.438 278.34 409.934 277.02C408.431 275.7 407.679 273.555 407.679 270.585V253.81H404.104V248.695H407.679V241.16H414.004V248.695H421.374V253.81H414.004Z" fill="black"/>
</svg>
