<svg width="500" height="500" viewBox="0 0 500 500" fill="none" xmlns="http://www.w3.org/2000/svg">
<rect width="500" height="500" fill="white"/>
<path d="M178.5 249.5H195V233H162L178.5 249.5ZM178.5 249.5H162V266H195L178.5 249.5Z" stroke="black" stroke-width="2" stroke-linecap="round" stroke-linejoin="round"/>
<path d="M205.443 264V261.074L220.741 238.688H205.315V234.909H226.111V237.835L210.812 260.222H226.239V264H205.443ZM240.805 264.44C238.656 264.44 236.804 263.981 235.251 263.062C233.708 262.134 232.515 260.832 231.672 259.156C230.839 257.471 230.422 255.496 230.422 253.233C230.422 250.998 230.839 249.028 231.672 247.324C232.515 245.619 233.689 244.289 235.195 243.332C236.71 242.376 238.481 241.898 240.507 241.898C241.738 241.898 242.931 242.101 244.087 242.509C245.242 242.916 246.279 243.555 247.197 244.426C248.116 245.297 248.84 246.429 249.371 247.821C249.901 249.204 250.166 250.884 250.166 252.864V254.369H232.822V251.188H246.004C246.004 250.07 245.777 249.08 245.322 248.219C244.868 247.348 244.229 246.661 243.405 246.159C242.59 245.657 241.634 245.406 240.536 245.406C239.342 245.406 238.301 245.7 237.411 246.287C236.53 246.865 235.848 247.622 235.365 248.56C234.892 249.488 234.655 250.496 234.655 251.585V254.071C234.655 255.529 234.911 256.77 235.422 257.793C235.943 258.815 236.667 259.597 237.595 260.136C238.523 260.667 239.607 260.932 240.848 260.932C241.653 260.932 242.387 260.818 243.05 260.591C243.713 260.354 244.286 260.004 244.768 259.54C245.251 259.076 245.621 258.503 245.876 257.821L249.896 258.545C249.574 259.729 248.997 260.766 248.163 261.656C247.339 262.537 246.303 263.223 245.053 263.716C243.812 264.199 242.396 264.44 240.805 264.44ZM254.879 272.182V242.182H259.026V245.719H259.381C259.628 245.264 259.983 244.739 260.447 244.142C260.911 243.545 261.555 243.025 262.379 242.58C263.202 242.125 264.291 241.898 265.646 241.898C267.407 241.898 268.979 242.343 270.362 243.233C271.744 244.123 272.828 245.406 273.614 247.082C274.41 248.759 274.808 250.776 274.808 253.134C274.808 255.491 274.415 257.513 273.629 259.199C272.843 260.875 271.763 262.168 270.39 263.077C269.017 263.976 267.45 264.426 265.688 264.426C264.362 264.426 263.278 264.204 262.435 263.759C261.602 263.313 260.949 262.793 260.475 262.196C260.002 261.599 259.637 261.069 259.381 260.605H259.126V272.182H254.879ZM259.04 253.091C259.04 254.625 259.263 255.97 259.708 257.125C260.153 258.28 260.797 259.185 261.64 259.838C262.483 260.482 263.515 260.804 264.737 260.804C266.005 260.804 267.066 260.468 267.918 259.795C268.771 259.114 269.415 258.19 269.85 257.026C270.295 255.861 270.518 254.549 270.518 253.091C270.518 251.652 270.3 250.359 269.864 249.213C269.438 248.067 268.794 247.163 267.933 246.5C267.08 245.837 266.015 245.506 264.737 245.506C263.505 245.506 262.464 245.823 261.612 246.457C260.769 247.092 260.129 247.977 259.694 249.114C259.258 250.25 259.04 251.576 259.04 253.091ZM283.813 251.045V264H279.566V234.909H283.756V245.733H284.026C284.538 244.559 285.319 243.626 286.37 242.935C287.421 242.243 288.794 241.898 290.489 241.898C291.986 241.898 293.292 242.205 294.41 242.821C295.537 243.437 296.408 244.355 297.023 245.577C297.648 246.789 297.961 248.304 297.961 250.122V264H293.714V250.634C293.714 249.033 293.302 247.793 292.478 246.912C291.654 246.022 290.508 245.577 289.04 245.577C288.037 245.577 287.137 245.79 286.342 246.216C285.556 246.642 284.935 247.267 284.481 248.091C284.036 248.905 283.813 249.89 283.813 251.045ZM305.532 272.182C304.897 272.182 304.32 272.13 303.799 272.026C303.278 271.931 302.89 271.827 302.634 271.713L303.657 268.233C304.433 268.441 305.125 268.531 305.731 268.503C306.337 268.474 306.872 268.247 307.336 267.821C307.809 267.395 308.226 266.699 308.586 265.733L309.112 264.284L301.129 242.182H305.674L311.2 259.114H311.427L316.952 242.182H321.512L312.521 266.912C312.104 268.048 311.574 269.009 310.93 269.795C310.286 270.591 309.519 271.188 308.629 271.585C307.738 271.983 306.706 272.182 305.532 272.182ZM325.504 264V242.182H329.609V245.648H329.836C330.234 244.473 330.934 243.55 331.938 242.878C332.951 242.196 334.097 241.855 335.376 241.855C335.641 241.855 335.953 241.865 336.313 241.884C336.683 241.902 336.971 241.926 337.18 241.955V246.017C337.009 245.97 336.706 245.918 336.271 245.861C335.835 245.795 335.399 245.761 334.964 245.761C333.96 245.761 333.065 245.974 332.279 246.401C331.503 246.817 330.887 247.4 330.433 248.148C329.978 248.886 329.751 249.729 329.751 250.676V264H325.504Z" fill="black"/>
</svg>
