<svg width="500" height="500" viewBox="0 0 500 500" fill="none" xmlns="http://www.w3.org/2000/svg">
<rect width="500" height="500" fill="white"/>
<g clip-path="url(#clip0_19_697)">
<path d="M175.928 261.747L188.159 249.5L175.928 237.269L168.605 229.947L163 209V290L168.605 269.07L175.928 261.747Z" fill="black"/>
<path d="M203.5 234.175L215.731 221.944L223.053 214.605L244 209H163L183.93 214.605L203.5 234.175Z" fill="black"/>
<path d="M238.395 229.947L231.056 237.269L218.825 249.5L238.395 269.07L244 290V209L238.395 229.947Z" fill="black"/>
<path d="M215.731 277.072L203.5 264.841L191.253 277.072L183.93 284.395L163 290H244L223.053 284.395L215.731 277.072Z" fill="black"/>
</g>
<path d="M263.156 226.727L274.467 245.216H274.836L286.146 226.727H294.41L279.683 250.364L294.502 274H286.192L274.836 255.765H274.467L263.11 274H254.8L269.873 250.364L254.893 226.727H263.156ZM300.931 274V238.545H307.832V274H300.931ZM304.416 233.075C303.216 233.075 302.185 232.675 301.323 231.875C300.477 231.059 300.053 230.09 300.053 228.966C300.053 227.828 300.477 226.858 301.323 226.058C302.185 225.242 303.216 224.835 304.416 224.835C305.616 224.835 306.64 225.242 307.486 226.058C308.348 226.858 308.779 227.828 308.779 228.966C308.779 230.09 308.348 231.059 307.486 231.875C306.64 232.675 305.616 233.075 304.416 233.075ZM317.117 274V238.545H323.788V244.178H324.157C324.804 242.269 325.942 240.769 327.573 239.676C329.22 238.569 331.082 238.015 333.159 238.015C333.59 238.015 334.098 238.03 334.683 238.061C335.283 238.091 335.752 238.13 336.091 238.176V244.778C335.814 244.701 335.321 244.616 334.614 244.524C333.906 244.416 333.198 244.362 332.49 244.362C330.859 244.362 329.405 244.708 328.127 245.401C326.866 246.078 325.865 247.024 325.127 248.24C324.388 249.44 324.019 250.81 324.019 252.349V274H317.117Z" fill="black"/>
<defs>
<clipPath id="clip0_19_697">
<rect width="81" height="81" fill="white" transform="translate(163 209)"/>
</clipPath>
</defs>
</svg>
