<svg width="500" height="500" viewBox="0 0 500 500" fill="none" xmlns="http://www.w3.org/2000/svg">
<rect width="500" height="500" fill="white"/>
<path d="M155.7 210.666C154.302 211.039 153.473 212.469 153.847 213.86C154.222 215.252 155.658 216.077 157.056 215.704L164.415 213.742L147.852 243.765L135.531 233.363C134.872 232.807 133.979 232.61 133.146 232.837C132.312 233.064 131.645 233.685 131.361 234.498L123.659 256.608L112.95 246.938C112.409 246.449 111.686 246.207 110.958 246.272C110.23 246.336 109.562 246.701 109.115 247.277L95.5451 264.8C94.6617 265.94 94.8745 267.578 96.0203 268.457C97.1661 269.337 98.8112 269.125 99.6946 267.984L111.532 252.699L123.075 263.123C123.727 263.711 124.631 263.935 125.484 263.718C126.336 263.501 127.022 262.873 127.31 262.046L135.059 239.804L146.909 249.808C147.509 250.314 148.306 250.526 149.079 250.384C149.853 250.241 150.521 249.761 150.9 249.074L168.91 216.428L170.849 223.632C171.224 225.024 172.66 225.849 174.058 225.476C175.455 225.104 176.285 223.674 175.91 222.282L172.317 208.934C171.943 207.542 170.506 206.717 169.109 207.09L155.7 210.666Z" fill="black"/>
<path d="M213.186 239.662C212.739 238.261 212.139 237.007 211.385 235.899C210.647 234.776 209.762 233.822 208.731 233.037C207.7 232.237 206.523 231.629 205.199 231.213C203.891 230.798 202.452 230.59 200.883 230.59C198.221 230.59 195.82 231.275 193.681 232.645C191.542 234.014 189.849 236.022 188.603 238.669C187.372 241.3 186.756 244.524 186.756 248.341C186.756 252.172 187.38 255.411 188.626 258.058C189.873 260.705 191.581 262.713 193.75 264.083C195.92 265.452 198.39 266.137 201.16 266.137C203.73 266.137 205.969 265.614 207.877 264.567C209.8 263.521 211.285 262.044 212.332 260.136C213.393 258.212 213.924 255.95 213.924 253.349L215.771 253.696H202.245V247.81H220.826V253.188C220.826 257.158 219.98 260.605 218.287 263.529C216.61 266.437 214.286 268.684 211.316 270.269C208.362 271.854 204.976 272.646 201.16 272.646C196.882 272.646 193.127 271.661 189.896 269.692C186.679 267.722 184.171 264.929 182.371 261.313C180.57 257.681 179.67 253.373 179.67 248.387C179.67 244.617 180.193 241.231 181.24 238.23C182.286 235.23 183.756 232.683 185.648 230.59C187.557 228.482 189.796 226.874 192.365 225.766C194.951 224.643 197.774 224.081 200.837 224.081C203.391 224.081 205.769 224.458 207.969 225.212C210.185 225.966 212.155 227.036 213.878 228.42C215.617 229.805 217.056 231.452 218.195 233.36C219.333 235.253 220.103 237.353 220.503 239.662H213.186ZM229.326 272V236.545H235.997V242.178H236.366C237.013 240.269 238.151 238.769 239.782 237.676C241.429 236.569 243.291 236.015 245.368 236.015C245.799 236.015 246.307 236.03 246.892 236.061C247.492 236.091 247.961 236.13 248.3 236.176V242.778C248.023 242.701 247.53 242.616 246.823 242.524C246.115 242.416 245.407 242.362 244.699 242.362C243.068 242.362 241.614 242.708 240.336 243.401C239.075 244.078 238.074 245.024 237.336 246.24C236.597 247.44 236.228 248.81 236.228 250.349V272H229.326ZM267.937 272.716C264.613 272.716 261.713 271.954 259.235 270.43C256.758 268.907 254.834 266.776 253.464 264.037C252.095 261.297 251.41 258.097 251.41 254.434C251.41 250.757 252.095 247.54 253.464 244.786C254.834 242.031 256.758 239.892 259.235 238.369C261.713 236.846 264.613 236.084 267.937 236.084C271.261 236.084 274.162 236.846 276.639 238.369C279.117 239.892 281.04 242.031 282.41 244.786C283.779 247.54 284.464 250.757 284.464 254.434C284.464 258.097 283.779 261.297 282.41 264.037C281.04 266.776 279.117 268.907 276.639 270.43C274.162 271.954 271.261 272.716 267.937 272.716ZM267.96 266.922C270.115 266.922 271.9 266.353 273.315 265.214C274.731 264.075 275.777 262.559 276.455 260.667C277.147 258.774 277.493 256.689 277.493 254.411C277.493 252.149 277.147 250.072 276.455 248.179C275.777 246.271 274.731 244.74 273.315 243.586C271.9 242.431 270.115 241.854 267.96 241.854C265.79 241.854 263.99 242.431 262.559 243.586C261.143 244.74 260.089 246.271 259.397 248.179C258.72 250.072 258.381 252.149 258.381 254.411C258.381 256.689 258.72 258.774 259.397 260.667C260.089 262.559 261.143 264.075 262.559 265.214C263.99 266.353 265.79 266.922 267.96 266.922ZM298.775 272L288.342 236.545H295.474L302.422 262.582H302.768L309.739 236.545H316.872L323.797 262.467H324.143L331.044 236.545H338.177L327.767 272H320.727L313.525 246.402H312.994L305.792 272H298.775ZM361.277 236.545V242.085H341.91V236.545H361.277ZM347.104 228.051H354.006V261.59C354.006 262.929 354.206 263.937 354.606 264.614C355.006 265.275 355.521 265.729 356.152 265.975C356.799 266.206 357.499 266.322 358.253 266.322C358.807 266.322 359.291 266.283 359.707 266.206C360.122 266.129 360.446 266.068 360.676 266.022L361.923 271.723C361.523 271.877 360.953 272.031 360.215 272.185C359.476 272.354 358.553 272.446 357.445 272.462C355.629 272.492 353.936 272.169 352.367 271.492C350.797 270.815 349.528 269.769 348.558 268.353C347.589 266.937 347.104 265.16 347.104 263.021V228.051ZM376.574 250.949V272H369.673V224.727H376.482V242.316H376.921C377.752 240.408 379.021 238.892 380.729 237.769C382.437 236.645 384.669 236.084 387.423 236.084C389.854 236.084 391.978 236.584 393.794 237.584C395.625 238.584 397.041 240.077 398.041 242.062C399.057 244.032 399.564 246.494 399.564 249.449V272H392.663V250.279C392.663 247.679 391.993 245.663 390.655 244.232C389.316 242.785 387.454 242.062 385.069 242.062C383.438 242.062 381.976 242.408 380.683 243.101C379.406 243.793 378.398 244.809 377.659 246.148C376.936 247.471 376.574 249.071 376.574 250.949Z" fill="black"/>
</svg>
