<svg width="500" height="500" viewBox="0 0 500 500" fill="none" xmlns="http://www.w3.org/2000/svg">
<rect width="500" height="500" fill="white"/>
<path d="M216.5 263.383C216.5 272.241 209.498 279.5 200.766 279.5L174.974 279.5C172.883 279.5 171.878 277.069 173.133 275.547C175.469 272.713 176.924 268.888 176.924 264.645C176.924 259.001 174.353 254.113 170.574 251.297L168.701 249.901L168.163 249.5L168.701 249.099L170.574 247.703C174.353 244.887 176.924 239.999 176.924 234.355C176.924 230.112 175.469 226.287 173.133 223.453C171.878 221.931 172.883 219.5 174.974 219.5L200.766 219.5C209.498 219.5 216.5 226.759 216.5 235.617C216.5 241.509 213.404 246.688 208.763 249.5C213.404 252.312 216.5 257.491 216.5 263.383ZM212.06 235.617C212.059 229.142 206.961 223.971 200.766 223.971L178.803 223.971C180.435 227.023 181.365 230.577 181.365 234.355C181.365 239.225 179.821 243.73 177.212 247.265L200.766 247.265C206.961 247.265 212.06 242.092 212.06 235.617ZM212.06 263.383C212.06 256.908 206.961 251.735 200.766 251.735L177.212 251.735C179.821 255.27 181.365 259.775 181.365 264.645C181.365 268.423 180.435 271.977 178.803 275.029L200.766 275.029C206.961 275.029 212.059 269.858 212.06 263.383Z" fill="black" stroke="black"/>
<path d="M223.64 277V241.545H230.31V247.178H230.68C231.326 245.269 232.465 243.769 234.096 242.676C235.742 241.569 237.604 241.015 239.682 241.015C240.113 241.015 240.621 241.03 241.205 241.061C241.805 241.091 242.275 241.13 242.613 241.176V247.778C242.336 247.701 241.844 247.616 241.136 247.524C240.428 247.416 239.72 247.362 239.012 247.362C237.381 247.362 235.927 247.708 234.65 248.401C233.388 249.078 232.388 250.024 231.649 251.24C230.911 252.44 230.541 253.81 230.541 255.349V277H223.64ZM248.586 277V241.545H255.487V277H248.586ZM252.071 236.075C250.871 236.075 249.84 235.675 248.978 234.875C248.132 234.059 247.709 233.09 247.709 231.966C247.709 230.828 248.132 229.858 248.978 229.058C249.84 228.242 250.871 227.835 252.071 227.835C253.272 227.835 254.295 228.242 255.141 229.058C256.003 229.858 256.434 230.828 256.434 231.966C256.434 233.09 256.003 234.059 255.141 234.875C254.295 235.675 253.272 236.075 252.071 236.075ZM291.34 250.201L285.085 251.309C284.823 250.509 284.408 249.747 283.838 249.024C283.284 248.301 282.53 247.708 281.576 247.247C280.622 246.785 279.43 246.554 277.999 246.554C276.044 246.554 274.413 246.993 273.105 247.87C271.797 248.732 271.143 249.847 271.143 251.217C271.143 252.402 271.582 253.356 272.459 254.079C273.336 254.802 274.752 255.395 276.706 255.857L282.338 257.149C285.6 257.903 288.032 259.065 289.632 260.635C291.232 262.204 292.033 264.243 292.033 266.751C292.033 268.875 291.417 270.768 290.186 272.43C288.97 274.076 287.27 275.369 285.085 276.308C282.915 277.246 280.399 277.716 277.537 277.716C273.567 277.716 270.328 276.869 267.819 275.176C265.311 273.468 263.772 271.045 263.203 267.906L269.874 266.89C270.289 268.629 271.143 269.944 272.436 270.837C273.728 271.714 275.413 272.153 277.491 272.153C279.753 272.153 281.561 271.683 282.915 270.745C284.269 269.791 284.946 268.629 284.946 267.259C284.946 266.151 284.531 265.22 283.7 264.466C282.884 263.712 281.63 263.143 279.938 262.758L273.936 261.442C270.628 260.688 268.181 259.488 266.596 257.842C265.026 256.195 264.241 254.11 264.241 251.586C264.241 249.493 264.826 247.662 265.996 246.093C267.165 244.523 268.781 243.3 270.843 242.423C272.905 241.53 275.267 241.084 277.929 241.084C281.761 241.084 284.777 241.915 286.978 243.577C289.178 245.223 290.632 247.431 291.34 250.201ZM305.969 264.974L305.922 256.549H307.123L321.249 241.545H329.513L313.401 258.626H312.316L305.969 264.974ZM299.621 277V229.727H306.523V277H299.621ZM322.011 277L309.316 260.15L314.071 255.326L330.482 277H322.011Z" fill="black"/>
</svg>
