<svg width="500" height="500" viewBox="0 0 500 500" fill="none" xmlns="http://www.w3.org/2000/svg">
<rect width="500" height="500" fill="white"/>
<path fill-rule="evenodd" clip-rule="evenodd" d="M254.944 261.597C254.944 272.052 263.923 280.527 275 280.527C286.077 280.527 295.056 272.052 295.056 261.597C295.056 251.142 286.077 242.667 275 242.667C263.923 242.667 254.944 251.142 254.944 261.597ZM250 261.597C250 274.629 261.193 285.194 275 285.194C288.807 285.194 300 274.629 300 261.597C300 248.565 288.807 238 275 238C261.193 238 250 248.565 250 261.597ZM260.258 304.126C263.804 305.919 269.008 307.156 275 307.156C280.992 307.156 286.196 305.919 289.742 304.126C293.474 302.239 294.37 300.342 294.37 299.314C294.37 298.285 293.474 296.388 289.742 294.501C286.196 292.708 280.992 291.472 275 291.472C269.008 291.472 263.804 292.708 260.258 294.501C256.526 296.388 255.63 298.285 255.63 299.314C255.63 300.342 256.526 302.239 260.258 304.126ZM251.181 299.314C251.181 305.964 261.845 311.356 275 311.356C288.155 311.356 298.819 305.964 298.819 299.314C298.819 292.663 288.155 287.272 275 287.272C261.845 287.272 251.181 292.663 251.181 299.314ZM275 318.733C269.72 318.733 264.985 318.337 261.481 317.717C264.985 317.096 269.72 316.7 275 316.7C280.28 316.7 285.015 317.096 288.519 317.717C285.015 318.337 280.28 318.733 275 318.733ZM275 322C263.188 322 253.612 320.082 253.612 317.717C253.612 315.351 263.188 313.433 275 313.433C286.812 313.433 296.388 315.351 296.388 317.717C296.388 320.082 286.812 322 275 322Z" fill="black"/>
<path d="M161.773 246.591H154.682C154.409 245.076 153.902 243.742 153.159 242.591C152.417 241.439 151.508 240.462 150.432 239.659C149.356 238.856 148.152 238.25 146.818 237.841C145.5 237.432 144.098 237.227 142.614 237.227C139.932 237.227 137.53 237.902 135.409 239.25C133.303 240.598 131.636 242.576 130.409 245.182C129.197 247.788 128.591 250.97 128.591 254.727C128.591 258.515 129.197 261.712 130.409 264.318C131.636 266.924 133.311 268.894 135.432 270.227C137.553 271.561 139.939 272.227 142.591 272.227C144.061 272.227 145.455 272.03 146.773 271.636C148.106 271.227 149.311 270.629 150.386 269.841C151.462 269.053 152.371 268.091 153.114 266.955C153.871 265.803 154.394 264.485 154.682 263L161.773 263.023C161.394 265.311 160.659 267.417 159.568 269.341C158.492 271.25 157.106 272.902 155.409 274.295C153.727 275.674 151.803 276.742 149.636 277.5C147.47 278.258 145.106 278.636 142.545 278.636C138.515 278.636 134.924 277.682 131.773 275.773C128.621 273.848 126.136 271.098 124.318 267.523C122.515 263.947 121.614 259.682 121.614 254.727C121.614 249.758 122.523 245.492 124.341 241.932C126.159 238.356 128.644 235.614 131.795 233.705C134.947 231.78 138.53 230.818 142.545 230.818C145.015 230.818 147.318 231.174 149.455 231.886C151.606 232.583 153.538 233.614 155.25 234.977C156.962 236.326 158.379 237.977 159.5 239.932C160.621 241.871 161.379 244.091 161.773 246.591ZM179.79 278.773C177.578 278.773 175.578 278.364 173.79 277.545C172.002 276.712 170.585 275.508 169.54 273.932C168.509 272.356 167.994 270.424 167.994 268.136C167.994 266.167 168.373 264.545 169.131 263.273C169.888 262 170.911 260.992 172.199 260.25C173.487 259.508 174.926 258.947 176.517 258.568C178.108 258.189 179.729 257.902 181.381 257.705C183.472 257.462 185.169 257.265 186.472 257.114C187.775 256.947 188.722 256.682 189.312 256.318C189.903 255.955 190.199 255.364 190.199 254.545V254.386C190.199 252.402 189.638 250.864 188.517 249.773C187.411 248.682 185.759 248.136 183.562 248.136C181.275 248.136 179.472 248.644 178.153 249.659C176.85 250.659 175.949 251.773 175.449 253L169.062 251.545C169.82 249.424 170.926 247.712 172.381 246.409C173.85 245.091 175.54 244.136 177.449 243.545C179.358 242.939 181.366 242.636 183.472 242.636C184.866 242.636 186.343 242.803 187.903 243.136C189.479 243.455 190.949 244.045 192.312 244.909C193.691 245.773 194.82 247.008 195.699 248.614C196.578 250.205 197.017 252.273 197.017 254.818V278H190.381V273.227H190.108C189.669 274.106 189.009 274.97 188.131 275.818C187.252 276.667 186.123 277.371 184.744 277.932C183.366 278.492 181.714 278.773 179.79 278.773ZM181.267 273.318C183.146 273.318 184.752 272.947 186.085 272.205C187.434 271.462 188.456 270.492 189.153 269.295C189.866 268.083 190.222 266.788 190.222 265.409V260.909C189.979 261.152 189.509 261.379 188.812 261.591C188.131 261.788 187.35 261.962 186.472 262.114C185.593 262.25 184.737 262.379 183.903 262.5C183.07 262.606 182.373 262.697 181.812 262.773C180.494 262.939 179.29 263.22 178.199 263.614C177.123 264.008 176.259 264.576 175.608 265.318C174.972 266.045 174.653 267.015 174.653 268.227C174.653 269.909 175.275 271.182 176.517 272.045C177.759 272.894 179.343 273.318 181.267 273.318ZM212.864 257.273V278H206.068V243.091H212.591V248.773H213.023C213.826 246.924 215.083 245.439 216.795 244.318C218.523 243.197 220.697 242.636 223.318 242.636C225.697 242.636 227.78 243.136 229.568 244.136C231.356 245.121 232.742 246.591 233.727 248.545C234.712 250.5 235.205 252.917 235.205 255.795V278H228.409V256.614C228.409 254.083 227.75 252.106 226.432 250.682C225.114 249.242 223.303 248.523 221 248.523C219.424 248.523 218.023 248.864 216.795 249.545C215.583 250.227 214.621 251.227 213.909 252.545C213.212 253.848 212.864 255.424 212.864 257.273ZM312.068 291.091V243.091H318.705V248.75H319.273C319.667 248.023 320.235 247.182 320.977 246.227C321.72 245.273 322.75 244.439 324.068 243.727C325.386 243 327.129 242.636 329.295 242.636C332.114 242.636 334.629 243.348 336.841 244.773C339.053 246.197 340.788 248.25 342.045 250.932C343.318 253.614 343.955 256.841 343.955 260.614C343.955 264.386 343.326 267.621 342.068 270.318C340.811 273 339.083 275.068 336.886 276.523C334.689 277.962 332.182 278.682 329.364 278.682C327.242 278.682 325.508 278.326 324.159 277.614C322.826 276.902 321.78 276.068 321.023 275.114C320.265 274.159 319.682 273.311 319.273 272.568H318.864V291.091H312.068ZM318.727 260.545C318.727 263 319.083 265.152 319.795 267C320.508 268.848 321.538 270.295 322.886 271.341C324.235 272.371 325.886 272.886 327.841 272.886C329.871 272.886 331.568 272.348 332.932 271.273C334.295 270.182 335.326 268.705 336.023 266.841C336.735 264.977 337.091 262.879 337.091 260.545C337.091 258.242 336.742 256.174 336.045 254.341C335.364 252.508 334.333 251.061 332.955 250C331.591 248.939 329.886 248.409 327.841 248.409C325.871 248.409 324.205 248.917 322.841 249.932C321.492 250.947 320.47 252.364 319.773 254.182C319.076 256 318.727 258.121 318.727 260.545ZM354.676 291.091C353.661 291.091 352.737 291.008 351.903 290.841C351.07 290.689 350.449 290.523 350.04 290.341L351.676 284.773C352.919 285.106 354.025 285.25 354.994 285.205C355.964 285.159 356.82 284.795 357.562 284.114C358.32 283.432 358.987 282.318 359.562 280.773L360.403 278.455L347.631 243.091H354.903L363.744 270.182H364.108L372.949 243.091H380.244L365.858 282.659C365.191 284.477 364.343 286.015 363.312 287.273C362.282 288.545 361.055 289.5 359.631 290.136C358.206 290.773 356.555 291.091 354.676 291.091Z" fill="black"/>
</svg>
