<svg width="500" height="500" viewBox="0 0 500 500" fill="none" xmlns="http://www.w3.org/2000/svg">
<rect width="500" height="500" fill="white"/>
<path d="M120.489 248.359L119.847 249.481L112.667 262.031C111.728 263.672 109.643 264.239 108.01 263.288C106.381 262.339 105.827 260.243 106.764 258.606L112.411 248.736L112.627 248.359H120.489Z" stroke="black" stroke-width="1.5"/>
<path d="M190.187 262H182.616L199.627 214.727H207.868L224.88 262H217.309L203.944 223.314H203.575L190.187 262ZM191.456 243.488H216.016V249.489H191.456V243.488ZM231.152 262V226.545H237.823V232.178H238.192C238.839 230.269 239.977 228.769 241.609 227.676C243.255 226.569 245.117 226.015 247.195 226.015C247.625 226.015 248.133 226.03 248.718 226.061C249.318 226.091 249.787 226.13 250.126 226.176V232.778C249.849 232.701 249.357 232.616 248.649 232.524C247.941 232.416 247.233 232.362 246.525 232.362C244.894 232.362 243.44 232.708 242.163 233.401C240.901 234.078 239.9 235.024 239.162 236.24C238.423 237.44 238.054 238.81 238.054 240.349V262H231.152ZM269.763 262.716C266.332 262.716 263.377 261.938 260.9 260.384C258.438 258.815 256.545 256.653 255.221 253.898C253.898 251.144 253.236 247.989 253.236 244.434C253.236 240.833 253.913 237.656 255.268 234.901C256.622 232.131 258.53 229.969 260.992 228.415C263.454 226.861 266.355 226.084 269.694 226.084C272.387 226.084 274.788 226.584 276.896 227.584C279.004 228.569 280.704 229.954 281.997 231.739C283.305 233.524 284.082 235.609 284.328 237.994H277.611C277.242 236.332 276.396 234.901 275.072 233.701C273.764 232.501 272.01 231.901 269.809 231.901C267.886 231.901 266.201 232.408 264.754 233.424C263.323 234.424 262.208 235.855 261.407 237.717C260.607 239.564 260.207 241.749 260.207 244.273C260.207 246.858 260.6 249.089 261.384 250.967C262.169 252.844 263.277 254.298 264.708 255.329C266.155 256.36 267.855 256.876 269.809 256.876C271.117 256.876 272.302 256.637 273.364 256.16C274.441 255.668 275.342 254.968 276.065 254.06C276.803 253.152 277.319 252.059 277.611 250.782H284.328C284.082 253.075 283.336 255.121 282.089 256.922C280.843 258.722 279.173 260.138 277.08 261.169C275.003 262.2 272.564 262.716 269.763 262.716ZM302.027 262.785C299.78 262.785 297.749 262.369 295.933 261.538C294.117 260.692 292.678 259.469 291.617 257.868C290.57 256.268 290.047 254.306 290.047 251.982C290.047 249.982 290.432 248.335 291.201 247.043C291.97 245.75 293.009 244.727 294.317 243.973C295.625 243.219 297.087 242.649 298.703 242.265C300.319 241.88 301.965 241.587 303.642 241.387C305.766 241.141 307.49 240.941 308.813 240.787C310.136 240.618 311.098 240.349 311.698 239.979C312.298 239.61 312.598 239.01 312.598 238.179V238.017C312.598 236.002 312.029 234.44 310.89 233.332C309.767 232.224 308.09 231.67 305.858 231.67C303.535 231.67 301.704 232.185 300.365 233.216C299.041 234.232 298.126 235.363 297.618 236.609L291.132 235.132C291.901 232.978 293.025 231.239 294.502 229.915C295.995 228.577 297.71 227.607 299.649 227.007C301.588 226.392 303.627 226.084 305.766 226.084C307.182 226.084 308.682 226.253 310.267 226.592C311.868 226.915 313.36 227.515 314.745 228.392C316.145 229.269 317.292 230.523 318.184 232.154C319.077 233.77 319.523 235.871 319.523 238.456V262H312.783V257.153H312.506C312.06 258.045 311.39 258.922 310.498 259.784C309.605 260.646 308.459 261.361 307.059 261.931C305.658 262.5 303.981 262.785 302.027 262.785ZM303.527 257.245C305.435 257.245 307.066 256.868 308.421 256.114C309.79 255.36 310.829 254.375 311.537 253.159C312.26 251.928 312.622 250.613 312.622 249.212V244.642C312.375 244.888 311.898 245.119 311.19 245.335C310.498 245.535 309.705 245.712 308.813 245.865C307.92 246.004 307.051 246.135 306.205 246.258C305.358 246.366 304.65 246.458 304.081 246.535C302.742 246.704 301.519 246.989 300.411 247.389C299.318 247.789 298.441 248.366 297.78 249.12C297.133 249.859 296.81 250.844 296.81 252.075C296.81 253.783 297.441 255.075 298.703 255.952C299.965 256.814 301.573 257.245 303.527 257.245ZM335.617 240.949V262H328.716V226.545H335.34V232.316H335.779C336.595 230.439 337.872 228.931 339.611 227.792C341.365 226.653 343.573 226.084 346.235 226.084C348.651 226.084 350.767 226.592 352.583 227.607C354.399 228.607 355.807 230.1 356.807 232.085C357.807 234.07 358.307 236.525 358.307 239.449V262H351.406V240.279C351.406 237.71 350.736 235.701 349.398 234.255C348.059 232.793 346.22 232.062 343.881 232.062C342.28 232.062 340.857 232.408 339.611 233.101C338.38 233.793 337.402 234.809 336.679 236.148C335.971 237.471 335.617 239.071 335.617 240.949ZM382.844 262.716C379.351 262.716 376.342 261.969 373.819 260.477C371.31 258.969 369.372 256.853 368.002 254.129C366.648 251.39 365.971 248.181 365.971 244.504C365.971 240.872 366.648 237.671 368.002 234.901C369.372 232.131 371.28 229.969 373.726 228.415C376.189 226.861 379.066 226.084 382.359 226.084C384.36 226.084 386.299 226.415 388.176 227.076C390.053 227.738 391.738 228.777 393.231 230.192C394.724 231.608 395.901 233.447 396.763 235.709C397.624 237.956 398.055 240.687 398.055 243.903V246.35H369.872V241.18H391.292C391.292 239.364 390.923 237.756 390.184 236.355C389.445 234.94 388.407 233.824 387.068 233.009C385.745 232.193 384.19 231.785 382.405 231.785C380.466 231.785 378.774 232.262 377.327 233.216C375.896 234.155 374.788 235.386 374.003 236.909C373.234 238.417 372.849 240.056 372.849 241.826V245.865C372.849 248.235 373.265 250.251 374.096 251.913C374.942 253.575 376.119 254.844 377.627 255.722C379.135 256.583 380.897 257.014 382.913 257.014C384.221 257.014 385.414 256.83 386.491 256.46C387.568 256.076 388.499 255.506 389.284 254.752C390.069 253.998 390.669 253.067 391.084 251.959L397.617 253.136C397.093 255.06 396.155 256.745 394.801 258.191C393.462 259.623 391.777 260.738 389.746 261.538C387.73 262.323 385.429 262.716 382.844 262.716Z" fill="black"/>
</svg>
