<svg width="500" height="500" viewBox="0 0 500 500" fill="none" xmlns="http://www.w3.org/2000/svg">
<rect width="500" height="500" fill="white"/>
<path fill-rule="evenodd" clip-rule="evenodd" d="M141 230C141 226.134 144.134 223 148 223H188C191.866 223 195 226.134 195 230V236.804C194.076 237.104 193.211 237.625 192.487 238.367L185.746 245.283C185.195 245.848 184.92 246.13 184.593 246.309C184.278 246.482 183.928 246.584 183.569 246.61C183.197 246.636 182.811 246.548 182.04 246.371L163.487 242.118L163.487 242.118L163.487 242.118C162.702 241.938 162.31 241.848 161.93 241.878C161.595 241.903 161.267 241.996 160.969 242.151C160.632 242.327 160.347 242.609 159.778 243.175L159.778 243.175L159.778 243.175L158.855 244.091C157.348 245.588 156.594 246.337 156.457 247.104C156.338 247.773 156.502 248.461 156.91 249.007C157.377 249.632 158.388 249.966 160.411 250.636L175.408 255.602L167.087 263.867C166.59 264.36 166.342 264.607 166.05 264.772C165.79 264.918 165.507 265.016 165.213 265.063C164.881 265.116 164.532 265.077 163.833 265L159.721 264.546C159.023 264.469 158.674 264.431 158.341 264.483C158.047 264.53 157.764 264.629 157.505 264.775C157.212 264.94 156.964 265.187 156.467 265.68L155.976 266.168L155.976 266.168C154.799 267.337 154.211 267.921 154.04 268.57C153.891 269.14 153.951 269.744 154.21 270.273C154.505 270.877 155.198 271.335 156.582 272.252L162.434 276.127L162.434 276.127L162.434 276.127C162.681 276.291 162.805 276.373 162.917 276.468C163.017 276.552 163.11 276.644 163.195 276.743C163.256 276.814 163.312 276.89 163.387 277H148C144.134 277 141 273.866 141 270V230ZM194.479 254.06L195 253.518V264.224L193.479 257.679C193.303 256.92 193.215 256.54 193.241 256.172C193.264 255.845 193.352 255.527 193.499 255.235C193.666 254.905 193.937 254.623 194.479 254.06ZM184.202 264.336L188.448 276.986C188.3 276.995 188.15 277 188 277H174.871L174.74 275.833C174.662 275.14 174.624 274.793 174.677 274.463C174.724 274.171 174.823 273.889 174.97 273.632C175.136 273.342 175.385 273.095 175.881 272.602L175.881 272.601L184.202 264.336ZM152.84 227.32C152.84 227.044 152.616 226.82 152.34 226.82C152.064 226.82 151.84 227.044 151.84 227.32V228.4C151.84 228.676 152.064 228.9 152.34 228.9C152.616 228.9 152.84 228.676 152.84 228.4V227.32ZM148.86 228.532C148.664 228.337 148.348 228.337 148.152 228.532C147.957 228.728 147.957 229.044 148.152 229.24L148.916 230.003C149.111 230.198 149.428 230.198 149.623 230.003C149.818 229.808 149.818 229.491 149.623 229.296L148.86 228.532ZM156.527 229.24C156.723 229.044 156.723 228.728 156.527 228.532C156.332 228.337 156.016 228.337 155.82 228.532L155.057 229.296C154.861 229.491 154.861 229.808 155.057 230.003C155.252 230.198 155.568 230.198 155.764 230.003L156.527 229.24ZM150.14 232.72C150.14 231.505 151.125 230.52 152.34 230.52C153.555 230.52 154.54 231.505 154.54 232.72C154.54 232.996 154.764 233.22 155.04 233.22C155.316 233.22 155.54 232.996 155.54 232.72C155.54 230.953 154.107 229.52 152.34 229.52C150.573 229.52 149.14 230.953 149.14 232.72C149.14 232.996 149.364 233.22 149.64 233.22C149.916 233.22 150.14 232.996 150.14 232.72ZM146.94 232.22C146.664 232.22 146.44 232.444 146.44 232.72C146.44 232.996 146.664 233.22 146.94 233.22H148.02C148.296 233.22 148.52 232.996 148.52 232.72C148.52 232.444 148.296 232.22 148.02 232.22H146.94ZM156.66 232.22C156.384 232.22 156.16 232.444 156.16 232.72C156.16 232.996 156.384 233.22 156.66 233.22H157.74C158.016 233.22 158.24 232.996 158.24 232.72C158.24 232.444 158.016 232.22 157.74 232.22H156.66ZM147.201 235.558C147.723 235.321 148.404 235.321 148.926 235.558C149.71 235.915 150.693 235.915 151.478 235.558C152 235.321 152.68 235.321 153.202 235.558C153.987 235.915 154.97 235.915 155.755 235.558C156.276 235.321 156.957 235.321 157.479 235.558C157.731 235.672 158.027 235.561 158.141 235.31C158.256 235.058 158.144 234.762 157.893 234.648C157.108 234.291 156.126 234.291 155.341 234.648C154.819 234.885 154.138 234.885 153.616 234.648C152.831 234.291 151.849 234.291 151.064 234.648C150.542 234.885 149.861 234.885 149.339 234.648C148.554 234.291 147.572 234.291 146.787 234.648C146.536 234.762 146.425 235.058 146.539 235.31C146.653 235.561 146.95 235.672 147.201 235.558ZM151.478 237.448C152 237.211 152.68 237.211 153.202 237.448C153.987 237.805 154.97 237.805 155.755 237.448C156.006 237.334 156.117 237.037 156.003 236.786C155.889 236.534 155.592 236.423 155.341 236.538C154.819 236.775 154.138 236.775 153.616 236.538C152.831 236.181 151.849 236.181 151.064 236.538C150.542 236.775 149.861 236.775 149.339 236.538C149.088 236.423 148.792 236.534 148.677 236.786C148.563 237.037 148.674 237.334 148.926 237.448C149.71 237.805 150.693 237.805 151.478 237.448Z" fill="black"/>
<path d="M223.96 241.2V244.92H216.56V269H212V244.92H204.56V241.2H223.96ZM233.138 250.16C233.805 249.04 234.685 248.173 235.778 247.56C236.898 246.92 238.218 246.6 239.738 246.6V251.32H238.578C236.791 251.32 235.431 251.773 234.498 252.68C233.591 253.587 233.138 255.16 233.138 257.4V269H228.578V246.96H233.138V250.16ZM246.25 244.04C245.423 244.04 244.73 243.76 244.17 243.2C243.61 242.64 243.33 241.947 243.33 241.12C243.33 240.293 243.61 239.6 244.17 239.04C244.73 238.48 245.423 238.2 246.25 238.2C247.05 238.2 247.73 238.48 248.29 239.04C248.85 239.6 249.13 240.293 249.13 241.12C249.13 241.947 248.85 242.64 248.29 243.2C247.73 243.76 247.05 244.04 246.25 244.04ZM248.49 246.96V269H243.93V246.96H248.49ZM259.037 250.2C259.81 249.187 260.863 248.333 262.197 247.64C263.53 246.947 265.037 246.6 266.717 246.6C268.637 246.6 270.383 247.08 271.957 248.04C273.557 248.973 274.81 250.293 275.717 252C276.623 253.707 277.077 255.667 277.077 257.88C277.077 260.093 276.623 262.08 275.717 263.84C274.81 265.573 273.557 266.933 271.957 267.92C270.383 268.88 268.637 269.36 266.717 269.36C265.037 269.36 263.543 269.027 262.237 268.36C260.93 267.667 259.863 266.813 259.037 265.8V279.48H254.477V246.96H259.037V250.2ZM272.437 257.88C272.437 256.36 272.117 255.053 271.477 253.96C270.863 252.84 270.037 252 268.997 251.44C267.983 250.853 266.89 250.56 265.717 250.56C264.57 250.56 263.477 250.853 262.437 251.44C261.423 252.027 260.597 252.88 259.957 254C259.343 255.12 259.037 256.44 259.037 257.96C259.037 259.48 259.343 260.813 259.957 261.96C260.597 263.08 261.423 263.933 262.437 264.52C263.477 265.107 264.57 265.4 265.717 265.4C266.89 265.4 267.983 265.107 268.997 264.52C270.037 263.907 270.863 263.027 271.477 261.88C272.117 260.733 272.437 259.4 272.437 257.88ZM290.106 264.92L296.346 246.96H301.186L292.786 269H287.346L278.986 246.96H283.866L290.106 264.92ZM306.953 244.04C306.126 244.04 305.433 243.76 304.873 243.2C304.313 242.64 304.033 241.947 304.033 241.12C304.033 240.293 304.313 239.6 304.873 239.04C305.433 238.48 306.126 238.2 306.953 238.2C307.753 238.2 308.433 238.48 308.993 239.04C309.553 239.6 309.833 240.293 309.833 241.12C309.833 241.947 309.553 242.64 308.993 243.2C308.433 243.76 307.753 244.04 306.953 244.04ZM309.193 246.96V269H304.633V246.96H309.193ZM323.18 269.36C321.446 269.36 319.886 269.053 318.5 268.44C317.14 267.8 316.06 266.947 315.26 265.88C314.46 264.787 314.033 263.573 313.98 262.24H318.7C318.78 263.173 319.22 263.96 320.02 264.6C320.846 265.213 321.873 265.52 323.1 265.52C324.38 265.52 325.366 265.28 326.06 264.8C326.78 264.293 327.14 263.653 327.14 262.88C327.14 262.053 326.74 261.44 325.94 261.04C325.166 260.64 323.926 260.2 322.22 259.72C320.566 259.267 319.22 258.827 318.18 258.4C317.14 257.973 316.233 257.32 315.46 256.44C314.713 255.56 314.34 254.4 314.34 252.96C314.34 251.787 314.686 250.72 315.38 249.76C316.073 248.773 317.06 248 318.34 247.44C319.646 246.88 321.14 246.6 322.82 246.6C325.326 246.6 327.34 247.24 328.86 248.52C330.406 249.773 331.233 251.493 331.34 253.68H326.78C326.7 252.693 326.3 251.907 325.58 251.32C324.86 250.733 323.886 250.44 322.66 250.44C321.46 250.44 320.54 250.667 319.9 251.12C319.26 251.573 318.94 252.173 318.94 252.92C318.94 253.507 319.153 254 319.58 254.4C320.006 254.8 320.526 255.12 321.14 255.36C321.753 255.573 322.66 255.853 323.86 256.2C325.46 256.627 326.766 257.067 327.78 257.52C328.82 257.947 329.713 258.587 330.46 259.44C331.206 260.293 331.593 261.427 331.62 262.84C331.62 264.093 331.273 265.213 330.58 266.2C329.886 267.187 328.9 267.96 327.62 268.52C326.366 269.08 324.886 269.36 323.18 269.36ZM356.747 257.44C356.747 258.267 356.694 259.013 356.587 259.68H339.747C339.88 261.44 340.534 262.853 341.707 263.92C342.88 264.987 344.32 265.52 346.027 265.52C348.48 265.52 350.214 264.493 351.227 262.44H356.147C355.48 264.467 354.267 266.133 352.507 267.44C350.774 268.72 348.614 269.36 346.027 269.36C343.92 269.36 342.027 268.893 340.347 267.96C338.694 267 337.387 265.667 336.427 263.96C335.494 262.227 335.027 260.227 335.027 257.96C335.027 255.693 335.48 253.707 336.387 252C337.32 250.267 338.614 248.933 340.267 248C341.947 247.067 343.867 246.6 346.027 246.6C348.107 246.6 349.96 247.053 351.587 247.96C353.214 248.867 354.48 250.147 355.387 251.8C356.294 253.427 356.747 255.307 356.747 257.44ZM351.987 256C351.96 254.32 351.36 252.973 350.187 251.96C349.014 250.947 347.56 250.44 345.827 250.44C344.254 250.44 342.907 250.947 341.787 251.96C340.667 252.947 340 254.293 339.787 256H351.987Z" fill="black"/>
</svg>
