<svg width="500" height="500" viewBox="0 0 500 500" fill="none" xmlns="http://www.w3.org/2000/svg">
<rect width="500" height="500" fill="white"/>
<path d="M189 250.58C189 231.482 173.518 216 154.42 216C138.92 216 125.802 226.199 121.41 240.252C121.128 241.152 120.988 241.602 121.001 242.165C121.012 242.622 121.151 243.188 121.354 243.598C121.603 244.103 121.988 244.488 122.758 245.258L159.743 282.242C160.514 283.012 160.899 283.397 161.403 283.647C161.814 283.849 162.379 283.988 162.837 283.999C163.4 284.012 163.85 283.872 164.75 283.59C178.802 279.198 189 266.08 189 250.58Z" stroke="black" stroke-width="5" stroke-linecap="round" stroke-linejoin="round"/>
<path d="M125.585 242.435C126.407 242.376 127.237 242.346 128.073 242.346C147.171 242.346 162.653 257.828 162.653 276.926C162.653 277.763 162.623 278.593 162.565 279.415C162.463 280.851 162.412 281.569 161.993 282.013C161.653 282.373 161.073 282.59 160.58 282.54C159.973 282.479 159.421 281.928 158.317 280.824L124.176 246.682C123.072 245.578 122.52 245.026 122.459 244.42C122.41 243.927 122.627 243.347 122.987 243.007C123.43 242.588 124.148 242.537 125.585 242.435Z" stroke="black" stroke-width="5" stroke-linecap="round" stroke-linejoin="round"/>
<path d="M212.496 235.64C216.048 235.64 219.152 236.328 221.808 237.704C224.496 239.048 226.56 241 228 243.56C229.472 246.088 230.208 249.048 230.208 252.44C230.208 255.832 229.472 258.776 228 261.272C226.56 263.768 224.496 265.688 221.808 267.032C219.152 268.344 216.048 269 212.496 269H201.6V235.64H212.496ZM212.496 264.536C216.4 264.536 219.392 263.48 221.472 261.368C223.552 259.256 224.592 256.28 224.592 252.44C224.592 248.568 223.552 245.544 221.472 243.368C219.392 241.192 216.4 240.104 212.496 240.104H207.072V264.536H212.496ZM259.583 242.552V269H254.111V265.88C253.247 266.968 252.111 267.832 250.703 268.472C249.327 269.08 247.855 269.384 246.287 269.384C244.207 269.384 242.335 268.952 240.671 268.088C239.039 267.224 237.743 265.944 236.783 264.248C235.855 262.552 235.391 260.504 235.391 258.104V242.552H240.815V257.288C240.815 259.656 241.407 261.48 242.591 262.76C243.775 264.008 245.391 264.632 247.439 264.632C249.487 264.632 251.103 264.008 252.287 262.76C253.503 261.48 254.111 259.656 254.111 257.288V242.552H259.583ZM280.147 242.12C282.227 242.12 284.083 242.552 285.715 243.416C287.379 244.28 288.675 245.56 289.603 247.256C290.531 248.952 290.995 251 290.995 253.4V269H285.571V254.216C285.571 251.848 284.979 250.04 283.795 248.792C282.611 247.512 280.995 246.872 278.947 246.872C276.899 246.872 275.267 247.512 274.051 248.792C272.867 250.04 272.275 251.848 272.275 254.216V269H266.803V242.552H272.275V245.576C273.171 244.488 274.307 243.64 275.683 243.032C277.091 242.424 278.579 242.12 280.147 242.12ZM322.215 255.128C322.215 256.12 322.151 257.016 322.023 257.816H301.815C301.975 259.928 302.759 261.624 304.167 262.904C305.575 264.184 307.303 264.824 309.351 264.824C312.295 264.824 314.375 263.592 315.591 261.128H321.495C320.695 263.56 319.239 265.56 317.127 267.128C315.047 268.664 312.455 269.432 309.351 269.432C306.823 269.432 304.551 268.872 302.535 267.752C300.551 266.6 298.983 265 297.831 262.952C296.711 260.872 296.151 258.472 296.151 255.752C296.151 253.032 296.695 250.648 297.783 248.6C298.903 246.52 300.455 244.92 302.439 243.8C304.455 242.68 306.759 242.12 309.351 242.12C311.847 242.12 314.071 242.664 316.023 243.752C317.975 244.84 319.495 246.376 320.583 248.36C321.671 250.312 322.215 252.568 322.215 255.128ZM316.503 253.4C316.471 251.384 315.751 249.768 314.343 248.552C312.935 247.336 311.191 246.728 309.111 246.728C307.223 246.728 305.607 247.336 304.263 248.552C302.919 249.736 302.119 251.352 301.863 253.4H316.503Z" fill="black"/>
</svg>
