<svg width="500" height="500" viewBox="0 0 500 500" fill="none" xmlns="http://www.w3.org/2000/svg">
<rect width="500" height="500" fill="white"/>
<path d="M170.734 282H201.077V244.095L177.326 254.298L170.734 282Z" fill="#231F20" stroke="#D9D9D9" stroke-width="4"/>
<path d="M137.03 271.016V282H169.033L175.589 254.458L137.03 271.016Z" fill="#231F20" stroke="#D9D9D9" stroke-width="4"/>
<mask id="mask0_19_729" style="mask-type:luminance" maskUnits="userSpaceOnUse" x="135" y="251" width="44" height="33">
<path d="M137.03 271.016V282H169.033L175.589 254.458L137.03 271.016Z" fill="white" stroke="white" stroke-width="4"/>
</mask>
<g mask="url(#mask0_19_729)">
</g>
<path d="M184.365 249.09L201.046 242.002V218H166.596L184.365 249.09Z" fill="#231F20" stroke="#D9D9D9" stroke-width="4"/>
<mask id="mask1_19_729" style="mask-type:luminance" maskUnits="userSpaceOnUse" x="163" y="216" width="41" height="36">
<path d="M184.365 249.09L201.046 242.002V218H166.596L184.365 249.09Z" fill="white" stroke="white" stroke-width="4"/>
</mask>
<g mask="url(#mask1_19_729)">
</g>
<path d="M182.374 249.774L164.577 218.093H137V269.256L182.374 249.774Z" fill="#231F20" stroke="#D9D9D9" stroke-width="4"/>
<path d="M214.4 249C214.4 246.253 215.013 243.8 216.24 241.64C217.493 239.453 219.187 237.76 221.32 236.56C223.48 235.333 225.893 234.72 228.56 234.72C231.68 234.72 234.413 235.52 236.76 237.12C239.107 238.72 240.747 240.933 241.68 243.76H235.24C234.6 242.427 233.693 241.427 232.52 240.76C231.373 240.093 230.04 239.76 228.52 239.76C226.893 239.76 225.44 240.147 224.16 240.92C222.907 241.667 221.92 242.733 221.2 244.12C220.507 245.507 220.16 247.133 220.16 249C220.16 250.84 220.507 252.467 221.2 253.88C221.92 255.267 222.907 256.347 224.16 257.12C225.44 257.867 226.893 258.24 228.52 258.24C230.04 258.24 231.373 257.907 232.52 257.24C233.693 256.547 234.6 255.533 235.24 254.2H241.68C240.747 257.053 239.107 259.28 236.76 260.88C234.44 262.453 231.707 263.24 228.56 263.24C225.893 263.24 223.48 262.64 221.32 261.44C219.187 260.213 217.493 258.52 216.24 256.36C215.013 254.2 214.4 251.747 214.4 249ZM251.263 244.28C251.983 243.107 252.916 242.187 254.063 241.52C255.236 240.853 256.57 240.52 258.063 240.52V246.4H256.583C254.823 246.4 253.49 246.813 252.583 247.64C251.703 248.467 251.263 249.907 251.263 251.96V263H245.663V240.84H251.263V244.28ZM259.595 251.84C259.595 249.6 260.035 247.613 260.915 245.88C261.822 244.147 263.035 242.813 264.555 241.88C266.102 240.947 267.822 240.48 269.715 240.48C271.368 240.48 272.808 240.813 274.035 241.48C275.288 242.147 276.288 242.987 277.035 244V240.84H282.675V263H277.035V259.76C276.315 260.8 275.315 261.667 274.035 262.36C272.782 263.027 271.328 263.36 269.675 263.36C267.808 263.36 266.102 262.88 264.555 261.92C263.035 260.96 261.822 259.613 260.915 257.88C260.035 256.12 259.595 254.107 259.595 251.84ZM277.035 251.92C277.035 250.56 276.768 249.4 276.235 248.44C275.702 247.453 274.982 246.707 274.075 246.2C273.168 245.667 272.195 245.4 271.155 245.4C270.115 245.4 269.155 245.653 268.275 246.16C267.395 246.667 266.675 247.413 266.115 248.4C265.582 249.36 265.315 250.507 265.315 251.84C265.315 253.173 265.582 254.347 266.115 255.36C266.675 256.347 267.395 257.107 268.275 257.64C269.182 258.173 270.142 258.44 271.155 258.44C272.195 258.44 273.168 258.187 274.075 257.68C274.982 257.147 275.702 256.4 276.235 255.44C276.768 254.453 277.035 253.28 277.035 251.92ZM297.504 245.44H293.624V263H287.944V245.44H285.424V240.84H287.944V239.72C287.944 237 288.718 235 290.264 233.72C291.811 232.44 294.144 231.84 297.264 231.92V236.64C295.904 236.613 294.958 236.84 294.424 237.32C293.891 237.8 293.624 238.667 293.624 239.92V240.84H297.504V245.44ZM306.853 245.44V256.16C306.853 256.907 307.027 257.453 307.373 257.8C307.747 258.12 308.36 258.28 309.213 258.28H311.813V263H308.293C303.573 263 301.213 260.707 301.213 256.12V245.44H298.573V240.84H301.213V235.36H306.853V240.84H311.813V245.44H306.853ZM335.641 251.44C335.641 252.24 335.588 252.96 335.481 253.6H319.281C319.415 255.2 319.975 256.453 320.961 257.36C321.948 258.267 323.161 258.72 324.601 258.72C326.681 258.72 328.161 257.827 329.041 256.04H335.081C334.441 258.173 333.215 259.933 331.401 261.32C329.588 262.68 327.361 263.36 324.721 263.36C322.588 263.36 320.668 262.893 318.961 261.96C317.281 261 315.961 259.653 315.001 257.92C314.068 256.187 313.601 254.187 313.601 251.92C313.601 249.627 314.068 247.613 315.001 245.88C315.935 244.147 317.241 242.813 318.921 241.88C320.601 240.947 322.535 240.48 324.721 240.48C326.828 240.48 328.708 240.933 330.361 241.84C332.041 242.747 333.335 244.04 334.241 245.72C335.175 247.373 335.641 249.28 335.641 251.44ZM329.841 249.84C329.815 248.4 329.295 247.253 328.281 246.4C327.268 245.52 326.028 245.08 324.561 245.08C323.175 245.08 322.001 245.507 321.041 246.36C320.108 247.187 319.535 248.347 319.321 249.84H329.841ZM337.489 251.84C337.489 249.6 337.929 247.613 338.809 245.88C339.715 244.147 340.942 242.813 342.489 241.88C344.035 240.947 345.755 240.48 347.649 240.48C349.089 240.48 350.462 240.8 351.769 241.44C353.075 242.053 354.115 242.88 354.889 243.92V233.4H360.569V263H354.889V259.72C354.195 260.813 353.222 261.693 351.969 262.36C350.715 263.027 349.262 263.36 347.609 263.36C345.742 263.36 344.035 262.88 342.489 261.92C340.942 260.96 339.715 259.613 338.809 257.88C337.929 256.12 337.489 254.107 337.489 251.84ZM354.929 251.92C354.929 250.56 354.662 249.4 354.129 248.44C353.595 247.453 352.875 246.707 351.969 246.2C351.062 245.667 350.089 245.4 349.049 245.4C348.009 245.4 347.049 245.653 346.169 246.16C345.289 246.667 344.569 247.413 344.009 248.4C343.475 249.36 343.209 250.507 343.209 251.84C343.209 253.173 343.475 254.347 344.009 255.36C344.569 256.347 345.289 257.107 346.169 257.64C347.075 258.173 348.035 258.44 349.049 258.44C350.089 258.44 351.062 258.187 351.969 257.68C352.875 257.147 353.595 256.4 354.129 255.44C354.662 254.453 354.929 253.28 354.929 251.92Z" fill="#212121"/>
</svg>
