<svg width="500" height="500" viewBox="0 0 500 500" fill="none" xmlns="http://www.w3.org/2000/svg">
<rect width="500" height="500" fill="white"/>
<path d="M355.515 233.458L250.495 178.512L128 218.042L169.931 347.977L355.515 233.458Z" fill="#212121"/>
<path d="M188.321 325.014C186.542 326.112 184.65 326.702 182.646 326.785C180.642 326.868 178.751 326.444 176.972 325.51C175.182 324.559 173.71 323.149 172.557 321.278C171.414 319.427 170.825 317.496 170.789 315.488C170.742 313.462 171.206 311.572 172.179 309.818C173.153 308.064 174.529 306.639 176.309 305.541C178.106 304.432 179.998 303.842 181.984 303.77C183.988 303.686 185.876 304.126 187.648 305.088C189.426 306.021 190.887 307.414 192.03 309.266C193.183 311.136 193.783 313.084 193.83 315.111C193.884 317.108 193.424 318.983 192.451 320.737C191.477 322.491 190.101 323.916 188.321 325.014ZM186.221 321.61C187.365 320.904 188.216 320.028 188.774 318.982C189.321 317.918 189.542 316.753 189.439 315.489C189.335 314.224 188.892 312.956 188.108 311.685C187.324 310.414 186.395 309.458 185.323 308.816C184.239 308.156 183.104 307.841 181.919 307.87C180.734 307.9 179.57 308.267 178.426 308.973C177.282 309.678 176.422 310.56 175.846 311.617C175.288 312.663 175.061 313.818 175.164 315.083C175.256 316.329 175.694 317.588 176.478 318.859C177.262 320.13 178.196 321.096 179.28 321.755C180.364 322.415 181.504 322.74 182.701 322.729C183.904 322.688 185.077 322.315 186.221 321.61ZM205.155 293.537L214.462 308.625L210.622 310.994L209.446 309.087C209.359 310.043 209.034 310.958 208.47 311.832C207.913 312.677 207.172 313.385 206.246 313.956C205.066 314.684 203.871 315.083 202.66 315.153C201.439 315.205 200.268 314.912 199.148 314.274C198.035 313.607 197.064 312.602 196.235 311.259L190.775 302.407L194.588 300.055L199.712 308.362C200.451 309.56 201.322 310.301 202.324 310.585C203.315 310.851 204.329 310.665 205.363 310.027C206.417 309.377 207.047 308.55 207.254 307.544C207.45 306.521 207.178 305.41 206.439 304.212L201.315 295.905L205.155 293.537ZM214.743 291.945L219.246 299.244C219.56 299.753 219.907 300.052 220.289 300.142C220.678 300.204 221.162 300.055 221.743 299.696L223.514 298.604L225.496 301.818L223.099 303.297C219.886 305.279 217.316 304.709 215.389 301.586L210.903 294.314L209.106 295.423L207.174 292.291L208.971 291.182L206.67 287.451L210.51 285.082L212.811 288.813L216.188 286.73L218.121 289.862L214.743 291.945ZM234.545 296.575C233.092 297.471 231.589 297.959 230.035 298.041C228.47 298.104 226.987 297.753 225.587 296.987C224.206 296.21 223.039 295.05 222.087 293.506C221.135 291.963 220.631 290.394 220.574 288.8C220.536 287.194 220.911 285.709 221.699 284.346C222.476 282.964 223.591 281.825 225.044 280.929C226.496 280.033 228.014 279.548 229.598 279.473C231.17 279.381 232.656 279.717 234.056 280.483C235.474 281.238 236.659 282.387 237.611 283.93C238.563 285.473 239.049 287.053 239.069 288.67C239.107 290.276 238.728 291.776 237.933 293.168C237.145 294.532 236.015 295.667 234.545 296.575ZM232.495 293.252C233.185 292.826 233.729 292.265 234.126 291.569C234.531 290.843 234.707 290.032 234.656 289.136C234.605 288.241 234.282 287.312 233.689 286.349C232.804 284.915 231.745 284.052 230.512 283.759C229.286 283.438 228.128 283.613 227.039 284.285C225.949 284.957 225.273 285.913 225.011 287.153C224.755 288.364 225.069 289.686 225.954 291.121C226.839 292.555 227.876 293.444 229.066 293.788C230.263 294.103 231.406 293.924 232.495 293.252ZM244.059 273.861L241.417 275.491L248.792 287.447L244.925 289.833L237.55 277.877L235.834 278.935L233.902 275.803L235.618 274.745L235.147 273.982C234.005 272.13 233.691 270.443 234.207 268.922C234.722 267.401 236.059 266.013 238.217 264.757L240.199 267.97C239.262 268.523 238.713 269.075 238.551 269.626C238.39 270.177 238.572 270.879 239.098 271.732L239.485 272.359L242.127 270.729L244.059 273.861ZM264.969 256.638L269.865 274.448L265.752 276.985L256.5 268.142L260.251 280.378L256.111 282.932L242.364 270.583L246.232 268.197L255.991 278.043L251.788 264.769L255.818 262.283L265.724 272.002L261.32 258.889L264.969 256.638ZM282.646 266.901C281.194 267.798 279.69 268.286 278.136 268.368C276.571 268.431 275.088 268.079 273.689 267.314C272.307 266.537 271.14 265.377 270.188 263.833C269.236 262.29 268.732 260.721 268.676 259.126C268.638 257.521 269.013 256.036 269.801 254.673C270.578 253.291 271.692 252.152 273.145 251.256C274.598 250.36 276.115 249.875 277.699 249.8C279.271 249.708 280.757 250.044 282.157 250.81C283.575 251.565 284.76 252.714 285.712 254.257C286.664 255.8 287.15 257.38 287.17 258.997C287.208 260.603 286.829 262.102 286.034 263.495C285.246 264.859 284.117 265.994 282.646 266.901ZM280.596 263.579C281.286 263.153 281.83 262.592 282.228 261.896C282.632 261.17 282.809 260.359 282.758 259.463C282.706 258.568 282.384 257.639 281.79 256.676C280.905 255.242 279.846 254.379 278.613 254.086C277.387 253.765 276.23 253.94 275.14 254.612C274.051 255.284 273.375 256.24 273.112 257.48C272.856 258.691 273.171 260.013 274.055 261.448C274.94 262.882 275.978 263.771 277.167 264.115C278.364 264.43 279.507 264.251 280.596 263.579ZM288.568 245.314C288.565 244.212 288.815 243.194 289.315 242.258C289.834 241.312 290.602 240.525 291.619 239.897L294.088 243.901L293.081 244.523C291.882 245.262 291.148 246.103 290.878 247.047C290.626 247.979 290.931 249.145 291.794 250.543L296.431 258.06L292.618 260.412L283.31 245.324L287.123 242.971L288.568 245.314ZM294.465 231.449L306.897 251.603L303.084 253.955L290.652 233.801L294.465 231.449ZM304.452 242.621C303.511 241.096 302.976 239.559 302.847 238.009C302.736 236.448 303.012 235.025 303.673 233.74C304.334 232.455 305.309 231.415 306.598 230.619C307.578 230.015 308.648 229.656 309.806 229.543C310.954 229.411 312.009 229.537 312.972 229.921L308.554 222.758L312.421 220.372L324.854 240.526L320.986 242.912L319.609 240.678C319.596 241.714 319.303 242.722 318.729 243.702C318.156 244.683 317.306 245.52 316.181 246.215C314.91 246.999 313.546 247.389 312.09 247.385C310.633 247.381 309.233 246.979 307.887 246.18C306.549 245.351 305.404 244.165 304.452 242.621ZM316.36 235.351C315.788 234.425 315.12 233.747 314.353 233.317C313.576 232.87 312.772 232.664 311.942 232.699C311.1 232.717 310.326 232.944 309.618 233.381C308.909 233.818 308.362 234.394 307.976 235.108C307.59 235.823 307.413 236.634 307.446 237.541C307.486 238.418 307.786 239.311 308.346 240.219C308.906 241.127 309.581 241.814 310.369 242.28C311.165 242.716 311.975 242.931 312.798 242.925C313.639 242.907 314.405 242.685 315.095 242.26C315.803 241.823 316.359 241.242 316.764 240.516C317.157 239.772 317.333 238.961 317.293 238.083C317.242 237.188 316.931 236.277 316.36 235.351Z" fill="white"/>
</svg>
