<svg width="500" height="500" viewBox="0 0 500 500" fill="none" xmlns="http://www.w3.org/2000/svg">
<rect width="500" height="500" fill="white"/>
<g clip-path="url(#clip0_19_745)">
<path d="M193 220H133V280H193V220Z" fill="white" fill-opacity="0.01"/>
<path fill-rule="evenodd" clip-rule="evenodd" d="M163 225C149.193 225 138 236.193 138 250C138 263.807 149.193 275 163 275V225Z" stroke="black" stroke-width="5" stroke-linecap="round" stroke-linejoin="round"/>
<path d="M163 225C176.807 225 188 236.193 188 250C188 263.807 176.807 275 163 275V225Z" stroke="black" stroke-width="5" stroke-linejoin="round"/>
<path d="M163 265H144.25" stroke="black" stroke-width="5" stroke-linecap="round" stroke-linejoin="round"/>
<path d="M163 255H139.25" stroke="black" stroke-width="5" stroke-linecap="round" stroke-linejoin="round"/>
<path d="M163 245H139.25" stroke="black" stroke-width="5" stroke-linecap="round" stroke-linejoin="round"/>
<path d="M163 235H144.25" stroke="black" stroke-width="5" stroke-linecap="round" stroke-linejoin="round"/>
</g>
<path d="M217.497 273H202.194V225.727H217.982C222.614 225.727 226.592 226.674 229.915 228.566C233.239 230.444 235.786 233.144 237.556 236.668C239.341 240.177 240.233 244.386 240.233 249.294C240.233 254.219 239.333 258.45 237.533 261.99C235.748 265.529 233.162 268.253 229.777 270.161C226.392 272.054 222.298 273 217.497 273ZM209.326 266.768H217.105C220.706 266.768 223.699 266.091 226.084 264.737C228.469 263.367 230.254 261.39 231.439 258.804C232.624 256.204 233.216 253.034 233.216 249.294C233.216 245.586 232.624 242.439 231.439 239.854C230.269 237.268 228.523 235.306 226.199 233.968C223.876 232.629 220.99 231.96 217.543 231.96H209.326V266.768ZM256.235 273L245.802 237.545H252.934L259.882 263.582H260.228L267.199 237.545H274.332L281.256 263.467H281.603L288.504 237.545H295.637L285.227 273H278.187L270.985 247.402H270.454L263.252 273H256.235ZM316.388 273.716C312.895 273.716 309.886 272.969 307.363 271.477C304.854 269.969 302.915 267.853 301.546 265.129C300.192 262.39 299.515 259.181 299.515 255.504C299.515 251.872 300.192 248.671 301.546 245.901C302.915 243.131 304.824 240.969 307.27 239.415C309.732 237.861 312.61 237.084 315.903 237.084C317.904 237.084 319.843 237.415 321.72 238.076C323.597 238.738 325.282 239.777 326.775 241.192C328.268 242.608 329.445 244.447 330.307 246.709C331.168 248.956 331.599 251.687 331.599 254.903V257.35H303.416V252.18H324.836C324.836 250.364 324.467 248.756 323.728 247.355C322.989 245.94 321.951 244.824 320.612 244.009C319.289 243.193 317.734 242.785 315.949 242.785C314.01 242.785 312.318 243.262 310.871 244.216C309.44 245.155 308.332 246.386 307.547 247.909C306.778 249.417 306.393 251.056 306.393 252.826V256.865C306.393 259.235 306.809 261.251 307.64 262.913C308.486 264.575 309.663 265.844 311.171 266.722C312.679 267.583 314.441 268.014 316.457 268.014C317.765 268.014 318.958 267.83 320.035 267.46C321.112 267.076 322.043 266.506 322.828 265.752C323.613 264.998 324.213 264.067 324.628 262.959L331.161 264.136C330.637 266.06 329.699 267.745 328.345 269.191C327.006 270.623 325.321 271.738 323.29 272.538C321.274 273.323 318.973 273.716 316.388 273.716ZM346.158 225.727V273H339.257V225.727H346.158ZM362.345 225.727V273H355.443V225.727H362.345Z" fill="black"/>
<defs>
<clipPath id="clip0_19_745">
<rect width="60" height="60" fill="white" transform="translate(133 220)"/>
</clipPath>
</defs>
</svg>
