<svg width="500" height="500" viewBox="0 0 500 500" fill="none" xmlns="http://www.w3.org/2000/svg">
<rect width="500" height="500" fill="white"/>
<path d="M90.4165 234.75C90.4165 215.098 106.348 199.167 126 199.167C145.652 199.167 161.583 215.098 161.583 234.75V265.25C161.583 284.902 145.652 300.833 126 300.833C106.348 300.833 90.4165 284.902 90.4165 265.25V234.75Z" stroke="#333333" stroke-width="3" stroke-linecap="round" stroke-linejoin="round"/>
<path d="M90.4165 232.208H161.583" stroke="#333333" stroke-width="3" stroke-linecap="round" stroke-linejoin="round"/>
<path d="M120.917 216.958H131.083" stroke="#333333" stroke-width="3" stroke-linecap="round" stroke-linejoin="round"/>
<path d="M90.4165 255.083C90.4165 255.083 104.142 253.558 108.208 257.625C112.275 261.692 110.75 266.187 110.75 266.187C118.375 266.187 126 266.589 126 275.417C126 281.771 115.833 285.583 109.479 281.437C109.479 286.854 108.208 290.667 100.583 290.667" stroke="#333333" stroke-width="3" stroke-linecap="round" stroke-linejoin="round"/>
<path d="M161.583 247.458C161.583 247.458 152.687 242.375 148.875 244.917C145.062 247.458 146.333 252.542 146.333 252.542C142.521 250 136.167 252.542 136.167 258.896C136.167 265.25 142.521 267.792 148.875 265.25C151.417 272.875 157.771 272.875 161.583 270.333" stroke="#333333" stroke-width="3" stroke-linecap="round" stroke-linejoin="round"/>
<path d="M128.542 300.833C146.79 300.833 161.583 286.04 161.583 267.792V234.75C161.583 215.098 145.652 199.167 126 199.167" stroke="#333333" stroke-width="3" stroke-linecap="round" stroke-linejoin="round"/>
<path d="M123.458 300.833C105.21 300.833 90.4165 286.04 90.4165 267.792V234.75C90.4165 215.098 106.348 199.167 126 199.167" stroke="#333333" stroke-width="3" stroke-linecap="round" stroke-linejoin="round"/>
<path d="M176.862 236.867V230.727H213.448V236.867H198.698V278H191.589V236.867H176.862ZM217.297 278V242.545H223.968V248.178H224.337C224.983 246.269 226.122 244.769 227.753 243.676C229.4 242.569 231.262 242.015 233.339 242.015C233.77 242.015 234.278 242.03 234.862 242.061C235.463 242.091 235.932 242.13 236.271 242.176V248.778C235.994 248.701 235.501 248.616 234.793 248.524C234.085 248.416 233.378 248.362 232.67 248.362C231.039 248.362 229.584 248.708 228.307 249.401C227.045 250.078 226.045 251.024 225.306 252.24C224.568 253.44 224.198 254.81 224.198 256.349V278H217.297ZM242.243 278V242.545H249.145V278H242.243ZM245.729 237.075C244.528 237.075 243.497 236.675 242.635 235.875C241.789 235.059 241.366 234.09 241.366 232.966C241.366 231.828 241.789 230.858 242.635 230.058C243.497 229.242 244.528 228.835 245.729 228.835C246.929 228.835 247.952 229.242 248.798 230.058C249.66 230.858 250.091 231.828 250.091 232.966C250.091 234.09 249.66 235.059 248.798 235.875C247.952 236.675 246.929 237.075 245.729 237.075ZM258.43 291.295V242.545H265.17V248.293H265.747C266.147 247.554 266.724 246.7 267.478 245.731C268.232 244.761 269.278 243.915 270.617 243.192C271.956 242.453 273.726 242.084 275.926 242.084C278.788 242.084 281.343 242.807 283.589 244.254C285.836 245.7 287.598 247.785 288.875 250.509C290.168 253.233 290.814 256.51 290.814 260.342C290.814 264.174 290.176 267.459 288.898 270.198C287.621 272.922 285.867 275.022 283.636 276.5C281.404 277.962 278.858 278.692 275.995 278.692C273.841 278.692 272.079 278.331 270.709 277.608C269.355 276.884 268.293 276.038 267.524 275.069C266.755 274.099 266.162 273.237 265.747 272.483H265.331V291.295H258.43ZM265.193 260.273C265.193 262.766 265.554 264.951 266.278 266.828C267.001 268.705 268.047 270.175 269.417 271.237C270.786 272.283 272.464 272.806 274.449 272.806C276.511 272.806 278.234 272.26 279.619 271.168C281.004 270.06 282.051 268.559 282.758 266.667C283.482 264.774 283.843 262.643 283.843 260.273C283.843 257.934 283.489 255.833 282.782 253.971C282.089 252.109 281.043 250.64 279.642 249.562C278.257 248.485 276.526 247.947 274.449 247.947C272.448 247.947 270.756 248.462 269.371 249.493C268.001 250.524 266.962 251.963 266.255 253.81C265.547 255.656 265.193 257.811 265.193 260.273ZM305.154 278L294.721 242.545H301.853L308.801 268.582H309.147L316.118 242.545H323.251L330.175 268.467H330.522L337.423 242.545H344.556L334.146 278H327.105L319.904 252.402H319.373L312.171 278H305.154ZM351.105 278V242.545H358.007V278H351.105ZM354.591 237.075C353.391 237.075 352.36 236.675 351.498 235.875C350.651 235.059 350.228 234.09 350.228 232.966C350.228 231.828 350.651 230.858 351.498 230.058C352.36 229.242 353.391 228.835 354.591 228.835C355.791 228.835 356.814 229.242 357.661 230.058C358.523 230.858 358.953 231.828 358.953 232.966C358.953 234.09 358.523 235.059 357.661 235.875C356.814 236.675 355.791 237.075 354.591 237.075ZM393.86 251.201L387.604 252.309C387.343 251.509 386.927 250.747 386.358 250.024C385.804 249.301 385.05 248.708 384.096 248.247C383.142 247.785 381.949 247.554 380.518 247.554C378.564 247.554 376.933 247.993 375.625 248.87C374.317 249.732 373.663 250.847 373.663 252.217C373.663 253.402 374.101 254.356 374.978 255.079C375.855 255.802 377.271 256.395 379.225 256.857L384.858 258.149C388.12 258.903 390.551 260.065 392.152 261.635C393.752 263.204 394.552 265.243 394.552 267.751C394.552 269.875 393.937 271.768 392.706 273.43C391.49 275.076 389.79 276.369 387.604 277.308C385.435 278.246 382.919 278.716 380.056 278.716C376.086 278.716 372.847 277.869 370.339 276.176C367.83 274.468 366.292 272.045 365.722 268.906L372.393 267.89C372.809 269.629 373.663 270.944 374.955 271.837C376.248 272.714 377.933 273.153 380.01 273.153C382.272 273.153 384.08 272.683 385.435 271.745C386.789 270.791 387.466 269.629 387.466 268.259C387.466 267.151 387.05 266.22 386.219 265.466C385.404 264.712 384.15 264.143 382.457 263.758L376.456 262.442C373.147 261.688 370.7 260.488 369.115 258.842C367.546 257.195 366.761 255.11 366.761 252.586C366.761 250.493 367.346 248.662 368.515 247.093C369.685 245.523 371.301 244.3 373.363 243.423C375.425 242.53 377.787 242.084 380.449 242.084C384.281 242.084 387.297 242.915 389.497 244.577C391.698 246.223 393.152 248.431 393.86 251.201ZM417.421 278.716C413.928 278.716 410.92 277.969 408.396 276.477C405.888 274.969 403.949 272.853 402.579 270.129C401.225 267.39 400.548 264.181 400.548 260.504C400.548 256.872 401.225 253.671 402.579 250.901C403.949 248.131 405.857 245.969 408.304 244.415C410.766 242.861 413.643 242.084 416.936 242.084C418.937 242.084 420.876 242.415 422.753 243.076C424.63 243.738 426.315 244.777 427.808 246.192C429.301 247.608 430.478 249.447 431.34 251.709C432.201 253.956 432.632 256.687 432.632 259.903V262.35H404.449V257.18H425.869C425.869 255.364 425.5 253.756 424.761 252.355C424.023 250.94 422.984 249.824 421.645 249.009C420.322 248.193 418.768 247.785 416.983 247.785C415.044 247.785 413.351 248.262 411.904 249.216C410.473 250.155 409.365 251.386 408.581 252.909C407.811 254.417 407.426 256.056 407.426 257.826V261.865C407.426 264.235 407.842 266.251 408.673 267.913C409.519 269.575 410.696 270.844 412.204 271.722C413.713 272.583 415.474 273.014 417.49 273.014C418.798 273.014 419.991 272.83 421.068 272.46C422.145 272.076 423.076 271.506 423.861 270.752C424.646 269.998 425.246 269.067 425.661 267.959L432.194 269.136C431.671 271.06 430.732 272.745 429.378 274.191C428.039 275.623 426.354 276.738 424.323 277.538C422.307 278.323 420.006 278.716 417.421 278.716Z" fill="black"/>
</svg>
