<svg width="500" height="500" viewBox="0 0 500 500" fill="none" xmlns="http://www.w3.org/2000/svg">
<rect width="500" height="500" fill="white"/>
<path d="M175.25 222.5H107.75V276.5H175.25V222.5Z" stroke="black" stroke-width="4" stroke-linecap="round" stroke-linejoin="round"/>
<path d="M107.75 241.063C107.75 241.063 122.938 230.938 141.5 241.063C160.062 251.188 175.25 241.063 175.25 241.063" stroke="black" stroke-width="4" stroke-linecap="round" stroke-linejoin="round"/>
<path d="M107.75 257.938C107.75 257.938 122.938 247.813 141.5 257.938C160.062 268.063 175.25 257.938 175.25 257.938" stroke="black" stroke-width="4" stroke-linecap="round" stroke-linejoin="round"/>
<path d="M153.313 222.5C153.313 222.5 163.438 236 153.313 249.5C143.188 263 153.313 276.5 153.313 276.5" stroke="black" stroke-width="4" stroke-linecap="round" stroke-linejoin="round"/>
<path d="M129.688 222.5C129.688 222.5 139.813 236 129.688 249.5C119.563 263 129.688 276.5 129.688 276.5" stroke="black" stroke-width="4" stroke-linecap="round" stroke-linejoin="round"/>
<path d="M207.45 274L194.339 226.727H201.841L211.05 263.336H211.489L221.068 226.727H228.501L238.08 263.359H238.518L247.705 226.727H255.23L242.096 274H234.918L224.969 238.592H224.6L214.651 274H207.45ZM268.006 274.785C265.76 274.785 263.728 274.369 261.912 273.538C260.097 272.692 258.658 271.469 257.596 269.868C256.55 268.268 256.026 266.306 256.026 263.982C256.026 261.982 256.411 260.335 257.181 259.043C257.95 257.75 258.989 256.727 260.297 255.973C261.605 255.219 263.067 254.649 264.682 254.265C266.298 253.88 267.945 253.587 269.622 253.387C271.746 253.141 273.469 252.941 274.792 252.787C276.116 252.618 277.078 252.349 277.678 251.979C278.278 251.61 278.578 251.01 278.578 250.179V250.017C278.578 248.002 278.009 246.44 276.87 245.332C275.747 244.224 274.069 243.67 271.838 243.67C269.514 243.67 267.683 244.185 266.344 245.216C265.021 246.232 264.105 247.363 263.597 248.609L257.111 247.132C257.881 244.978 259.004 243.239 260.481 241.915C261.974 240.577 263.69 239.607 265.629 239.007C267.568 238.392 269.607 238.084 271.746 238.084C273.161 238.084 274.662 238.253 276.247 238.592C277.847 238.915 279.34 239.515 280.725 240.392C282.125 241.269 283.271 242.523 284.164 244.154C285.056 245.77 285.503 247.871 285.503 250.456V274H278.763V269.153H278.486C278.039 270.045 277.37 270.922 276.477 271.784C275.585 272.646 274.439 273.361 273.038 273.931C271.638 274.5 269.961 274.785 268.006 274.785ZM269.507 269.245C271.415 269.245 273.046 268.868 274.4 268.114C275.77 267.36 276.808 266.375 277.516 265.159C278.239 263.928 278.601 262.613 278.601 261.212V256.642C278.355 256.888 277.878 257.119 277.17 257.335C276.477 257.535 275.685 257.712 274.792 257.865C273.9 258.004 273.03 258.135 272.184 258.258C271.338 258.366 270.63 258.458 270.061 258.535C268.722 258.704 267.498 258.989 266.39 259.389C265.298 259.789 264.421 260.366 263.759 261.12C263.113 261.859 262.79 262.844 262.79 264.075C262.79 265.783 263.421 267.075 264.682 267.952C265.944 268.814 267.552 269.245 269.507 269.245ZM323.756 238.545L310.899 274H303.513L290.633 238.545H298.042L307.021 265.829H307.391L316.347 238.545H323.756ZM344.317 274.716C340.823 274.716 337.815 273.969 335.291 272.477C332.783 270.969 330.844 268.853 329.475 266.129C328.12 263.39 327.443 260.181 327.443 256.504C327.443 252.872 328.12 249.671 329.475 246.901C330.844 244.131 332.752 241.969 335.199 240.415C337.661 238.861 340.539 238.084 343.832 238.084C345.832 238.084 347.771 238.415 349.649 239.076C351.526 239.738 353.211 240.777 354.704 242.192C356.196 243.608 357.374 245.447 358.235 247.709C359.097 249.956 359.528 252.687 359.528 255.903V258.35H331.344V253.18H352.765C352.765 251.364 352.395 249.756 351.657 248.355C350.918 246.94 349.879 245.824 348.541 245.009C347.217 244.193 345.663 243.785 343.878 243.785C341.939 243.785 340.246 244.262 338.8 245.216C337.369 246.155 336.261 247.386 335.476 248.909C334.707 250.417 334.322 252.056 334.322 253.826V257.865C334.322 260.235 334.737 262.251 335.568 263.913C336.415 265.575 337.592 266.844 339.1 267.722C340.608 268.583 342.37 269.014 344.386 269.014C345.694 269.014 346.886 268.83 347.964 268.46C349.041 268.076 349.972 267.506 350.757 266.752C351.541 265.998 352.142 265.067 352.557 263.959L359.089 265.136C358.566 267.06 357.627 268.745 356.273 270.191C354.934 271.623 353.249 272.738 351.218 273.538C349.202 274.323 346.902 274.716 344.317 274.716ZM370.532 287.295C369.501 287.295 368.563 287.211 367.716 287.042C366.87 286.888 366.239 286.718 365.824 286.534L367.486 280.879C368.747 281.217 369.871 281.363 370.856 281.317C371.84 281.271 372.71 280.902 373.464 280.209C374.233 279.517 374.91 278.386 375.495 276.816L376.349 274.462L363.377 238.545H370.763L379.742 266.06H380.112L389.091 238.545H396.5L381.889 278.732C381.212 280.578 380.35 282.14 379.304 283.418C378.257 284.71 377.011 285.68 375.564 286.326C374.118 286.972 372.441 287.295 370.532 287.295Z" fill="black"/>
</svg>
