<svg width="500" height="500" viewBox="0 0 500 500" fill="none" xmlns="http://www.w3.org/2000/svg">
<rect width="500" height="500" fill="white"/>
<path d="M145 233.042L158.875 225.333L174.291 234.418V267.123L160.416 276.208L129.583 257.708V240.75L160.416 258.039V242.292L145 233.042ZM145 233.042L131.125 225.333L115.709 234.583L115.708 266.958L131.125 276.208L145 266.958" stroke="black" stroke-width="4" stroke-linecap="round" stroke-linejoin="round"/>
<path d="M225.349 226.727V274H218.793L194.765 239.33H194.326V274H187.194V226.727H193.795L217.847 261.443H218.286V226.727H225.349ZM250.48 274.716C246.987 274.716 243.978 273.969 241.454 272.477C238.946 270.969 237.007 268.853 235.638 266.129C234.284 263.39 233.606 260.181 233.606 256.504C233.606 252.872 234.284 249.671 235.638 246.901C237.007 244.131 238.915 241.969 241.362 240.415C243.824 238.861 246.702 238.084 249.995 238.084C251.995 238.084 253.934 238.415 255.812 239.076C257.689 239.738 259.374 240.777 260.867 242.192C262.359 243.608 263.537 245.447 264.398 247.709C265.26 249.956 265.691 252.687 265.691 255.903V258.35H237.507V253.18H258.928C258.928 251.364 258.559 249.756 257.82 248.355C257.081 246.94 256.043 245.824 254.704 245.009C253.38 244.193 251.826 243.785 250.041 243.785C248.102 243.785 246.409 244.262 244.963 245.216C243.532 246.155 242.424 247.386 241.639 248.909C240.87 250.417 240.485 252.056 240.485 253.826V257.865C240.485 260.235 240.9 262.251 241.731 263.913C242.578 265.575 243.755 266.844 245.263 267.722C246.771 268.583 248.533 269.014 250.549 269.014C251.857 269.014 253.05 268.83 254.127 268.46C255.204 268.076 256.135 267.506 256.92 266.752C257.704 265.998 258.305 265.067 258.72 263.959L265.252 265.136C264.729 267.06 263.791 268.745 262.436 270.191C261.098 271.623 259.413 272.738 257.381 273.538C255.365 274.323 253.065 274.716 250.48 274.716ZM288.283 274.716C284.851 274.716 281.897 273.938 279.419 272.384C276.957 270.815 275.064 268.653 273.741 265.898C272.418 263.144 271.756 259.989 271.756 256.434C271.756 252.833 272.433 249.656 273.787 246.901C275.141 244.131 277.049 241.969 279.512 240.415C281.974 238.861 284.874 238.084 288.214 238.084C290.907 238.084 293.307 238.584 295.415 239.584C297.523 240.569 299.224 241.954 300.517 243.739C301.825 245.524 302.602 247.609 302.848 249.994H296.131C295.762 248.332 294.915 246.901 293.592 245.701C292.284 244.501 290.53 243.901 288.329 243.901C286.405 243.901 284.72 244.408 283.274 245.424C281.843 246.424 280.727 247.855 279.927 249.717C279.127 251.564 278.727 253.749 278.727 256.273C278.727 258.858 279.119 261.089 279.904 262.967C280.689 264.844 281.797 266.298 283.228 267.329C284.674 268.36 286.375 268.876 288.329 268.876C289.637 268.876 290.822 268.637 291.884 268.16C292.961 267.668 293.861 266.968 294.584 266.06C295.323 265.152 295.838 264.059 296.131 262.782H302.848C302.602 265.075 301.855 267.121 300.609 268.922C299.362 270.722 297.693 272.138 295.6 273.169C293.523 274.2 291.084 274.716 288.283 274.716ZM326.778 238.545V244.085H307.412V238.545H326.778ZM312.606 230.051H319.508V263.59C319.508 264.929 319.708 265.937 320.108 266.614C320.508 267.275 321.023 267.729 321.654 267.975C322.301 268.206 323.001 268.322 323.755 268.322C324.309 268.322 324.793 268.283 325.209 268.206C325.624 268.129 325.948 268.068 326.178 268.022L327.425 273.723C327.025 273.877 326.455 274.031 325.717 274.185C324.978 274.354 324.055 274.446 322.947 274.462C321.131 274.492 319.438 274.169 317.869 273.492C316.299 272.815 315.03 271.769 314.06 270.353C313.091 268.937 312.606 267.16 312.606 265.021V230.051ZM344.731 274.785C342.484 274.785 340.453 274.369 338.637 273.538C336.821 272.692 335.382 271.469 334.321 269.868C333.274 268.268 332.751 266.306 332.751 263.982C332.751 261.982 333.136 260.335 333.905 259.043C334.675 257.75 335.713 256.727 337.021 255.973C338.329 255.219 339.791 254.649 341.407 254.265C343.023 253.88 344.669 253.587 346.347 253.387C348.47 253.141 350.194 252.941 351.517 252.787C352.84 252.618 353.802 252.349 354.402 251.979C355.002 251.61 355.303 251.01 355.303 250.179V250.017C355.303 248.002 354.733 246.44 353.594 245.332C352.471 244.224 350.794 243.67 348.562 243.67C346.239 243.67 344.408 244.185 343.069 245.216C341.746 246.232 340.83 247.363 340.322 248.609L333.836 247.132C334.605 244.978 335.729 243.239 337.206 241.915C338.699 240.577 340.414 239.607 342.353 239.007C344.292 238.392 346.331 238.084 348.47 238.084C349.886 238.084 351.386 238.253 352.971 238.592C354.572 238.915 356.064 239.515 357.449 240.392C358.85 241.269 359.996 242.523 360.888 244.154C361.781 245.77 362.227 247.871 362.227 250.456V274H355.487V269.153H355.21C354.764 270.045 354.095 270.922 353.202 271.784C352.31 272.646 351.163 273.361 349.763 273.931C348.362 274.5 346.685 274.785 344.731 274.785ZM346.231 269.245C348.139 269.245 349.77 268.868 351.125 268.114C352.494 267.36 353.533 266.375 354.241 265.159C354.964 263.928 355.326 262.613 355.326 261.212V256.642C355.079 256.888 354.602 257.119 353.895 257.335C353.202 257.535 352.41 257.712 351.517 257.865C350.625 258.004 349.755 258.135 348.909 258.258C348.062 258.366 347.355 258.458 346.785 258.535C345.446 258.704 344.223 258.989 343.115 259.389C342.022 259.789 341.145 260.366 340.484 261.12C339.837 261.859 339.514 262.844 339.514 264.075C339.514 265.783 340.145 267.075 341.407 267.952C342.669 268.814 344.277 269.245 346.231 269.245ZM371.42 274V238.545H378.091V244.178H378.46C379.106 242.269 380.245 240.769 381.876 239.676C383.523 238.569 385.385 238.015 387.462 238.015C387.893 238.015 388.401 238.03 388.986 238.061C389.586 238.091 390.055 238.13 390.394 238.176V244.778C390.117 244.701 389.624 244.616 388.916 244.524C388.208 244.416 387.501 244.362 386.793 244.362C385.162 244.362 383.707 244.708 382.43 245.401C381.168 246.078 380.168 247.024 379.429 248.24C378.691 249.44 378.321 250.81 378.321 252.349V274H371.42Z" fill="black"/>
</svg>
