<svg width="500" height="500" viewBox="0 0 500 500" fill="none" xmlns="http://www.w3.org/2000/svg">
<rect width="500" height="500" fill="white"/>
<path d="M130.667 220.833V279.167" stroke="black" stroke-width="6" stroke-linecap="round" stroke-linejoin="round"/>
<path d="M183.166 232.5H124.833" stroke="black" stroke-width="6" stroke-linecap="round" stroke-linejoin="round"/>
<path d="M177.334 279.167L130.667 232.5" stroke="black" stroke-width="6" stroke-linecap="round" stroke-linejoin="round"/>
<path d="M130.667 279.167L177.334 232.5" stroke="black" stroke-width="6" stroke-linecap="round" stroke-linejoin="round"/>
<path d="M158.375 279.167L130.667 251.458" stroke="black" stroke-width="6" stroke-linecap="round" stroke-linejoin="round"/>
<path d="M177.333 260.208L149.625 232.5" stroke="black" stroke-width="6" stroke-linecap="round" stroke-linejoin="round"/>
<path d="M130.667 260.208L156.917 232.5" stroke="black" stroke-width="6" stroke-linecap="round" stroke-linejoin="round"/>
<path d="M149.625 279.167L177.333 251.458" stroke="black" stroke-width="6" stroke-linecap="round" stroke-linejoin="round"/>
<path d="M183.166 279.167H124.833" stroke="black" stroke-width="6" stroke-linecap="round" stroke-linejoin="round"/>
<path d="M177.333 220.833V279.167" stroke="black" stroke-width="6" stroke-linecap="round" stroke-linejoin="round"/>
<path d="M198.194 279V231.727H227.508V237.867H205.326V252.271H225.408V258.387H205.326V279H198.194ZM248.403 279.716C244.91 279.716 241.902 278.969 239.378 277.477C236.87 275.969 234.931 273.853 233.562 271.129C232.207 268.39 231.53 265.181 231.53 261.504C231.53 257.872 232.207 254.671 233.562 251.901C234.931 249.131 236.839 246.969 239.286 245.415C241.748 243.861 244.626 243.084 247.919 243.084C249.919 243.084 251.858 243.415 253.736 244.076C255.613 244.738 257.298 245.777 258.791 247.192C260.283 248.608 261.46 250.447 262.322 252.709C263.184 254.956 263.615 257.687 263.615 260.903V263.35H235.431V258.18H256.852C256.852 256.364 256.482 254.756 255.744 253.355C255.005 251.94 253.966 250.824 252.628 250.009C251.304 249.193 249.75 248.785 247.965 248.785C246.026 248.785 244.333 249.262 242.887 250.216C241.456 251.155 240.348 252.386 239.563 253.909C238.794 255.417 238.409 257.056 238.409 258.826V262.865C238.409 265.235 238.824 267.251 239.655 268.913C240.502 270.575 241.679 271.844 243.187 272.722C244.695 273.583 246.457 274.014 248.473 274.014C249.781 274.014 250.973 273.83 252.051 273.46C253.128 273.076 254.059 272.506 254.843 271.752C255.628 270.998 256.228 270.067 256.644 268.959L263.176 270.136C262.653 272.06 261.714 273.745 260.36 275.191C259.021 276.623 257.336 277.738 255.305 278.538C253.289 279.323 250.989 279.716 248.403 279.716ZM278.174 257.949V279H271.272V243.545H277.897V249.316H278.336C279.151 247.439 280.428 245.931 282.167 244.792C283.922 243.653 286.13 243.084 288.792 243.084C291.208 243.084 293.324 243.592 295.14 244.607C296.955 245.607 298.363 247.1 299.364 249.085C300.364 251.07 300.864 253.525 300.864 256.449V279H293.962V257.279C293.962 254.71 293.293 252.701 291.954 251.255C290.615 249.793 288.777 249.062 286.438 249.062C284.837 249.062 283.414 249.408 282.167 250.101C280.936 250.793 279.959 251.809 279.236 253.148C278.528 254.471 278.174 256.071 278.174 257.949ZM325.054 279.716C321.623 279.716 318.668 278.938 316.191 277.384C313.729 275.815 311.836 273.653 310.512 270.898C309.189 268.144 308.527 264.989 308.527 261.434C308.527 257.833 309.204 254.656 310.559 251.901C311.913 249.131 313.821 246.969 316.283 245.415C318.745 243.861 321.646 243.084 324.985 243.084C327.678 243.084 330.079 243.584 332.187 244.584C334.295 245.569 335.995 246.954 337.288 248.739C338.596 250.524 339.373 252.609 339.619 254.994H332.902C332.533 253.332 331.687 251.901 330.363 250.701C329.055 249.501 327.301 248.901 325.1 248.901C323.177 248.901 321.492 249.408 320.045 250.424C318.614 251.424 317.499 252.855 316.699 254.717C315.898 256.564 315.498 258.749 315.498 261.273C315.498 263.858 315.891 266.089 316.675 267.967C317.46 269.844 318.568 271.298 319.999 272.329C321.446 273.36 323.146 273.876 325.1 273.876C326.408 273.876 327.593 273.637 328.655 273.16C329.732 272.668 330.633 271.968 331.356 271.06C332.094 270.152 332.61 269.059 332.902 267.782H339.619C339.373 270.075 338.627 272.121 337.38 273.922C336.134 275.722 334.464 277.138 332.371 278.169C330.294 279.2 327.855 279.716 325.054 279.716ZM362.28 279.716C358.787 279.716 355.779 278.969 353.255 277.477C350.747 275.969 348.808 273.853 347.438 271.129C346.084 268.39 345.407 265.181 345.407 261.504C345.407 257.872 346.084 254.671 347.438 251.901C348.808 249.131 350.716 246.969 353.163 245.415C355.625 243.861 358.503 243.084 361.796 243.084C363.796 243.084 365.735 243.415 367.612 244.076C369.49 244.738 371.175 245.777 372.668 247.192C374.16 248.608 375.337 250.447 376.199 252.709C377.061 254.956 377.492 257.687 377.492 260.903V263.35H349.308V258.18H370.729C370.729 256.364 370.359 254.756 369.621 253.355C368.882 251.94 367.843 250.824 366.505 250.009C365.181 249.193 363.627 248.785 361.842 248.785C359.903 248.785 358.21 249.262 356.764 250.216C355.333 251.155 354.225 252.386 353.44 253.909C352.67 255.417 352.286 257.056 352.286 258.826V262.865C352.286 265.235 352.701 267.251 353.532 268.913C354.379 270.575 355.556 271.844 357.064 272.722C358.572 273.583 360.334 274.014 362.35 274.014C363.658 274.014 364.85 273.83 365.927 273.46C367.005 273.076 367.936 272.506 368.72 271.752C369.505 270.998 370.105 270.067 370.521 268.959L377.053 270.136C376.53 272.06 375.591 273.745 374.237 275.191C372.898 276.623 371.213 277.738 369.182 278.538C367.166 279.323 364.866 279.716 362.28 279.716Z" fill="black"/>
</svg>
