<svg width="500" height="500" viewBox="0 0 500 500" fill="none" xmlns="http://www.w3.org/2000/svg">
<rect width="500" height="500" fill="white"/>
<path d="M147 214H85V285H147V253.974H124.834" stroke="black" stroke-width="13" stroke-linecap="round" stroke-linejoin="round"/>
<path d="M200.186 251.662C199.739 250.261 199.139 249.007 198.385 247.899C197.647 246.776 196.762 245.822 195.731 245.037C194.7 244.237 193.523 243.629 192.199 243.213C190.891 242.798 189.452 242.59 187.883 242.59C185.221 242.59 182.82 243.275 180.681 244.645C178.542 246.014 176.849 248.022 175.603 250.669C174.372 253.3 173.756 256.524 173.756 260.341C173.756 264.172 174.38 267.411 175.626 270.058C176.873 272.705 178.581 274.713 180.75 276.083C182.92 277.452 185.39 278.137 188.16 278.137C190.73 278.137 192.969 277.614 194.877 276.567C196.8 275.521 198.285 274.044 199.332 272.136C200.393 270.212 200.924 267.95 200.924 265.349L202.771 265.696H189.245V259.81H207.826V265.188C207.826 269.158 206.98 272.605 205.287 275.529C203.61 278.437 201.286 280.684 198.316 282.269C195.362 283.854 191.976 284.646 188.16 284.646C183.882 284.646 180.127 283.661 176.896 281.692C173.679 279.722 171.171 276.929 169.371 273.313C167.57 269.681 166.67 265.373 166.67 260.387C166.67 256.617 167.193 253.231 168.24 250.23C169.286 247.23 170.756 244.683 172.648 242.59C174.557 240.482 176.796 238.874 179.365 237.766C181.951 236.643 184.774 236.081 187.837 236.081C190.391 236.081 192.769 236.458 194.969 237.212C197.185 237.966 199.155 239.036 200.878 240.42C202.617 241.805 204.056 243.452 205.195 245.36C206.333 247.253 207.103 249.353 207.503 251.662H200.186ZM223.228 236.727V284H216.326V236.727H223.228ZM232.513 284V248.545H239.414V284H232.513ZM235.998 243.075C234.798 243.075 233.767 242.675 232.905 241.875C232.059 241.059 231.635 240.09 231.635 238.966C231.635 237.828 232.059 236.858 232.905 236.058C233.767 235.242 234.798 234.835 235.998 234.835C237.198 234.835 238.222 235.242 239.068 236.058C239.93 236.858 240.361 237.828 240.361 238.966C240.361 240.09 239.93 241.059 239.068 241.875C238.222 242.675 237.198 243.075 235.998 243.075ZM248.699 284V248.545H255.324V254.316H255.762C256.501 252.362 257.709 250.838 259.386 249.746C261.064 248.638 263.072 248.084 265.411 248.084C267.781 248.084 269.766 248.638 271.366 249.746C272.982 250.854 274.174 252.377 274.944 254.316H275.313C276.159 252.423 277.506 250.915 279.353 249.792C281.199 248.653 283.4 248.084 285.954 248.084C289.17 248.084 291.794 249.092 293.825 251.108C295.872 253.123 296.895 256.163 296.895 260.225V284H289.994V260.871C289.994 258.471 289.34 256.732 288.032 255.655C286.724 254.578 285.162 254.039 283.346 254.039C281.099 254.039 279.353 254.732 278.106 256.116C276.86 257.486 276.236 259.248 276.236 261.402V284H269.358V260.433C269.358 258.509 268.758 256.963 267.557 255.793C266.357 254.624 264.795 254.039 262.872 254.039C261.564 254.039 260.356 254.385 259.248 255.078C258.155 255.755 257.27 256.701 256.593 257.917C255.932 259.133 255.601 260.541 255.601 262.141V284H248.699ZM306.145 297.295V248.545H312.885V254.293H313.463C313.863 253.554 314.44 252.7 315.194 251.731C315.948 250.761 316.994 249.915 318.333 249.192C319.672 248.453 321.441 248.084 323.642 248.084C326.504 248.084 329.059 248.807 331.305 250.254C333.552 251.7 335.314 253.785 336.591 256.509C337.884 259.233 338.53 262.51 338.53 266.342C338.53 270.174 337.891 273.459 336.614 276.198C335.337 278.922 333.583 281.022 331.351 282.5C329.12 283.962 326.573 284.692 323.711 284.692C321.557 284.692 319.795 284.331 318.425 283.608C317.071 282.884 316.009 282.038 315.24 281.069C314.47 280.099 313.878 279.237 313.463 278.483H313.047V297.295H306.145ZM312.909 266.273C312.909 268.766 313.27 270.951 313.993 272.828C314.717 274.705 315.763 276.175 317.133 277.237C318.502 278.283 320.18 278.806 322.165 278.806C324.227 278.806 325.95 278.26 327.335 277.168C328.72 276.06 329.766 274.559 330.474 272.667C331.198 270.774 331.559 268.643 331.559 266.273C331.559 263.934 331.205 261.833 330.497 259.971C329.805 258.109 328.758 256.64 327.358 255.562C325.973 254.485 324.242 253.947 322.165 253.947C320.164 253.947 318.471 254.462 317.086 255.493C315.717 256.524 314.678 257.963 313.97 259.81C313.262 261.656 312.909 263.811 312.909 266.273ZM372.83 257.201L366.575 258.309C366.314 257.509 365.898 256.747 365.329 256.024C364.775 255.301 364.021 254.708 363.067 254.247C362.113 253.785 360.92 253.554 359.489 253.554C357.535 253.554 355.903 253.993 354.595 254.87C353.287 255.732 352.633 256.847 352.633 258.217C352.633 259.402 353.072 260.356 353.949 261.079C354.826 261.802 356.242 262.395 358.196 262.857L363.828 264.149C367.091 264.903 369.522 266.065 371.122 267.635C372.723 269.204 373.523 271.243 373.523 273.751C373.523 275.875 372.907 277.768 371.676 279.43C370.461 281.076 368.76 282.369 366.575 283.308C364.405 284.246 361.889 284.716 359.027 284.716C355.057 284.716 351.818 283.869 349.309 282.176C346.801 280.468 345.262 278.045 344.693 274.906L351.364 273.89C351.779 275.629 352.633 276.944 353.926 277.837C355.219 278.714 356.904 279.153 358.981 279.153C361.243 279.153 363.051 278.683 364.405 277.745C365.76 276.791 366.437 275.629 366.437 274.259C366.437 273.151 366.021 272.22 365.19 271.466C364.375 270.712 363.12 270.143 361.428 269.758L355.426 268.442C352.118 267.688 349.671 266.488 348.086 264.842C346.517 263.195 345.732 261.11 345.732 258.586C345.732 256.493 346.316 254.662 347.486 253.093C348.655 251.523 350.271 250.3 352.333 249.423C354.395 248.53 356.757 248.084 359.42 248.084C363.251 248.084 366.267 248.915 368.468 250.577C370.668 252.223 372.123 254.431 372.83 257.201ZM396.392 284.716C392.899 284.716 389.89 283.969 387.367 282.477C384.858 280.969 382.919 278.853 381.55 276.129C380.196 273.39 379.519 270.181 379.519 266.504C379.519 262.872 380.196 259.671 381.55 256.901C382.919 254.131 384.828 251.969 387.274 250.415C389.736 248.861 392.614 248.084 395.907 248.084C397.908 248.084 399.846 248.415 401.724 249.076C403.601 249.738 405.286 250.777 406.779 252.192C408.272 253.608 409.449 255.447 410.31 257.709C411.172 259.956 411.603 262.687 411.603 265.903V268.35H383.419V263.18H404.84C404.84 261.364 404.471 259.756 403.732 258.355C402.993 256.94 401.955 255.824 400.616 255.009C399.292 254.193 397.738 253.785 395.953 253.785C394.014 253.785 392.322 254.262 390.875 255.216C389.444 256.155 388.336 257.386 387.551 258.909C386.782 260.417 386.397 262.056 386.397 263.826V267.865C386.397 270.235 386.813 272.251 387.644 273.913C388.49 275.575 389.667 276.844 391.175 277.722C392.683 278.583 394.445 279.014 396.461 279.014C397.769 279.014 398.962 278.83 400.039 278.46C401.116 278.076 402.047 277.506 402.832 276.752C403.617 275.998 404.217 275.067 404.632 273.959L411.165 275.136C410.641 277.06 409.703 278.745 408.348 280.191C407.01 281.623 405.325 282.738 403.293 283.538C401.278 284.323 398.977 284.716 396.392 284.716Z" fill="black"/>
</svg>
