<svg width="500" height="500" viewBox="0 0 500 500" fill="none" xmlns="http://www.w3.org/2000/svg">
<rect width="500" height="500" fill="white"/>
<path fill-rule="evenodd" clip-rule="evenodd" d="M166 270C177.046 270 186 261.046 186 250C186 238.954 177.046 230 166 230C154.954 230 146 238.954 146 250C146 261.046 154.954 270 166 270ZM163.25 251C163.25 247.618 163.663 244.594 164.306 242.449C164.63 241.369 164.995 240.569 165.356 240.061C165.735 239.527 165.967 239.5 166 239.5C166.033 239.5 166.265 239.527 166.644 240.061C167.005 240.569 167.37 241.369 167.694 242.449C168.337 244.594 168.75 247.618 168.75 251C168.75 254.382 168.337 257.406 167.694 259.551C167.37 260.631 167.005 261.431 166.644 261.939C166.265 262.473 166.033 262.5 166 262.5C165.967 262.5 165.735 262.473 165.356 261.939C164.995 261.431 164.63 260.631 164.306 259.551C163.663 257.406 163.25 254.382 163.25 251ZM169.609 241.874C169.682 242.117 169.752 242.369 169.819 242.63C169.993 242.115 170.191 241.657 170.416 241.277C170.746 240.719 171.333 240 172.25 240C173.167 240 173.754 240.719 174.084 241.277C174.453 241.902 174.751 242.739 174.988 243.686C175.165 244.397 175.316 245.2 175.436 246.075C175.746 245.82 176.144 245.625 176.625 245.625C177.273 245.625 177.77 245.979 178.103 246.355C178.437 246.732 178.693 247.22 178.887 247.738C179.278 248.782 179.5 250.156 179.5 251.625C179.5 253.094 179.278 254.468 178.887 255.512C178.693 256.03 178.437 256.518 178.103 256.895C177.77 257.271 177.273 257.625 176.625 257.625C176.049 257.625 175.592 257.345 175.263 257.019C175.181 257.478 175.089 257.911 174.988 258.314C174.751 259.261 174.453 260.098 174.084 260.723C173.754 261.281 173.167 262 172.25 262C171.333 262 170.746 261.281 170.416 260.723C170.191 260.343 169.993 259.885 169.819 259.37C169.752 259.631 169.682 259.883 169.609 260.126C169.255 261.309 168.812 262.339 168.275 263.096C167.757 263.827 167.003 264.5 166 264.5C164.997 264.5 164.243 263.827 163.725 263.096C163.188 262.339 162.745 261.309 162.391 260.126C162.318 259.883 162.248 259.631 162.181 259.37C162.007 259.885 161.809 260.343 161.584 260.723C161.254 261.281 160.667 262 159.75 262C158.833 262 158.246 261.281 157.916 260.723C157.547 260.098 157.249 259.261 157.012 258.314C156.911 257.911 156.819 257.478 156.737 257.019C156.408 257.345 155.951 257.625 155.375 257.625C154.727 257.625 154.23 257.271 153.897 256.895C153.563 256.518 153.307 256.03 153.113 255.512C152.722 254.468 152.5 253.094 152.5 251.625C152.5 250.156 152.722 248.782 153.113 247.738C153.307 247.22 153.563 246.732 153.897 246.355C154.23 245.979 154.727 245.625 155.375 245.625C155.856 245.625 156.254 245.82 156.564 246.075C156.684 245.2 156.835 244.397 157.012 243.686C157.249 242.739 157.547 241.902 157.916 241.277C158.246 240.719 158.833 240 159.75 240C160.667 240 161.254 240.719 161.584 241.277C161.809 241.657 162.007 242.115 162.181 242.63C162.248 242.369 162.318 242.117 162.391 241.874C162.745 240.691 163.188 239.661 163.725 238.904C164.243 238.173 164.997 237.5 166 237.5C167.003 237.5 167.757 238.173 168.275 238.904C168.812 239.661 169.255 240.691 169.609 241.874ZM171.452 257.829C171.025 256.119 170.75 253.704 170.75 251C170.75 248.296 171.025 245.881 171.452 244.171C171.668 243.309 171.909 242.682 172.138 242.295C172.18 242.223 172.218 242.166 172.25 242.122C172.282 242.166 172.32 242.223 172.362 242.295C172.591 242.682 172.832 243.309 173.048 244.171C173.475 245.881 173.75 248.296 173.75 251C173.75 253.704 173.475 256.119 173.048 257.829C172.832 258.691 172.591 259.318 172.362 259.705C172.32 259.777 172.282 259.834 172.25 259.878C172.218 259.834 172.18 259.777 172.138 259.705C171.909 259.318 171.668 258.691 171.452 257.829ZM172.383 241.975C172.385 241.974 172.386 241.973 172.386 241.973C172.386 241.973 172.386 241.973 172.385 241.973C172.385 241.974 172.384 241.974 172.383 241.975ZM172.117 241.975C172.115 241.974 172.114 241.973 172.114 241.973C172.114 241.973 172.115 241.973 172.117 241.975ZM172.114 260.027C172.114 260.027 172.115 260.026 172.117 260.025C172.115 260.027 172.114 260.027 172.114 260.027ZM172.383 260.025C172.385 260.026 172.386 260.027 172.386 260.027C172.386 260.027 172.385 260.027 172.383 260.025ZM158.25 251C158.25 248.296 158.525 245.881 158.952 244.171C159.168 243.309 159.409 242.682 159.638 242.295C159.68 242.223 159.718 242.166 159.75 242.122C159.782 242.166 159.82 242.223 159.862 242.295C160.091 242.682 160.332 243.309 160.548 244.171C160.975 245.881 161.25 248.296 161.25 251C161.25 253.704 160.975 256.119 160.548 257.829C160.332 258.691 160.091 259.318 159.862 259.705C159.82 259.777 159.782 259.834 159.75 259.878C159.718 259.834 159.68 259.777 159.638 259.705C159.409 259.318 159.168 258.691 158.952 257.829C158.525 256.119 158.25 253.704 158.25 251ZM159.883 241.975C159.885 241.974 159.886 241.973 159.886 241.973C159.886 241.973 159.885 241.973 159.885 241.973C159.884 241.974 159.884 241.974 159.883 241.975ZM159.617 241.975C159.615 241.974 159.614 241.973 159.614 241.973C159.614 241.973 159.615 241.973 159.617 241.975ZM159.614 260.027C159.614 260.027 159.615 260.026 159.617 260.025C159.615 260.027 159.614 260.027 159.614 260.027ZM159.883 260.025C159.885 260.026 159.886 260.027 159.886 260.027C159.886 260.027 159.885 260.027 159.883 260.025ZM154.5 251.625C154.5 250.332 154.698 249.207 154.986 248.441C155.123 248.074 155.263 247.836 155.375 247.703C155.487 247.836 155.627 248.074 155.764 248.441C156.052 249.207 156.25 250.332 156.25 251.625C156.25 252.918 156.052 254.043 155.764 254.809C155.627 255.176 155.487 255.414 155.375 255.547C155.263 255.414 155.123 255.176 154.986 254.809C154.698 254.043 154.5 252.918 154.5 251.625ZM155.476 247.604C155.476 247.604 155.475 247.605 155.471 247.607C155.475 247.605 155.476 247.604 155.476 247.604ZM155.275 247.605C155.276 247.606 155.277 247.606 155.279 247.607C155.275 247.605 155.274 247.604 155.274 247.604C155.274 247.604 155.274 247.605 155.275 247.605ZM155.274 255.646C155.274 255.646 155.275 255.645 155.279 255.643C155.275 255.645 155.274 255.646 155.274 255.646ZM155.476 255.646C155.476 255.646 155.475 255.645 155.471 255.643C155.472 255.644 155.473 255.644 155.474 255.644C155.475 255.646 155.476 255.646 155.476 255.646ZM175.75 251.625C175.75 250.332 175.948 249.207 176.236 248.441C176.373 248.074 176.513 247.836 176.625 247.703C176.737 247.836 176.877 248.074 177.014 248.441C177.302 249.207 177.5 250.332 177.5 251.625C177.5 252.918 177.302 254.043 177.014 254.809C176.877 255.176 176.737 255.414 176.625 255.547C176.513 255.414 176.373 255.176 176.236 254.809C175.948 254.043 175.75 252.918 175.75 251.625ZM176.726 247.604C176.726 247.604 176.725 247.605 176.721 247.607C176.725 247.605 176.726 247.604 176.726 247.604ZM176.524 247.604C176.524 247.604 176.525 247.605 176.529 247.607C176.526 247.605 176.525 247.605 176.524 247.604C176.524 247.604 176.524 247.604 176.524 247.604ZM176.524 255.646C176.524 255.646 176.525 255.645 176.529 255.643C176.525 255.645 176.524 255.646 176.524 255.646ZM176.724 255.644C176.723 255.644 176.722 255.643 176.721 255.643C176.725 255.645 176.726 255.646 176.726 255.646C176.726 255.646 176.726 255.645 176.724 255.644Z" fill="black"/>
<path d="M187.257 250.364C187.257 255.411 186.334 259.75 184.487 263.382C182.641 266.998 180.109 269.784 176.893 271.738C173.692 273.677 170.053 274.646 165.975 274.646C161.882 274.646 158.227 273.677 155.011 271.738C151.81 269.784 149.287 266.991 147.44 263.359C145.593 259.727 144.67 255.396 144.67 250.364C144.67 245.316 145.593 240.984 147.44 237.368C149.287 233.737 151.81 230.951 155.011 229.012C158.227 227.058 161.882 226.081 165.975 226.081C170.053 226.081 173.692 227.058 176.893 229.012C180.109 230.951 182.641 233.737 184.487 237.368C186.334 240.984 187.257 245.316 187.257 250.364ZM180.194 250.364C180.194 246.517 179.571 243.277 178.324 240.646C177.093 237.999 175.4 235.999 173.246 234.645C171.107 233.275 168.683 232.59 165.975 232.59C163.251 232.59 160.82 233.275 158.681 234.645C156.542 235.999 154.849 237.999 153.603 240.646C152.372 243.277 151.756 246.517 151.756 250.364C151.756 254.211 152.372 257.458 153.603 260.104C154.849 262.736 156.542 264.736 158.681 266.106C160.82 267.46 163.251 268.137 165.975 268.137C168.683 268.137 171.107 267.46 173.246 266.106C175.4 264.736 177.093 262.736 178.324 260.104C179.571 257.458 180.194 254.211 180.194 250.364ZM205.913 274.785C203.667 274.785 201.636 274.369 199.82 273.538C198.004 272.692 196.565 271.469 195.503 269.868C194.457 268.268 193.934 266.306 193.934 263.982C193.934 261.982 194.318 260.335 195.088 259.043C195.857 257.75 196.896 256.727 198.204 255.973C199.512 255.219 200.974 254.649 202.59 254.265C204.205 253.88 205.852 253.587 207.529 253.387C209.653 253.141 211.376 252.941 212.7 252.787C214.023 252.618 214.985 252.349 215.585 251.979C216.185 251.61 216.485 251.01 216.485 250.179V250.017C216.485 248.002 215.916 246.44 214.777 245.332C213.654 244.224 211.976 243.67 209.745 243.67C207.421 243.67 205.59 244.185 204.252 245.216C202.928 246.232 202.013 247.363 201.505 248.609L195.019 247.132C195.788 244.978 196.911 243.239 198.389 241.915C199.881 240.577 201.597 239.607 203.536 239.007C205.475 238.392 207.514 238.084 209.653 238.084C211.069 238.084 212.569 238.253 214.154 238.592C215.754 238.915 217.247 239.515 218.632 240.392C220.032 241.269 221.179 242.523 222.071 244.154C222.964 245.77 223.41 247.871 223.41 250.456V274H216.67V269.153H216.393C215.947 270.045 215.277 270.922 214.385 271.784C213.492 272.646 212.346 273.361 210.945 273.931C209.545 274.5 207.868 274.785 205.913 274.785ZM207.414 269.245C209.322 269.245 210.953 268.868 212.307 268.114C213.677 267.36 214.716 266.375 215.423 265.159C216.147 263.928 216.508 262.613 216.508 261.212V256.642C216.262 256.888 215.785 257.119 215.077 257.335C214.385 257.535 213.592 257.712 212.7 257.865C211.807 258.004 210.938 258.135 210.091 258.258C209.245 258.366 208.537 258.458 207.968 258.535C206.629 258.704 205.406 258.989 204.298 259.389C203.205 259.789 202.328 260.366 201.666 261.12C201.02 261.859 200.697 262.844 200.697 264.075C200.697 265.783 201.328 267.075 202.59 267.952C203.851 268.814 205.459 269.245 207.414 269.245ZM259.17 247.201L252.915 248.309C252.653 247.509 252.238 246.747 251.669 246.024C251.115 245.301 250.361 244.708 249.406 244.247C248.452 243.785 247.26 243.554 245.829 243.554C243.874 243.554 242.243 243.993 240.935 244.87C239.627 245.732 238.973 246.847 238.973 248.217C238.973 249.402 239.412 250.356 240.289 251.079C241.166 251.802 242.582 252.395 244.536 252.857L250.168 254.149C253.43 254.903 255.862 256.065 257.462 257.635C259.063 259.204 259.863 261.243 259.863 263.751C259.863 265.875 259.247 267.768 258.016 269.43C256.8 271.076 255.1 272.369 252.915 273.308C250.745 274.246 248.229 274.716 245.367 274.716C241.397 274.716 238.158 273.869 235.649 272.176C233.141 270.468 231.602 268.045 231.033 264.906L237.704 263.89C238.119 265.629 238.973 266.944 240.266 267.837C241.558 268.714 243.243 269.153 245.321 269.153C247.583 269.153 249.391 268.683 250.745 267.745C252.099 266.791 252.776 265.629 252.776 264.259C252.776 263.151 252.361 262.22 251.53 261.466C250.714 260.712 249.46 260.143 247.768 259.758L241.766 258.442C238.458 257.688 236.011 256.488 234.426 254.842C232.856 253.195 232.072 251.11 232.072 248.586C232.072 246.493 232.656 244.662 233.826 243.093C234.995 241.523 236.611 240.3 238.673 239.423C240.735 238.53 243.097 238.084 245.759 238.084C249.591 238.084 252.607 238.915 254.808 240.577C257.008 242.223 258.462 244.431 259.17 247.201ZM267.451 274V238.545H274.353V274H267.451ZM270.937 233.075C269.736 233.075 268.705 232.675 267.843 231.875C266.997 231.059 266.574 230.09 266.574 228.966C266.574 227.828 266.997 226.858 267.843 226.058C268.705 225.242 269.736 224.835 270.937 224.835C272.137 224.835 273.16 225.242 274.006 226.058C274.868 226.858 275.299 227.828 275.299 228.966C275.299 230.09 274.868 231.059 274.006 231.875C273.16 232.675 272.137 233.075 270.937 233.075ZM310.205 247.201L303.95 248.309C303.689 247.509 303.273 246.747 302.704 246.024C302.15 245.301 301.396 244.708 300.442 244.247C299.488 243.785 298.295 243.554 296.864 243.554C294.91 243.554 293.278 243.993 291.97 244.87C290.662 245.732 290.008 246.847 290.008 248.217C290.008 249.402 290.447 250.356 291.324 251.079C292.201 251.802 293.617 252.395 295.571 252.857L301.203 254.149C304.466 254.903 306.897 256.065 308.497 257.635C310.098 259.204 310.898 261.243 310.898 263.751C310.898 265.875 310.282 267.768 309.051 269.43C307.836 271.076 306.135 272.369 303.95 273.308C301.78 274.246 299.264 274.716 296.402 274.716C292.432 274.716 289.193 273.869 286.684 272.176C284.176 270.468 282.637 268.045 282.068 264.906L288.739 263.89C289.154 265.629 290.008 266.944 291.301 267.837C292.594 268.714 294.279 269.153 296.356 269.153C298.618 269.153 300.426 268.683 301.78 267.745C303.135 266.791 303.812 265.629 303.812 264.259C303.812 263.151 303.396 262.22 302.565 261.466C301.75 260.712 300.495 260.143 298.803 259.758L292.801 258.442C289.493 257.688 287.046 256.488 285.461 254.842C283.892 253.195 283.107 251.11 283.107 248.586C283.107 246.493 283.691 244.662 284.861 243.093C286.03 241.523 287.646 240.3 289.708 239.423C291.77 238.53 294.132 238.084 296.795 238.084C300.626 238.084 303.642 238.915 305.843 240.577C308.043 242.223 309.498 244.431 310.205 247.201Z" fill="black"/>
</svg>
