<svg width="500" height="500" viewBox="0 0 500 500" fill="none" xmlns="http://www.w3.org/2000/svg">
<rect width="500" height="500" fill="white"/>
<path d="M132.713 227.246C132.358 227.19 132.4 226.667 132.759 226.667H154.604C155.007 226.667 155.333 226.993 155.333 227.396V249.241C155.333 249.6 154.81 249.642 154.754 249.287L151.885 231.325C151.786 230.703 151.297 230.214 150.675 230.115L132.713 227.246Z" fill="black" stroke="black" stroke-width="2" stroke-linecap="round"/>
<path d="M106.463 253.496C106.108 253.44 106.15 252.917 106.509 252.917H128.354C128.757 252.917 129.083 253.243 129.083 253.646V275.491C129.083 275.85 128.56 275.892 128.504 275.537L125.635 257.575C125.536 256.953 125.047 256.464 124.425 256.365L106.463 253.496Z" fill="black" stroke="black" stroke-width="2" stroke-linecap="round"/>
<path d="M119.588 240.371C119.233 240.315 119.275 239.792 119.634 239.792H141.479C141.882 239.792 142.208 240.118 142.208 240.521V262.366C142.208 262.725 141.685 262.767 141.629 262.412L138.927 245.494C138.728 244.249 137.751 243.272 136.506 243.073L119.588 240.371Z" fill="black" stroke="black" stroke-width="2" stroke-linecap="round"/>
<path d="M184.575 258.673H191.592L196.531 265.113L198.863 267.975L206.734 278.247H199.44L194.177 271.392L192.376 268.899L184.575 258.673ZM208.257 250.364C208.257 255.411 207.334 259.75 205.487 263.382C203.641 266.998 201.109 269.784 197.893 271.738C194.692 273.677 191.053 274.646 186.975 274.646C182.882 274.646 179.227 273.677 176.011 271.738C172.81 269.784 170.287 266.991 168.44 263.359C166.593 259.727 165.67 255.396 165.67 250.364C165.67 245.316 166.593 240.984 168.44 237.368C170.287 233.737 172.81 230.951 176.011 229.012C179.227 227.058 182.882 226.081 186.975 226.081C191.053 226.081 194.692 227.058 197.893 229.012C201.109 230.951 203.641 233.737 205.487 237.368C207.334 240.984 208.257 245.316 208.257 250.364ZM201.194 250.364C201.194 246.517 200.571 243.277 199.324 240.646C198.093 237.999 196.4 235.999 194.246 234.645C192.107 233.275 189.683 232.59 186.975 232.59C184.251 232.59 181.82 233.275 179.681 234.645C177.542 235.999 175.849 237.999 174.603 240.646C173.372 243.277 172.756 246.517 172.756 250.364C172.756 254.211 173.372 257.458 174.603 260.104C175.849 262.736 177.542 264.736 179.681 266.106C181.82 267.46 184.251 268.137 186.975 268.137C189.683 268.137 192.107 267.46 194.246 266.106C196.4 264.736 198.093 262.736 199.324 260.104C200.571 257.458 201.194 254.211 201.194 250.364ZM239.055 259.297V238.545H245.979V274H239.193V267.86H238.824C238.008 269.753 236.7 271.33 234.9 272.592C233.115 273.838 230.891 274.462 228.229 274.462C225.952 274.462 223.936 273.962 222.182 272.961C220.443 271.946 219.073 270.445 218.073 268.46C217.088 266.475 216.596 264.021 216.596 261.097V238.545H223.497V260.266C223.497 262.682 224.167 264.605 225.505 266.037C226.844 267.468 228.583 268.183 230.722 268.183C232.015 268.183 233.3 267.86 234.577 267.214C235.869 266.567 236.939 265.59 237.785 264.282C238.647 262.974 239.07 261.312 239.055 259.297ZM270.533 274.716C267.04 274.716 264.032 273.969 261.508 272.477C259 270.969 257.061 268.853 255.691 266.129C254.337 263.39 253.66 260.181 253.66 256.504C253.66 252.872 254.337 249.671 255.691 246.901C257.061 244.131 258.969 241.969 261.416 240.415C263.878 238.861 266.756 238.084 270.049 238.084C272.049 238.084 273.988 238.415 275.865 239.076C277.743 239.738 279.428 240.777 280.92 242.192C282.413 243.608 283.59 245.447 284.452 247.709C285.314 249.956 285.745 252.687 285.745 255.903V258.35H257.561V253.18H278.982C278.982 251.364 278.612 249.756 277.874 248.355C277.135 246.94 276.096 245.824 274.757 245.009C273.434 244.193 271.88 243.785 270.095 243.785C268.156 243.785 266.463 244.262 265.017 245.216C263.586 246.155 262.478 247.386 261.693 248.909C260.923 250.417 260.539 252.056 260.539 253.826V257.865C260.539 260.235 260.954 262.251 261.785 263.913C262.632 265.575 263.809 266.844 265.317 267.722C266.825 268.583 268.587 269.014 270.603 269.014C271.911 269.014 273.103 268.83 274.18 268.46C275.258 268.076 276.189 267.506 276.973 266.752C277.758 265.998 278.358 265.067 278.774 263.959L285.306 265.136C284.783 267.06 283.844 268.745 282.49 270.191C281.151 271.623 279.466 272.738 277.435 273.538C275.419 274.323 273.119 274.716 270.533 274.716ZM319.97 247.201L313.715 248.309C313.453 247.509 313.038 246.747 312.468 246.024C311.914 245.301 311.16 244.708 310.206 244.247C309.252 243.785 308.06 243.554 306.628 243.554C304.674 243.554 303.043 243.993 301.735 244.87C300.427 245.732 299.773 246.847 299.773 248.217C299.773 249.402 300.212 250.356 301.089 251.079C301.966 251.802 303.382 252.395 305.336 252.857L310.968 254.149C314.23 254.903 316.662 256.065 318.262 257.635C319.862 259.204 320.663 261.243 320.663 263.751C320.663 265.875 320.047 267.768 318.816 269.43C317.6 271.076 315.9 272.369 313.715 273.308C311.545 274.246 309.029 274.716 306.167 274.716C302.197 274.716 298.957 273.869 296.449 272.176C293.941 270.468 292.402 268.045 291.833 264.906L298.503 263.89C298.919 265.629 299.773 266.944 301.066 267.837C302.358 268.714 304.043 269.153 306.121 269.153C308.383 269.153 310.191 268.683 311.545 267.745C312.899 266.791 313.576 265.629 313.576 264.259C313.576 263.151 313.161 262.22 312.33 261.466C311.514 260.712 310.26 260.143 308.567 259.758L302.566 258.442C299.257 257.688 296.811 256.488 295.226 254.842C293.656 253.195 292.871 251.11 292.871 248.586C292.871 246.493 293.456 244.662 294.626 243.093C295.795 241.523 297.411 240.3 299.473 239.423C301.535 238.53 303.897 238.084 306.559 238.084C310.391 238.084 313.407 238.915 315.608 240.577C317.808 242.223 319.262 244.431 319.97 247.201ZM344.801 238.545V244.085H325.435V238.545H344.801ZM330.628 230.051H337.53V263.59C337.53 264.929 337.73 265.937 338.13 266.614C338.53 267.275 339.046 267.729 339.677 267.975C340.323 268.206 341.023 268.322 341.777 268.322C342.331 268.322 342.816 268.283 343.231 268.206C343.647 268.129 343.97 268.068 344.201 268.022L345.447 273.723C345.047 273.877 344.478 274.031 343.739 274.185C343.001 274.354 342.077 274.446 340.969 274.462C339.153 274.492 337.461 274.169 335.891 273.492C334.322 272.815 333.052 271.769 332.083 270.353C331.113 268.937 330.628 267.16 330.628 265.021V230.051Z" fill="black"/>
</svg>
