<svg width="500" height="500" viewBox="0 0 500 500" fill="none" xmlns="http://www.w3.org/2000/svg">
<rect width="500" height="500" fill="white"/>
<path d="M183 248H135" stroke="black" stroke-width="5" stroke-linecap="round" stroke-linejoin="round"/>
<path d="M146 221L175 237H146V221Z" stroke="black" stroke-width="5" stroke-linejoin="round"/>
<path d="M146 275V259H175L146 275Z" stroke="black" stroke-width="5" stroke-linejoin="round"/>
<path d="M212.45 268L199.339 220.727H206.841L216.05 257.336H216.489L226.068 220.727H233.501L243.08 257.359H243.518L252.705 220.727H260.23L247.096 268H239.918L229.969 232.592H229.6L219.651 268H212.45ZM273.006 268.785C270.76 268.785 268.728 268.369 266.912 267.538C265.097 266.692 263.658 265.469 262.596 263.868C261.55 262.268 261.026 260.306 261.026 257.982C261.026 255.982 261.411 254.335 262.181 253.043C262.95 251.75 263.989 250.727 265.297 249.973C266.605 249.219 268.067 248.649 269.682 248.265C271.298 247.88 272.945 247.587 274.622 247.387C276.746 247.141 278.469 246.941 279.792 246.787C281.116 246.618 282.078 246.349 282.678 245.979C283.278 245.61 283.578 245.01 283.578 244.179V244.017C283.578 242.002 283.009 240.44 281.87 239.332C280.747 238.224 279.069 237.67 276.838 237.67C274.514 237.67 272.683 238.185 271.344 239.216C270.021 240.232 269.105 241.363 268.597 242.609L262.111 241.132C262.881 238.978 264.004 237.239 265.481 235.915C266.974 234.577 268.69 233.607 270.629 233.007C272.568 232.392 274.607 232.084 276.746 232.084C278.161 232.084 279.662 232.253 281.247 232.592C282.847 232.915 284.34 233.515 285.725 234.392C287.125 235.269 288.271 236.523 289.164 238.154C290.056 239.77 290.503 241.871 290.503 244.456V268H283.763V263.153H283.486C283.039 264.045 282.37 264.922 281.477 265.784C280.585 266.646 279.439 267.361 278.038 267.931C276.638 268.5 274.961 268.785 273.006 268.785ZM274.507 263.245C276.415 263.245 278.046 262.868 279.4 262.114C280.77 261.36 281.808 260.375 282.516 259.159C283.239 257.928 283.601 256.613 283.601 255.212V250.642C283.355 250.888 282.878 251.119 282.17 251.335C281.477 251.535 280.685 251.712 279.792 251.865C278.9 252.004 278.03 252.135 277.184 252.258C276.338 252.366 275.63 252.458 275.061 252.535C273.722 252.704 272.498 252.989 271.39 253.389C270.298 253.789 269.421 254.366 268.759 255.12C268.113 255.859 267.79 256.844 267.79 258.075C267.79 259.783 268.421 261.075 269.682 261.952C270.944 262.814 272.552 263.245 274.507 263.245ZM302.788 281.295C301.757 281.295 300.819 281.211 299.972 281.042C299.126 280.888 298.495 280.718 298.079 280.534L299.741 274.879C301.003 275.217 302.127 275.363 303.111 275.317C304.096 275.271 304.966 274.902 305.72 274.209C306.489 273.517 307.166 272.386 307.751 270.816L308.605 268.462L295.633 232.545H303.019L311.998 260.06H312.367L321.347 232.545H328.756L314.145 272.732C313.468 274.578 312.606 276.14 311.56 277.418C310.513 278.71 309.267 279.68 307.82 280.326C306.374 280.972 304.696 281.295 302.788 281.295ZM361.81 241.201L355.555 242.309C355.293 241.509 354.878 240.747 354.308 240.024C353.754 239.301 353 238.708 352.046 238.247C351.092 237.785 349.899 237.554 348.468 237.554C346.514 237.554 344.883 237.993 343.575 238.87C342.267 239.732 341.613 240.847 341.613 242.217C341.613 243.402 342.051 244.356 342.929 245.079C343.806 245.802 345.221 246.395 347.176 246.857L352.808 248.149C356.07 248.903 358.501 250.065 360.102 251.635C361.702 253.204 362.502 255.243 362.502 257.751C362.502 259.875 361.887 261.768 360.656 263.43C359.44 265.076 357.74 266.369 355.555 267.308C353.385 268.246 350.869 268.716 348.007 268.716C344.036 268.716 340.797 267.869 338.289 266.176C335.781 264.468 334.242 262.045 333.672 258.906L340.343 257.89C340.759 259.629 341.613 260.944 342.905 261.837C344.198 262.714 345.883 263.153 347.96 263.153C350.223 263.153 352.031 262.683 353.385 261.745C354.739 260.791 355.416 259.629 355.416 258.259C355.416 257.151 355.001 256.22 354.17 255.466C353.354 254.712 352.1 254.143 350.407 253.758L344.406 252.442C341.097 251.688 338.651 250.488 337.066 248.842C335.496 247.195 334.711 245.11 334.711 242.586C334.711 240.493 335.296 238.662 336.465 237.093C337.635 235.523 339.251 234.3 341.313 233.423C343.375 232.53 345.737 232.084 348.399 232.084C352.231 232.084 355.247 232.915 357.447 234.577C359.648 236.223 361.102 238.431 361.81 241.201Z" fill="black"/>
</svg>
