<svg width="500" height="500" viewBox="0 0 500 500" fill="none" xmlns="http://www.w3.org/2000/svg">
<rect width="500" height="500" fill="white"/>
<path d="M186.167 221.302V213.083C186.167 192.603 169.564 176 149.083 176C128.603 176 112 192.603 112 213.083V278.835C112 279.386 112.447 279.833 112.998 279.833H185.168C185.72 279.833 186.167 279.386 186.167 278.835V270.616" stroke="black" stroke-width="5"/>
<path d="M137.958 279.833V313.208C137.958 319.353 142.939 324.333 149.083 324.333C155.227 324.333 160.208 319.353 160.208 313.208V279.833" stroke="black" stroke-width="5" stroke-linecap="round" stroke-linejoin="round"/>
<path d="M112 220.5C122.24 230.74 138.843 230.74 149.083 220.5C159.324 210.26 175.926 210.26 186.167 220.5" stroke="black" stroke-width="5" stroke-linecap="round" stroke-linejoin="round"/>
<path d="M206.057 264.55C203.417 264.55 201.144 263.953 199.239 262.757C197.345 261.55 195.889 259.887 194.871 257.768C193.853 255.649 193.344 253.222 193.344 250.488C193.344 247.718 193.865 245.274 194.906 243.155C195.948 241.024 197.416 239.361 199.31 238.165C201.204 236.97 203.435 236.372 206.004 236.372C208.075 236.372 209.922 236.757 211.543 237.526C213.165 238.284 214.473 239.349 215.467 240.722C216.473 242.095 217.071 243.699 217.261 245.534H212.094C211.81 244.256 211.159 243.155 210.141 242.232C209.134 241.308 207.785 240.847 206.092 240.847C204.613 240.847 203.317 241.237 202.204 242.018C201.103 242.788 200.245 243.889 199.629 245.321C199.014 246.741 198.706 248.422 198.706 250.364C198.706 252.352 199.008 254.069 199.612 255.513C200.215 256.957 201.067 258.076 202.168 258.869C203.281 259.662 204.589 260.058 206.092 260.058C207.098 260.058 208.01 259.875 208.827 259.508C209.655 259.129 210.348 258.59 210.904 257.892C211.472 257.194 211.869 256.353 212.094 255.371H217.261C217.071 257.134 216.497 258.709 215.538 260.094C214.58 261.479 213.295 262.568 211.685 263.361C210.087 264.154 208.211 264.55 206.057 264.55ZM234.692 264.55C232.005 264.55 229.691 263.976 227.75 262.828C225.82 261.668 224.329 260.04 223.275 257.945C222.234 255.838 221.713 253.37 221.713 250.541C221.713 247.748 222.234 245.286 223.275 243.155C224.329 241.024 225.797 239.361 227.679 238.165C229.573 236.97 231.786 236.372 234.319 236.372C235.858 236.372 237.35 236.627 238.794 237.136C240.238 237.645 241.534 238.444 242.682 239.533C243.831 240.622 244.736 242.036 245.399 243.776C246.062 245.504 246.393 247.606 246.393 250.08V251.962H224.714V247.984H241.191C241.191 246.588 240.907 245.351 240.339 244.273C239.77 243.184 238.971 242.326 237.942 241.699C236.924 241.071 235.728 240.758 234.355 240.758C232.863 240.758 231.561 241.125 230.449 241.859C229.348 242.581 228.496 243.528 227.892 244.7C227.3 245.86 227.004 247.12 227.004 248.482V251.589C227.004 253.412 227.324 254.962 227.963 256.241C228.614 257.519 229.519 258.496 230.68 259.17C231.84 259.833 233.195 260.165 234.746 260.165C235.752 260.165 236.669 260.023 237.498 259.739C238.326 259.443 239.042 259.005 239.646 258.425C240.25 257.845 240.711 257.129 241.031 256.276L246.056 257.182C245.653 258.661 244.931 259.958 243.89 261.07C242.86 262.171 241.564 263.029 240.001 263.645C238.451 264.249 236.681 264.55 234.692 264.55ZM263.772 264.55C261.132 264.55 258.859 263.953 256.953 262.757C255.06 261.55 253.604 259.887 252.586 257.768C251.568 255.649 251.059 253.222 251.059 250.488C251.059 247.718 251.579 245.274 252.621 243.155C253.663 241.024 255.131 239.361 257.025 238.165C258.918 236.97 261.15 236.372 263.718 236.372C265.79 236.372 267.636 236.757 269.258 237.526C270.88 238.284 272.188 239.349 273.182 240.722C274.188 242.095 274.786 243.699 274.975 245.534H269.809C269.525 244.256 268.873 243.155 267.855 242.232C266.849 241.308 265.5 240.847 263.807 240.847C262.328 240.847 261.031 241.237 259.919 242.018C258.818 242.788 257.96 243.889 257.344 245.321C256.729 246.741 256.421 248.422 256.421 250.364C256.421 252.352 256.723 254.069 257.326 255.513C257.93 256.957 258.782 258.076 259.883 258.869C260.996 259.662 262.304 260.058 263.807 260.058C264.813 260.058 265.725 259.875 266.542 259.508C267.37 259.129 268.063 258.59 268.619 257.892C269.187 257.194 269.584 256.353 269.809 255.371H274.975C274.786 257.134 274.212 258.709 273.253 260.094C272.294 261.479 271.01 262.568 269.4 263.361C267.802 264.154 265.926 264.55 263.772 264.55ZM280.653 264V236.727H285.784V241.06H286.068C286.566 239.592 287.441 238.438 288.696 237.597C289.963 236.745 291.395 236.319 292.993 236.319C293.325 236.319 293.715 236.331 294.165 236.354C294.627 236.378 294.988 236.408 295.248 236.443V241.521C295.035 241.462 294.656 241.397 294.112 241.326C293.567 241.243 293.023 241.202 292.478 241.202C291.223 241.202 290.105 241.468 289.122 242.001C288.152 242.522 287.382 243.25 286.814 244.185C286.246 245.108 285.962 246.161 285.962 247.345V264H280.653ZM310.62 264.55C307.933 264.55 305.619 263.976 303.678 262.828C301.748 261.668 300.257 260.04 299.203 257.945C298.161 255.838 297.641 253.37 297.641 250.541C297.641 247.748 298.161 245.286 299.203 243.155C300.257 241.024 301.724 239.361 303.607 238.165C305.5 236.97 307.714 236.372 310.247 236.372C311.786 236.372 313.277 236.627 314.722 237.136C316.166 237.645 317.462 238.444 318.61 239.533C319.758 240.622 320.664 242.036 321.327 243.776C321.99 245.504 322.321 247.606 322.321 250.08V251.962H300.641V247.984H317.119C317.119 246.588 316.835 245.351 316.266 244.273C315.698 243.184 314.899 242.326 313.869 241.699C312.851 241.071 311.656 240.758 310.283 240.758C308.791 240.758 307.489 241.125 306.376 241.859C305.276 242.581 304.423 243.528 303.82 244.7C303.228 245.86 302.932 247.12 302.932 248.482V251.589C302.932 253.412 303.251 254.962 303.891 256.241C304.542 257.519 305.447 258.496 306.607 259.17C307.767 259.833 309.123 260.165 310.673 260.165C311.679 260.165 312.597 260.023 313.425 259.739C314.254 259.443 314.97 259.005 315.574 258.425C316.178 257.845 316.639 257.129 316.959 256.276L321.984 257.182C321.581 258.661 320.859 259.958 319.817 261.07C318.788 262.171 317.491 263.029 315.929 263.645C314.378 264.249 312.609 264.55 310.62 264.55ZM336.148 264.604C334.42 264.604 332.858 264.284 331.461 263.645C330.064 262.994 328.957 262.053 328.14 260.822C327.336 259.591 326.933 258.081 326.933 256.294C326.933 254.755 327.229 253.489 327.821 252.494C328.413 251.5 329.212 250.713 330.218 250.133C331.224 249.553 332.349 249.115 333.591 248.819C334.834 248.523 336.101 248.298 337.391 248.144C339.025 247.955 340.35 247.801 341.368 247.683C342.386 247.552 343.126 247.345 343.588 247.061C344.05 246.777 344.28 246.315 344.28 245.676V245.552C344.28 244.001 343.842 242.8 342.966 241.947C342.102 241.095 340.812 240.669 339.096 240.669C337.308 240.669 335.9 241.066 334.87 241.859C333.852 242.64 333.148 243.51 332.757 244.469L327.768 243.332C328.359 241.675 329.224 240.338 330.36 239.32C331.508 238.29 332.828 237.544 334.319 237.082C335.811 236.609 337.379 236.372 339.025 236.372C340.114 236.372 341.268 236.502 342.487 236.763C343.718 237.011 344.866 237.473 345.932 238.148C347.009 238.822 347.891 239.787 348.577 241.042C349.264 242.285 349.607 243.901 349.607 245.889V264H344.422V260.271H344.209C343.866 260.958 343.351 261.633 342.665 262.295C341.978 262.958 341.096 263.509 340.019 263.947C338.942 264.385 337.652 264.604 336.148 264.604ZM337.302 260.342C338.77 260.342 340.025 260.052 341.067 259.472C342.12 258.892 342.919 258.135 343.464 257.2C344.02 256.253 344.298 255.241 344.298 254.163V250.648C344.109 250.837 343.742 251.015 343.197 251.18C342.665 251.334 342.055 251.47 341.368 251.589C340.682 251.695 340.013 251.796 339.362 251.891C338.711 251.973 338.166 252.045 337.729 252.104C336.699 252.234 335.758 252.453 334.905 252.761C334.065 253.068 333.39 253.512 332.881 254.092C332.384 254.661 332.135 255.418 332.135 256.365C332.135 257.679 332.621 258.673 333.591 259.348C334.562 260.011 335.799 260.342 337.302 260.342ZM356.678 264V236.727H361.774V241.166H362.112C362.68 239.663 363.609 238.491 364.899 237.651C366.189 236.798 367.734 236.372 369.533 236.372C371.356 236.372 372.883 236.798 374.114 237.651C375.357 238.503 376.275 239.675 376.866 241.166H377.151C377.802 239.71 378.837 238.55 380.258 237.686C381.678 236.81 383.371 236.372 385.336 236.372C387.81 236.372 389.828 237.147 391.391 238.698C392.965 240.249 393.752 242.587 393.752 245.712V264H388.443V246.209C388.443 244.362 387.94 243.025 386.934 242.196C385.928 241.367 384.726 240.953 383.33 240.953C381.601 240.953 380.258 241.486 379.299 242.551C378.34 243.605 377.861 244.96 377.861 246.617V264H372.57V245.871C372.57 244.392 372.108 243.202 371.185 242.303C370.261 241.403 369.06 240.953 367.58 240.953C366.574 240.953 365.645 241.219 364.793 241.752C363.952 242.273 363.272 243.001 362.751 243.936C362.242 244.871 361.987 245.954 361.987 247.185V264H356.678Z" fill="black"/>
<rect x="183" y="227" width="6" height="37" rx="1" fill="black"/>
</svg>
